<?xml version="1.0" encoding="utf-8"?>
<!-- Generator: Adobe Illustrator 23.0.3, SVG Export Plug-In . SVG Version: 6.00 Build 0)  -->
<svg version="1.1" id="Layer_1" xmlns="http://www.w3.org/2000/svg" xmlns:xlink="http://www.w3.org/1999/xlink" x="0px" y="0px"
	 viewBox="0 0 400 225" style="enable-background:new 0 0 400 225;" xml:space="preserve">
<style type="text/css">
	.st0{fill:#5CB1E3;}
	.st1{opacity:0.15;}
	.st2{fill:#231F20;}
	.st3{fill:#FFFFFF;}
	.st4{fill:#B0AFAD;}
	.st5{fill:#79AAD3;}
	.st6{fill:none;}
	.st7{fill:#EF5F5F;}
	.st8{opacity:0.5;fill:#EF5F5F;}
</style>
<title>fill in the blanks</title>
<g>
	<g id="fill_in_the_blanks">
		<g>
			<rect x="134.4" y="26.7" class="st0" width="139.1" height="173.6"/>
			<g>
				<g class="st1">
					<rect x="150.4" y="43.4" class="st2" width="113" height="146.1"/>
				</g>
				<rect x="147.5" y="40.5" class="st3" width="113" height="146.1"/>
			</g>
			<path class="st4" d="M213,99.8h-50.3c-0.6,0-1.1-0.5-1.1-1.2v-4.7c0-0.7,0.5-1.3,1.1-1.4h50.3c0.7,0.1,1.2,0.7,1.1,1.4v4.7
				C214.1,99.3,213.6,99.8,213,99.8z"/>
			<path class="st5" d="M234.9,100.9h-14.2c-1.3,0-2.3-1-2.3-2.3l0,0v-4.9c0-1.3,1-2.3,2.3-2.3l0,0h26.6c1.3,0,2.3,1,2.3,2.3h0
				l0,4.8c0,1.3-1,2.3-2.3,2.3C247.3,100.9,234.9,100.9,234.9,100.9z M220.6,93.8v4.8H248v-4.8L220.6,93.8z"/>
			<path class="st4" d="M162.7,135.6h85.6c0.6,0,1.1,0.5,1.1,1.2v4.9c0,0.6-0.5,1.2-1.1,1.2h-85.6c-0.6,0-1.1-0.5-1.1-1.2v-4.9
				C161.5,136.1,162,135.6,162.7,135.6z"/>
			<path class="st4" d="M163,157.1h27.2c0.8,0,1.5,0.5,1.5,1.2v4.9c0,0.6-0.7,1.2-1.5,1.2H163c-0.8,0-1.5-0.5-1.5-1.2v-4.9
				C161.5,157.6,162.2,157.1,163,157.1z"/>
			<path class="st5" d="M226.9,165.5h-26.9c-1.3,0-2.3-1-2.3-2.3l0,0v-4.9c0-1.3,1-2.3,2.3-2.3l0,0h26.9c1.3,0,2.3,1,2.3,2.3l0,0
				v4.9C229.2,164.4,228.2,165.5,226.9,165.5z M199.9,158.3v4.9h26.9v-4.9H199.9z"/>
			<path class="st4" d="M248,76.1h-27.2c-0.8,0-1.5-0.5-1.5-1.2v-4.9c0-0.6,0.7-1.2,1.5-1.2H248c0.8,0,1.5,0.5,1.5,1.2V75
				C249.5,75.6,248.9,76.1,248,76.1z"/>
			<path class="st5" d="M184.2,67.8h26.9c1.3,0,2.3,1,2.3,2.3l0,0V75c0,1.3-1,2.3-2.3,2.3l0,0h-26.9c-1.3,0-2.3-1-2.3-2.3l0,0v-4.9
				C181.9,68.8,182.9,67.8,184.2,67.8z M211.1,75v-4.9h-26.9V75H211.1z"/>
			<path class="st4" d="M248.4,121.7h-44.3c-0.6,0-1.1-0.5-1.1-1.2v-4.7c0-0.7,0.5-1.3,1.1-1.4h44.3c0.7,0.1,1.2,0.7,1.1,1.4v4.7
				C249.6,121.2,249.1,121.7,248.4,121.7z"/>
		</g>
		<rect y="0" class="st6" width="400" height="225"/>
	</g>
</g>
<g>
	<g class="st1">
		<path d="M92.9,81.5c0-13.9,15.7-25.1,35.2-25.1s35.2,11.2,35.2,25.1c0,7.7-4.8,14.5-12.3,19.1c1,8.3,4,10.1,6.4,12.5
			c0.5,0.4,0.9,0.8,0.8,1.5c-0.2,0.6-0.7,1-1.4,0.9c-1.2-0.1-2.3-0.3-3.4-0.5c-6.4-1.3-12.4-4.4-17.1-9c-2.7,0.5-5.5,0.7-8.3,0.7
			C108.7,106.7,92.9,95.4,92.9,81.5z"/>
	</g>
	<path class="st3" d="M146.5,67.6h-38.7c-3.5,0-6.4,2.9-6.4,6.4v9.7c0,3.5,2.9,6.4,6.4,6.4h38.7c3.5,0,6.4-2.9,6.4-6.4V74
		C152.9,70.4,150,67.6,146.5,67.6z"/>
	<path class="st7" d="M92.4,77.7c0-14.1,16-25.5,35.7-25.5s35.7,11.4,35.7,25.5c0,7.8-4.9,14.7-12.5,19.4c1,8.4,4,10.3,6.5,12.6
		c0.5,0.4,1,0.8,0.8,1.5c-0.2,0.6-0.8,1-1.4,0.9c-1.2-0.1-2.3-0.3-3.4-0.5c-6.5-1.3-12.6-4.5-17.3-9.1c-2.8,0.5-5.6,0.7-8.4,0.7
		C108.4,103.2,92.4,91.8,92.4,77.7z M143.3,72.6c-2.8,0-5.1,2.3-5,5.1c0,2.8,2.3,5.1,5.1,5.1c2.8,0,5.1-2.3,5.1-5.1
		S146.3,72.6,143.3,72.6C143.4,72.6,143.4,72.6,143.3,72.6z M128,72.6c-2.8,0-5.1,2.3-5,5.1c0,2.8,2.3,5.1,5.1,5.1
		c2.8,0,5.1-2.3,5.1-5.1S131,72.6,128,72.6C128.1,72.6,128.1,72.6,128,72.6z M112.7,72.6c-2.8,0-5.1,2.3-5,5.1
		c0,2.8,2.3,5.1,5.1,5.1s5.1-2.3,5.1-5.1S115.6,72.6,112.7,72.6C112.8,72.6,112.8,72.6,112.7,72.6z"/>
</g>
<g>
	<path class="st8" d="M192.5,107.3h-32.4c-3,0-5.3,2.6-5.3,5.8v9.2c0,3.2,2.4,5.8,5.3,5.8h32.4c3,0,5.3-2.6,5.3-5.8v-9.2
		C197.9,109.9,195.5,107.3,192.5,107.3z M190.4,121.8h-27.8v-7.3h27.8V121.8z"/>
</g>
<path class="st7" d="M188.9,122.5h-25.1c-1.3,0-2.3-1-2.3-2.3l0,0v-4.7c0-1.3,1-2.4,2.3-2.5h25.1c1.3,0.1,2.3,1.2,2.3,2.5v4.7
	C191.2,121.4,190.2,122.5,188.9,122.5z M163.9,115.3c0,0.1-0.1,0.1-0.1,0.2v4.7h25.1v-4.6c0-0.1,0-0.1-0.1-0.2L163.9,115.3z"/>
</svg>
