<svg width="174" height="174" viewBox="0 0 174 174" fill="none" xmlns="http://www.w3.org/2000/svg">
<path d="M4.76324 153.67H169.237" stroke="#15376D" stroke-linecap="round" stroke-linejoin="round"/>
<path d="M78.0855 63.669V109.18H25.4376V153.67H144.401V63.669H78.0855Z" stroke="#15376D" stroke-linecap="round" stroke-linejoin="round"/>
<path d="M78.0691 63.669H53.8586V109.179H78.0691V63.669Z" stroke="#15376D" stroke-linecap="round" stroke-linejoin="round"/>
<path d="M47.0329 109.18V153.67" stroke="#15376D" stroke-linecap="round" stroke-linejoin="round"/>
<path d="M147.411 58.933H81.0789V63.6699H147.411V58.933Z" fill="#F2F7F8"/>
<path d="M147.411 58.933H81.0789V63.6699H147.411V58.933Z" stroke="#15376D" stroke-linecap="round" stroke-linejoin="round"/>
<path d="M143.48 50.3969H77.148V58.9495H143.48V50.3969Z" fill="#F2F7F8"/>
<path d="M143.48 50.3969H77.148V58.9495H143.48V50.3969Z" stroke="#15376D" stroke-linecap="round" stroke-linejoin="round"/>
<path d="M77.148 58.9322V50.3969H54.7796V58.9322H50.8652V63.6699H81.0954V58.9322H77.148Z" fill="#F2F7F8"/>
<path d="M77.148 58.9322V50.3969H54.7796V58.9322H50.8652V63.6699H81.0954V58.9322H77.148Z" stroke="#15376D" stroke-linecap="round" stroke-linejoin="round"/>
<path d="M78.0855 96.8268H44.9441V104.426H78.0855V96.8268Z" fill="#F2F7F8"/>
<path d="M78.0855 96.8268H44.9441V104.426H78.0855V96.8268Z" stroke="#15376D" stroke-linecap="round" stroke-linejoin="round"/>
<path d="M44.9441 104.426V96.8268H27.5922V104.426H22.4442V109.162H50.0264V104.426H44.9441Z" fill="#F2F7F8"/>
<path d="M44.9441 104.426V96.8268H27.5922V104.426H22.4442V109.162H50.0264V104.426H44.9441Z" stroke="#15376D" stroke-linecap="round" stroke-linejoin="round"/>
<path d="M147.411 104.426H50.0264V109.163H147.411V104.426Z" fill="#F2F7F8"/>
<path d="M147.411 104.426H50.0264V109.163H147.411V104.426Z" stroke="#15376D" stroke-linecap="round" stroke-linejoin="round"/>
<path d="M81.0954 81.6788H50.8652V86.4157H81.0954V81.6788Z" fill="#F2F7F8"/>
<path d="M81.0954 81.6788H50.8652V86.4157H81.0954V81.6788Z" stroke="#15376D" stroke-linecap="round" stroke-linejoin="round"/>
<path d="M147.411 81.6788H81.0789V86.4157H147.411V81.6788Z" fill="#F2F7F8"/>
<path d="M147.411 81.6788H81.0789V86.4157H147.411V81.6788Z" stroke="#15376D" stroke-linecap="round" stroke-linejoin="round"/>
<path d="M50.0264 127.156H22.4442V131.893H50.0264V127.156Z" fill="#F2F7F8"/>
<path d="M50.0264 127.156H22.4442V131.893H50.0264V127.156Z" stroke="#15376D" stroke-linecap="round" stroke-linejoin="round"/>
<path d="M147.411 127.156H50.0264V131.893H147.411V127.156Z" fill="#F2F7F8"/>
<path d="M147.411 127.156H50.0264V131.893H147.411V127.156Z" stroke="#15376D" stroke-linecap="round" stroke-linejoin="round"/>
<path d="M87.2467 139.458H84.5822V153.669H87.2467V139.458Z" stroke="#15376D" stroke-linecap="round" stroke-linejoin="round"/>
<path d="M106.868 139.458H104.204V153.669H106.868V139.458Z" stroke="#15376D" stroke-linecap="round" stroke-linejoin="round"/>
<path d="M104.187 139.458H87.2467V153.669H104.187V139.458Z" stroke="#15376D" stroke-linecap="round" stroke-linejoin="round"/>
<path d="M109.632 136.169H81.8026V139.458H109.632V136.169Z" fill="#F2F7F8"/>
<path d="M109.632 136.169H81.8026V139.458H109.632V136.169Z" stroke="#15376D" stroke-linecap="round" stroke-linejoin="round"/>
<path d="M95.7336 139.458V153.67" stroke="#15376D" stroke-linecap="round" stroke-linejoin="round"/>
<path d="M97.0493 145.593V147.518" stroke="#15376D" stroke-linecap="round" stroke-linejoin="round"/>
<path d="M94.4013 145.593V147.518" stroke="#15376D" stroke-linecap="round" stroke-linejoin="round"/>
<path d="M88.7599 67.9626H82.4276V77.4034H88.7599V67.9626Z" stroke="#15376D" stroke-linecap="round" stroke-linejoin="round"/>
<path d="M85.5855 67.9947V77.4025" stroke="#15376D" stroke-linecap="round" stroke-linejoin="round"/>
<path d="M88.7599 72.6821H82.4276" stroke="#15376D" stroke-linecap="round" stroke-linejoin="round"/>
<path d="M140.109 67.9626H133.776V77.4034H140.109V67.9626Z" stroke="#15376D" stroke-linecap="round" stroke-linejoin="round"/>
<path d="M136.951 67.9947V77.4025" stroke="#15376D" stroke-linecap="round" stroke-linejoin="round"/>
<path d="M140.109 72.6821H133.776" stroke="#15376D" stroke-linecap="round" stroke-linejoin="round"/>
<path d="M129.845 67.9626H123.513V77.4034H129.845V67.9626Z" stroke="#15376D" stroke-linecap="round" stroke-linejoin="round"/>
<path d="M126.671 67.9947V77.4025" stroke="#15376D" stroke-linecap="round" stroke-linejoin="round"/>
<path d="M129.845 72.6821H123.513" stroke="#15376D" stroke-linecap="round" stroke-linejoin="round"/>
<path d="M119.566 67.9626H113.234V77.4034H119.566V67.9626Z" stroke="#15376D" stroke-linecap="round" stroke-linejoin="round"/>
<path d="M116.408 67.9947V77.4025" stroke="#15376D" stroke-linecap="round" stroke-linejoin="round"/>
<path d="M119.566 72.6821H113.234" stroke="#15376D" stroke-linecap="round" stroke-linejoin="round"/>
<path d="M109.303 67.9626H102.97V77.4034H109.303V67.9626Z" stroke="#15376D" stroke-linecap="round" stroke-linejoin="round"/>
<path d="M106.128 67.9947V77.4025" stroke="#15376D" stroke-linecap="round" stroke-linejoin="round"/>
<path d="M109.303 72.6821H102.97" stroke="#15376D" stroke-linecap="round" stroke-linejoin="round"/>
<path d="M99.023 67.9626H92.6908V77.4034H99.023V67.9626Z" stroke="#15376D" stroke-linecap="round" stroke-linejoin="round"/>
<path d="M95.8651 67.9947V77.4025" stroke="#15376D" stroke-linecap="round" stroke-linejoin="round"/>
<path d="M99.023 72.6821H92.6908" stroke="#15376D" stroke-linecap="round" stroke-linejoin="round"/>
<path d="M88.7105 90.7093H82.3783V100.15H88.7105V90.7093Z" stroke="#15376D" stroke-linecap="round" stroke-linejoin="round"/>
<path d="M85.5362 90.7093V100.149" stroke="#15376D" stroke-linecap="round" stroke-linejoin="round"/>
<path d="M88.7105 95.4288H82.3783" stroke="#15376D" stroke-linecap="round" stroke-linejoin="round"/>
<path d="M140.109 90.7093H133.776V100.15H140.109V90.7093Z" stroke="#15376D" stroke-linecap="round" stroke-linejoin="round"/>
<path d="M136.951 90.7093V100.149" stroke="#15376D" stroke-linecap="round" stroke-linejoin="round"/>
<path d="M140.109 95.4288H133.776" stroke="#15376D" stroke-linecap="round" stroke-linejoin="round"/>
<path d="M129.829 90.7093H123.497V100.15H129.829V90.7093Z" stroke="#15376D" stroke-linecap="round" stroke-linejoin="round"/>
<path d="M126.671 90.7093V100.149" stroke="#15376D" stroke-linecap="round" stroke-linejoin="round"/>
<path d="M129.829 95.4288H123.497" stroke="#15376D" stroke-linecap="round" stroke-linejoin="round"/>
<path d="M119.549 90.7093H113.217V100.15H119.549V90.7093Z" stroke="#15376D" stroke-linecap="round" stroke-linejoin="round"/>
<path d="M116.391 90.7093V100.149" stroke="#15376D" stroke-linecap="round" stroke-linejoin="round"/>
<path d="M119.549 95.4288H113.217" stroke="#15376D" stroke-linecap="round" stroke-linejoin="round"/>
<path d="M109.27 90.7093H102.938V100.15H109.27V90.7093Z" stroke="#15376D" stroke-linecap="round" stroke-linejoin="round"/>
<path d="M106.095 90.7093V100.149" stroke="#15376D" stroke-linecap="round" stroke-linejoin="round"/>
<path d="M109.27 95.4288H102.938" stroke="#15376D" stroke-linecap="round" stroke-linejoin="round"/>
<path d="M98.9901 90.7093H92.6579V100.15H98.9901V90.7093Z" stroke="#15376D" stroke-linecap="round" stroke-linejoin="round"/>
<path d="M95.8158 90.7093V100.149" stroke="#15376D" stroke-linecap="round" stroke-linejoin="round"/>
<path d="M98.9901 95.4288H92.6579" stroke="#15376D" stroke-linecap="round" stroke-linejoin="round"/>
<path d="M88.5789 113.439H82.2467V122.879H88.5789V113.439Z" stroke="#15376D" stroke-linecap="round" stroke-linejoin="round"/>
<path d="M85.4211 113.439V122.879" stroke="#15376D" stroke-linecap="round" stroke-linejoin="round"/>
<path d="M88.5954 118.159H82.2467" stroke="#15376D" stroke-linecap="round" stroke-linejoin="round"/>
<path d="M78.2829 113.439H71.9507V122.879H78.2829V113.439Z" stroke="#15376D" stroke-linecap="round" stroke-linejoin="round"/>
<path d="M75.1086 113.439V122.879" stroke="#15376D" stroke-linecap="round" stroke-linejoin="round"/>
<path d="M78.2829 118.159H71.9507" stroke="#15376D" stroke-linecap="round" stroke-linejoin="round"/>
<path d="M67.9704 113.439H61.6382V122.879H67.9704V113.439Z" stroke="#15376D" stroke-linecap="round" stroke-linejoin="round"/>
<path d="M64.8125 113.439V122.879" stroke="#15376D" stroke-linecap="round" stroke-linejoin="round"/>
<path d="M67.9704 118.159H61.6382" stroke="#15376D" stroke-linecap="round" stroke-linejoin="round"/>
<path d="M57.6744 113.439H51.3422V122.879H57.6744V113.439Z" stroke="#15376D" stroke-linecap="round" stroke-linejoin="round"/>
<path d="M54.5 113.439V122.879" stroke="#15376D" stroke-linecap="round" stroke-linejoin="round"/>
<path d="M57.6744 118.159H51.3422" stroke="#15376D" stroke-linecap="round" stroke-linejoin="round"/>
<path d="M140.109 113.439H133.776V122.879H140.109V113.439Z" stroke="#15376D" stroke-linecap="round" stroke-linejoin="round"/>
<path d="M136.951 113.439V122.879" stroke="#15376D" stroke-linecap="round" stroke-linejoin="round"/>
<path d="M140.109 118.159H133.776" stroke="#15376D" stroke-linecap="round" stroke-linejoin="round"/>
<path d="M129.812 113.439H123.48V122.879H129.812V113.439Z" stroke="#15376D" stroke-linecap="round" stroke-linejoin="round"/>
<path d="M126.638 113.439V122.879" stroke="#15376D" stroke-linecap="round" stroke-linejoin="round"/>
<path d="M129.812 118.159H123.48" stroke="#15376D" stroke-linecap="round" stroke-linejoin="round"/>
<path d="M119.5 113.439H113.168V122.879H119.5V113.439Z" stroke="#15376D" stroke-linecap="round" stroke-linejoin="round"/>
<path d="M116.342 113.439V122.879" stroke="#15376D" stroke-linecap="round" stroke-linejoin="round"/>
<path d="M119.5 118.159H113.168" stroke="#15376D" stroke-linecap="round" stroke-linejoin="round"/>
<path d="M109.204 113.439H102.872V122.879H109.204V113.439Z" stroke="#15376D" stroke-linecap="round" stroke-linejoin="round"/>
<path d="M106.03 113.439V122.879" stroke="#15376D" stroke-linecap="round" stroke-linejoin="round"/>
<path d="M109.204 118.159H102.872" stroke="#15376D" stroke-linecap="round" stroke-linejoin="round"/>
<path d="M98.8914 113.439H92.5592V122.879H98.8914V113.439Z" stroke="#15376D" stroke-linecap="round" stroke-linejoin="round"/>
<path d="M95.7336 113.439V122.879" stroke="#15376D" stroke-linecap="round" stroke-linejoin="round"/>
<path d="M98.8914 118.159H92.5592" stroke="#15376D" stroke-linecap="round" stroke-linejoin="round"/>
<path d="M78.2829 138.307H71.9507V147.748H78.2829V138.307Z" stroke="#15376D" stroke-linecap="round" stroke-linejoin="round"/>
<path d="M75.1086 138.307V147.749" stroke="#15376D" stroke-linecap="round" stroke-linejoin="round"/>
<path d="M78.2829 143.027H71.9507" stroke="#15376D" stroke-linecap="round" stroke-linejoin="round"/>
<path d="M67.9704 138.307H61.6382V147.748H67.9704V138.307Z" stroke="#15376D" stroke-linecap="round" stroke-linejoin="round"/>
<path d="M64.8125 138.307V147.749" stroke="#15376D" stroke-linecap="round" stroke-linejoin="round"/>
<path d="M67.9704 143.027H61.6382" stroke="#15376D" stroke-linecap="round" stroke-linejoin="round"/>
<path d="M57.6744 138.307H51.3422V147.748H57.6744V138.307Z" stroke="#15376D" stroke-linecap="round" stroke-linejoin="round"/>
<path d="M54.5 138.307V147.749" stroke="#15376D" stroke-linecap="round" stroke-linejoin="round"/>
<path d="M57.6744 143.027H51.3422" stroke="#15376D" stroke-linecap="round" stroke-linejoin="round"/>
<path d="M140.109 138.307H133.776V147.748H140.109V138.307Z" stroke="#15376D" stroke-linecap="round" stroke-linejoin="round"/>
<path d="M136.951 138.307V147.749" stroke="#15376D" stroke-linecap="round" stroke-linejoin="round"/>
<path d="M140.109 143.027H133.776" stroke="#15376D" stroke-linecap="round" stroke-linejoin="round"/>
<path d="M129.812 138.307H123.48V147.748H129.812V138.307Z" stroke="#15376D" stroke-linecap="round" stroke-linejoin="round"/>
<path d="M126.638 138.307V147.749" stroke="#15376D" stroke-linecap="round" stroke-linejoin="round"/>
<path d="M129.812 143.027H123.48" stroke="#15376D" stroke-linecap="round" stroke-linejoin="round"/>
<path d="M119.5 138.307H113.168V147.748H119.5V138.307Z" stroke="#15376D" stroke-linecap="round" stroke-linejoin="round"/>
<path d="M116.342 138.307V147.749" stroke="#15376D" stroke-linecap="round" stroke-linejoin="round"/>
<path d="M119.5 143.027H113.168" stroke="#15376D" stroke-linecap="round" stroke-linejoin="round"/>
<path d="M64.1217 67.9626H58.1678V77.4034H64.1217V67.9626Z" stroke="#15376D" stroke-linecap="round" stroke-linejoin="round"/>
<path d="M61.1448 67.9947V77.4025" stroke="#15376D" stroke-linecap="round" stroke-linejoin="round"/>
<path d="M64.1217 72.6821H58.1678" stroke="#15376D" stroke-linecap="round" stroke-linejoin="round"/>
<path d="M73.7763 67.9626H67.8224V77.4034H73.7763V67.9626Z" stroke="#15376D" stroke-linecap="round" stroke-linejoin="round"/>
<path d="M70.7994 67.9947V77.4025" stroke="#15376D" stroke-linecap="round" stroke-linejoin="round"/>
<path d="M73.7599 72.6821H67.8224" stroke="#15376D" stroke-linecap="round" stroke-linejoin="round"/>
<path d="M64.1217 90.7093H58.1678V96.8277H64.1217V90.7093Z" stroke="#15376D" stroke-linecap="round" stroke-linejoin="round"/>
<path d="M61.1448 90.7249V96.8269" stroke="#15376D" stroke-linecap="round" stroke-linejoin="round"/>
<path d="M64.1217 93.7521H58.1678" stroke="#15376D" stroke-linecap="round" stroke-linejoin="round"/>
<path d="M73.7763 90.7093H67.8224V96.8113H73.7763V90.7093Z" stroke="#15376D" stroke-linecap="round" stroke-linejoin="round"/>
<path d="M70.7994 90.7249V96.8104" stroke="#15376D" stroke-linecap="round" stroke-linejoin="round"/>
<path d="M73.7599 93.7521H67.8224" stroke="#15376D" stroke-linecap="round" stroke-linejoin="round"/>
<path d="M34.2204 113.439H28.2665V122.879H34.2204V113.439Z" stroke="#15376D" stroke-linecap="round" stroke-linejoin="round"/>
<path d="M31.2271 113.456V122.879" stroke="#15376D" stroke-linecap="round" stroke-linejoin="round"/>
<path d="M34.204 118.159H28.2665" stroke="#15376D" stroke-linecap="round" stroke-linejoin="round"/>
<path d="M43.8586 113.439H37.9047V122.879H43.8586V113.439Z" stroke="#15376D" stroke-linecap="round" stroke-linejoin="round"/>
<path d="M40.8816 113.456V122.879" stroke="#15376D" stroke-linecap="round" stroke-linejoin="round"/>
<path d="M43.8586 118.159H37.9047" stroke="#15376D" stroke-linecap="round" stroke-linejoin="round"/>
<path d="M34.2204 138.307H28.2665V147.748H34.2204V138.307Z" stroke="#15376D" stroke-linecap="round" stroke-linejoin="round"/>
<path d="M31.2271 138.324V147.749" stroke="#15376D" stroke-linecap="round" stroke-linejoin="round"/>
<path d="M34.204 143.027H28.2665" stroke="#15376D" stroke-linecap="round" stroke-linejoin="round"/>
<path d="M43.8586 138.307H37.9047V147.748H43.8586V138.307Z" stroke="#15376D" stroke-linecap="round" stroke-linejoin="round"/>
<path d="M40.8816 138.324V147.749" stroke="#15376D" stroke-linecap="round" stroke-linejoin="round"/>
<path d="M43.8586 143.027H37.9047" stroke="#15376D" stroke-linecap="round" stroke-linejoin="round"/>
<path d="M40.8816 78.1262H18.8941C18.8941 78.1262 23.0224 74.3927 26.0651 76.2685C26.3245 75.8394 26.6695 75.4685 27.0788 75.1789C27.488 74.8892 27.9526 74.6871 28.4434 74.5851C28.9343 74.4831 29.4409 74.4836 29.9317 74.5863C30.4224 74.689 30.8866 74.8919 31.2954 75.1821C31.928 74.258 32.8395 73.5601 33.8967 73.1905C34.9539 72.8208 36.1016 72.7987 37.1722 73.1274C38.2429 73.456 39.1805 74.1182 39.8483 75.0172C40.516 75.9164 40.879 77.0054 40.8842 78.1254L40.8816 78.1262Z" stroke="#15376D" stroke-linecap="round" stroke-linejoin="round"/>
<path d="M31.2928 75.1657C31.6341 75.4302 31.9432 75.7338 32.2139 76.0703" stroke="#15376D" stroke-linecap="round" stroke-linejoin="round"/>
<path d="M26.0626 76.2512C26.2517 76.3772 26.4329 76.5145 26.6053 76.6624" stroke="#15376D" stroke-linecap="round" stroke-linejoin="round"/>
<path d="M159.78 41.0045H129.039C129.039 41.0045 134.812 35.7907 139.056 38.4076C139.417 37.8074 139.898 37.2881 140.469 36.8823C141.039 36.4765 141.688 36.193 142.373 36.0494C143.059 35.9058 143.767 35.9053 144.452 36.0478C145.138 36.1904 145.787 36.473 146.358 36.878C147.244 35.5833 148.52 34.6058 150 34.0883C151.481 33.5708 153.088 33.5404 154.587 34.0016C156.087 34.4628 157.399 35.3915 158.332 36.6517C159.265 37.912 159.772 39.4379 159.776 41.0063L159.78 41.0045Z" stroke="#15376D" stroke-linecap="round" stroke-linejoin="round"/>
<path d="M146.358 36.8598C146.834 37.2304 147.265 37.6554 147.641 38.1262" stroke="#15376D" stroke-linecap="round" stroke-linejoin="round"/>
<path d="M139.056 38.3903C139.326 38.5645 139.585 38.7568 139.829 38.9659" stroke="#15376D" stroke-linecap="round" stroke-linejoin="round"/>
<path d="M158.33 153.077C158.336 153.269 158.324 153.462 158.297 153.652H121.193C122.654 151.907 124.707 150.763 126.959 150.438C129.212 150.114 131.505 150.632 133.399 151.893C133.501 150.664 134.022 149.507 134.876 148.616C135.729 147.724 136.863 147.154 138.087 147C139.311 146.846 140.552 147.118 141.599 147.769C142.647 148.42 143.44 149.412 143.843 150.578C144.431 148.919 145.586 147.522 147.105 146.632C148.623 145.743 150.407 145.419 152.142 145.719C153.876 146.017 155.449 146.92 156.581 148.267C157.714 149.613 158.335 151.317 158.333 153.077H158.33Z" fill="#F2F7F8"/>
<path d="M158.33 153.077C158.336 153.269 158.324 153.462 158.297 153.652H121.193C122.654 151.907 124.707 150.763 126.959 150.438C129.212 150.114 131.505 150.632 133.399 151.893C133.501 150.664 134.022 149.507 134.876 148.616C135.729 147.724 136.863 147.154 138.087 147C139.311 146.846 140.552 147.118 141.599 147.769C142.647 148.42 143.44 149.412 143.843 150.578C144.431 148.919 145.586 147.522 147.105 146.632C148.623 145.743 150.407 145.419 152.142 145.719C153.876 146.017 155.449 146.92 156.581 148.267C157.714 149.613 158.335 151.317 158.333 153.077H158.33Z" stroke="#15376D" stroke-linecap="round" stroke-linejoin="round"/>
<path d="M143.842 150.593C143.705 151.018 143.595 151.452 143.513 151.892" stroke="#15376D" stroke-linecap="round" stroke-linejoin="round"/>
<path d="M133.399 151.909C133.379 152.177 133.379 152.447 133.399 152.716" stroke="#15376D" stroke-linecap="round" stroke-linejoin="round"/>
<path d="M64.8125 153.67H45.6349C45.3681 153.117 45.2128 152.517 45.1779 151.904C45.1431 151.291 45.2292 150.677 45.4315 150.097C45.6339 149.518 45.9484 148.984 46.3571 148.525C46.7658 148.067 47.2608 147.694 47.8138 147.428C48.3666 147.161 48.9667 147.005 49.5797 146.97C50.1926 146.936 50.8065 147.022 51.3861 147.224C51.9658 147.427 52.4999 147.741 52.958 148.15C53.4161 148.558 53.7892 149.053 54.056 149.606C54.8166 149.412 55.6226 149.51 56.3141 149.883C57.0056 150.254 57.5322 150.872 57.7895 151.614C59.019 151.104 60.386 151.03 61.6635 151.403C62.9411 151.777 64.0522 152.577 64.8125 153.67Z" fill="#F2F7F8"/>
<path d="M64.8125 153.67H45.6349C45.3681 153.117 45.2128 152.517 45.1779 151.904C45.1431 151.291 45.2292 150.677 45.4315 150.097C45.6339 149.518 45.9484 148.984 46.3571 148.525C46.7658 148.067 47.2608 147.694 47.8138 147.428C48.3666 147.161 48.9667 147.005 49.5797 146.97C50.1926 146.936 50.8065 147.022 51.3861 147.224C51.9658 147.427 52.4999 147.741 52.958 148.15C53.4161 148.558 53.7892 149.053 54.056 149.606C54.8166 149.412 55.6226 149.51 56.3141 149.883C57.0056 150.254 57.5322 150.872 57.7895 151.614C59.019 151.104 60.386 151.03 61.6635 151.403C62.9411 151.777 64.0522 152.577 64.8125 153.67Z" stroke="#15376D" stroke-linecap="round" stroke-linejoin="round"/>
<path d="M54.056 149.623C54.197 149.993 54.291 150.38 54.3356 150.774" stroke="#15376D" stroke-linecap="round" stroke-linejoin="round"/>
<path d="M57.806 151.629C57.5202 151.761 57.2453 151.915 56.9836 152.09" stroke="#15376D" stroke-linecap="round" stroke-linejoin="round"/>
<path d="M10.4376 130.527C10.4216 131.724 10.7366 132.902 11.3478 133.93C11.959 134.959 12.8425 135.799 13.901 136.357C14.9595 136.915 16.1516 137.17 17.3457 137.093C18.5398 137.016 19.6896 136.611 20.6678 135.922C21.2959 136.418 22.0471 136.734 22.841 136.836C23.6348 136.938 24.4415 136.823 25.1747 136.502C25.9079 136.181 26.5401 135.667 27.0036 135.014C27.4671 134.361 27.7444 133.595 27.806 132.797C28.42 132.942 29.062 132.913 29.6611 132.716C30.26 132.518 30.7926 132.158 31.1996 131.676C31.6065 131.194 31.8722 130.609 31.9671 129.986C32.0619 129.361 31.9822 128.723 31.7369 128.143C32.6393 127.578 33.3221 126.722 33.672 125.717C34.0219 124.711 34.0183 123.616 33.6615 122.614C33.3048 121.61 32.6163 120.759 31.7101 120.2C30.8038 119.642 29.734 119.41 28.6777 119.541C29 118.29 28.8229 116.961 28.1837 115.837C27.5445 114.714 26.4936 113.883 25.2527 113.519C24.0119 113.156 22.6786 113.29 21.5345 113.892C20.3904 114.494 19.5253 115.517 19.1218 116.745C18.6084 116.011 17.865 115.469 17.0092 115.205C16.1535 114.941 15.2341 114.97 14.3964 115.287C13.5587 115.604 12.8505 116.191 12.3838 116.955C11.9171 117.719 11.7184 118.618 11.8192 119.508C10.4944 119.572 9.23467 120.102 8.2616 121.003C7.28855 121.905 6.66445 123.12 6.49904 124.436C6.33363 125.752 6.63751 127.084 7.35723 128.198C8.07696 129.312 9.16645 130.137 10.4341 130.527H10.4376Z" fill="#F2F7F8"/>
<path d="M10.4376 130.527C10.4216 131.724 10.7366 132.902 11.3478 133.93C11.959 134.959 12.8425 135.799 13.901 136.357C14.9595 136.915 16.1516 137.17 17.3457 137.093C18.5398 137.016 19.6896 136.611 20.6678 135.922C21.2959 136.418 22.0471 136.734 22.841 136.836C23.6348 136.938 24.4415 136.823 25.1747 136.502C25.908 136.181 26.5401 135.667 27.0036 135.014C27.4671 134.361 27.7444 133.595 27.806 132.797C28.42 132.942 29.062 132.913 29.6611 132.716C30.26 132.518 30.7926 132.158 31.1996 131.676C31.6065 131.194 31.8722 130.609 31.9671 129.986C32.0619 129.361 31.9822 128.723 31.7369 128.143C32.6393 127.578 33.3221 126.722 33.672 125.717C34.0219 124.711 34.0183 123.616 33.6615 122.614C33.3048 121.61 32.6163 120.759 31.7101 120.2C30.8038 119.642 29.734 119.41 28.6777 119.541C29 118.29 28.8229 116.961 28.1837 115.837C27.5445 114.714 26.4936 113.883 25.2527 113.519C24.0119 113.156 22.6786 113.29 21.5345 113.892C20.3904 114.494 19.5253 115.517 19.1218 116.745C18.6084 116.011 17.865 115.469 17.0092 115.205C16.1535 114.941 15.2341 114.97 14.3964 115.287C13.5587 115.604 12.8505 116.191 12.3838 116.955C11.9171 117.719 11.7184 118.618 11.8192 119.508C10.4944 119.572 9.23467 120.102 8.2616 121.003C7.28855 121.905 6.66445 123.12 6.49904 124.436C6.33363 125.752 6.63751 127.084 7.35723 128.198C8.07696 129.312 9.16645 130.137 10.4341 130.527H10.4376Z" stroke="#15376D" stroke-linecap="round" stroke-linejoin="round"/>
<path d="M27.8224 121.28C28.2205 120.755 28.5111 120.157 28.6777 119.52" stroke="#15376D" stroke-linecap="round" stroke-linejoin="round"/>
<path d="M19.8255 119.029C19.8303 118.226 19.5886 117.44 19.133 116.778" stroke="#15376D" stroke-linecap="round" stroke-linejoin="round"/>
<path d="M13.3652 119.624C12.8588 119.505 12.3388 119.455 11.8192 119.475" stroke="#15376D" stroke-linecap="round" stroke-linejoin="round"/>
<path d="M31.7369 128.127C31.5355 127.647 31.226 127.218 30.8323 126.877" stroke="#15376D" stroke-linecap="round" stroke-linejoin="round"/>
<path d="M27.806 132.797C27.8558 132.208 27.783 131.615 27.5922 131.055" stroke="#15376D" stroke-linecap="round" stroke-linejoin="round"/>
<path d="M10.5856 129.244C10.4859 129.697 10.4363 130.16 10.4376 130.624" stroke="#15376D" stroke-linecap="round" stroke-linejoin="round"/>
<path d="M26.5395 123.949C26.7495 123.587 26.829 123.164 26.7649 122.751C26.7008 122.338 26.4969 121.959 26.1874 121.679C25.8778 121.397 25.4812 121.231 25.0639 121.208C24.6464 121.184 24.2336 121.304 23.8941 121.548" stroke="#15376D" stroke-linecap="round" stroke-linejoin="round"/>
<path d="M27.7895 124.64C27.9143 124.459 27.9875 124.248 28.0011 124.029C28.0147 123.81 27.9682 123.591 27.8666 123.397C27.7651 123.202 27.6123 123.039 27.4248 122.924C27.2373 122.81 27.0222 122.75 26.8027 122.749" stroke="#15376D" stroke-linecap="round" stroke-linejoin="round"/>
<path d="M19.056 129.986C18.997 130.487 19.0878 130.993 19.3169 131.442C19.5459 131.892 19.9031 132.263 20.3431 132.51C20.7831 132.757 21.2862 132.866 21.789 132.827C22.2918 132.788 22.7716 132.6 23.1678 132.288" stroke="#15376D" stroke-linecap="round" stroke-linejoin="round"/>
<path d="M17.1974 130.808C17.3859 131.217 17.7284 131.534 18.15 131.691C18.5718 131.848 19.0383 131.832 19.4481 131.646" stroke="#15376D" stroke-linecap="round" stroke-linejoin="round"/>
<path d="M17.5749 153.538H22.1308L21.588 132.83C21.161 132.827 20.7416 132.718 20.368 132.511C19.9944 132.304 19.6788 132.006 19.4499 131.646C19.2473 131.74 19.0275 131.792 18.8041 131.797C18.5807 131.803 18.3584 131.763 18.1514 131.679L17.954 141.35C16.8809 140.271 15.7078 139.296 14.4507 138.439L14.1045 138.866C14.1045 138.866 17.9038 142.929 17.8709 144.147L17.5749 153.538Z" fill="#F2F7F8"/>
<path d="M17.5749 153.538H22.1308L21.588 132.83C21.161 132.827 20.7416 132.718 20.368 132.511C19.9944 132.304 19.6788 132.006 19.4499 131.646C19.2473 131.74 19.0275 131.792 18.8041 131.797C18.5807 131.803 18.3584 131.763 18.1514 131.679L17.954 141.35C16.8809 140.271 15.7078 139.296 14.4507 138.439L14.1045 138.866C14.1045 138.866 17.9038 142.929 17.8709 144.147L17.5749 153.538Z" stroke="#15376D" stroke-linecap="round" stroke-linejoin="round"/>
<path d="M54.1763 24.4905H52.1238" stroke="#15376D" stroke-linecap="round" stroke-linejoin="round"/>
<path d="M56.3404 22.3264V20.274" stroke="#15376D" stroke-linecap="round" stroke-linejoin="round"/>
<path d="M58.5045 24.4905H60.557" stroke="#15376D" stroke-linecap="round" stroke-linejoin="round"/>
<path d="M56.3404 26.6547V28.7071" stroke="#15376D" stroke-linecap="round" stroke-linejoin="round"/>
<path d="M56.3404 26.6547C57.5356 26.6547 58.5045 25.6857 58.5045 24.4905C58.5045 23.2953 57.5356 22.3264 56.3404 22.3264C55.1452 22.3264 54.1763 23.2953 54.1763 24.4905C54.1763 25.6857 55.1452 26.6547 56.3404 26.6547Z" stroke="#15376D" stroke-linecap="round" stroke-linejoin="round"/>
<path d="M164.177 98.0128H162.537" stroke="#15376D" stroke-linecap="round" stroke-linejoin="round"/>
<path d="M165.906 96.2841V94.6445" stroke="#15376D" stroke-linecap="round" stroke-linejoin="round"/>
<path d="M167.634 98.0128H169.273" stroke="#15376D" stroke-linecap="round" stroke-linejoin="round"/>
<path d="M165.906 99.7415V101.381" stroke="#15376D" stroke-linecap="round" stroke-linejoin="round"/>
<path d="M165.906 99.7415C166.861 99.7415 167.634 98.9676 167.634 98.0128C167.634 97.0579 166.861 96.2841 165.906 96.2841C164.951 96.2841 164.177 97.0579 164.177 98.0128C164.177 98.9676 164.951 99.7415 165.906 99.7415Z" stroke="#15376D" stroke-linecap="round" stroke-linejoin="round"/>
</svg>