<svg width="49" height="48" viewBox="0 0 49 48" fill="none" xmlns="http://www.w3.org/2000/svg">
<path d="M24.333 0C19.5863 0 14.9461 1.40758 10.9993 4.04473C7.05255 6.68188 3.97641 10.4302 2.15991 14.8156C0.343407 19.201 -0.131873 24.0266 0.794172 28.6822C1.72022 33.3377 4.006 37.6141 7.36245 40.9706C10.7189 44.327 14.9953 46.6128 19.6508 47.5388C24.3064 48.4649 29.132 47.9896 33.5174 46.1731C37.9028 44.3566 41.6511 41.2805 44.2883 37.3337C46.9254 33.3869 48.333 28.7467 48.333 24C48.326 17.6369 45.7952 11.5365 41.2959 7.03715C36.7965 2.5378 30.6961 0.00698783 24.333 0ZM33.2298 20.8968L23.6298 30.4968C23.1797 30.9467 22.5694 31.1995 21.933 31.1995C21.2966 31.1995 20.6863 30.9467 20.2362 30.4968L15.4362 25.6968C14.999 25.2441 14.7571 24.6379 14.7626 24.0086C14.7681 23.3794 15.0205 22.7774 15.4655 22.3324C15.9104 21.8875 16.5124 21.635 17.1417 21.6296C17.7709 21.6241 18.3772 21.866 18.8298 22.3032L21.933 25.4064L29.8362 17.5032C30.2889 17.066 30.8951 16.8241 31.5244 16.8296C32.1536 16.835 32.7556 17.0875 33.2006 17.5324C33.6456 17.9774 33.898 18.5794 33.9034 19.2086C33.9089 19.8379 33.667 20.4441 33.2298 20.8968Z" fill="#4600C7"/>
</svg>
