<svg width="174" height="174" viewBox="0 0 174 174" fill="none" xmlns="http://www.w3.org/2000/svg">
<path d="M4.59888 124.138C6.12747 123.672 166.573 124.118 169.301 124.123C169.761 124.123 169.763 124.824 169.299 124.823C167.679 124.821 7.4577 124.39 4.7868 124.812C4.34745 124.93 4.16562 124.269 4.59888 124.138Z" fill="#AEC7F6"/>
<path d="M20.2033 95.5031C20.7523 97.9713 20.6923 97.8643 20.7801 97.8991L22.9621 98.81C23.0543 98.8483 23.063 98.977 22.9769 99.0275C20.7566 100.316 20.8837 100.227 20.8758 100.318L20.6844 102.674C20.6775 102.775 20.5574 102.822 20.4817 102.755C18.573 101.045 18.6947 101.136 18.6069 101.156L16.3066 101.702C16.2092 101.726 16.1256 101.626 16.1665 101.534C17.1783 99.2285 17.1601 99.3433 17.107 99.2554L15.8777 97.237C15.8264 97.1509 15.8942 97.0422 15.9934 97.0526C18.365 97.3014 18.3781 97.3301 18.4503 97.2423L19.991 95.4492C20.0572 95.3718 20.1816 95.4048 20.2033 95.5023V95.5031Z" fill="#36383B"/>
<path d="M20.5607 103.022C20.3719 103.022 20.4668 103.062 18.6015 101.404L16.3604 101.934C16.0689 102.002 15.8262 101.712 15.9454 101.437L16.8685 99.3278L15.6705 97.3607C15.5191 97.1119 15.7079 96.7831 16.015 96.8118L18.3057 97.0388L19.8064 95.2919C20.0013 95.0648 20.372 95.1614 20.4346 95.4502L20.927 97.6992L23.0524 98.5857C23.3291 98.7023 23.3517 99.0825 23.095 99.233L21.108 100.396L20.9218 102.691C20.9061 102.883 20.7452 103.023 20.5607 103.023V103.022ZM18.638 100.911C18.8216 100.911 18.7642 100.906 20.4659 102.419C20.6573 100.082 20.5999 100.141 20.8165 100.015L22.654 98.9389L20.6895 98.1185C20.4572 98.0202 20.5181 98.055 20.0205 95.7834C18.4927 97.5626 18.5737 97.5487 18.3248 97.5217L16.2073 97.3112L17.3148 99.1286C17.4444 99.3443 17.4166 99.28 16.483 101.412C18.5832 100.913 18.551 100.911 18.638 100.911Z" fill="#AEC7F6"/>
<path d="M93.8164 13.6918C96.5282 17.4616 96.362 17.2867 96.5273 17.2823L100.848 17.2197C101.032 17.218 101.141 17.4259 101.032 17.5755C98.3082 21.3096 98.397 21.1095 98.4518 21.2695L99.8473 25.3594C99.9064 25.5343 99.742 25.7005 99.5654 25.643C95.1136 24.1945 95.3876 24.231 95.258 24.3311L91.8006 26.9211C91.6536 27.0316 91.4431 26.9263 91.4431 26.7418C91.4492 22.0604 91.4944 22.3318 91.3604 22.2387L87.8291 19.7505C87.6777 19.6435 87.7134 19.4121 87.89 19.3564C92.3392 17.9444 92.0973 18.0462 92.1478 17.8852L93.4232 13.7571C93.4789 13.5805 93.7103 13.5431 93.8173 13.6927L93.8164 13.6918Z" fill="#36383B"/>
<path d="M91.6658 27.297C91.3666 27.297 91.109 27.0603 91.109 26.7402L91.1204 22.4754L87.6351 20.0203C87.2576 19.7549 87.3541 19.1764 87.7848 19.038L91.8433 17.7313L93.1022 13.6562C93.2371 13.2195 93.8156 13.1247 94.0827 13.4961L96.5805 16.9518L100.843 16.8891C101.307 16.8891 101.567 17.4024 101.3 17.7722L98.7842 21.2148L100.161 25.2516C100.308 25.684 99.9004 26.0998 99.4628 25.9589L95.4112 24.6304C91.7267 27.3892 91.9242 27.297 91.6658 27.297ZM88.1919 19.6001L91.5484 21.9647C91.6954 22.0683 91.7842 22.2396 91.7842 22.4197L91.7729 26.5227L95.0571 24.0623C95.2024 23.9535 95.3903 23.9222 95.5643 23.9796L99.4628 25.2585L98.1378 21.3749C98.0786 21.2035 98.1082 21.0138 98.2152 20.8677L100.636 17.5538L96.5326 17.6147C96.3517 17.6147 96.1803 17.5321 96.0733 17.3842L93.6703 14.0573L92.4593 17.9775C92.4062 18.1506 92.2714 18.2872 92.0982 18.342L88.1928 19.5992L88.1919 19.6001Z" fill="#AEC7F6"/>
<path d="M30.0707 29.8002H28.2089V25.15C28.2089 24.9186 28.021 24.7324 27.7904 24.7324C27.5599 24.7324 27.3728 24.9195 27.3728 25.15V29.8002H25.511C25.2796 29.8002 25.0925 29.9881 25.0925 30.2195C25.0925 30.4509 25.2805 30.6371 25.511 30.6371H27.3728V35.2855C27.3728 35.5169 27.5599 35.704 27.7904 35.704C28.021 35.704 28.2089 35.5161 28.2089 35.2855V30.6371H30.0707C30.3021 30.6371 30.4883 30.4501 30.4883 30.2195C30.4883 29.989 30.3012 29.8002 30.0707 29.8002Z" fill="#AEC7F6"/>
<path d="M158.322 108.076H156.46V103.426C156.46 103.195 156.273 103.008 156.042 103.008C155.812 103.008 155.624 103.196 155.624 103.426V108.076H153.762C153.531 108.076 153.344 108.264 153.344 108.495C153.344 108.725 153.532 108.912 153.762 108.912H155.624V113.561C155.624 113.792 155.812 113.979 156.042 113.979C156.273 113.979 156.46 113.791 156.46 113.561V108.912H158.322C158.553 108.912 158.74 108.725 158.74 108.495C158.74 108.264 158.552 108.076 158.322 108.076Z" fill="#AEC7F6"/>
<path d="M154.024 154.237C154.094 152.928 153.672 151.623 152.824 150.702L136.177 130.131H38.0216L21.1758 150.702C20.3736 151.574 19.983 152.792 19.9682 154.031C19.9465 155.875 19.8516 156.154 20.224 157.59C20.6764 159.333 22.1754 160.406 23.7223 160.406H150.262C151.809 160.406 153.307 159.333 153.76 157.59C154.12 156.207 154.088 156.018 154.024 154.237Z" fill="#36383B"/>
<path d="M133.411 60.4883H40.7881C39.2604 60.4883 38.0215 61.7272 38.0215 63.2549V130.131H136.177V63.2549C136.177 61.7272 134.938 60.4883 133.41 60.4883H133.411Z" fill="#36383B"/>
<path d="M154.49 153.593C154.487 152.707 154.205 151.897 153.71 151.278C147.537 143.538 138.593 132.454 136.633 130.027V63.2528C136.633 61.498 135.206 60.0703 133.451 60.0703H40.7873C39.0316 60.0703 37.6039 61.498 37.6039 63.2528V130.026C37.5317 130.115 23.2724 147.833 20.5258 151.278C20.0169 151.917 19.715 152.754 19.7472 153.654C19.6959 155.585 19.7141 158.252 21.167 159.749C21.8613 160.462 22.807 160.823 23.9763 160.823H150.265C154.03 160.823 154.507 157.337 154.491 153.593H154.49ZM21.181 151.8C27.5424 143.824 37.0645 132.03 38.2608 130.548H135.977C135.977 130.548 149.096 146.836 153.056 151.8C154.489 153.601 153.205 156.285 150.894 156.285H23.3438C21.0226 156.285 19.7559 153.585 21.1818 151.8H21.181ZM135.796 129.709H38.44V63.2528C38.44 61.96 39.4927 60.9073 40.7864 60.9073H133.451C134.744 60.9073 135.796 61.96 135.796 63.2528V129.71V129.709ZM23.3438 157.122H150.894C151.949 157.122 152.944 156.65 153.619 155.87C153.432 158.229 152.638 159.985 150.263 159.985H23.9771C21.6003 159.985 20.8051 158.226 20.6181 155.874C21.2932 156.652 22.2876 157.122 23.3429 157.122H23.3438Z" fill="#AEC7F6"/>
<path d="M35.6829 145.704L44.7291 133.551H129.16L138.302 145.704H35.6829Z" fill="#36383B"/>
<path d="M138.425 145.45L129.224 133.296C129.142 133.192 129.021 133.131 128.89 133.131C44.8249 133.131 45.0155 133.032 44.8136 133.297L35.6142 145.45C35.4028 145.724 35.6003 146.122 35.9466 146.122H138.092C138.44 146.122 138.631 145.725 138.425 145.45ZM137.247 145.285H36.7905L45.3574 133.969H128.68L137.247 145.285Z" fill="#AEC7F6"/>
<path d="M131.078 140.678H124.166L122.315 137.725H127.766C127.998 137.725 128.185 137.537 128.185 137.307C128.185 137.076 127.997 136.889 127.766 136.889H121.79L120.631 135.04C120.507 134.844 120.248 134.784 120.053 134.908C119.857 135.033 119.798 135.29 119.921 135.485L120.802 136.889H112.778L111.995 135.094C111.848 134.76 111.359 134.757 111.221 135.108C111.135 135.322 111.171 135.302 111.864 136.889H104.54L104.085 135.339C103.927 134.802 103.126 135.048 103.282 135.575L103.667 136.89H95.3388L95.1031 135.389C95.0117 134.835 94.1904 134.981 94.2757 135.521L94.4906 136.889H86.2708L86.2795 135.457C86.283 135.233 86.1021 135.037 85.8619 135.037C85.6305 135.037 85.4435 135.224 85.4435 135.452L85.4348 136.888H76.9392L77.2724 135.557C77.3298 135.328 77.1863 135.104 76.9671 135.05C76.74 134.996 76.5164 135.131 76.4598 135.355L76.0762 136.889H68.6907L69.3285 135.429C69.5494 134.924 68.7847 134.582 68.5602 135.094L67.7772 136.889H59.8254L60.6398 135.472C60.9173 134.993 60.1952 134.571 59.9142 135.053L58.8589 136.889H51.831C52.9681 135.381 52.9794 135.433 52.9481 135.206C52.8976 134.838 52.427 134.713 52.1999 135.009L50.7827 136.888H45.9324C45.701 136.888 45.5148 137.075 45.5148 137.306C45.5148 137.537 45.7019 137.724 45.9324 137.724H50.1519L47.9256 140.677H42.9579C42.7265 140.677 42.5403 140.864 42.5403 141.095C42.5403 141.325 42.7273 141.513 42.9579 141.513H47.294L45.7619 143.546C45.5835 143.782 45.6827 144.174 46.0951 144.218C46.3918 144.218 46.3309 144.182 48.3432 141.514H56.2002L55.0074 143.589C54.8943 143.786 54.9569 144.042 55.1631 144.161C55.3615 144.274 55.6207 144.208 55.7338 144.007L57.1667 141.514H65.7588C64.7436 143.841 64.7462 143.732 64.8288 143.949C64.9645 144.297 65.4543 144.306 65.604 143.966L66.6732 141.515H74.9199L74.3249 143.894C74.2692 144.113 74.4023 144.344 74.632 144.401C74.8773 144.453 75.0852 144.305 75.1357 144.095L75.7821 141.514H85.4087C85.3939 144.172 85.3486 144.118 85.5139 144.288C85.7749 144.551 86.2308 144.366 86.2308 143.996L86.2447 141.514H95.217L95.6164 144.059C95.6477 144.263 95.8217 144.411 96.0305 144.411C96.2932 144.411 96.4829 144.175 96.4446 143.928L96.0662 141.514H105.026L105.788 144.111C105.84 144.286 106.007 144.41 106.189 144.411C106.471 144.413 106.668 144.14 106.591 143.876L105.899 141.514H113.884L114.953 143.964C115.096 144.301 115.59 144.302 115.728 143.948C115.813 143.727 115.807 143.827 114.798 141.513H123.705L125.278 144.022C125.483 144.335 125.955 144.256 126.04 143.892C126.094 143.661 126.081 143.726 124.694 141.514H131.08C131.312 141.514 131.499 141.326 131.499 141.096C131.499 140.865 131.312 140.678 131.08 140.678H131.078ZM56.6813 140.678H48.9739L51.2003 137.725H58.3778L56.6813 140.678ZM59.3443 137.725H67.4118L66.1242 140.678H57.6478L59.3443 137.725ZM68.3253 137.725H75.8665L75.1279 140.678H67.0369L68.3253 137.725ZM76.7295 137.725H85.4295L85.4121 140.678H75.99L76.7287 137.725H76.7295ZM86.2665 137.725H94.622L95.0857 140.678H86.25L86.2674 137.725H86.2665ZM95.4702 137.725H103.914L104.779 140.678H95.9331L95.4702 137.725ZM104.785 137.725H112.228L113.517 140.678H105.652L104.786 137.725H104.785ZM113.143 137.725H121.326L123.177 140.678H114.43L113.143 137.725Z" fill="#AEC7F6"/>
<path d="M70.4482 153.161L72.5989 148.885H101.436L103.587 153.161H70.4482Z" fill="#36383B"/>
<path d="M103.96 152.971L101.808 148.695C101.737 148.553 101.593 148.465 101.434 148.465H72.5961C72.4378 148.465 72.2942 148.553 72.2212 148.695L70.0705 152.971C69.9304 153.244 70.1314 153.578 70.4446 153.578H103.587C103.883 153.576 104.101 153.259 103.959 152.971H103.96ZM71.1276 152.741L72.8571 149.302H101.178L102.908 152.741H71.1276Z" fill="#AEC7F6"/>
<path d="M131.379 65.2852H42.8196V124.374H131.379V65.2852Z" fill="#36383B"/>
<path d="M131.379 124.766H42.8195C42.6037 124.766 42.428 124.59 42.428 124.375V65.286C42.428 65.0703 42.6037 64.8945 42.8195 64.8945H131.379C131.595 64.8945 131.771 65.0703 131.771 65.286V124.375C131.771 124.59 131.595 124.766 131.379 124.766ZM43.211 123.983H130.988V65.6775H43.211V123.983Z" fill="#AEC7F6"/>
<path d="M122.303 39.4727L129.219 53.1482H122.304L122.303 39.4727Z" fill="#36383B"/>
<path d="M122.303 39.4727H51.6982V124.374H122.303V39.4727Z" fill="#36383B"/>
<path d="M129.514 52.9989L122.608 39.3459C122.551 39.2059 122.428 39.1406 122.302 39.1406H51.6982C51.5155 39.1406 51.3667 39.2903 51.3667 39.4721V124.374C51.3667 124.556 51.5163 124.705 51.6982 124.705H122.302C122.485 124.705 122.634 124.555 122.634 124.374V53.48H129.219C129.469 53.48 129.623 53.2172 129.514 52.9989H129.514ZM52.0296 124.041V39.8036H121.971L121.972 124.041H52.0296ZM122.634 52.8162V40.8632L128.68 52.8162H122.634Z" fill="#AEC7F6"/>
<path d="M79.3223 69.5161H56.2778C56.0951 69.5161 55.9463 69.3665 55.9463 69.1846V46.1401C55.9463 45.9574 56.0959 45.8086 56.2778 45.8086H79.3223C79.505 45.8086 79.6538 45.9582 79.6538 46.1401V69.1846C79.6538 69.3673 79.5042 69.5161 79.3223 69.5161ZM56.6092 68.8523H78.99V46.4715H56.6092V68.8523Z" fill="#AEC7F6"/>
<path d="M85.2097 49.9062H109.574C110.413 49.9062 111.093 50.5857 111.093 51.4244C111.093 52.2631 110.413 52.9426 109.574 52.9426H85.2097C84.371 52.9426 83.6907 52.2631 83.6907 51.4244C83.6907 50.5857 84.371 49.9062 85.2097 49.9062Z" fill="#36383B"/>
<path d="M109.576 53.2752H85.2096C84.1908 53.2752 83.3591 52.4461 83.3591 51.4247C83.3591 50.4033 84.1882 49.5742 85.2096 49.5742H109.576C110.595 49.5742 111.426 50.4033 111.426 51.4247C111.426 52.4461 110.597 53.2752 109.576 53.2752ZM85.2096 50.2398C84.5554 50.2398 84.0229 50.7722 84.0229 51.4265C84.0229 52.0807 84.5554 52.6131 85.2096 52.6131H109.576C110.23 52.6131 110.762 52.0807 110.762 51.4265C110.762 50.7722 110.23 50.2398 109.576 50.2398H85.2096Z" fill="#AEC7F6"/>
<path d="M85.2097 56.1445H113.264C114.102 56.1445 114.783 56.824 114.783 57.6627C114.783 58.5014 114.103 59.1808 113.264 59.1808H85.2097C84.371 59.1808 83.6907 58.5014 83.6907 57.6627C83.6907 56.824 84.371 56.1445 85.2097 56.1445Z" fill="#36383B"/>
<path d="M113.264 59.5135H85.2096C84.1908 59.5135 83.3591 58.6844 83.3591 57.663C83.3591 56.6416 84.1882 55.8125 85.2096 55.8125H113.264C114.283 55.8125 115.114 56.6416 115.114 57.663C115.114 58.6844 114.285 59.5135 113.264 59.5135ZM85.2096 56.478C84.5554 56.478 84.0229 57.0105 84.0229 57.6647C84.0229 58.319 84.5554 58.8514 85.2096 58.8514H113.264C113.918 58.8514 114.45 58.319 114.45 57.6647C114.45 57.0105 113.918 56.478 113.264 56.478H85.2096Z" fill="#AEC7F6"/>
<path d="M85.2097 62.3828H109.574C110.413 62.3828 111.093 63.0623 111.093 63.901C111.093 64.7396 110.413 65.4191 109.574 65.4191H85.2097C84.371 65.4191 83.6907 64.7396 83.6907 63.901C83.6907 63.0623 84.371 62.3828 85.2097 62.3828Z" fill="#36383B"/>
<path d="M109.576 65.7518H85.2096C84.1908 65.7518 83.3591 64.9227 83.3591 63.9013C83.3591 62.8799 84.1882 62.0508 85.2096 62.0508H109.576C110.595 62.0508 111.426 62.8799 111.426 63.9013C111.426 64.9227 110.597 65.7518 109.576 65.7518ZM85.2096 62.7163C84.5554 62.7163 84.0229 63.2488 84.0229 63.903C84.0229 64.5572 84.5554 65.0897 85.2096 65.0897H109.576C110.23 65.0897 110.762 64.5572 110.762 63.903C110.762 63.2488 110.23 62.7163 109.576 62.7163H85.2096Z" fill="#AEC7F6"/>
<path d="M57.7951 75.7832H109.947C110.785 75.7832 111.466 76.4627 111.466 77.3013C111.466 78.14 110.785 78.8195 109.947 78.8195H57.7951C56.9565 78.8195 56.2761 78.14 56.2761 77.3013C56.2761 76.4627 56.9565 75.7832 57.7951 75.7832Z" fill="#36383B"/>
<path d="M109.948 79.1502H57.7951C56.7754 79.1502 55.9446 78.3211 55.9446 77.2997C55.9446 76.2783 56.7737 75.4492 57.7951 75.4492H109.948C110.968 75.4492 111.799 76.2783 111.799 77.2997C111.799 78.3211 110.969 79.1502 109.948 79.1502ZM57.7951 76.1148C57.1408 76.1148 56.6084 76.6472 56.6084 77.3014C56.6084 77.9557 57.1408 78.4881 57.7951 78.4881H109.948C110.602 78.4881 111.135 77.9557 111.135 77.3014C111.135 76.6472 110.602 76.1148 109.948 76.1148H57.7951Z" fill="#AEC7F6"/>
<path d="M57.7951 82.0195H113.636C114.475 82.0195 115.155 82.699 115.155 83.5377C115.155 84.3764 114.475 85.0558 113.636 85.0558H57.7951C56.9565 85.0558 56.2761 84.3764 56.2761 83.5377C56.2761 82.699 56.9565 82.0195 57.7951 82.0195Z" fill="#36383B"/>
<path d="M113.636 85.3904H57.7951C56.7754 85.3904 55.9446 84.5613 55.9446 83.5399C55.9446 82.5186 56.7737 81.6895 57.7951 81.6895H113.636C114.656 81.6895 115.487 82.5186 115.487 83.5399C115.487 84.5613 114.657 85.3904 113.636 85.3904ZM57.7951 82.355C57.1408 82.355 56.6084 82.8874 56.6084 83.5417C56.6084 84.1959 57.1408 84.7284 57.7951 84.7284H113.636C114.29 84.7284 114.823 84.1959 114.823 83.5417C114.823 82.8874 114.29 82.355 113.636 82.355H57.7951Z" fill="#AEC7F6"/>
<path d="M57.7951 97.1855H113.636C114.475 97.1855 115.155 97.865 115.155 98.7037C115.155 99.5424 114.475 100.222 113.636 100.222H57.7951C56.9565 100.222 56.2761 99.5424 56.2761 98.7037C56.2761 97.865 56.9565 97.1855 57.7951 97.1855Z" fill="#36383B"/>
<path d="M113.636 100.553H57.7951C56.7754 100.553 55.9446 99.7234 55.9446 98.7021C55.9446 97.6807 56.7737 96.8516 57.7951 96.8516H113.636C114.656 96.8516 115.487 97.6807 115.487 98.7021C115.487 99.7234 114.657 100.553 113.636 100.553ZM57.7951 97.5171C57.1408 97.5171 56.6084 98.0496 56.6084 98.7038C56.6084 99.358 57.1408 99.8905 57.7951 99.8905H113.636C114.29 99.8905 114.823 99.358 114.823 98.7038C114.823 98.0496 114.29 97.5171 113.636 97.5171H57.7951Z" fill="#AEC7F6"/>
<path d="M57.7951 109.48H100.725C101.564 109.48 102.244 110.16 102.244 110.999C102.244 111.837 101.565 112.517 100.725 112.517H57.7951C56.9565 112.517 56.2761 111.837 56.2761 110.999C56.2761 110.16 56.9565 109.48 57.7951 109.48Z" fill="#36383B"/>
<path d="M100.727 112.847H57.7951C56.7754 112.847 55.9446 112.018 55.9446 110.997C55.9446 109.976 56.7737 109.146 57.7951 109.146H100.727C101.747 109.146 102.577 109.976 102.577 110.997C102.577 112.018 101.748 112.847 100.727 112.847ZM57.7951 109.812C57.1408 109.812 56.6084 110.344 56.6084 110.999C56.6084 111.653 57.1408 112.185 57.7951 112.185H100.727C101.381 112.185 101.914 111.653 101.914 110.999C101.914 110.344 101.381 109.812 100.727 109.812H57.7951Z" fill="#AEC7F6"/>
<path d="M57.7951 88.2598H109.947C110.785 88.2598 111.466 88.9392 111.466 89.7779C111.466 90.6166 110.785 91.2961 109.947 91.2961H57.7951C56.9565 91.2961 56.2761 90.6166 56.2761 89.7779C56.2761 88.9392 56.9565 88.2598 57.7951 88.2598Z" fill="#36383B"/>
<path d="M109.948 91.6287H57.7951C56.7754 91.6287 55.9446 90.7996 55.9446 89.7782C55.9446 88.7568 56.7737 87.9277 57.7951 87.9277H109.948C110.968 87.9277 111.799 88.7568 111.799 89.7782C111.799 90.7996 110.969 91.6287 109.948 91.6287ZM57.7951 88.5933C57.1408 88.5933 56.6084 89.1257 56.6084 89.78C56.6084 90.4342 57.1408 90.9666 57.7951 90.9666H109.948C110.602 90.9666 111.135 90.4342 111.135 89.78C111.135 89.1257 110.602 88.5933 109.948 88.5933H57.7951Z" fill="#AEC7F6"/>
<path d="M57.7951 103.332H93.3486C94.1873 103.332 94.8677 104.011 94.8677 104.85C94.8677 105.689 94.1873 106.368 93.3486 106.368H57.7951C56.9565 106.368 56.2761 105.689 56.2761 104.85C56.2761 104.011 56.9565 103.332 57.7951 103.332Z" fill="#36383B"/>
<path d="M93.3502 106.701H57.7951C56.7754 106.701 55.9446 105.872 55.9446 104.85C55.9446 103.829 56.7737 103 57.7951 103H93.3502C94.3699 103 95.2007 103.829 95.2007 104.85C95.2007 105.872 94.3716 106.701 93.3502 106.701ZM57.7951 103.666C57.1408 103.666 56.6084 104.198 56.6084 104.852C56.6084 105.506 57.1408 106.039 57.7951 106.039H93.3502C94.0045 106.039 94.5369 105.506 94.5369 104.852C94.5369 104.198 94.0045 103.666 93.3502 103.666H57.7951Z" fill="#AEC7F6"/>
<path d="M122.475 40.0078L123.843 42.4856L122.448 45.2461L122.475 40.0078Z" fill="#AEC7F6"/>
<path d="M67.7993 49.207C70.5398 49.207 72.7609 51.4281 72.7609 54.1686C72.7609 56.9091 70.5398 59.1303 67.7993 59.1303C65.0588 59.1303 62.8376 56.9091 62.8376 54.1686C62.8376 51.4281 65.0588 49.207 67.7993 49.207Z" fill="#AEC7F6"/>
<path d="M64.0669 59.8594H71.5315C73.8814 59.8594 75.7876 61.7673 75.7876 64.1154V66.9264C75.7876 67.2892 75.4927 67.5841 75.1299 67.5841H60.4695C60.1067 67.5841 59.8118 67.2892 59.8118 66.9264V64.1154C59.8118 61.7655 61.7197 59.8594 64.0678 59.8594H64.0669Z" fill="#AEC7F6"/>
<path d="M112.795 109.488C111.142 111.438 110.199 114.023 111.282 115.226C112.382 116.448 115.232 115.891 117.345 114.359C115.623 114.236 113.194 112.054 112.795 109.488Z" fill="#36383B"/>
<path d="M157.163 78.893C156.609 79.4002 158.902 80.0892 156.864 82.2843C155.805 83.4257 140.099 97.4127 140.099 97.4127C139.956 97.5441 140.042 97.7981 140.24 97.8755C140.923 98.1444 141.541 98.1757 141.952 97.9164C142.04 98.0043 159.218 84.0504 160.176 82.9968C161.447 81.6013 161.593 80.7661 161.159 79.5168C160.84 78.5989 160.392 77.5758 159.808 76.8607C159.725 76.7589 159.568 76.7363 159.457 76.8346L157.163 78.893Z" fill="#36383B"/>
<path d="M140.118 98.184C139.689 98.0135 139.55 97.4576 139.879 97.1644C140.037 97.0234 155.584 83.173 156.622 82.0568C157.761 80.831 157.461 80.242 156.871 79.486C156.672 79.2311 156.704 78.8614 156.941 78.6465C159.437 76.3863 159.335 76.4158 159.663 76.441C159.82 76.4532 159.967 76.5297 160.065 76.6506C160.583 77.2918 161.06 78.2175 161.474 79.4059C161.974 80.8432 161.71 81.8054 160.425 83.2174C159.221 84.5416 142.194 98.2084 142.043 98.2458C141.473 98.5494 140.725 98.4241 140.119 98.1831L140.118 98.184ZM140.409 97.5829C140.986 97.8021 141.485 97.8238 141.777 97.6342C142.103 97.4228 158.761 84.0587 159.934 82.7711C161.178 81.4052 161.221 80.6953 160.848 79.6234C160.477 78.5542 160.061 77.7216 159.611 77.1422L157.42 79.1093C158.217 80.1489 158.435 81.0833 157.11 82.5101C156.082 83.6176 141.787 96.3553 140.409 97.5829Z" fill="#AEC7F6"/>
<path d="M164.119 67.0906C161.759 64.4693 159.287 64.7547 156.772 67.1454L112.954 108.821C111.536 110.272 109.908 112.952 110.649 114.819C108.418 117.368 109.192 117.691 111.767 115.972C113.502 116.758 116.464 115.622 117.775 114.473L163.455 74.3534C166.096 72.04 166.648 69.9007 164.119 67.0897V67.0906ZM111.531 115.002C110.701 114.081 111.223 112.046 112.623 110.211C113 111.942 114.921 114.008 116.476 114.53C114.541 115.677 112.384 115.95 111.531 115.002Z" fill="#AEC7F6"/>
<path d="M157.277 68.5538C157.24 68.1893 157.789 68.1318 157.828 68.4964C158.109 71.149 161.333 73.3197 162.979 72.1756C163.279 71.9668 163.596 72.4183 163.296 72.6289C161.237 74.0748 157.574 71.5388 157.276 68.5538H157.277Z" fill="#36383B"/>
<path d="M143.998 80.204L142.045 82.0606C142.035 83.9354 145.256 87.4998 147.101 87.8322L149.081 86.0939C147.238 85.9556 143.674 81.9945 143.998 80.2031V80.204Z" fill="#36383B"/>
</svg>
