<svg width="174" height="174" viewBox="0 0 174 174" fill="none" xmlns="http://www.w3.org/2000/svg">
<path d="M4.59912 124.137C6.12771 123.671 166.573 124.118 169.301 124.122C169.762 124.122 169.763 124.823 169.3 124.822C167.68 124.821 7.45794 124.389 4.78704 124.811C4.34769 124.929 4.16586 124.268 4.59912 124.137Z" fill="#15376D"/>
<path d="M20.2036 95.5008C20.7525 97.969 20.6925 97.862 20.7804 97.8968L22.9623 98.8076C23.0546 98.8459 23.0633 98.9747 22.9771 99.0251C20.7569 100.314 20.8839 100.225 20.8761 100.315L20.6847 102.671C20.6777 102.773 20.5577 102.82 20.482 102.752C18.5732 101.043 18.695 101.133 18.6071 101.154L16.3068 101.7C16.2094 101.724 16.1259 101.624 16.1668 101.532C17.1786 99.2261 17.1603 99.341 17.1072 99.2531L15.8779 97.2347C15.8266 97.1486 15.8945 97.0398 15.9936 97.0502C18.3653 97.2991 18.3783 97.3278 18.4505 97.2399L19.9913 95.4468C20.0574 95.3694 20.1818 95.4025 20.2036 95.4999V95.5008Z" fill="#F2F7F8"/>
<path d="M20.5607 103.02C20.3719 103.02 20.4668 103.06 18.6015 101.402L16.3604 101.933C16.0689 102.001 15.8262 101.71 15.9454 101.435L16.8685 99.3262L15.6705 97.3591C15.5191 97.1103 15.7079 96.7814 16.015 96.8101L18.3057 97.0372L19.8064 95.2902C20.0013 95.0632 20.372 95.1597 20.4346 95.4486L20.927 97.6975L23.0524 98.5841C23.3291 98.7006 23.3517 99.0808 23.095 99.2313L21.108 100.395L20.9218 102.69C20.9061 102.881 20.7452 103.021 20.5607 103.021V103.02ZM18.638 100.91C18.8216 100.91 18.7642 100.904 20.4659 102.417C20.6573 100.08 20.5999 100.14 20.8165 100.013L22.654 98.9373L20.6895 98.1169C20.4572 98.0186 20.5181 98.0534 20.0205 95.7818C18.4927 97.5609 18.5737 97.547 18.3248 97.52L16.2073 97.3095L17.3148 99.1269C17.4444 99.3427 17.4166 99.2783 16.483 101.411C18.5832 100.911 18.551 100.91 18.638 100.91Z" fill="#15376D"/>
<path d="M93.8169 13.6921C96.5287 17.4618 96.3625 17.2869 96.5278 17.2826L100.848 17.2199C101.033 17.2182 101.141 17.4261 101.033 17.5757C98.3087 21.3098 98.3975 21.1097 98.4523 21.2698L99.8477 25.3596C99.9069 25.5345 99.7425 25.7007 99.5659 25.6433C95.1141 24.1947 95.3881 24.2312 95.2585 24.3313L91.8011 26.9213C91.6541 27.0318 91.4435 26.9265 91.4435 26.7421C91.4496 22.0606 91.4949 22.332 91.3609 22.2389L87.8296 19.7507C87.6782 19.6437 87.7139 19.4123 87.8905 19.3566C92.3396 17.9446 92.0978 18.0464 92.1482 17.8855L93.4237 13.7573C93.4793 13.5807 93.7108 13.5433 93.8178 13.6929L93.8169 13.6921Z" fill="white"/>
<path d="M91.6663 27.2963C91.3671 27.2963 91.1095 27.0596 91.1095 26.7395L91.1208 22.4747L87.6356 20.0196C87.258 19.7542 87.3546 19.1757 87.7853 19.0373L91.8438 17.7306L93.1027 13.6555C93.2376 13.2188 93.8161 13.124 94.0832 13.4954L96.581 16.9511L100.844 16.8884C101.308 16.8884 101.568 17.4017 101.301 17.7715L98.7847 21.2141L100.162 25.2509C100.309 25.6833 99.9009 26.0991 99.4633 25.9582L95.4117 24.6297C91.7272 27.3885 91.9247 27.2963 91.6663 27.2963ZM88.1924 19.5994L91.5489 21.964C91.6959 22.0676 91.7847 22.2389 91.7847 22.419L91.7733 26.522L95.0576 24.0616C95.2029 23.9528 95.3908 23.9215 95.5648 23.9789L99.4633 25.2578L98.1383 21.3742C98.0791 21.2028 98.1087 21.0131 98.2157 20.867L100.636 17.5531L96.5331 17.614C96.3522 17.614 96.1808 17.5314 96.0738 17.3835L93.6708 14.0566L92.4598 17.9768C92.4067 18.1499 92.2719 18.2865 92.0987 18.3413L88.1933 19.5985L88.1924 19.5994Z" fill="#15376D"/>
<path d="M30.0709 29.8001H28.2091V25.15C28.2091 24.9185 28.0212 24.7324 27.7906 24.7324C27.5601 24.7324 27.373 24.9194 27.373 25.15V29.8001H25.5112C25.2798 29.8001 25.0928 29.988 25.0928 30.2195C25.0928 30.4509 25.2807 30.6371 25.5112 30.6371H27.373V35.2855C27.373 35.5169 27.5601 35.7039 27.7906 35.7039C28.0212 35.7039 28.2091 35.516 28.2091 35.2855V30.6371H30.0709C30.3023 30.6371 30.4885 30.45 30.4885 30.2195C30.4885 29.9889 30.3015 29.8001 30.0709 29.8001Z" fill="#15376D"/>
<path d="M158.322 108.076H156.46V103.426C156.46 103.194 156.273 103.007 156.043 103.007C155.812 103.007 155.624 103.195 155.624 103.426V108.076H153.762C153.531 108.076 153.345 108.264 153.345 108.494C153.345 108.725 153.532 108.912 153.762 108.912H155.624V113.56C155.624 113.792 155.812 113.979 156.043 113.979C156.273 113.979 156.46 113.791 156.46 113.56V108.912H158.322C158.553 108.912 158.74 108.725 158.74 108.494C158.74 108.264 158.553 108.076 158.322 108.076Z" fill="#15376D"/>
<path d="M154.024 154.235C154.094 152.927 153.672 151.622 152.824 150.701L136.177 130.129H38.0216L21.1758 150.701C20.3736 151.572 19.983 152.79 19.9682 154.029C19.9465 155.874 19.8516 156.153 20.224 157.588C20.6764 159.332 22.1754 160.405 23.7223 160.405H150.262C151.809 160.405 153.307 159.332 153.76 157.588C154.12 156.206 154.088 156.016 154.024 154.235Z" fill="#F2F7F8"/>
<path d="M133.411 60.4868H40.7881C39.2604 60.4868 38.0215 61.7256 38.0215 63.2534V130.129H136.177V63.2534C136.177 61.7256 134.938 60.4868 133.41 60.4868H133.411Z" fill="#F2F7F8"/>
<path d="M154.49 153.592C154.487 152.706 154.205 151.896 153.71 151.276C147.537 143.537 138.593 132.453 136.633 130.026V63.2516C136.633 61.4968 135.206 60.0692 133.451 60.0692H40.7873C39.0316 60.0692 37.6039 61.4968 37.6039 63.2516V130.025C37.5317 130.114 23.2724 147.832 20.5258 151.276C20.0169 151.916 19.715 152.753 19.7472 153.653C19.6959 155.584 19.7141 158.251 21.167 159.748C21.8613 160.461 22.807 160.822 23.9763 160.822H150.265C154.03 160.822 154.507 157.336 154.491 153.592H154.49ZM21.181 151.799C27.5424 143.823 37.0645 132.029 38.2608 130.547H135.977C135.977 130.547 149.096 146.835 153.056 151.799C154.489 153.6 153.205 156.284 150.894 156.284H23.3438C21.0226 156.284 19.7559 153.584 21.1818 151.799H21.181ZM135.796 129.708H38.44V63.2516C38.44 61.9588 39.4927 60.9061 40.7864 60.9061H133.451C134.744 60.9061 135.796 61.9588 135.796 63.2516V129.709V129.708ZM23.3438 157.121H150.894C151.949 157.121 152.944 156.649 153.619 155.869C153.432 158.228 152.638 159.983 150.263 159.983H23.9771C21.6003 159.983 20.8051 158.225 20.6181 155.873C21.2932 156.65 22.2876 157.121 23.3429 157.121H23.3438Z" fill="#15376D"/>
<path d="M35.6826 145.703L44.7289 133.55H129.16L138.302 145.703H35.6826Z" fill="white"/>
<path d="M138.425 145.449L129.224 133.295C129.142 133.191 129.021 133.131 128.89 133.131C44.8252 133.131 45.0157 133.032 44.8139 133.296L35.6145 145.449C35.4031 145.723 35.6006 146.122 35.9468 146.122H138.092C138.44 146.122 138.631 145.724 138.425 145.449ZM137.247 145.285H36.7907L45.3576 133.969H128.68L137.247 145.285Z" fill="#15376D"/>
<path d="M131.077 140.677H124.166L122.315 137.724H127.766C127.998 137.724 128.185 137.537 128.185 137.306C128.185 137.075 127.997 136.888 127.766 136.888H121.79L120.63 135.039C120.507 134.843 120.248 134.783 120.053 134.907C119.857 135.032 119.798 135.289 119.92 135.484L120.802 136.888H112.778L111.995 135.093C111.848 134.759 111.359 134.756 111.22 135.108C111.135 135.322 111.171 135.301 111.863 136.888H104.54L104.085 135.338C103.927 134.801 103.126 135.048 103.282 135.574L103.667 136.889H95.3386L95.1028 135.389C95.0115 134.834 94.1902 134.98 94.2755 135.52L94.4903 136.888H86.2706L86.2793 135.456C86.2828 135.232 86.1018 135.036 85.8617 135.036C85.6303 135.036 85.4432 135.223 85.4432 135.451L85.4345 136.888H76.939L77.2722 135.556C77.3296 135.328 77.1861 135.103 76.9668 135.049C76.7397 134.995 76.5162 135.13 76.4596 135.354L76.0759 136.888H68.6905L69.3282 135.428C69.5492 134.923 68.7845 134.581 68.56 135.093L67.777 136.888H59.8252L60.6395 135.471C60.917 134.992 60.1949 134.57 59.9139 135.052L58.8586 136.888H51.8308C52.9679 135.38 52.9792 135.432 52.9479 135.205C52.8974 134.837 52.4267 134.712 52.1996 135.008L50.7824 136.888H45.9322C45.7008 136.888 45.5146 137.075 45.5146 137.305C45.5146 137.536 45.7016 137.724 45.9322 137.724H50.1517L47.9253 140.676H42.9576C42.7262 140.676 42.54 140.863 42.54 141.094C42.54 141.325 42.7271 141.512 42.9576 141.512H47.2937L45.7616 143.545C45.5833 143.781 45.6825 144.173 46.0949 144.217C46.3915 144.217 46.3306 144.182 48.3429 141.513H56.1999L55.0071 143.588C54.894 143.785 54.9567 144.041 55.1629 144.16C55.3612 144.273 55.6205 144.207 55.7336 144.006L57.1665 141.513H65.7586C64.7433 143.841 64.7459 143.731 64.8286 143.948C64.9643 144.296 65.4541 144.305 65.6037 143.965L66.673 141.514H74.9197L74.3246 143.893C74.2689 144.112 74.402 144.343 74.6317 144.4C74.8771 144.452 75.085 144.304 75.1355 144.095L75.7819 141.513H85.4084C85.3936 144.171 85.3484 144.117 85.5137 144.287C85.7747 144.551 86.2306 144.365 86.2306 143.995L86.2445 141.513H95.2168L95.6161 144.058C95.6474 144.263 95.8214 144.41 96.0302 144.41C96.293 144.41 96.4827 144.174 96.4444 143.927L96.0659 141.513H105.026L105.788 144.11C105.84 144.285 106.007 144.41 106.189 144.41C106.471 144.412 106.668 144.139 106.591 143.875L105.899 141.513H113.884L114.953 143.963C115.095 144.3 115.59 144.301 115.728 143.948C115.812 143.726 115.807 143.826 114.798 141.512H123.705L125.278 144.021C125.482 144.334 125.955 144.255 126.04 143.891C126.094 143.661 126.081 143.725 124.694 141.513H131.08C131.311 141.513 131.498 141.325 131.498 141.095C131.498 140.864 131.311 140.677 131.08 140.677H131.077ZM56.681 140.677H48.9737L51.2 137.724H58.3775L56.681 140.677ZM59.3441 137.724H67.4116L66.124 140.677H57.6476L59.3441 137.724ZM68.3251 137.724H75.8663L75.1276 140.677H67.0366L68.3251 137.724ZM76.7293 137.724H85.4293L85.4119 140.677H75.9898L76.7284 137.724H76.7293ZM86.2662 137.724H94.6217L95.0854 140.677H86.2497L86.2671 137.724H86.2662ZM95.47 137.724H103.913L104.779 140.677H95.9328L95.47 137.724ZM104.785 137.724H112.228L113.516 140.677H105.652L104.786 137.724H104.785ZM113.142 137.724H121.326L123.177 140.677H114.43L113.142 137.724Z" fill="#15376D"/>
<path d="M70.4482 153.159L72.5989 148.883H101.436L103.587 153.159H70.4482Z" fill="white"/>
<path d="M103.96 152.97L101.808 148.694C101.737 148.552 101.593 148.465 101.434 148.465H72.5964C72.438 148.465 72.2945 148.552 72.2214 148.694L70.0708 152.97C69.9307 153.244 70.1317 153.578 70.4449 153.578H103.588C103.883 153.576 104.102 153.259 103.959 152.97H103.96ZM71.1278 152.741L72.8574 149.302H101.178L102.908 152.741H71.1278Z" fill="#15376D"/>
<path d="M131.379 65.2848H42.8193V124.373H131.379V65.2848Z" fill="white"/>
<path d="M131.379 124.765H42.8192C42.6035 124.765 42.4277 124.589 42.4277 124.373V65.2848C42.4277 65.0691 42.6035 64.8933 42.8192 64.8933H131.379C131.595 64.8933 131.771 65.0691 131.771 65.2848V124.373C131.771 124.589 131.595 124.765 131.379 124.765ZM43.2107 123.982H130.988V65.6763H43.2107V123.982Z" fill="#15376D"/>
<path d="M122.304 39.4719L129.22 53.1475H122.305L122.304 39.4719Z" fill="#F2F7F8"/>
<path d="M122.303 39.4719H51.6982V124.373H122.303V39.4719Z" fill="white"/>
<path d="M129.515 52.9987L122.609 39.3458C122.551 39.2057 122.429 39.1404 122.303 39.1404H51.6987C51.516 39.1404 51.3672 39.2901 51.3672 39.4719V124.373C51.3672 124.556 51.5168 124.705 51.6987 124.705H122.303C122.485 124.705 122.634 124.555 122.634 124.373V53.4798H129.219C129.47 53.4798 129.624 53.217 129.514 52.9987H129.515ZM52.0301 124.041V39.8034H121.971L121.973 124.041H52.0301ZM122.635 52.816V40.863L128.681 52.816H122.635Z" fill="#15376D"/>
<path d="M79.3233 69.5165H56.2787C56.096 69.5165 55.9473 69.3669 55.9473 69.185V46.1405C55.9473 45.9578 56.0969 45.809 56.2787 45.809H79.3233C79.506 45.809 79.6548 45.9586 79.6548 46.1405V69.185C79.6548 69.3677 79.5051 69.5165 79.3233 69.5165ZM56.6102 68.8527H78.991V46.4719H56.6102V68.8527Z" fill="#15376D"/>
<path d="M85.2104 49.9058H109.575C110.413 49.9058 111.094 50.5853 111.094 51.424C111.094 52.2627 110.413 52.9421 109.575 52.9421H85.2104C84.3717 52.9421 83.6914 52.2627 83.6914 51.424C83.6914 50.5853 84.3717 49.9058 85.2104 49.9058Z" fill="#F2F7F8"/>
<path d="M109.576 53.2745H85.2099C84.1911 53.2745 83.3594 52.4454 83.3594 51.424C83.3594 50.4026 84.1885 49.5735 85.2099 49.5735H109.576C110.596 49.5735 111.427 50.4026 111.427 51.424C111.427 52.4454 110.597 53.2745 109.576 53.2745ZM85.2099 50.239C84.5556 50.239 84.0232 50.7715 84.0232 51.4257C84.0232 52.08 84.5556 52.6124 85.2099 52.6124H109.576C110.23 52.6124 110.763 52.08 110.763 51.4257C110.763 50.7715 110.23 50.239 109.576 50.239H85.2099Z" fill="#15376D"/>
<path d="M85.2104 56.1446H113.264C114.103 56.1446 114.783 56.8241 114.783 57.6627C114.783 58.5014 114.104 59.1809 113.264 59.1809H85.2104C84.3717 59.1809 83.6914 58.5014 83.6914 57.6627C83.6914 56.8241 84.3717 56.1446 85.2104 56.1446Z" fill="#F2F7F8"/>
<path d="M113.264 59.5141H85.2099C84.1911 59.5141 83.3594 58.685 83.3594 57.6636C83.3594 56.6422 84.1885 55.8131 85.2099 55.8131H113.264C114.284 55.8131 115.114 56.6422 115.114 57.6636C115.114 58.685 114.285 59.5141 113.264 59.5141ZM85.2099 56.4787C84.5556 56.4787 84.0232 57.0111 84.0232 57.6653C84.0232 58.3196 84.5556 58.852 85.2099 58.852H113.264C113.918 58.852 114.451 58.3196 114.451 57.6653C114.451 57.0111 113.918 56.4787 113.264 56.4787H85.2099Z" fill="#15376D"/>
<path d="M85.2104 62.3834H109.575C110.413 62.3834 111.094 63.0628 111.094 63.9015C111.094 64.7402 110.413 65.4197 109.575 65.4197H85.2104C84.3717 65.4197 83.6914 64.7402 83.6914 63.9015C83.6914 63.0628 84.3717 62.3834 85.2104 62.3834Z" fill="#F2F7F8"/>
<path d="M109.576 65.7511H85.2099C84.1911 65.7511 83.3594 64.922 83.3594 63.9006C83.3594 62.8792 84.1885 62.0501 85.2099 62.0501H109.576C110.596 62.0501 111.427 62.8792 111.427 63.9006C111.427 64.922 110.597 65.7511 109.576 65.7511ZM85.2099 62.7157C84.5556 62.7157 84.0232 63.2481 84.0232 63.9024C84.0232 64.5566 84.5556 65.0891 85.2099 65.0891H109.576C110.23 65.0891 110.763 64.5566 110.763 63.9024C110.763 63.2481 110.23 62.7157 109.576 62.7157H85.2099Z" fill="#15376D"/>
<path d="M57.7954 75.7831H109.947C110.785 75.7831 111.466 76.4626 111.466 77.3013C111.466 78.1399 110.785 78.8194 109.947 78.8194H57.7954C56.9567 78.8194 56.2764 78.1399 56.2764 77.3013C56.2764 76.4626 56.9567 75.7831 57.7954 75.7831Z" fill="#F2F7F8"/>
<path d="M109.949 79.15H57.7958C56.7762 79.15 55.9453 78.3209 55.9453 77.2995C55.9453 76.2781 56.7744 75.449 57.7958 75.449H109.949C110.968 75.449 111.799 76.2781 111.799 77.2995C111.799 78.3209 110.97 79.15 109.949 79.15ZM57.7958 76.1146C57.1416 76.1146 56.6091 76.647 56.6091 77.3013C56.6091 77.9555 57.1416 78.4879 57.7958 78.4879H109.949C110.603 78.4879 111.135 77.9555 111.135 77.3013C111.135 76.647 110.603 76.1146 109.949 76.1146H57.7958Z" fill="#15376D"/>
<path d="M57.7954 82.0201H113.636C114.475 82.0201 115.155 82.6996 115.155 83.5383C115.155 84.377 114.475 85.0564 113.636 85.0564H57.7954C56.9567 85.0564 56.2764 84.377 56.2764 83.5383C56.2764 82.6996 56.9567 82.0201 57.7954 82.0201Z" fill="#F2F7F8"/>
<path d="M113.637 85.3896H57.7958C56.7762 85.3896 55.9453 84.5605 55.9453 83.5392C55.9453 82.5178 56.7744 81.6887 57.7958 81.6887H113.637C114.656 81.6887 115.487 82.5178 115.487 83.5392C115.487 84.5605 114.658 85.3896 113.637 85.3896ZM57.7958 82.3542C57.1416 82.3542 56.6091 82.8867 56.6091 83.5409C56.6091 84.1951 57.1416 84.7276 57.7958 84.7276H113.637C114.291 84.7276 114.823 84.1951 114.823 83.5409C114.823 82.8867 114.291 82.3542 113.637 82.3542H57.7958Z" fill="#15376D"/>
<path d="M57.7954 97.1851H113.636C114.475 97.1851 115.155 97.8646 115.155 98.7033C115.155 99.542 114.475 100.221 113.636 100.221H57.7954C56.9567 100.221 56.2764 99.542 56.2764 98.7033C56.2764 97.8646 56.9567 97.1851 57.7954 97.1851Z" fill="#F2F7F8"/>
<path d="M113.637 100.553H57.7958C56.7762 100.553 55.9453 99.7238 55.9453 98.7024C55.9453 97.681 56.7744 96.8519 57.7958 96.8519H113.637C114.656 96.8519 115.487 97.681 115.487 98.7024C115.487 99.7238 114.658 100.553 113.637 100.553ZM57.7958 97.5174C57.1416 97.5174 56.6091 98.0499 56.6091 98.7041C56.6091 99.3584 57.1416 99.8908 57.7958 99.8908H113.637C114.291 99.8908 114.823 99.3584 114.823 98.7041C114.823 98.0499 114.291 97.5174 113.637 97.5174H57.7958Z" fill="#15376D"/>
<path d="M57.7954 109.481H100.726C101.564 109.481 102.245 110.16 102.245 110.999C102.245 111.838 101.565 112.517 100.726 112.517H57.7954C56.9567 112.517 56.2764 111.838 56.2764 110.999C56.2764 110.16 56.9567 109.481 57.7954 109.481Z" fill="#F2F7F8"/>
<path d="M100.728 112.848H57.7958C56.7762 112.848 55.9453 112.019 55.9453 110.997C55.9453 109.976 56.7744 109.147 57.7958 109.147H100.728C101.747 109.147 102.578 109.976 102.578 110.997C102.578 112.019 101.749 112.848 100.728 112.848ZM57.7958 109.812C57.1416 109.812 56.6091 110.345 56.6091 110.999C56.6091 111.653 57.1416 112.186 57.7958 112.186H100.728C101.382 112.186 101.914 111.653 101.914 110.999C101.914 110.345 101.382 109.812 100.728 109.812H57.7958Z" fill="#15376D"/>
<path d="M57.7954 88.2589H109.947C110.785 88.2589 111.466 88.9384 111.466 89.7771C111.466 90.6157 110.785 91.2952 109.947 91.2952H57.7954C56.9567 91.2952 56.2764 90.6157 56.2764 89.7771C56.2764 88.9384 56.9567 88.2589 57.7954 88.2589Z" fill="#F2F7F8"/>
<path d="M109.949 91.6284H57.7958C56.7762 91.6284 55.9453 90.7993 55.9453 89.7779C55.9453 88.7565 56.7744 87.9274 57.7958 87.9274H109.949C110.968 87.9274 111.799 88.7565 111.799 89.7779C111.799 90.7993 110.97 91.6284 109.949 91.6284ZM57.7958 88.593C57.1416 88.593 56.6091 89.1254 56.6091 89.7797C56.6091 90.4339 57.1416 90.9663 57.7958 90.9663H109.949C110.603 90.9663 111.135 90.4339 111.135 89.7797C111.135 89.1254 110.603 88.593 109.949 88.593H57.7958Z" fill="#15376D"/>
<path d="M57.7954 103.332H93.3489C94.1876 103.332 94.8679 104.011 94.8679 104.85C94.8679 105.688 94.1876 106.368 93.3489 106.368H57.7954C56.9567 106.368 56.2764 105.688 56.2764 104.85C56.2764 104.011 56.9567 103.332 57.7954 103.332Z" fill="#F2F7F8"/>
<path d="M93.351 106.701H57.7958C56.7762 106.701 55.9453 105.872 55.9453 104.851C55.9453 103.829 56.7744 103 57.7958 103H93.351C94.3706 103 95.2015 103.829 95.2015 104.851C95.2015 105.872 94.3723 106.701 93.351 106.701ZM57.7958 103.666C57.1416 103.666 56.6091 104.198 56.6091 104.852C56.6091 105.507 57.1416 106.039 57.7958 106.039H93.351C94.0052 106.039 94.5376 105.507 94.5376 104.852C94.5376 104.198 94.0052 103.666 93.351 103.666H57.7958Z" fill="#15376D"/>
<path d="M122.476 40.0078L123.844 42.4856L122.449 45.2461L122.476 40.0078Z" fill="#15376D"/>
<path d="M67.8005 49.2072C70.541 49.2072 72.7621 51.4283 72.7621 54.1688C72.7621 56.9093 70.541 59.1304 67.8005 59.1304C65.06 59.1304 62.8389 56.9093 62.8389 54.1688C62.8389 51.4283 65.06 49.2072 67.8005 49.2072Z" fill="#15376D"/>
<path d="M64.0677 59.8604H71.5323C73.8821 59.8604 75.7883 61.7683 75.7883 64.1164V66.9274C75.7883 67.2902 75.4934 67.5851 75.1306 67.5851H60.4702C60.1074 67.5851 59.8125 67.2902 59.8125 66.9274V64.1164C59.8125 61.7665 61.7204 59.8604 64.0685 59.8604H64.0677Z" fill="#15376D"/>
<path d="M112.796 109.488C111.143 111.437 110.2 114.022 111.283 115.225C112.382 116.448 115.233 115.891 117.345 114.359C115.623 114.235 113.194 112.053 112.796 109.488Z" fill="white"/>
<path d="M157.163 78.8907C156.61 79.3979 158.902 80.087 156.865 82.282C155.805 83.4234 140.1 97.4104 140.1 97.4104C139.956 97.5418 140.042 97.7958 140.24 97.8733C140.924 98.1421 141.541 98.1734 141.952 97.9142C142.04 98.002 159.218 84.0481 160.177 82.9945C161.447 81.599 161.593 80.7638 161.159 79.5145C160.841 78.5967 160.392 77.5736 159.808 76.8584C159.725 76.7566 159.569 76.734 159.457 76.8323L157.163 78.8907Z" fill="#F2F7F8"/>
<path d="M140.117 98.1821C139.689 98.0116 139.549 97.4556 139.878 97.1625C140.037 97.0215 155.583 83.1711 156.621 82.0549C157.76 80.8291 157.461 80.2401 156.87 79.4841C156.672 79.2291 156.703 78.8595 156.941 78.6446C159.437 76.3843 159.335 76.4138 159.663 76.4391C159.819 76.4512 159.967 76.5278 160.065 76.6487C160.582 77.2899 161.059 78.2156 161.473 79.404C161.974 80.8413 161.709 81.8035 160.424 83.2155C159.22 84.5396 142.193 98.2065 142.043 98.2439C141.472 98.5475 140.725 98.4222 140.118 98.1812L140.117 98.1821ZM140.409 97.5809C140.986 97.8002 141.484 97.8219 141.777 97.6323C142.103 97.4208 158.761 84.0568 159.933 82.7692C161.178 81.4033 161.22 80.6934 160.848 79.6215C160.476 78.5523 160.06 77.7197 159.611 77.1403L157.419 79.1074C158.217 80.147 158.434 81.0814 157.109 82.5082C156.081 83.6157 141.786 96.3534 140.409 97.5809Z" fill="#15376D"/>
<path d="M164.119 67.0892C161.759 64.4679 159.287 64.7532 156.772 67.144L112.954 108.82C111.536 110.271 109.908 112.95 110.649 114.817C108.418 117.366 109.192 117.689 111.767 115.971C113.502 116.757 116.464 115.62 117.775 114.471L163.455 74.3519C166.096 72.0386 166.648 69.8993 164.119 67.0883V67.0892ZM111.531 115.001C110.701 114.08 111.223 112.045 112.623 110.21C113 111.94 114.921 114.007 116.476 114.529C114.541 115.675 112.384 115.948 111.531 115.001Z" fill="#15376D"/>
<path d="M157.277 68.5525C157.241 68.188 157.79 68.1306 157.828 68.4951C158.109 71.1477 161.333 73.3184 162.979 72.1743C163.279 71.9655 163.596 72.4171 163.296 72.6276C161.237 74.0735 157.575 71.5375 157.276 68.5525H157.277Z" fill="white"/>
<path d="M143.998 80.2027L142.045 82.0593C142.035 83.9341 145.256 87.4985 147.101 87.8308L149.081 86.0926C147.238 85.9543 143.674 81.9931 143.998 80.2018V80.2027Z" fill="white"/>
</svg>