<svg width="17" height="16" viewBox="0 0 17 16" fill="none" xmlns="http://www.w3.org/2000/svg">
<path d="M6.62449 11.187C6.51404 11.187 6.42449 11.0975 6.42449 10.987V1.7C6.42449 1.58954 6.51404 1.5 6.62449 1.5H12.5107C13.2273 1.5 13.81 2.08333 13.81 2.8V4.15567C13.81 4.30295 13.5518 4.36693 13.4598 4.25189C13.1054 3.80863 12.56 3.47379 11.8098 3.47379C10.6485 3.47379 9.97713 4.27713 9.74713 5.04246C8.94713 5.27579 8.41047 5.98246 8.41047 6.88713C8.41047 7.6438 8.85647 8.33113 9.5498 8.6378C9.85713 8.77247 10.1391 8.80047 10.3218 8.80047H13.2958C13.4071 8.80047 13.5225 8.78987 13.6407 8.76827C13.7269 8.75253 13.81 8.8162 13.81 8.9038V10.6873L13.8099 10.6984L13.8145 13.2063C13.8125 13.921 13.2291 14.5003 12.5151 14.5003H5.04716C3.85716 14.5003 2.88916 13.5317 2.88916 12.3397L2.8893 12.3147V3.72667C2.8893 2.49867 3.88863 1.5 5.11663 1.5H5.22449C5.33495 1.5 5.42449 1.58954 5.42449 1.7V10.987C5.42449 11.0975 5.33495 11.187 5.22449 11.187H5.04716C4.40849 11.187 3.88916 11.7037 3.88916 12.3397C3.88916 12.9797 4.40849 13.5003 5.04716 13.5003H12.5151C12.6798 13.5003 12.8138 13.3677 12.8145 13.2057L12.8115 11.3867C12.8113 11.2763 12.7218 11.187 12.6115 11.187H6.62449Z" fill="#808082"/>
<path d="M9.46484 6.9562C9.46484 6.27554 9.94284 5.88088 10.5342 5.87488C10.5342 5.45154 10.8675 4.59888 11.8102 4.59888C12.7522 4.59888 13.0862 5.45154 13.0862 5.87488C13.6775 5.88088 14.1555 6.27554 14.1555 6.9562C14.1555 7.39086 13.8962 7.76886 13.5215 7.9402C13.3622 8.00353 13.2042 8.0262 13.0855 8.0262H10.5328C10.4142 8.0262 10.2568 8.00353 10.1002 7.93486C9.72551 7.76886 9.46484 7.39086 9.46484 6.9562Z" fill="#808082"/>
</svg>
