<svg width="17" height="16" viewBox="0 0 17 16" fill="none" xmlns="http://www.w3.org/2000/svg">
<path fill-rule="evenodd" clip-rule="evenodd" d="M8.84661 10.2938C8.84708 10.296 8.84728 10.2983 8.84728 10.3005C8.84728 10.3027 8.84748 10.3049 8.84788 10.3071C8.89921 10.5792 8.71955 10.8374 8.44728 10.8905C8.42061 10.8972 8.38728 10.8972 8.35394 10.8972C8.12061 10.8972 7.91395 10.7305 7.86728 10.4905C7.81395 10.2238 7.99395 9.95716 8.26061 9.90383C8.53948 9.85069 8.79188 10.029 8.84661 10.2938ZM8.44728 9.07716C8.42061 9.08383 8.38728 9.08383 8.35394 9.08383C8.12061 9.08383 7.91395 8.91716 7.86728 8.67716C7.81395 8.41049 7.99395 8.14383 8.26061 8.09049C8.53948 8.03736 8.79188 8.21563 8.84661 8.48049C8.84708 8.48269 8.84728 8.48496 8.84728 8.48716C8.84728 8.48936 8.84748 8.49156 8.84788 8.49376C8.89921 8.76589 8.71955 9.02403 8.44728 9.07716ZM8.84728 12.0705C8.84728 12.0749 8.84775 12.0794 8.84855 12.0837C8.89775 12.3482 8.72501 12.6109 8.45395 12.6638C8.42061 12.6705 8.38728 12.6705 8.35394 12.6705C8.17394 12.6705 8.00728 12.5772 7.92061 12.4238C7.89395 12.3772 7.88061 12.3238 7.86728 12.2705C7.81395 11.9972 7.98728 11.7305 8.25395 11.6772C8.50535 11.6256 8.75674 11.7734 8.83334 12.0123C8.83861 12.0286 8.84281 12.0454 8.84641 12.0622C8.84694 12.0648 8.84728 12.0674 8.84728 12.0705ZM10.9673 9.07716C10.9339 9.08383 10.9073 9.08383 10.8739 9.08383C10.6406 9.08383 10.4273 8.91716 10.3806 8.67716C10.3339 8.41049 10.5073 8.14383 10.7806 8.09049C11.0523 8.03743 11.3109 8.21509 11.3598 8.47916C11.3603 8.48216 11.3618 8.48496 11.3639 8.48716C11.3661 8.48929 11.3675 8.49216 11.3681 8.49516C11.4119 8.76676 11.2391 9.02409 10.9673 9.07716ZM11.3639 12.0738C11.3661 12.076 11.3676 12.0788 11.3682 12.0818C11.4185 12.3469 11.2391 12.6108 10.9739 12.6638C10.9406 12.6705 10.9073 12.6705 10.8739 12.6705C10.6406 12.6705 10.4339 12.5105 10.3873 12.2705C10.3273 11.9972 10.5073 11.7305 10.7739 11.6772C11.0457 11.6241 11.3043 11.7952 11.3597 12.0658C11.3603 12.0688 11.3618 12.0716 11.3639 12.0738ZM10.9673 10.8905C10.9339 10.8972 10.9073 10.8972 10.8739 10.8972C10.6406 10.8972 10.4273 10.7305 10.3806 10.4905C10.3339 10.2238 10.5073 9.95716 10.7806 9.90383C11.0523 9.85076 11.3109 10.0284 11.3598 10.2925C11.3603 10.2955 11.3618 10.2983 11.3639 10.3005C11.3661 10.3026 11.3675 10.3055 11.3681 10.3085C11.4119 10.5801 11.2391 10.8374 10.9673 10.8905ZM8.17395 3.73715C8.20061 4.01048 8.00061 4.25715 7.72728 4.28381H7.67395C7.42061 4.28381 7.20728 4.09048 7.18061 3.83048C7.15395 3.55715 7.35394 3.31048 7.62728 3.28381C7.91394 3.26381 8.14728 3.45715 8.17395 3.73048V3.73715ZM6.30062 3.73715C6.32729 4.01048 6.12062 4.25715 5.84729 4.28381H5.80062C5.54729 4.28381 5.32729 4.09048 5.30062 3.83048C5.27395 3.55715 5.48062 3.31048 5.75395 3.28381C6.03395 3.26381 6.27395 3.45715 6.30062 3.73048V3.73715ZM14.4086 13.6266C14.3945 13.6244 14.3805 13.621 14.3663 13.619C14.3533 13.6172 14.3403 13.6172 14.3273 13.6172H13.9206C13.8101 13.6172 13.7206 13.5276 13.7206 13.4172V7.49716C13.7206 6.59048 12.9806 5.84381 12.0739 5.84381H7.16728C6.26062 5.84381 5.51395 6.59048 5.51395 7.49716V13.4172C5.51395 13.5276 5.42441 13.6172 5.31395 13.6172H5.04729C4.93683 13.6172 4.84729 13.5276 4.84729 13.4172V7.49716C4.84729 6.22381 5.88728 5.17715 7.16728 5.17715H9.75395C9.86441 5.17715 9.95395 5.08761 9.95395 4.97715V3.43715C9.95395 2.53048 9.21394 1.78381 8.30061 1.78381H5.22729C4.31395 1.78381 3.56729 2.53048 3.56729 3.43715V13.4172C3.56729 13.5276 3.47775 13.6172 3.36729 13.6172H2.96729C2.69395 13.6172 2.46729 13.8438 2.46729 14.1172C2.46729 14.3972 2.69395 14.6172 2.96729 14.6172H14.3273C14.6006 14.6172 14.8273 14.3972 14.8273 14.1172C14.8273 13.8712 14.645 13.6629 14.4086 13.6266Z" fill="#808082"/>
</svg>
