<svg width="37" height="36" viewBox="0 0 37 36" fill="none" xmlns="http://www.w3.org/2000/svg">
<path d="M17.5268 23.556C18.3636 24.3901 19.4969 24.8584 20.6785 24.8584C21.8601 24.8584 22.9935 24.3901 23.8303 23.556L25.4061 21.9804C26.2429 21.1463 27.3763 20.678 28.5579 20.678C29.7394 20.678 30.8728 21.1463 31.7096 21.9804L34.8614 25.1317C35.3221 25.5174 35.6927 25.9995 35.947 26.544C36.2012 27.0884 36.333 27.682 36.333 28.2829C36.333 28.8838 36.2012 29.4774 35.947 30.0219C35.6927 30.5663 35.3221 31.0484 34.8614 31.4342C26.6083 39.6882 17.108 35.7672 8.83021 27.4906C0.552382 19.214 -3.34903 9.72423 4.90629 1.47017C5.29234 1.00981 5.77459 0.639619 6.3191 0.385623C6.86362 0.131627 7.45718 0 8.05803 0C8.65889 0 9.25245 0.131627 9.79697 0.385623C10.3415 0.639619 10.8237 1.00981 11.2098 1.47017L14.3615 4.62143C15.1963 5.45781 15.6651 6.59113 15.6651 7.7727C15.6651 8.95427 15.1963 10.0876 14.3615 10.924L12.7856 12.4996C11.9509 13.336 11.4821 14.4693 11.4821 15.6509C11.4821 16.8324 11.9509 17.9657 12.7856 18.8021L17.5268 23.556Z" fill="$primary"/>
</svg>
