<svg width="24" height="24" viewBox="0 0 24 24" fill="none" xmlns="http://www.w3.org/2000/svg">
<path d="M4.35929 18.8033L4.35742 16.6595L6.48903 16.6577" stroke="#4600C7" stroke-width="1.44" stroke-linecap="round" stroke-linejoin="round"/>
<path d="M19.0345 5.1958L19.0364 7.33956L16.9048 7.34143" stroke="#4600C7" stroke-width="1.44" stroke-linecap="round" stroke-linejoin="round"/>
<path fill-rule="evenodd" clip-rule="evenodd" d="M14.307 10.5693L13.1823 9.44469C12.3622 8.62456 11.0321 8.62456 10.211 9.44469L9.08629 10.5693C8.26616 11.3904 8.26616 12.7206 9.08629 13.5417L10.211 14.6654C11.0321 15.4865 12.3622 15.4865 13.1823 14.6654L14.307 13.5417C15.128 12.7206 15.128 11.3904 14.307 10.5693Z" stroke="#4600C7" stroke-width="1.44" stroke-linecap="round" stroke-linejoin="round"/>
<path d="M4.61084 16.7086C7.14132 20.6038 12.334 21.777 16.3002 19.3165C18.784 17.7762 20.2047 15.1711 20.3383 12.4575" stroke="#4600C7" stroke-width="1.44" stroke-linecap="round" stroke-linejoin="round"/>
<path d="M18.7855 7.29086C16.2551 3.39566 11.0624 2.22244 7.09621 4.68285C4.61244 6.22318 3.19168 8.82839 3.05811 11.542" stroke="#4600C7" stroke-width="1.44" stroke-linecap="round" stroke-linejoin="round"/>
</svg>
