<svg width="174" height="174" viewBox="0 0 174 174" fill="none" xmlns="http://www.w3.org/2000/svg">
<path fill-rule="evenodd" clip-rule="evenodd" d="M97.8358 79.1883L98.2038 77.4926L101.145 75.1898C101.145 75.1898 105.066 71.0024 108.949 70.7528C112.832 70.5031 114.952 71.6228 116.224 74.5468C116.224 74.5433 107.744 72.6946 97.8358 79.1883Z" fill="white"/>
<path fill-rule="evenodd" clip-rule="evenodd" d="M115.526 45.3331C116.804 46.9661 117.521 48.9679 117.571 51.0412C118.048 51.0412 118.404 49.2664 121.474 48.439C124.543 47.6116 124.78 47.2341 126.381 45.9752C127.981 44.7163 128.663 41.9732 131.278 40.3393C134.112 38.5671 133.836 38.7959 134.589 37.8981C135.342 37.0002 135.656 35.2803 136.696 34.9723C137.737 34.6643 137.684 33.6064 135.954 34.091C134.209 34.5808 134.092 36.3712 133.988 35.5769C133.857 34.8801 133.815 34.1693 133.865 33.462C133.891 31.8516 135.139 29.46 134.126 29.8758C133.113 30.2917 133.14 33.0017 132.53 33.0035C131.919 33.0052 133.766 28.2828 132.564 28.9345C131.363 29.5861 131.72 33.3384 130.993 33.4585C130.267 33.5785 132.009 28.5987 130.754 29.4634C129.499 30.3282 130.082 34.0631 129.524 34.2049C128.965 34.3467 129.959 30.892 129.496 30.4639C129.033 30.0359 128.663 30.8885 128.417 33.7917C128.234 35.3533 128.398 36.9362 128.897 38.427C127.031 40.2688 127.225 39.8799 123.242 42.0097C119.26 44.1395 120.975 43.8663 117.564 45.0469C116.883 45.2844 115.112 44.8276 115.526 45.3331Z" fill="white"/>
<path d="M82.3594 56.4682C81.3527 56.7717 80.3701 57.1497 79.4196 57.5992C77.7466 58.1926 76.0493 57.012 72.3309 58.3666C68.6125 59.7212 66.4888 60.9644 65.6502 59.4271C64.8115 57.8898 65.9051 57.3104 65.022 54.9205C64.3112 52.9934 63.9075 53.2849 64.3721 51.4448C64.8271 49.6379 63.3081 49.9963 62.8409 51.3004C62.412 52.4984 63.0558 52.8212 62.5329 54.3332C62.3291 54.9612 62.1612 55.6002 62.0301 56.2472C61.4758 54.9611 60.7417 53.7601 59.8499 52.6802C58.2064 50.5783 56.6474 48.5469 55.9096 49.49C55.3807 50.1677 59.3714 54.1627 58.8842 54.71C58.397 55.2572 55.0562 49.0802 54.0913 49.8684C52.7437 50.9733 57.861 55.1502 57.1946 56.0402C56.5282 56.9302 53.197 50.8759 52.6036 53.1788C52.3226 54.2663 56.7457 57.0346 56.0836 57.8611C55.4216 58.6876 52.8394 54.5133 52.521 56.3551C52.2974 57.6514 55.4381 58.2248 56.7492 60.2144C58.0603 62.2041 58.7276 63.0672 60.2753 63.49C61.823 63.9128 64.6497 62.9158 68.9544 63.8798C73.2592 64.8437 79.3074 64.2278 82.3968 62.7896C83.4824 62.2193 84.6335 61.7834 85.8246 61.4916C85.6158 60.338 85.9003 55.6052 82.3594 56.4682Z" fill="white"/>
<path fill-rule="evenodd" clip-rule="evenodd" d="M111.557 55.6687H117.228C118.309 48.8479 115.526 45.3331 115.526 45.3331C112.375 45.8899 110.053 46.8486 107.845 46.8817L101.007 46.9905C94.8822 46.3014 94.9831 48.2485 94.9831 48.2485C94.9831 48.2485 91.1612 52.4045 89.8501 52.6159C84.2891 53.5207 80.3523 57.1938 79.9069 57.4087C79.9069 57.4087 84.3334 54.3637 85.5149 59.093C86.6128 63.4909 86.2109 64.8681 84.3839 64.9551C82.7822 65.0316 81.7269 63.2394 81.7269 63.2394L80.9622 63.3264C80.9622 63.3264 82.1723 66.8691 85.6341 65.2909C89.0958 63.7127 88.7661 64.0094 89.6578 65.5432C90.5496 67.0787 92.8855 67.3345 91.959 72.3962C91.0324 77.4578 94.1505 76.5826 92.5175 78.9064C91.5613 80.1574 91.1196 81.7268 91.283 83.2929C93.0219 83.4593 94.7731 83.1438 96.3446 82.3812C96.8075 82.1445 97.8323 78.6924 98.3674 77.3639C103.371 71.6045 116.066 65.8686 116.463 77.8067C117.55 76.2564 115.959 68.4194 114.294 64.5436C113.098 61.7596 112.795 57.8515 112.485 57.4096L111.557 55.6687Z" fill="#F2F7F8"/>
<path d="M104.574 53.5207L102.012 54.0183L103.915 56.0828L104.574 53.5207Z" fill="white"/>
<path d="M87.7891 62.553L90.3512 63.0515L88.4477 65.116L87.7891 62.553Z" fill="white"/>
<path d="M104.243 63.423L105.613 61.2332L106.236 64.0799L104.243 63.423Z" fill="white"/>
<path d="M93.1561 67.2632L94.5264 65.0725L95.1484 67.92L93.1561 67.2632Z" fill="white"/>
<path d="M94.1758 51.6032L93.2101 49.61H94.917L94.1758 51.6023V51.6032Z" fill="white"/>
<path d="M86.0612 58.2813L84.3508 56.8745L85.9029 56.1602L86.0612 58.2813Z" fill="white"/>
<path d="M99.4349 62.1667L97.7245 60.7591L99.2766 60.0457L99.4349 62.1667Z" fill="white"/>
<path d="M92.467 73.4802L91.5022 71.4879H93.21L92.467 73.4802Z" fill="white"/>
<path d="M95.1484 74.4067L96.8423 75.8335L95.2824 76.5295L95.1484 74.4067Z" fill="white"/>
<path d="M97.8576 54.6256L96.222 56.6631L95.2789 54.0183L97.8576 54.6256Z" fill="white"/>
<path d="M91.5022 56.9937L92.6272 59.3488L89.8353 59.0487L91.5022 56.9937Z" fill="white"/>
<path d="M115.213 72.2692L113.159 71.4418L114.425 70.2934L115.213 72.2683V72.2692Z" fill="white"/>
<path d="M116.294 48.446L115.607 50.5514L114.376 49.3664L116.294 48.446Z" fill="white"/>
<path d="M103.553 71.0242L101.499 70.1968L102.764 69.0484L103.553 71.0233V71.0242Z" fill="white"/>
<path d="M108.91 51.3787L106.857 50.5514L108.122 49.403L108.91 51.3779V51.3787Z" fill="white"/>
<path d="M114.819 65.076L115.944 67.4311L113.153 67.1309L114.819 65.076Z" fill="white"/>
<path d="M109.507 55.2528L111.489 56.9519L108.813 57.8063L109.507 55.2528Z" fill="white"/>
<path d="M109.96 67.1979L108.001 65.4718L110.688 64.6541L109.96 67.1979Z" fill="white"/>
<path d="M83.694 62.1902L85.8612 61.8805C86.2745 62.7061 86.666 64.4818 84.9321 64.9768C83.1981 65.4719 81.9358 63.945 81.519 63.1194L83.694 62.1902Z" fill="#F2F7F8"/>
<path d="M57.1982 59.789C57.1266 59.7888 57.0561 59.7708 56.9931 59.7368C56.9301 59.7028 56.8765 59.6537 56.8369 59.594C56.7974 59.5342 56.7733 59.4657 56.7666 59.3944C56.76 59.3231 56.7711 59.2512 56.7989 59.1852C57.5484 57.8063 58.6833 56.6754 60.0648 55.9306C60.1629 55.8758 60.2784 55.861 60.3871 55.8895C60.4958 55.9179 60.5892 55.9873 60.6479 56.0831C60.7066 56.1789 60.726 56.2936 60.7019 56.4034C60.6779 56.5131 60.6123 56.6093 60.519 56.6718C59.2983 57.3331 58.2867 58.3224 57.5984 59.528C57.5644 59.6058 57.5084 59.672 57.4373 59.7184C57.3662 59.7648 57.2831 59.7893 57.1982 59.789Z" fill="#15376D"/>
<path d="M59.7159 62.1006H59.7029C59.5876 62.0974 59.4784 62.0486 59.3991 61.9649C59.3198 61.8812 59.277 61.7695 59.2801 61.6543C59.2975 60.0926 59.6881 58.5571 60.418 57.1764C60.4773 57.0774 60.5735 57.006 60.6854 56.978C60.7409 56.9641 60.7985 56.9612 60.855 56.9696C60.9115 56.978 60.9658 56.9974 61.0148 57.0267C61.0639 57.0561 61.1066 57.0948 61.1407 57.1407C61.1747 57.1866 61.1994 57.2387 61.2133 57.2942C61.2272 57.3496 61.23 57.4072 61.2216 57.4637C61.2133 57.5202 61.1938 57.5746 61.1645 57.6236C60.5173 58.8783 60.1701 60.2661 60.1501 61.6778C60.1471 61.791 60.1001 61.8986 60.019 61.9778C59.938 62.0569 59.8292 62.1013 59.7159 62.1015V62.1006Z" fill="#15376D"/>
<path fill-rule="evenodd" clip-rule="evenodd" d="M97.7393 79.2457C97.7393 79.2457 95.6574 84.2612 96.6553 87.7526C97.0033 88.9706 101.173 95.7853 100.127 101.138C99.1957 105.909 99.22 103.922 98.745 105.27C98.27 106.619 97.701 107.059 95.6878 108.228C93.9536 109.139 92.5886 110.623 91.825 112.427C91.288 113.401 90.9223 114.46 90.7436 115.559C90.333 117.481 92.7446 121.861 95.66 122.275C98.5754 122.689 97.5209 121.18 99.8699 120.52C102.219 119.861 101.703 119.381 103.133 117.517C104.564 115.653 111.492 112.184 112.094 107.796C112.696 103.409 110.061 93.3484 111.572 86.2353L116.834 84.4761L116.385 74.8191C111.724 72.792 105.668 74.6451 97.7393 79.2457Z" fill="#F2F7F8"/>
<path d="M89.804 64.9089C89.021 63.4778 88.5225 63.5169 86.1083 64.6044C87.0139 63.3551 86.3388 60.5885 85.9386 58.9869C85.3879 56.7831 84.1055 55.9532 82.6083 56.0106C82.6196 55.9267 82.6062 55.8414 82.5698 55.7651C82.5333 55.6887 82.4754 55.6246 82.4031 55.5807C82.3308 55.5367 82.2473 55.5148 82.1627 55.5176C82.0782 55.5204 81.9963 55.5478 81.927 55.5965C81.653 55.7896 81.4268 55.9566 81.2258 56.1054C79.3727 57.4713 78.5993 57.3921 77.3108 57.3034C74.3015 57.0972 73.1601 57.5644 70.3004 58.6763C67.6904 59.6942 66.5159 60.1048 66.033 59.22C65.1465 57.5983 66.729 57.3365 64.8924 53.5206C64.5697 52.8507 64.5027 52.7115 64.795 51.5527C65.5023 48.747 61.9466 49.3655 62.2842 52.6837C62.3481 53.4634 62.2128 54.2466 61.8909 54.9596C61.3681 54.0242 60.769 53.1335 60.0996 52.2966C58.4153 50.1424 57.3339 48.8218 56.3638 48.8218C56.2088 48.8219 56.056 48.8585 55.9178 48.9288C55.7796 48.9991 55.66 49.1011 55.5687 49.2263C55.4822 49.3532 55.4319 49.5012 55.4232 49.6544C55.4144 49.8077 55.4476 49.9605 55.5191 50.0963C55.0258 49.5935 54.3646 49.0836 53.8165 49.5308C52.3227 50.7558 55.4843 53.5572 56.6753 55.4199C55.5121 54.3184 54.0148 51.9799 52.8899 52.2383C52.7043 52.2935 52.5387 52.4014 52.4132 52.5489C52.2876 52.6964 52.2075 52.8771 52.1826 53.0691C51.9808 53.8521 52.9804 54.7943 54.1384 55.8853C54.6839 56.3725 55.1954 56.8962 55.6722 57.4513C54.8196 56.9049 53.5772 55.1893 52.6637 55.4877C52.5027 55.5522 52.3637 55.6616 52.2631 55.8029C52.1626 55.9442 52.1047 56.1114 52.0965 56.2846C51.7981 58.0107 55.1006 58.5005 56.3899 60.4606C57.6706 62.4025 58.4205 63.4386 60.164 63.9145C61.8361 64.3713 64.5958 63.3551 68.864 64.3095C72.7999 65.0629 76.8549 64.9142 80.7247 63.8745C80.911 64.3527 81.1977 64.7854 81.5655 65.1433C81.9333 65.5012 82.3736 65.776 82.8567 65.9492C83.3398 66.1224 83.8544 66.1899 84.3658 66.1472C84.8772 66.1044 85.3735 65.9525 85.8212 65.7015C88.9149 64.2912 88.5182 64.4574 89.2881 65.7781C89.3483 65.8728 89.4427 65.9405 89.5517 65.9672C89.6607 65.9939 89.7758 65.9775 89.8729 65.9213C89.97 65.8652 90.0417 65.7737 90.073 65.6659C90.1042 65.5582 90.0927 65.4425 90.0407 65.3431C89.9502 65.176 89.871 65.036 89.804 64.9081V64.9089ZM69.0528 63.4534C66.9595 63.0121 64.811 62.893 62.6818 63.1002C61.921 63.2015 61.1495 63.1906 60.3919 63.068C59.0078 62.6896 58.4257 61.9605 57.1155 59.9734C55.7896 57.962 52.709 57.259 52.9743 56.3334C53.4296 56.5443 53.8539 56.8162 54.2358 57.1416C54.917 57.7793 55.894 58.7667 56.5083 57.9959C57.0929 57.2625 56.0063 56.4499 54.7343 55.2511C54.1253 54.6795 52.9943 53.6155 53.0248 53.2849C53.0596 53.1509 53.0952 53.0961 53.0926 53.0848C53.4406 53.0935 54.4394 54.2393 54.9771 54.8578C55.9628 55.9888 56.4717 56.5978 57.045 56.563C57.1423 56.5593 57.2375 56.5339 57.3237 56.4888C57.41 56.4436 57.4851 56.3798 57.5435 56.302C58.0377 55.64 57.2234 54.6282 56.0967 53.2266C55.3451 52.287 53.9461 50.547 54.288 50.232C54.7335 50.2825 56.0332 52.059 56.7318 53.016C57.9098 54.6299 58.3292 55.1528 58.7816 55.1754C58.8617 55.1803 58.9418 55.1673 59.0162 55.1372C59.0906 55.1071 59.1573 55.0607 59.2113 55.0014C59.6655 54.4942 59.1156 53.7199 57.8272 52.0173C57.2315 51.3107 56.7208 50.5366 56.3055 49.7109C56.7762 49.3629 59.0782 52.4018 59.5098 52.9534C60.3709 54.0002 61.0826 55.1614 61.6247 56.4038C61.6576 56.4926 61.7185 56.5682 61.7983 56.6191C61.878 56.6701 61.9722 56.6937 62.0665 56.6864C62.1609 56.679 62.2503 56.641 62.3211 56.5783C62.3919 56.5155 62.4404 56.4314 62.4591 56.3386C62.5869 55.7104 62.7496 55.0901 62.9471 54.4803C63.4917 52.9038 62.8854 52.4793 63.2534 51.4527C63.3037 51.2693 63.3957 51.1001 63.5222 50.9581C63.6486 50.8161 63.8061 50.7052 63.9824 50.634C64.0129 50.6688 64.0694 50.875 63.9528 51.343C63.4474 53.344 63.9189 53.1866 64.6167 55.0753C65.4484 57.326 64.3557 57.9611 65.2709 59.6402C66.1409 61.2358 67.9218 60.5415 70.6179 59.4906C73.334 58.4327 74.3954 57.9768 77.2534 58.1751C78.0277 58.2865 78.8168 58.2317 79.5676 58.0142C80.1108 57.8343 80.6275 57.5827 81.104 57.266C83.1877 56.3699 84.5484 57.005 85.0973 59.2017C85.2974 60.0039 85.4453 60.7042 85.5454 61.3106C85.0991 61.3228 84.3143 61.4202 82.2176 62.3973C78.9882 63.8989 72.933 64.3217 69.0528 63.4534ZM85.3975 64.1016C85.2717 64.2486 85.1126 64.3634 84.9334 64.4364C84.7542 64.5093 84.5601 64.5383 84.3674 64.5209C83.9526 64.4919 83.5503 64.3667 83.1923 64.1553C82.8343 63.9439 82.5304 63.6521 82.3046 63.3029C83.351 62.7414 84.484 62.3591 85.6567 62.1719C85.7929 62.8259 85.7014 63.5067 85.3975 64.1016Z" fill="#15376D"/>
<path d="M137.792 34.1432C137.729 33.9213 137.4 33.2331 135.837 33.6734C135.242 33.8368 134.71 34.1757 134.311 34.646C134.221 33.5798 134.348 32.5064 134.684 31.4905C134.954 30.4865 135.601 30.1742 134.889 29.607C134.632 29.4685 134.333 29.4303 134.05 29.4999C133.766 29.5695 133.519 29.7419 133.355 29.9837C133.472 29.2442 133.442 28.7944 133.127 28.5578C133.014 28.4784 132.881 28.4354 132.743 28.4345C132.606 28.4335 132.472 28.4747 132.358 28.5525C132.016 28.7613 131.755 29.0815 131.618 29.4591C131.405 28.5891 130.281 28.7631 129.785 30.1394C129.691 30.0434 129.572 29.9766 129.441 29.9469C129.31 29.9173 129.173 29.9261 129.047 29.9724C128.574 30.1586 128.231 30.8563 127.986 33.7569C127.826 35.2879 127.966 36.8352 128.396 38.3131C127.531 39.23 126.482 39.9547 125.318 40.4402C123.527 41.2941 121.8 42.2769 120.151 43.3808C119.327 43.9646 118.402 44.3906 117.423 44.6371C116.772 44.7728 116.113 44.8598 115.45 44.8981C115.374 44.9123 115.303 44.9459 115.244 44.9958C115.184 45.0456 115.139 45.11 115.112 45.1826C115.087 45.2555 115.08 45.3339 115.093 45.4101C115.107 45.4864 115.14 45.5578 115.189 45.6176C116.226 46.826 116.755 48.3146 117.132 51.0638C117.18 52.4209 117.069 53.779 116.8 55.1102C115.108 55.0401 113.414 55.1012 111.732 55.2929C110.882 53.8998 109.926 52.5748 108.871 51.33C108.813 51.2636 108.737 51.2159 108.653 51.1931C108.568 51.1703 108.478 51.1734 108.395 51.2021C108.34 51.222 108.29 51.2525 108.247 51.2919C108.204 51.3313 108.169 51.3789 108.144 51.4318C108.108 51.5119 108.097 51.6011 108.112 51.6877C108.127 51.7744 108.168 51.8544 108.23 51.9172C109.42 53.3801 110.518 54.9157 111.517 56.5152C111.579 56.6028 111.672 56.6639 111.778 56.6868C111.883 56.7097 111.993 56.6927 112.087 56.6391C112.18 56.5855 112.25 56.4991 112.284 56.3966C112.317 56.2942 112.311 56.183 112.267 56.0845C113.88 55.9605 115.499 55.9285 117.116 55.9889C117.21 55.9932 117.304 55.9659 117.381 55.9112C117.458 55.8565 117.515 55.7776 117.542 55.687C117.904 54.2567 118.062 52.7829 118.01 51.3082C118.543 50.8846 119.016 49.5509 121.588 48.8566C124.42 48.0936 124.935 47.6795 126.184 46.6816C127.136 45.9905 127.918 45.0921 128.471 44.0542C130.169 41.4442 130.792 41.1484 132.386 40.1549C134.039 39.123 134.735 38.8168 135.698 36.8541C136.033 36.1694 136.35 35.523 136.82 35.3838C137.53 35.1793 137.94 34.6556 137.792 34.1432ZM136.574 34.5547C135.737 34.8026 135.321 35.6543 134.921 36.4774C134.076 38.2043 133.575 38.3975 131.931 39.4223C130.172 40.5185 129.511 40.8709 127.746 43.5861C127.244 44.5459 126.525 45.3751 125.645 46.0073C124.463 46.9487 124.024 47.3036 121.366 48.0197C120 48.3253 118.774 49.076 117.881 50.1538C117.71 48.5674 117.184 47.0399 116.342 45.6846C116.806 45.6723 117.267 45.5968 117.712 45.4601C121.056 44.3021 119.679 44.4161 123.454 42.3951C127.44 40.2636 127.286 40.636 129.209 38.7411C129.271 38.6802 129.313 38.6024 129.33 38.5174C129.347 38.4325 129.339 38.3444 129.306 38.2643C128.838 36.8367 128.685 35.3249 128.857 33.8326C128.911 33.0304 129.018 32.2326 129.174 31.4444C129.306 30.892 129.63 31.3226 129.591 31.6184C129.459 32.3247 129.367 33.0377 129.314 33.7543C129.338 34.7696 130.01 34.9784 130.055 33.7647C130.067 33.4828 130.062 33.1357 130.087 32.7311C130.138 31.8986 130.312 29.9759 130.783 30.095C131.253 30.2125 130.874 31.0303 130.805 31.4314C130.581 32.7251 130.457 33.4219 130.77 33.7421C130.896 33.8691 130.879 33.9161 131.064 33.8917C131.703 33.7891 131.635 32.9025 131.798 31.7498C131.898 31.0451 131.96 29.4399 132.532 29.5948C133.105 29.7497 132.554 30.6388 132.458 31.0738C132.18 32.3353 131.855 32.9269 132.116 33.2488C132.169 33.308 132.233 33.3561 132.304 33.3902C132.376 33.4243 132.453 33.4436 132.532 33.4472C133.141 33.4472 132.983 32.3744 133.198 31.5593C133.308 31.1443 133.797 30.1733 134.155 30.2543C134.702 30.3761 134.106 31.173 134.049 31.3853C133.744 32.7196 133.569 34.0802 133.527 35.4482C133.715 36.5122 134.263 36.3573 134.583 35.7962C134.729 35.4911 134.937 35.2199 135.194 34.9997C135.451 34.7795 135.75 34.6152 136.074 34.5173C136.332 34.4311 136.604 34.3972 136.875 34.4163C136.784 34.4813 136.682 34.5286 136.573 34.5555H136.574V34.5547Z" fill="#15376D"/>
<path d="M92.1896 61.081C92.1256 61.0806 92.0625 61.0663 92.0047 61.0389C91.9469 61.0115 91.8959 60.9718 91.8551 60.9225C91.8144 60.8732 91.785 60.8156 91.7689 60.7536C91.7529 60.6917 91.7507 60.6271 91.7624 60.5642C91.7783 60.48 91.8189 60.4025 91.879 60.3415C92.5901 59.7248 93.0511 58.8694 93.175 57.9363C93.2988 57.0033 93.0771 56.0571 92.5515 55.2763C92.5128 55.2306 92.4839 55.1773 92.4667 55.1199C92.4495 55.0625 92.4443 55.0022 92.4514 54.9427C92.4586 54.8832 92.4779 54.8258 92.5082 54.7741C92.5386 54.7224 92.5792 54.6775 92.6277 54.6423C92.6762 54.607 92.7314 54.5821 92.7899 54.5692C92.8484 54.5562 92.909 54.5554 92.9678 54.5669C93.0266 54.5784 93.0824 54.6019 93.1317 54.636C93.1811 54.67 93.2228 54.7139 93.2545 54.7648C93.8857 55.7169 94.1565 56.863 94.018 57.9969C93.8796 59.1309 93.3411 60.1782 92.4993 60.9505C92.459 60.9918 92.4109 61.0247 92.3577 61.0471C92.3045 61.0695 92.2473 61.081 92.1896 61.081Z" fill="#15376D"/>
<path d="M166.953 64.3191C166.948 64.2065 166.9 64.1003 166.818 64.023C166.736 63.9458 166.627 63.9037 166.515 63.9058C166.44 63.9069 166.367 63.927 166.303 63.9641C142.372 77.5875 127.898 81.358 111.455 85.8255C111.347 85.8591 111.257 85.9332 111.202 86.0321C111.148 86.1311 111.134 86.2472 111.163 86.3562C111.193 86.4654 111.264 86.5587 111.361 86.6163C111.459 86.6738 111.575 86.691 111.685 86.6642C128.262 82.1054 141.666 78.8237 165.477 65.4309C161.172 73.8064 136.647 120.306 121.094 123.797C115.339 125.089 108.662 123.128 101.867 119.447C101.66 119.719 101.392 119.937 101.084 120.084C107.158 123.403 114.562 126.159 121.283 124.65C126.637 123.449 132.903 117.521 139.048 109.821C141.449 110.952 156.483 118.133 168.93 126.438C166.699 128.323 155.76 137.028 137.228 143.316C99.8438 156.006 66.3793 146.909 64.7637 146.772C66.4967 145.075 71.3809 140.329 78.2417 134.285C78.3251 134.208 78.375 134.102 78.3808 133.988C78.3866 133.875 78.3478 133.764 78.2727 133.678C78.1976 133.593 78.0922 133.541 77.9789 133.532C77.8657 133.524 77.7536 133.56 77.6667 133.633C70.7067 139.761 65.5963 144.73 64.052 146.248C63.1707 143.419 59.8638 129.702 59.528 82.5204C62.9349 86.6877 76.319 102.558 91.2534 113.691C91.3474 113.48 91.4718 113.225 91.6623 112.795C77.691 102.312 64.976 87.6682 60.8365 82.717C71.3635 87.8587 85.1295 89.115 96.8606 88.3259C96.7416 88.0494 96.6484 87.7625 96.5822 87.4689C93.1196 87.7012 89.6474 87.7412 86.1805 87.5907C68.5273 86.7834 59.4175 80.9726 59.3271 80.9143C59.2613 80.8718 59.1853 80.8478 59.107 80.8448C59.0288 80.8418 58.9511 80.86 58.8823 80.8974C58.8135 80.9348 58.756 80.99 58.716 81.0573C58.6759 81.1246 58.6547 81.2014 58.6545 81.2797C58.9782 136.781 63.2925 146.821 63.4761 147.221C63.5044 147.282 63.5468 147.336 63.5998 147.379C63.6528 147.421 63.715 147.451 63.7814 147.465C89.8762 153.017 117.272 152.163 142.248 142.506C160.117 135.596 169.845 126.791 169.941 126.703C170.177 126.49 170.32 130.914 166.953 64.32V64.3191ZM139.603 109.116C151.661 93.779 163.131 71.9368 166.17 65.9991L169.173 125.545C159.68 119.439 149.802 113.951 139.602 109.116H139.603Z" fill="#15376D"/>
<path fill-rule="evenodd" clip-rule="evenodd" d="M93.6807 45.2026L96.6813 49.9963C97.4856 50.4854 98.398 50.7686 99.3379 50.8206C100.278 50.8727 101.216 50.692 102.069 50.2947C105.185 48.9679 102.156 45.5593 102.156 45.5593C102.156 45.5593 105.201 44.8998 105.317 43.5879C105.433 42.2759 104.754 40.5672 104.946 39.4119C105.139 38.2565 104.918 35.7814 103.765 35.014C102.611 34.2467 101.285 34.3528 100.879 33.0931C100.474 31.8342 99.6359 30.129 95.6504 30.8311C91.6649 31.5331 84.2751 40.0678 90.46 45.2139C90.9054 45.6061 91.479 45.8215 92.0725 45.8194C92.6659 45.8173 93.2381 45.5979 93.6807 45.2026Z" fill="white"/>
<path fill-rule="evenodd" clip-rule="evenodd" d="M89.59 44.3596C89.59 44.3596 89.0123 43.3208 89.6935 42.6735C90.6731 41.7426 92.3966 43.2312 92.8847 42.7509C94.3419 41.3154 91.2317 40.6516 91.2317 40.6516C91.2317 40.6516 92.2652 40.2166 92.1304 39.2701C91.9955 38.3235 90.4609 38.5741 90.4609 38.5741C90.4609 38.5741 91.7537 37.7128 91.2134 36.6418C91.065 36.3416 90.8224 36.0982 90.5227 35.9488C90.2229 35.7994 89.8825 35.7522 89.5535 35.8144C88.4753 36.9781 87.8794 38.5079 87.8862 40.0942C87.8929 41.6806 88.5019 43.2051 89.59 44.3596Z" fill="#15376D"/>
<path fill-rule="evenodd" clip-rule="evenodd" d="M90.0284 44.8154C90.0284 44.8154 87.9865 45.5671 87.0643 44.3422C86.1421 43.1172 85.26 43.4173 85.032 41.158C84.7999 39.5248 84.9152 37.861 85.3704 36.2755C85.8333 33.9918 84.3447 33.6568 87.3923 31.6123C91.2743 29.0101 97.4669 28.1923 100.121 30.7232C100.163 30.7637 100.194 30.8146 100.21 30.8708C100.226 30.927 100.226 30.9865 100.212 31.043C100.197 31.0995 100.167 31.1511 100.126 31.1924C100.085 31.2338 100.033 31.2634 99.9769 31.2782C99.9008 31.2978 99.8202 31.2895 99.7498 31.2547C98.7139 30.6895 97.5551 30.3872 96.3751 30.3743C94.6394 30.477 93.2657 32.1308 92.648 32.6363C90.0563 34.7756 90.6313 37.8189 89.884 42.3333C88.5477 42.6013 89.3559 44.9973 90.0284 44.8154Z" fill="#F2F7F8"/>
<path fill-rule="evenodd" clip-rule="evenodd" d="M100.674 40.8117L102.312 39.3501C102.312 39.3501 103.259 42.0697 102.148 42.1115C101.037 42.1532 100.674 40.8117 100.674 40.8117Z" fill="white"/>
<path d="M102.095 42.5473C100.71 42.5473 100.268 40.9935 100.251 40.9265C100.229 40.8484 100.23 40.7658 100.254 40.6882C100.276 40.6101 100.321 40.5401 100.381 40.4863L102.023 39.0256C102.077 38.9785 102.141 38.9453 102.21 38.9289C102.279 38.9124 102.351 38.9133 102.42 38.9313C102.489 38.9494 102.552 38.9841 102.604 39.0324C102.656 39.0807 102.696 39.1411 102.719 39.2083C103.193 40.5577 103.513 42.5473 102.095 42.5473ZM101.181 40.9387C101.25 41.1414 101.376 41.3194 101.545 41.4508C101.714 41.5823 101.918 41.6613 102.131 41.6782C102.286 41.172 102.271 40.6289 102.088 40.1322L101.181 40.9387Z" fill="#15376D"/>
<path d="M99.0269 39.063C98.9627 39.0058 98.9169 38.931 98.8951 38.8478C98.8734 38.7646 98.8768 38.6769 98.9047 38.5957C98.9327 38.5144 98.9841 38.4432 99.0524 38.3911C99.1208 38.3389 99.203 38.3082 99.2887 38.3026C99.3458 38.2991 99.403 38.3069 99.4571 38.3256C99.5111 38.3442 99.5609 38.3734 99.6037 38.4114C99.6037 38.4114 100.048 38.7855 100.317 38.5854C100.373 38.5553 100.419 38.5108 100.451 38.4566C100.484 38.4024 100.501 38.3405 100.501 38.2774C100.634 37.3073 101.497 37.4231 102.181 37.1986C101.599 36.8952 100.933 36.7951 100.288 36.9141C100.176 36.9242 100.064 36.8903 99.976 36.8193C99.8882 36.7484 99.8313 36.646 99.8176 36.534C99.8038 36.4219 99.8341 36.3088 99.9022 36.2187C99.9702 36.1286 100.071 36.0685 100.182 36.0511C102.591 35.7466 103.346 36.8845 103.067 37.5353C102.788 38.186 101.664 38.1225 101.402 38.287C101.377 38.3176 101.363 38.356 101.363 38.3957C101.326 38.6497 101.216 38.8875 101.047 39.0807C100.878 39.2739 100.657 39.4141 100.411 39.4846C100.164 39.5551 99.902 39.5528 99.6565 39.478C99.411 39.4032 99.1924 39.2591 99.0269 39.063Z" fill="#15376D"/>
<path d="M93.4763 37.41C93.3771 37.4102 93.2808 37.3764 93.2035 37.3142C93.1262 37.252 93.0727 37.1651 93.0518 37.0681C93.0375 37.0038 93.0381 36.9372 93.0535 36.8732C93.3223 35.7579 94.174 33.95 95.6417 34.2545C95.6977 34.2659 95.7509 34.2883 95.7983 34.3203C95.8456 34.3522 95.8862 34.3932 95.9177 34.4409C95.9492 34.4886 95.971 34.542 95.9819 34.5981C95.9927 34.6541 95.9925 34.7118 95.981 34.7678C95.9696 34.8238 95.9473 34.877 95.9153 34.9243C95.8833 34.9717 95.8423 35.0123 95.7947 35.0438C95.747 35.0753 95.6936 35.0971 95.6375 35.108C95.5814 35.1188 95.5237 35.1185 95.4677 35.1071C94.4612 34.9001 93.9017 37.055 93.9017 37.0768C93.8792 37.1724 93.8248 37.2575 93.7475 37.318C93.6702 37.3786 93.5745 37.411 93.4763 37.41Z" fill="#15376D"/>
<path d="M98.712 33.2009C98.6469 33.2005 98.5827 33.1855 98.5242 33.1571C98.4656 33.1287 98.4141 33.0876 98.3735 33.0367C98.3329 32.9858 98.3042 32.9265 98.2894 32.8631C98.2747 32.7997 98.2743 32.7338 98.2883 32.6702C98.3075 32.5852 98.3517 32.5079 98.4153 32.4484C99.2653 31.6515 100.475 31.1582 100.947 32.1665C100.99 32.2578 101 32.3611 100.975 32.4589C100.95 32.5567 100.892 32.6429 100.811 32.7026C100.73 32.7623 100.63 32.7919 100.529 32.7864C100.429 32.7808 100.333 32.7403 100.259 32.672C100.217 32.6336 100.182 32.5871 100.158 32.5354C99.8969 32.4292 99.3575 32.7616 99.0078 33.0852C98.9273 33.1596 98.8216 33.2009 98.712 33.2009Z" fill="#15376D"/>
<path fill-rule="evenodd" clip-rule="evenodd" d="M93.2466 123.143C93.2466 123.143 89.2715 125.293 88.3859 126.876C87.5002 128.46 86.6032 131.612 85.8176 133.625C85.032 135.638 87.6533 135.914 86.123 140.297C86.123 140.297 84.2873 141.736 81.5016 138.069C78.7158 134.402 79.8486 133.202 80.1096 129.949C80.3706 126.696 77.5518 124.07 79.1404 121.79C80.729 119.509 83.3286 120.495 85.8307 119.19C87.1132 118.565 88.3185 117.793 89.422 116.889C89.422 116.889 89.1463 121.532 93.2466 123.143Z" fill="#F2F7F8"/>
<path d="M113.601 71.0903C111.165 69.8001 107.656 70.0794 104.86 71.7863C100.535 74.4241 96.8788 78.7602 94.2462 79.6163C93.7533 79.7239 93.2867 79.9286 92.8737 80.2183C92.4607 80.5081 92.1095 80.8772 91.8407 81.3041C91.5866 81.8261 91.5483 82.7509 92.1312 82.7509C92.2352 82.7514 92.336 82.7149 92.4154 82.6477C92.4949 82.5806 92.5477 82.4873 92.5645 82.3846C92.5759 82.3165 92.5705 82.2466 92.5488 82.1811C92.5366 82.1402 92.2704 81.1719 94.515 80.4411C95.5339 80.0507 96.4824 79.4971 97.3234 78.802C97.0711 79.5728 96.7466 80.6568 96.4804 81.8548C96.3682 81.8965 96.2584 81.9444 96.1515 81.9984C94.6582 82.7183 92.9974 83.019 91.3465 82.8684C91.2367 82.8621 91.1285 82.8975 91.0437 82.9675C90.9588 83.0375 90.9035 83.1369 90.8888 83.2459C90.874 83.3549 90.901 83.4655 90.9642 83.5555C91.0275 83.6455 91.1224 83.7083 91.2299 83.7314C92.9523 83.9014 94.6892 83.6189 96.2689 82.9119C95.4442 87.5324 96.543 88.539 97.2999 90.1833C98.7789 93.398 100.386 97.5383 99.702 101.043C99.106 104.088 98.919 104.239 98.832 104.311C98.5854 104.519 98.4119 104.801 98.3369 105.114C97.908 106.332 97.4443 106.696 95.4712 107.844C93.6557 108.801 92.2268 110.357 91.4265 112.247C91.2351 112.693 91.0985 112.987 90.9915 113.212C90.6271 114.04 90.3842 114.916 90.2703 115.813C89.949 116.123 89.5945 116.397 89.2132 116.63C89.1403 116.667 89.0792 116.724 89.037 116.793C88.9948 116.863 88.9733 116.944 88.9749 117.025C88.9941 117.967 89.1784 118.898 89.5195 119.776C89.9057 120.648 90.394 121.47 90.9741 122.226C90.208 122.726 89.4627 123.257 88.74 123.818C88.4905 123.698 88.2277 123.607 87.957 123.548C87.8458 123.531 87.7325 123.557 87.6406 123.622C87.5487 123.687 87.4854 123.785 87.464 123.895C87.4426 124.005 87.4648 124.12 87.5259 124.214C87.587 124.309 87.6822 124.376 87.7917 124.401C87.7917 124.401 87.8621 124.416 87.9657 124.449C87.582 124.776 87.2122 125.116 86.8843 125.457C86.6303 125.373 86.3721 125.301 86.1108 125.243C86.0283 125.227 85.943 125.236 85.8654 125.268C85.7877 125.3 85.721 125.354 85.6735 125.423C85.6259 125.492 85.5995 125.574 85.5974 125.658C85.5954 125.742 85.6178 125.824 85.6619 125.896C85.7202 125.992 85.8133 126.061 85.9212 126.091C86.0343 126.116 86.1491 126.146 86.2639 126.178C85.8853 126.703 85.5917 127.285 85.3939 127.901C85.1242 127.876 84.8532 127.866 84.5822 127.872C84.5251 127.873 84.4688 127.885 84.4165 127.909C84.3643 127.932 84.3171 127.965 84.2777 128.006C84.2383 128.048 84.2075 128.096 84.1871 128.15C84.1666 128.203 84.1569 128.26 84.1585 128.317C84.1675 128.43 84.2179 128.536 84.3001 128.615C84.3823 128.693 84.4905 128.738 84.604 128.742C84.7615 128.742 84.9355 128.742 85.1164 128.758C84.9781 129.24 84.853 129.725 84.7414 130.213C84.4675 130.189 84.1922 130.184 83.9176 130.197C83.8313 130.202 83.7484 130.232 83.6792 130.283C83.61 130.335 83.5578 130.406 83.5292 130.487C83.5005 130.569 83.4968 130.657 83.5184 130.741C83.54 130.824 83.586 130.899 83.6505 130.957C83.7368 131.034 83.85 131.073 83.9654 131.067C84.1629 131.059 84.3604 131.062 84.557 131.076C84.47 131.511 84.3934 131.929 84.3317 132.294C84.2187 132.287 84.1054 132.287 83.9924 132.294C83.8797 132.305 83.7759 132.36 83.7031 132.447C83.6302 132.533 83.594 132.645 83.6022 132.758C83.6103 132.871 83.6622 132.976 83.7467 133.052C83.8313 133.127 83.9419 133.166 84.055 133.161H84.1942C84.1533 133.436 84.1307 133.611 84.1264 133.647C84.1123 133.761 84.1439 133.876 84.2142 133.967C84.2846 134.058 84.3881 134.118 84.5022 134.133C84.5589 134.141 84.6167 134.137 84.672 134.122C84.7273 134.107 84.779 134.081 84.8241 134.046C84.8693 134.011 84.9072 133.968 84.9356 133.918C84.964 133.869 84.9822 133.814 84.9894 133.757C84.9894 133.749 85.0112 133.583 85.0512 133.317C85.1886 133.368 85.3174 133.441 85.4322 133.532C84.4944 136.003 87.1427 135.997 85.7507 140.153C85.3748 140.34 83.9637 140.75 81.8357 137.951C79.7729 135.235 79.9643 134.036 80.2818 132.053C80.7848 130.04 80.5831 127.915 79.7102 126.032C79.13 124.431 78.9812 122.821 79.9269 121.641C80.0069 121.666 80.0922 121.667 80.1731 121.644C80.2538 121.622 80.3264 121.577 80.3819 121.515C80.8821 120.949 79.7381 119.753 76.2241 121.638C76.1626 121.67 76.1098 121.717 76.0704 121.774C76.031 121.831 76.0061 121.897 75.9979 121.966C75.7696 123.732 75.7936 125.521 76.0693 127.279C76.1789 127.753 76.5765 127.453 78.146 128.323C78.1642 130.024 78.0141 131.723 77.6979 133.394C77.135 135.068 76.9549 136.613 80.113 139.896C81.8678 141.723 83.399 142.687 84.5135 142.687C84.8071 142.66 85.0918 142.572 85.3485 142.427C85.6053 142.282 85.8284 142.084 86.0029 141.847C86.5392 140.903 86.856 139.85 86.9298 138.767C87.0036 137.683 86.8325 136.598 86.4292 135.59C85.8281 134.309 86.0264 134.569 87.067 131.529C87.5192 130.058 88.0832 128.622 88.7539 127.237C89.951 125.095 94.9483 123.163 95.4781 122.683L95.5982 122.702C95.7125 122.718 95.8285 122.688 95.9207 122.618C96.0129 122.549 96.074 122.446 96.0906 122.332C96.1058 122.217 96.0754 122.102 96.0061 122.01C95.9367 121.918 95.8339 121.857 95.72 121.84C95.0413 121.675 94.4022 121.377 93.8398 120.963C93.2773 120.549 92.8027 120.027 92.4436 119.428C91.7789 118.477 90.9376 116.731 91.1681 115.646C91.3427 114.578 91.6997 113.548 92.2234 112.601C92.954 110.885 94.2549 109.474 95.9062 108.607C97.9263 107.432 98.624 106.925 99.1547 105.414C99.5532 104.283 99.6089 106.057 100.554 101.22C101.639 95.6669 97.4217 88.8661 97.0737 87.6325C96.4264 85.3705 97.3347 81.7165 97.9889 79.605C98.6658 79.2187 110.169 72.7494 115.683 75.0975C115.708 75.108 115.735 75.1167 115.762 75.1228C115.946 75.7579 116.053 76.4121 116.079 77.0716C116.082 77.1434 116.102 77.2134 116.139 77.2752C116.176 77.3371 116.227 77.3889 116.289 77.426C116.35 77.463 116.42 77.4843 116.492 77.4877C116.564 77.4911 116.635 77.4767 116.7 77.4457C116.778 77.4091 116.843 77.3501 116.888 77.2761C116.932 77.2022 116.953 77.1167 116.949 77.0307C116.778 73.495 115.034 71.8498 113.601 71.0903ZM84.7919 141.758C84.2377 141.978 82.8422 141.468 80.7412 139.282C77.6962 136.114 78.1173 134.867 78.5227 133.661C78.989 132.277 79.0186 128.235 79.0195 128.062C79.02 127.986 79.0004 127.911 78.9626 127.845C78.9249 127.778 78.8704 127.723 78.8046 127.685C78.1945 127.322 77.5439 127.033 76.8662 126.823C76.6688 125.319 76.6591 123.797 76.8375 122.291C77.4768 121.935 78.166 121.677 78.882 121.527C77.7066 123.045 78.2826 124.634 78.8933 126.32C79.7169 128.063 79.9043 130.04 79.4231 131.907C79.0943 133.967 78.8568 135.456 81.144 138.467C82.188 139.847 83.754 141.356 85.4627 141.124C85.3026 141.393 85.0703 141.613 84.7919 141.758ZM85.7428 132.683C85.5692 132.579 85.3837 132.497 85.1904 132.437C85.2521 132.07 85.3287 131.649 85.4192 131.203C85.6863 131.255 85.9325 131.382 86.13 131.569C85.9986 131.952 85.869 132.327 85.7428 132.683ZM86.4292 130.696C86.1737 130.537 85.8944 130.419 85.6019 130.348C85.715 129.853 85.8429 129.35 85.9855 128.876C86.3367 128.917 86.6625 129.079 86.9077 129.334C86.7468 129.778 86.5876 130.239 86.4292 130.696ZM87.2392 128.458C86.9426 128.261 86.6124 128.12 86.2648 128.041C86.4539 127.469 86.749 126.938 87.1348 126.475C87.4263 126.578 87.6899 126.747 87.9048 126.969C87.6561 127.453 87.4339 127.95 87.2392 128.458ZM88.3981 126.241C88.2025 126.071 87.9859 125.927 87.7534 125.812C88.0788 125.494 88.4416 125.176 88.8122 124.872C89.0001 125.014 89.1532 125.196 89.2602 125.405C88.9521 125.66 88.6639 125.938 88.3981 126.237V126.241ZM89.857 117.258C90.031 117.142 90.1998 117.018 90.3616 116.885C90.4365 117.237 90.5383 117.583 90.6679 117.919C90.4687 118.042 90.2233 118.201 89.9962 118.363C89.9266 117.997 89.8797 117.628 89.857 117.258ZM89.5091 124.322C90.1794 123.815 90.8678 123.331 91.5727 122.873C91.7693 123.057 91.9851 123.221 92.2156 123.362C91.4362 123.82 90.6812 124.319 89.9536 124.856C89.832 124.658 89.6823 124.478 89.5091 124.323V124.322ZM93.4458 121.74C93.7538 121.976 94.087 122.178 94.4385 122.343C94.0484 122.55 93.6363 122.713 93.21 122.829C92.9194 122.767 92.648 122.636 92.4192 122.446C92.8368 122.175 93.2587 121.875 93.4458 121.74ZM92.7707 121.153C92.494 121.349 92.1112 121.614 91.7806 121.823C91.5492 121.547 91.3364 121.256 91.1438 120.953C91.39 120.774 91.731 120.539 92.0364 120.331C92.2635 120.619 92.5088 120.894 92.7707 121.153ZM91.5327 119.619C91.2882 119.786 90.968 120.006 90.7018 120.197C90.5696 119.951 90.3538 119.52 90.2486 119.261C90.4974 119.069 90.7549 118.89 91.022 118.725C91.176 119.032 91.3465 119.33 91.5327 119.619ZM98.3883 78.3739C98.5527 77.9059 98.5701 77.9085 98.5718 77.7971C100.688 75.8785 102.941 74.117 105.313 72.5267C108.674 70.4778 113.511 70.4996 115.336 74.0361C110.035 72.4701 101.196 76.8619 98.3883 78.3739Z" fill="#15376D"/>
<path d="M111.382 73.7438C111.284 73.7435 111.189 73.7104 111.112 73.6496C111.036 73.5888 110.982 73.504 110.959 73.4089L110.628 72.0169C110.615 71.9613 110.613 71.9035 110.622 71.8471C110.631 71.7906 110.651 71.7365 110.681 71.688C110.726 71.6143 110.792 71.5558 110.87 71.5199C110.949 71.4841 111.036 71.4726 111.121 71.487C111.206 71.5006 111.285 71.5391 111.348 71.5976C111.411 71.6562 111.455 71.7322 111.475 71.8159L111.805 73.2079C111.821 73.2719 111.822 73.3387 111.808 73.4031C111.794 73.4675 111.766 73.5279 111.725 73.5796C111.684 73.6313 111.632 73.673 111.572 73.7014C111.513 73.7299 111.448 73.7444 111.382 73.7438Z" fill="#15376D"/>
<path d="M55.7774 143.334C55.7148 143.334 55.6529 143.321 55.596 143.295C55.5391 143.268 55.4885 143.23 55.4477 143.183C51.6806 138.633 49.4871 132.987 49.195 127.088C49.1936 126.972 49.2381 126.861 49.3187 126.779C49.3993 126.696 49.5094 126.649 49.6248 126.648C49.7401 126.646 49.8513 126.691 49.9339 126.771C50.0164 126.852 50.0636 126.962 50.065 127.077C50.065 127.164 50.239 135.812 56.1071 142.616C56.1611 142.68 56.1959 142.757 56.2074 142.839C56.2189 142.921 56.2065 143.005 56.1718 143.081C56.1372 143.156 56.0816 143.22 56.0117 143.265C55.9418 143.31 55.8605 143.334 55.7774 143.334Z" fill="#15376D"/>
<path d="M55.5425 101.259C55.5129 101.148 55.4404 101.053 55.3408 100.994C55.2412 100.936 55.1226 100.92 55.0109 100.949C54.743 101.019 28.168 107.672 18.4518 84.4535C12.0329 69.1137 15.0318 54.81 22.8949 45.8986C28.8535 56.1246 44.1229 49.1446 40.5246 39.9365C38.3496 34.3615 32.7903 32.5937 26.5176 36.1163C28.7378 29.7714 34.6834 23.9015 34.7774 23.8093C34.8595 23.7283 34.9063 23.6181 34.9076 23.5028C34.9089 23.3874 34.8646 23.2762 34.7843 23.1933C34.7034 23.111 34.5932 23.0641 34.4778 23.0628C34.3624 23.0615 34.2511 23.1059 34.1684 23.1864C33.7551 23.5883 27.2458 30.015 25.3126 36.8523C24.3556 37.4901 23.4473 38.2008 22.5974 38.976C23.985 31.2748 33.0374 23.925 33.1583 23.838C33.2484 23.7659 33.3062 23.661 33.3189 23.5463C33.3316 23.4316 33.2983 23.3165 33.2261 23.2264C33.154 23.1363 33.0491 23.0785 32.9344 23.0658C32.8197 23.0531 32.7046 23.0864 32.6145 23.1585C32.0978 23.5718 22.2093 31.5975 21.5577 39.98C20.1833 41.3867 18.9495 42.9243 17.8741 44.571C12.9247 52.1017 -3.31734 85.1234 7.64118 109.098C12.334 119.364 21.375 126.624 34.599 130.78C34.8513 131.971 35.2306 133.131 35.73 134.241C35.7772 134.346 35.864 134.428 35.9716 134.47C36.0791 134.511 36.1987 134.508 36.3042 134.462C36.4093 134.415 36.4916 134.328 36.533 134.22C36.5744 134.113 36.5716 133.993 36.5252 133.888C36.1196 132.981 35.7973 132.04 35.5621 131.075C38.1573 131.843 40.7898 132.479 43.4495 132.98C43.9616 135.313 44.7198 137.584 45.7115 139.757C45.7446 139.838 45.8018 139.908 45.8755 139.956C45.9492 140.004 46.0359 140.029 46.1239 140.027C46.1824 140.026 46.2401 140.013 46.2936 139.989C46.347 139.965 46.395 139.931 46.4347 139.888C46.4744 139.845 46.505 139.794 46.5246 139.739C46.5441 139.684 46.5522 139.626 46.5485 139.567C46.5451 139.509 46.53 139.452 46.5041 139.399C45.5925 137.393 44.884 135.301 44.3891 133.154C45.8603 133.419 47.3715 133.654 48.9209 133.86C49.0071 133.873 49.0951 133.859 49.1737 133.822C49.2524 133.785 49.3182 133.725 49.3629 133.65C49.3926 133.6 49.412 133.545 49.4198 133.487C49.4277 133.43 49.4238 133.371 49.4086 133.315C49.3933 133.259 49.3669 133.207 49.331 133.161C49.295 133.116 49.2503 133.078 49.1993 133.05C49.1488 133.022 49.0932 133.004 49.0358 132.998C47.4161 132.784 45.802 132.53 44.1951 132.235C43.9426 131.032 43.803 129.809 43.7784 128.581C43.7809 128.465 43.7375 128.354 43.6577 128.27C43.5779 128.187 43.4683 128.139 43.3529 128.136C43.2376 128.134 43.1259 128.177 43.0425 128.257C42.9592 128.337 42.9109 128.446 42.9084 128.562C42.9203 129.737 43.0408 130.909 43.2686 132.062C40.6022 131.549 37.9645 130.897 35.3663 130.109C35.1948 129.215 35.1561 128.301 35.2515 127.397C35.2655 127.312 35.2543 127.225 35.2191 127.147C35.184 127.068 35.1265 127.002 35.0539 126.956C34.9813 126.91 34.8968 126.887 34.8109 126.889C34.725 126.891 34.6417 126.918 34.5712 126.967C34.4771 127.034 34.4133 127.135 34.3937 127.249C34.2879 128.103 34.3028 128.967 34.4381 129.817C21.6856 125.71 12.963 118.653 8.43202 108.735C-2.35598 85.1252 13.7077 52.4949 18.6014 45.0512C19.4764 43.7142 20.4565 42.4489 21.5325 41.2676C21.5829 42.5891 21.8996 43.8863 22.4634 45.0825C14.2532 54.1671 11.0177 68.9449 17.6497 84.792C23.9937 99.9526 37.2943 102.751 46.2466 102.75C49.268 102.77 52.282 102.448 55.2311 101.79C55.3426 101.761 55.438 101.688 55.4964 101.589C55.5548 101.49 55.5714 101.371 55.5425 101.259ZM27.3797 46.9304C29.7688 49.4169 32.3892 49.9754 34.5712 48.4608C37.0011 46.7738 38.2139 42.9232 37.0663 40.5377C35.1993 36.6557 29.2198 39.3423 25.805 41.9706C25.5875 40.422 25.7006 38.8455 26.1348 37.3439C31.5218 33.9344 37.376 34.2719 39.7137 40.2532C42.9649 48.5704 28.7665 54.8387 23.5117 45.2217C24.0695 44.6299 24.6557 44.0654 25.2683 43.5305C25.7134 44.8053 26.4344 45.9662 27.3797 46.9304ZM26.013 42.9084C27.7018 41.5137 29.642 40.4553 31.7289 39.7903C34.0248 39.1056 35.5995 39.4945 36.2825 40.9152C37.9111 44.3013 33.6055 52.1548 28.007 46.3275C27.0689 45.371 26.3836 44.1959 26.013 42.9084ZM22.4364 40.3245C23.2393 39.5257 24.0994 38.7866 25.0099 38.113C24.6971 39.5968 24.6971 41.1296 25.0099 42.6135C24.3474 43.1726 23.7138 43.7649 23.1115 44.3883C22.5766 43.1038 22.3455 41.713 22.4364 40.3245Z" fill="#15376D"/>
<path d="M95.4208 37.1194C95.1598 37.363 95.2207 37.8493 95.5669 38.226C95.8619 38.5462 96.3586 38.7376 96.6579 38.4609C96.9189 38.2173 96.858 37.7301 96.5109 37.356C96.1637 36.9811 95.6852 36.8758 95.4208 37.1194Z" fill="#15376D"/>
<path d="M100.904 34.452C100.612 34.1336 100.121 33.93 99.8143 34.2162C99.5533 34.4598 99.6142 34.9462 99.9613 35.3211C100.246 35.6308 100.744 35.8431 101.051 35.5578C101.317 35.3142 101.251 34.8287 100.904 34.452Z" fill="#15376D"/>
<path d="M105.544 41.4346C105.387 40.7953 105.331 40.1355 105.376 39.4788C105.58 38.2478 105.387 35.5638 104.006 34.6477C102.844 33.8743 101.612 33.9517 101.293 32.9556C101.077 32.2892 100.519 30.3456 97.3617 29.9863C97.125 29.8036 96.8927 29.6383 96.6813 29.4991C96.7345 29.4444 96.7725 29.3768 96.7916 29.303C96.8106 29.2291 96.8101 29.1516 96.7901 29.078C96.7696 29.0046 96.7303 28.9378 96.6759 28.8843C96.6216 28.8309 96.5541 28.7927 96.4803 28.7735C94.8926 28.3585 91.4169 29.3825 89.0053 32.8895C85.4975 37.9946 88.3563 44.1029 88.6573 44.7145C88.4565 44.7333 88.2541 44.7036 88.0671 44.6279C87.8801 44.5522 87.714 44.4327 87.5829 44.2795C86.5763 43.0128 85.8498 43.4321 85.6419 41.4851C85.637 41.4273 85.6206 41.3711 85.5937 41.3198C85.5668 41.2685 85.5299 41.223 85.4852 41.1862C85.4405 41.1493 85.3888 41.1217 85.3333 41.1051C85.2778 41.0885 85.2195 41.0831 85.1619 41.0893C85.1043 41.0955 85.0485 41.1132 84.9977 41.1412C84.947 41.1693 84.9025 41.2072 84.8666 41.2528C84.8308 41.2983 84.8044 41.3505 84.789 41.4064C84.7736 41.4623 84.7696 41.5207 84.7771 41.5782C85.0285 43.9272 86.036 43.7305 86.9016 44.8206C87.6264 45.7341 88.8391 45.722 89.9258 45.3218C90.0084 45.3957 90.0937 45.4697 90.1815 45.5427C90.6362 45.9525 91.2126 46.202 91.8225 46.2532C92.4324 46.3045 93.0422 46.1545 93.5589 45.8264L96.3116 50.2233C97.2604 50.9258 98.4184 51.2878 99.5984 51.2508C100.507 51.2454 101.406 51.0551 102.239 50.6914C104.414 49.764 104.273 47.7647 102.904 45.8116C103.927 45.5106 105.641 44.8285 105.749 43.6235C105.775 42.8881 105.706 42.1524 105.544 41.4346ZM95.2136 29.593C95.3076 29.7148 95.3337 29.68 95.8827 30.0193C95.022 30.1847 94.2174 30.5658 93.5441 31.1268L92.5871 30.5996C93.384 30.087 94.2782 29.7443 95.2136 29.593ZM91.7954 31.159L92.8664 31.7489C92.1068 32.5072 91.503 33.4069 91.089 34.3972C90.615 34.2486 90.1703 34.0193 89.7744 33.7194C89.7412 33.6453 89.6874 33.5822 89.6195 33.5376C90.2125 32.6327 90.9472 31.829 91.7954 31.1573V31.159ZM91.1594 41.0823C91.7241 41.1771 92.588 41.4868 92.7402 41.8766C92.7614 41.9644 92.7612 42.0561 92.7397 42.1439C92.7182 42.2317 92.676 42.313 92.6167 42.3812C91.9906 42.0956 91.3285 41.8966 90.6487 41.7896C90.6783 41.2023 90.747 40.1574 90.9002 38.9812C91.2047 38.9812 91.6562 39.0334 91.698 39.3344C91.785 39.9286 91.089 40.241 91.0611 40.2523C90.9974 40.2806 90.9414 40.3237 90.8976 40.3781C90.8539 40.4324 90.8238 40.4964 90.8098 40.5647C90.7957 40.633 90.7982 40.7037 90.8169 40.7708C90.8357 40.838 90.8702 40.8997 90.9176 40.9509C90.9821 41.0191 91.0669 41.0645 91.1594 41.0805V41.0823ZM89.1541 34.3389C89.6004 34.79 90.1743 35.0936 90.7984 35.2089C90.5165 36.1295 90.3025 37.0696 90.1581 38.0216H90.145C89.888 37.9943 89.6403 37.9098 89.4203 37.7743C89.2002 37.6388 89.0132 37.4558 88.8731 37.2386C88.8459 37.1885 88.8092 37.1443 88.7649 37.1084C88.7206 37.0726 88.6697 37.0458 88.6151 37.0296C88.5605 37.0135 88.5032 37.0082 88.4465 37.0142C88.3899 37.0202 88.335 37.0373 88.2849 37.0646C88.4257 36.1145 88.7192 35.1935 89.1541 34.3371V34.3389ZM88.365 40.8639C88.1805 39.8519 88.1249 38.8205 88.1997 37.7945C88.4128 38.0932 88.6861 38.3439 89.0019 38.5306C89.3178 38.7173 89.6692 38.8358 90.0336 38.8785C89.9274 39.6975 89.8493 40.5198 89.7996 41.3441C88.8565 41.1927 88.7556 40.7438 88.365 40.863V40.8639ZM89.2254 43.8462C88.96 43.1925 88.7417 42.5206 88.572 41.8357C88.9418 42.0323 89.3446 42.1611 89.7596 42.2176C89.7552 42.2679 89.7579 42.3186 89.7674 42.3681C89.1671 42.5613 89.0801 43.2468 89.2254 43.848V43.8462ZM104.885 43.5496C104.853 43.908 104.392 44.2586 103.797 44.5457C102.121 45.3566 99.427 45.6376 97.5818 45.782C97.4664 45.7865 97.3575 45.8366 97.2791 45.9214C97.2007 46.0062 97.1592 46.1186 97.1637 46.234C97.1682 46.3493 97.2184 46.4582 97.3031 46.5366C97.3879 46.615 97.5003 46.6565 97.6157 46.652C99.0897 46.5464 100.556 46.3482 102.005 46.0587C102.466 46.6503 103.214 47.8587 103.007 48.7757C102.93 49.0394 102.788 49.2798 102.595 49.4754C102.402 49.6709 102.163 49.8155 101.9 49.8962C101.127 50.2578 100.279 50.4277 99.4258 50.3913C98.5732 50.355 97.7418 50.1135 97.0023 49.6874L94.047 44.972C94.0126 44.9182 93.967 44.8725 93.9132 44.8381C93.8594 44.8036 93.7988 44.7814 93.7355 44.7728C93.6723 44.7645 93.608 44.7702 93.5472 44.7896C93.4865 44.809 93.4307 44.8416 93.384 44.885C93.0863 45.1506 92.7153 45.3202 92.3196 45.3714C91.9239 45.4226 91.5219 45.3532 91.1664 45.1721C90.3512 44.7371 89.2802 43.5 89.9675 42.8779C90.8828 42.0497 92.554 43.8871 93.2274 43.0197C93.9643 42.0671 93.7346 41.0422 92.1904 40.4663C92.3242 40.3353 92.4293 40.178 92.4991 40.0043C92.5689 39.8305 92.6019 39.6442 92.5959 39.4571C92.5899 39.2699 92.5452 39.0861 92.4644 38.9172C92.3837 38.7482 92.2687 38.5979 92.1269 38.4757C91.9369 38.3127 91.7052 38.2057 91.4578 38.1669C91.6711 37.8742 91.7833 37.5199 91.7773 37.1578C91.7713 36.7957 91.6476 36.4453 91.4248 36.1598C91.6223 35.2976 91.9553 34.4722 92.4114 33.7142C92.7863 33.1357 93.2257 32.6006 93.7216 32.1213C94.3277 31.7096 95.0069 31.4172 95.7226 31.26C99.608 30.5761 100.16 32.2987 100.461 33.2253C100.947 34.7321 102.412 34.6364 103.521 35.3742C104.414 35.9693 104.711 38.1582 104.514 39.3388C104.307 40.6029 104.995 42.3081 104.884 43.5487L104.885 43.5496Z" fill="#15376D"/>
</svg>
