<svg width="174" height="174" viewBox="0 0 174 174" fill="none" xmlns="http://www.w3.org/2000/svg">
<path d="M137.243 42.2124C135.355 43.8525 133.316 45.3091 131.153 46.5624C130.393 47.0427 129.533 47.34 128.639 47.4306C127.745 47.5212 126.843 47.4026 126.002 47.0844C125.371 47.1354 124.737 47.042 124.148 46.8114C123.558 46.5808 123.029 46.2189 122.601 45.7533C121.739 45.3482 120.937 44.8272 120.217 44.2047C120.018 44.1785 119.816 44.1785 119.617 44.2047C119.059 44.671 118.535 45.1769 118.051 45.7185C117.962 46.2582 118.01 46.8114 118.19 47.328C119.103 48.2482 120.208 48.9553 121.426 49.3986C122.792 49.764 122.218 50.4861 124.532 53.418C124.576 53.4853 124.596 53.566 124.587 53.6462C124.579 53.7263 124.543 53.801 124.485 53.8575C124.428 53.914 124.352 53.9488 124.272 53.9559C124.192 53.963 124.111 53.942 124.045 53.8965C123.176 52.992 122.475 51.9403 121.974 50.7906C120.356 52.5306 118.268 53.7573 116.302 55.0884C114.441 56.306 112.499 57.396 110.49 58.3509C109.751 58.7163 109.62 59.0469 110.012 59.7864C110.751 61.2741 110.36 61.2306 111.961 60.5781C116.163 58.8381 117.589 57.7245 119.512 57.7158C119.756 57.7158 120.017 57.7158 120.069 58.0116C120.121 58.3074 119.86 58.4031 119.625 58.4205C118.938 58.4901 118.755 58.9599 118.59 59.5428C117.598 62.4312 115.484 65.2326 113.37 68.0601C113.057 68.4777 113.144 68.7213 113.596 69.0084C115.293 70.0785 115.336 70.122 116.65 68.5734C122.235 62.1267 121.087 63.1011 122.74 61.6134C123.279 61.161 123.662 61.8483 123.262 62.1441C123.117 62.2319 123.005 62.3638 122.94 62.5204C122.876 62.677 122.864 62.85 122.905 63.0141C122.943 62.9813 122.988 62.9585 123.037 62.9479C123.085 62.9372 123.136 62.9391 123.184 62.9532C123.549 63.0663 123.488 63.6144 123.549 64.0059C123.975 66.5637 123.462 69.0258 123.88 70.9659C123.917 71.1686 124.024 71.3515 124.184 71.4821C124.343 71.6128 124.544 71.6826 124.75 71.6793C125.27 71.731 125.795 71.6249 126.255 71.3748C126.629 69.5217 127.038 67.6773 127.377 65.8242C127.525 65.0499 128.064 64.4148 128.012 63.5622C128.012 63.2403 128.525 63.3534 128.821 63.4491C130.127 63.9958 131.234 64.9275 131.997 66.12C132.153 66.3201 132.258 66.5724 132.414 66.7725C132.771 67.251 132.797 68.0688 133.354 68.2428C133.607 68.3155 133.875 68.3155 134.128 68.2428C134.593 68.0224 134.993 67.6833 135.285 67.2597C133.284 63.3012 132.623 62.3181 133.154 61.2654C133.824 59.8995 133.667 60.2997 134.424 58.6554C135.113 57.2966 135.544 55.8215 135.694 54.3054C135.764 52.9917 136.381 53.1831 138.513 52.4349C148.675 46.3884 151.702 43.7349 159.985 36.4704C160.75 35.7831 162.995 33.6864 163.578 33.06C164.088 32.6142 164.471 32.0413 164.688 31.3995C164.905 30.7577 164.948 30.0699 164.813 29.406C164.152 26.4132 161.655 22.0632 157.453 18.8529C156.348 17.9829 155.574 18.1482 154.843 19.3227C154.712 19.5141 154.643 19.6707 154.382 20.0535C151.38 26.3436 145.195 35.0871 137.243 42.2124Z" fill="#F2F7F8"/>
<path d="M148.7 135.894C146.96 135.737 146.142 133.51 145.899 131.735C145.555 129.524 145.085 127.333 144.489 125.176C143.619 121.957 141.627 121.696 138.53 121.643C138.211 121.666 137.894 121.58 137.631 121.398C137.369 121.216 137.176 120.949 137.086 120.643C135.476 116.389 136.259 113.683 134.041 114.031C132.971 113.813 132.17 114.527 131.483 115.136C130.996 115.58 131.561 116.38 131.622 117.024C131.997 119.464 132.579 121.868 133.362 124.21C133.577 124.792 133.936 125.31 134.407 125.715C134.877 126.12 135.443 126.398 136.05 126.524C138.887 127.142 139.53 125.202 141.183 131.335C142.053 134.554 143.411 137.477 146.316 139.348C150.806 142.245 150.179 146.177 151.632 149.962C152.041 151.015 152.502 151.328 153.372 151.041C154.956 150.481 156.387 149.558 157.548 148.344C157.791 148.132 157.951 147.841 157.999 147.522C158.047 147.203 157.979 146.877 157.809 146.604C153.833 139.322 152.537 136.242 148.7 135.894Z" fill="#F2F7F8"/>
<path d="M65.4069 155.73C65.7356 153.518 65.9476 151.291 66.042 149.057C66.2682 144.081 62.8578 142.184 59.8302 144.777C58.0902 146.256 57.7074 148.318 57.5595 150.449C57.5595 151.023 57.4464 151.215 56.907 150.814C56.5113 150.527 56.0955 150.268 55.6629 150.04C54.2709 149.248 52.8789 148.518 51.1998 148.674C50.7348 148.666 50.2818 148.822 49.9205 149.115C49.5592 149.408 49.3129 149.818 49.2249 150.275C49.0969 151.086 49.1652 151.917 49.4241 152.696C49.6829 153.476 50.1247 154.182 50.7126 154.756C53.2269 157.661 58.9689 157.957 63.8931 159.314C65.52 159.741 65.0241 158.557 65.4069 155.73Z" fill="#15376D"/>
<path d="M25.3605 125.08C25.2126 124.993 25.0213 124.975 24.8908 124.862C24.7929 124.777 24.6774 124.715 24.5526 124.681C24.4277 124.646 24.2968 124.64 24.1692 124.663C24.0417 124.685 23.9207 124.736 23.8153 124.811C23.7098 124.886 23.6225 124.984 23.5596 125.097C21.7675 127.464 20.2798 129.969 20.68 133.084C20.8223 133.798 20.7073 134.539 20.3554 135.176C20.0034 135.813 19.4372 136.305 18.7572 136.564L18.531 136.686C11.4579 141.036 13.7635 147.491 13.5286 150.484C13.5286 150.98 13.7286 151.215 14.1897 151.11C15.0597 150.919 15.9297 150.693 16.7997 150.449C18.5397 149.944 14.0157 143.098 20.4189 139.4C21.4618 138.784 22.4617 138.098 23.4117 137.347C24.4906 136.477 25.378 134.563 24.7341 133.11C24.3068 132.266 24.1816 131.302 24.3795 130.377C24.5774 129.453 25.0865 128.624 25.8217 128.029C27.2746 126.568 27.1962 126.098 25.3605 125.08Z" fill="#F2F7F8"/>
<path d="M130.195 33.4254C130.831 33.6864 130.787 33.0513 133.762 28.6578C135.45 26.1696 137.669 26.4132 139.452 25.8564C141.236 25.2996 142.471 24.5079 142.723 22.5939C142.844 21.8856 142.926 21.1711 142.967 20.4537C142.876 19.3528 143.175 18.2551 143.811 17.352C144.447 16.4489 145.38 15.7978 146.447 15.5121C147.021 15.3033 147.491 15.0162 147.448 14.355C147.12 13.2794 146.492 12.3196 145.638 11.5884C144.568 10.5966 143.82 10.7184 142.663 11.832C140.391 14.0521 139.06 17.0616 138.948 20.2362C138.974 20.6377 138.88 21.038 138.679 21.3864C138.478 21.7348 138.178 22.0157 137.817 22.1937C136.738 22.7418 135.65 23.2551 134.563 23.7945C133.588 24.2491 132.739 24.9343 132.089 25.7907C131.439 26.6472 131.007 27.6492 130.831 28.71C130.587 29.9454 130.309 31.1808 130.048 32.4162C129.969 32.7903 129.734 33.2427 130.195 33.4254Z" fill="#F2F7F8"/>
<path d="M94.7777 148.892C94.7777 146.986 96.5177 143.715 96.9614 141.062C97.0783 140.498 97.0152 139.912 96.7811 139.386C96.5469 138.86 96.1535 138.42 95.6564 138.13C94.6646 137.608 93.986 137.808 92.9246 138.861C92.0118 139.822 91.406 141.034 91.1846 142.341C91.028 143.115 90.7844 142.915 90.3755 142.619C89.5055 141.984 88.6355 141.366 87.7655 140.731C86.8257 140.049 85.6665 139.739 84.5117 139.861C84.3451 139.848 84.1777 139.873 84.0216 139.932C83.8655 139.992 83.7246 140.086 83.609 140.206C83.4934 140.327 83.4059 140.472 83.3529 140.63C83.2999 140.789 83.2826 140.957 83.3024 141.123C83.3375 142.077 83.6388 143.002 84.1724 143.794C85.5992 146.203 87.8438 147.804 90.1406 149.431C91.6196 150.379 94.8299 150.44 94.7777 148.892Z" fill="#15376D"/>
<path d="M105.531 143.219C103.382 141.349 101.442 144.089 102.982 146.986C104.257 149.447 106.071 151.588 108.289 153.25C109.046 153.799 109.237 153.755 109.716 152.92C112.099 148.866 113.578 146.717 114.066 144.22C114.762 140.74 112.047 139.774 110.055 142.367C109.124 143.487 108.415 144.774 107.967 146.16C107.266 145.093 106.449 144.107 105.531 143.219Z" fill="#F2F7F8"/>
<path d="M68.4779 137.564C70.5071 138.79 72.8243 139.456 75.1943 139.496H76.4906C76.7516 139.496 76.9256 139.417 76.9517 139.104C77.2736 136.312 79.205 133.31 78.3002 130.639C78.23 130.327 78.0655 130.043 77.8291 129.827C77.5926 129.61 77.2955 129.472 76.9778 129.43C76.6257 129.392 76.2705 129.463 75.9596 129.632C75.6487 129.802 75.3969 130.062 75.2378 130.378C74.6408 131.376 74.3391 132.522 74.3678 133.684C74.4635 135.616 72.8453 133.153 69.6524 133.406C69.1031 133.411 68.57 133.593 68.1327 133.925C67.6953 134.258 67.3769 134.722 67.2251 135.25C67.1568 135.719 67.2419 136.198 67.4676 136.615C67.6933 137.032 68.0477 137.365 68.4779 137.564Z" fill="#15376D"/>
<path d="M105.47 155.982C103.365 153.59 103.895 150.867 100.763 148.796C100.502 148.585 100.18 148.464 99.8453 148.45C99.5101 148.436 99.1792 148.53 98.9014 148.718C98.3011 149.153 98.3968 149.805 98.536 150.458C98.8392 151.58 99.3432 152.638 100.024 153.581C98.3294 153.37 96.6124 153.718 95.1343 154.573C93.7162 155.486 94.4383 157.052 96.1783 157.487C98.9449 158.175 101.799 157.226 105.957 157.835C107.332 158.044 106.357 157.026 105.47 155.982Z" fill="#15376D"/>
<path d="M61.7699 71.4618C61.2392 71.2617 60.8303 71.5749 60.4649 71.9229C58.74 73.5635 57.6494 75.7602 57.3851 78.126C57.3068 79.1874 57.3851 79.2744 58.4378 79.1961C59.7863 79.1004 61.1261 78.9786 62.4659 78.822C63.7217 78.7536 64.957 78.4742 66.1199 77.9955C67.451 77.3517 67.6511 76.2555 66.5288 75.2898C66.1299 74.9785 65.6726 74.7503 65.1839 74.6188C64.6953 74.4873 64.1852 74.4551 63.6839 74.5242C63.1793 74.5242 62.4833 74.8026 62.2136 74.5242C61.9439 74.2458 62.3615 73.5933 62.3789 73.0887C62.3963 72.5841 62.3093 71.6706 61.7699 71.4618Z" fill="#F2F7F8"/>
<path d="M94.6039 42.7953C94.6039 41.0553 93.9427 40.4985 92.194 40.3767C89.4448 40.194 87.7309 41.7252 86.3215 43.7784C86.2157 43.9015 86.1432 44.0497 86.1111 44.2089C86.0789 44.368 86.0882 44.5328 86.1379 44.6873C86.1877 44.8419 86.2763 44.981 86.3953 45.0915C86.5143 45.202 86.6596 45.2801 86.8174 45.3183C87.3266 45.5207 87.8718 45.6166 88.4194 45.6002C88.9671 45.5837 89.5055 45.4552 90.0016 45.2226C91.1065 44.7789 91.1152 44.7789 91.324 45.9708C91.4589 46.7379 91.7021 47.4819 92.0461 48.1806C92.6116 49.329 93.3946 49.3551 94.0471 48.2502C95.3086 46.11 94.6126 43.413 94.6039 42.7953Z" fill="#F2F7F8"/>
<path d="M79.7008 153.355C79.8226 153.703 79.9705 153.999 80.3794 154.034C80.7883 154.068 80.9014 153.746 81.0406 153.459C83.1808 149.249 84.0421 148.753 84.451 147.369C84.5754 147.082 84.6137 146.764 84.5612 146.455C84.5087 146.147 84.3676 145.86 84.1552 145.629C83.2243 144.759 82.2412 146.499 82.1368 145.247C81.9802 143.507 80.8753 143.306 80.1967 144.115C78.6742 145.908 78.97 151.284 79.7008 153.355Z" fill="#F2F7F8"/>
<path d="M88.1052 117.45L89.3319 115.71C89.6988 116.539 90.2598 117.267 90.9675 117.833C91.6896 118.39 92.3508 118.137 92.6205 117.267C92.7313 116.922 92.7453 116.553 92.6609 116.2C92.5766 115.847 92.3971 115.524 92.142 115.266C91.3558 114.379 90.4812 113.575 89.532 112.865C89.3443 112.686 89.0951 112.587 88.836 112.587C88.5768 112.587 88.3276 112.686 88.14 112.865C86.8089 113.926 86.7306 115.405 86.6436 116.902C86.6436 117.259 86.6871 117.624 87.1047 117.728C87.2792 117.796 87.4708 117.805 87.651 117.755C87.8312 117.705 87.9905 117.598 88.1052 117.45Z" fill="#F2F7F8"/>
<path d="M44.0394 100.224C43.475 98.919 42.5326 97.8129 41.3337 97.0485C40.2027 96.3438 39.0717 96.2829 38.4801 97.0485C38.1399 97.4727 37.8878 97.9605 37.7384 98.4833C37.589 99.0062 37.5454 99.5536 37.6101 100.093C37.8537 101.633 40.0461 103.278 41.6034 103.278C41.9872 103.306 42.372 103.24 42.7246 103.086C43.0772 102.932 43.3869 102.694 43.6269 102.393C43.8669 102.093 44.0298 101.738 44.1017 101.36C44.1736 100.982 44.1522 100.592 44.0394 100.224ZM40.02 102.103C39.0891 101.538 38.1669 100.937 38.1843 99.3888C38.9499 101.503 40.6638 101.868 42.3168 102.286C41.6121 102.756 41.0379 102.738 40.02 102.103ZM42.2733 101.546C40.4463 101.303 39.0543 100.555 38.7498 98.7276C38.6019 97.8576 39.0108 97.3095 39.8982 97.3965C41.0814 97.5009 43.2651 99.4497 43.4913 100.598C43.587 101.146 43.0563 101.564 42.2472 101.546H42.2733Z" fill="#F2F7F8"/>
<path d="M34.5653 21.576C35.5919 24.4296 36.749 27.231 38.0453 29.9889C39.7988 33.3274 41.8363 36.5089 44.1353 39.498C44.5007 39.9765 44.84 40.4724 45.2228 40.9422C45.3433 41.0879 45.4217 41.2639 45.4493 41.451C45.4769 41.6382 45.4527 41.8293 45.3794 42.0036C44.6894 44.1986 43.8164 46.3318 42.7694 48.3807C42.7694 48.459 42.6737 48.5286 42.6389 48.6069C42.4707 48.8438 42.275 49.0599 42.056 49.2507C42.1604 49.7118 42.5519 50.0511 43.3175 50.4687C43.6487 50.6445 43.921 50.9138 44.1005 51.243C46.3445 52.9655 48.0818 55.2619 49.1291 57.8898L49.7033 57.6984C50.5144 57.4004 51.3498 57.1733 52.2002 57.0198C51.1562 55.8453 50.3645 54.6099 49.3205 53.5398C49.1204 53.3397 48.668 53.1135 48.9812 52.7916C49.2944 52.4697 49.6163 52.7916 49.8512 53.0613C50.9465 54.0489 51.9087 55.1749 52.7135 56.4108C53.0789 56.9589 53.2268 56.8545 54.6014 56.8545C56.0817 56.8357 57.5498 56.5832 58.9514 56.1063C59.2656 56.0045 59.5456 55.8178 59.7605 55.5669C59.63 53.8269 60.2912 53.1396 59.3081 53.2005C58.4117 53.304 57.5336 53.5294 56.6981 53.8704C55.0799 54.4098 55.1582 54.0879 54.2534 52.0608C53.6429 51.0042 53.1499 49.8839 52.7831 48.72C52.6853 48.6508 52.6078 48.5567 52.5588 48.4474C52.5097 48.3381 52.4909 48.2176 52.5042 48.0986C52.5175 47.9795 52.5625 47.8662 52.6345 47.7705C52.7065 47.6747 52.8029 47.6001 52.9136 47.5542L53.018 47.4933C53.3921 47.1279 53.5922 47.1627 57.6029 44.631C57.9944 44.3874 58.2206 44.4483 58.2467 44.892L58.2989 45.3618C58.8644 45.1965 58.9166 45.7272 58.9166 46.1448C58.9166 47.7369 59.021 49.3116 59.0732 50.9037C59.0706 51.0367 59.0913 51.1692 59.1341 51.2952C59.3828 51.3485 59.6414 51.3335 59.8823 51.2517C60.3204 51.1553 60.7254 50.9454 61.0568 50.6431C61.3882 50.3407 61.6342 49.9566 61.7702 49.5291C61.6881 49.3794 61.6294 49.2181 61.5962 49.0506C61.3412 46.9564 61.4918 44.8326 62.0399 42.7953C62.153 42.3516 62.1965 41.8035 61.6919 41.5599C61.1628 41.2988 60.6487 41.0084 60.152 40.6899C59.5778 40.6116 59.0036 40.5507 58.412 40.4985C56.9364 40.2412 55.5135 39.7415 54.2012 39.0195C53.6705 38.7846 53.4704 38.2191 53.2355 37.7232C51.9475 34.7614 50.982 31.6696 50.3558 28.5012C49.2128 23.6705 48.6635 18.7184 48.7202 13.7547C48.7043 12.1978 48.8061 10.6418 49.0247 9.10021C49.0336 8.98883 49.051 8.8783 49.0769 8.76961C48.9899 8.03011 48.7202 7.83001 48.0155 7.83001C45.395 7.75177 42.7893 8.25137 40.3836 9.29335C37.9779 10.3353 35.831 11.8941 34.0955 13.8591C32.1902 15.9732 33.6083 18.8877 34.5653 21.576Z" fill="#F2F7F8"/>
<path d="M45.9534 57.333C46.0939 57.4723 46.2452 57.6003 46.4058 57.7158C46.7501 57.8041 47.1032 57.8537 47.4585 57.8637H48.1893C47.5552 56.3427 46.6268 54.962 45.4575 53.8008C45.4575 54.6099 45.6576 55.3929 45.7359 56.1759C45.7533 56.57 45.8265 56.9595 45.9534 57.333Z" fill="#F2F7F8"/>
<path d="M125.524 147.822C124.782 147.616 124.007 147.56 123.244 147.657C122.481 147.754 121.744 148.003 121.078 148.387C121.382 147.465 121.574 146.778 121.844 146.117C122.14 145.28 122.249 144.39 122.165 143.507C122.192 143.292 122.158 143.074 122.067 142.878C121.975 142.682 121.83 142.515 121.648 142.398C121.467 142.281 121.255 142.217 121.039 142.215C120.823 142.212 120.61 142.271 120.425 142.384C119.887 142.592 119.393 142.902 118.973 143.298C116.889 145.305 115.273 147.747 114.24 150.449C113.374 152.355 113.046 154.461 113.291 156.539C113.483 157.792 113.848 158.036 115.031 157.531C119.381 155.687 123.375 156.574 126.724 154.199C127.353 153.782 127.835 153.178 128.1 152.472C128.366 151.766 128.402 150.994 128.203 150.266C128.031 149.649 127.688 149.092 127.214 148.659C126.74 148.227 126.155 147.937 125.524 147.822Z" fill="#F2F7F8"/>
<path d="M103.669 136.207L103.469 136.059C103.734 134.769 103.839 133.451 103.782 132.136C103.721 131.466 103.643 130.744 102.825 130.465C102.529 130.389 102.216 130.412 101.933 130.529C101.651 130.647 101.414 130.854 101.259 131.118C98.0316 134.841 97.7793 138.078 97.5966 143.037C97.5865 143.758 97.7665 144.469 98.1186 145.099C98.1585 145.234 98.2309 145.358 98.3295 145.46C98.4281 145.561 98.55 145.637 98.6845 145.681C98.8191 145.724 98.9622 145.735 99.1016 145.711C99.241 145.686 99.3725 145.629 99.4845 145.542C100.373 145.166 101.149 144.567 101.738 143.802C102.29 143.056 103.105 142.547 104.017 142.375C106.932 141.732 108.48 139.548 109.742 137.155C109.975 136.714 110.062 136.21 109.99 135.716C109.918 135.222 109.691 134.763 109.342 134.406C109.007 134.07 108.581 133.84 108.117 133.746C107.652 133.651 107.17 133.697 106.732 133.876C105.47 134.272 104.387 135.097 103.669 136.207Z" fill="#F2F7F8"/>
<path d="M67.9208 28.2141C68.3645 29.7453 68.9996 29.9541 70.2959 29.0841C70.7309 28.797 71.1659 28.4664 71.5661 28.2141C72.2969 27.753 72.4361 27.8139 72.671 28.6491C73.4279 32.1291 73.2278 35.6874 74.5415 38.8716C74.6633 39.1848 74.846 39.4284 75.2462 39.3675C75.6464 39.3066 75.6899 39.0717 75.7508 38.7672C75.9636 37.666 76.0771 36.5479 76.0901 35.4264C76.151 33.8256 76.6295 26.4828 76.7513 23.9772C76.7513 23.1681 76.3163 22.7592 75.5246 22.7331C74.7329 22.707 73.9499 22.6635 73.2017 22.62C72.6971 22.5678 72.5405 22.359 72.5927 21.9153C72.6797 20.9061 72.7667 19.9143 72.8798 18.9051C72.9929 17.8959 72.4013 17.3304 71.6096 17.7393C70.0389 18.5699 68.5777 19.5928 67.2596 20.7843C67.1308 20.886 67.0314 21.0202 66.9717 21.1732C66.9121 21.3261 66.8943 21.4922 66.9203 21.6543C67.1356 23.8573 67.4696 26.0471 67.9208 28.2141Z" fill="#F2F7F8"/>
<path d="M57.6375 132.405C56.6631 134.441 57.2808 137.173 57.7593 139.409C57.855 139.853 57.8985 140.079 57.3069 139.931C56.9689 139.862 56.6253 139.824 56.2803 139.818C54.7306 139.845 53.1972 140.139 51.7476 140.688C51.4063 140.785 51.1176 141.014 50.9447 141.323C50.7718 141.633 50.7289 141.999 50.8254 142.341C50.9028 142.855 51.0947 143.346 51.3867 143.777C51.6788 144.207 52.0638 144.567 52.5132 144.829C53.9312 145.617 55.5506 145.968 57.1677 145.838C57.9159 145.795 58.6728 145.716 58.9686 144.803C59.0469 144.559 59.3253 144.368 59.5515 144.185C60.4619 143.375 61.6307 142.916 62.8488 142.889C63.4317 142.889 63.9537 142.715 63.6405 141.88C63.3273 141.044 63.4143 137.53 62.0745 133.615C61.2654 131.248 58.7337 130.126 57.6375 132.405Z" fill="#F2F7F8"/>
<path d="M86.0604 147.9C86.0106 147.93 85.964 147.965 85.9212 148.004C82.4412 150.466 81.0579 154.094 80.2836 158.027C80.127 158.818 80.5794 159.34 81.2319 159.236C83.25 158.991 85.2456 158.586 87.2001 158.027C89.3664 157.305 91.9503 156.496 91.6719 154.251C91.5675 153.381 90.9324 153.05 90.2538 152.772C89.3971 152.423 88.469 152.286 87.5481 152.372L87.4263 152.424C87.4534 152.39 87.4741 152.352 87.4872 152.311C87.8439 151.215 88.8792 149.205 88.3572 148.074L87.4872 147.361C87 147.282 86.5128 147.665 86.0604 147.9Z" fill="#15376D"/>
<path d="M114.84 92.2896C115.24 93.003 115.98 92.9247 116.693 92.7681C118.581 92.3331 120.251 91.2978 122.148 90.8628C123.349 90.5844 124.471 89.9928 125.759 90.1059C126.167 90.1494 127.003 89.5404 125.915 89.2359C125.778 89.1982 125.648 89.1363 125.532 89.0532C119.138 84.2073 118.572 83.6505 117.276 83.2938C115.78 82.8762 114.492 83.2938 114.014 84.4596C113.535 85.6254 114.083 86.5302 115.466 87.4002C116.18 87.8439 116.998 88.0788 117.815 88.5312C116.371 89.5143 113.97 90.741 114.84 92.2896Z" fill="#15376D"/>
<path d="M89.6102 74.2197C88.2922 74.1118 86.9658 74.2595 85.7039 74.6547C85.3594 74.6996 85.0409 74.8615 84.8017 75.1134C84.5625 75.3652 84.4172 75.6917 84.3902 76.038C84.3293 76.908 84.9035 77.2734 85.5386 77.5779C86.4253 77.9394 87.3875 78.0768 88.34 77.9781C90.004 77.9651 91.6615 77.7666 93.2816 77.3865C93.5687 77.3343 94.1516 77.2386 93.8645 76.7949C93.5641 76.2078 93.4691 75.537 93.5948 74.8896C93.6664 73.3632 93.4021 71.8396 92.8205 70.4265C92.5682 69.8697 92.2376 69.2781 91.5155 69.3564C90.7934 69.4347 90.515 69.9915 90.3149 70.5831C90.0268 71.551 90.0028 72.5782 90.2453 73.5585C90.3584 74.0979 90.3149 74.3241 89.6102 74.2197Z" fill="#F2F7F8"/>
<path d="M97.7967 109.115C98.3535 109.229 98.6145 108.785 98.8146 108.359C99.1914 107.574 99.4831 106.752 99.6846 105.905C100.421 106.561 101.369 106.932 102.356 106.949C103.112 106.906 103.739 106.749 104.026 105.992C104.163 105.669 104.183 105.308 104.083 104.972C103.983 104.635 103.769 104.344 103.478 104.148C102.111 103.079 100.529 102.319 98.8407 101.921C98.6712 101.887 98.4965 101.889 98.3279 101.927C98.1593 101.965 98.0006 102.039 97.862 102.142C97.7234 102.245 97.6081 102.376 97.5234 102.527C97.4387 102.678 97.3866 102.845 97.3704 103.017C96.9811 104.643 96.8085 106.313 96.8571 107.984C96.8632 108.251 96.9593 108.508 97.1299 108.714C97.3005 108.919 97.5355 109.061 97.7967 109.115Z" fill="#F2F7F8"/>
<path d="M73.2452 155.921C72.5601 155.933 71.8843 156.082 71.258 156.36C70.6318 156.638 70.0679 157.039 69.5999 157.54C69.4336 157.699 69.3159 157.903 69.2606 158.126C69.2054 158.35 69.2147 158.585 69.2876 158.804C69.3605 159.022 69.4939 159.216 69.6724 159.362C69.8509 159.508 70.0671 159.6 70.2959 159.628C71.7056 159.897 73.1517 159.914 74.5676 159.68C75.537 159.638 76.4979 159.48 77.4299 159.21C77.8736 159.062 78.2999 158.879 78.2999 158.34C78.3359 158.078 78.2813 157.812 78.1452 157.586C78.0091 157.36 77.7996 157.187 77.5517 157.096C76.1887 156.475 74.7345 156.079 73.2452 155.921Z" fill="#F2F7F8"/>
<path d="M21.95 68.4951C24.1424 67.5729 26.0042 64.3017 25.43 62.0223C25.1255 60.7695 24.0989 59.6646 22.5503 60.4911C21.5082 60.9727 20.6358 61.7577 20.0475 62.7435C19.4591 63.7293 19.1822 64.8698 19.253 66.0156V66.7725C19.2592 67.0891 19.3434 67.3992 19.4982 67.6754C19.653 67.9516 19.8736 68.1853 20.1404 68.3557C20.4073 68.5262 20.7121 68.6281 21.0278 68.6524C21.3435 68.6767 21.6603 68.6227 21.95 68.4951ZM22.6199 66.99C23.4873 65.6281 24.1388 64.1402 24.5513 62.5791C25.0559 63.6666 23.9858 66.12 22.6199 66.99ZM20.123 65.9634C20.123 63.6057 21.1409 62.0571 23.0375 61.3785C23.5769 61.1871 23.9075 61.2219 23.7248 61.9092C23.4017 63.5424 22.7279 65.0859 21.7499 66.4332C20.1491 68.2341 20.1578 66.0504 20.123 65.9547V65.9634Z" fill="#F2F7F8"/>
<path d="M25.0732 53.2701C25.6561 53.3658 26.2216 53.3397 26.6305 53.3832C27.4327 53.4423 28.2391 53.3808 29.023 53.2005C29.5283 53.07 29.9862 52.7988 30.3435 52.4184C30.7007 52.038 30.9428 51.5641 31.0414 51.0516C31.0472 50.4833 30.8851 49.926 30.5756 49.4493C30.2661 48.9727 29.8229 48.5979 29.3014 48.372C28.268 48.027 27.1579 47.9818 26.0998 48.2415C25.12 48.2989 24.1696 48.5978 23.3332 49.1115C23.0874 49.266 22.8953 49.4927 22.7831 49.7606C22.671 50.0284 22.6444 50.3243 22.7068 50.6079C23.0026 51.9564 23.542 53.0178 25.0732 53.2701ZM24.2032 51.8694C26.0786 52.2107 28.0112 52.0393 29.7973 51.3735C29.1187 52.8264 25.7692 53.07 24.238 51.8694H24.2032ZM24.3598 49.6509C25.3777 49.3589 26.4203 49.1608 27.4744 49.0593C27.9994 49.0547 28.5201 49.1553 29.0056 49.3551C29.3275 49.4856 29.7799 49.5813 29.7886 50.0511C29.7973 50.5209 29.4232 50.8167 29.023 50.9994C28.1943 51.3305 27.3046 51.4818 26.413 51.4431C25.7199 51.402 25.0323 51.2942 24.3598 51.1212C24.0031 51.0429 23.5855 50.9385 23.5681 50.46C23.5507 49.9815 24.0118 49.764 24.3598 49.6509Z" fill="#F2F7F8"/>
<path d="M143.933 64.0494C143.022 64.5478 142.236 65.2457 141.633 66.0909C141.031 66.9362 140.627 67.9068 140.453 68.9301C139.983 70.992 141.801 72.5841 143.785 71.4357C144.746 70.9482 145.551 70.2004 146.108 69.2774C146.665 68.3544 146.951 67.2935 146.934 66.2157V65.6067C146.895 65.2756 146.775 64.9592 146.585 64.685C146.396 64.4108 146.142 64.1872 145.846 64.0336C145.55 63.8801 145.221 63.8012 144.887 63.804C144.554 63.8067 144.226 63.891 143.933 64.0494ZM141.218 69.1998C141.51 67.4731 142.442 65.9198 143.828 64.8498C144.15 64.5888 144.603 64.2495 145.003 64.554C145.182 64.7215 145.311 64.9355 145.376 65.1721C145.44 65.4087 145.438 65.6586 145.368 65.8938C145.237 66.6854 144.975 67.4497 144.594 68.1558C144.212 69.1272 143.488 69.9255 142.558 70.4004C141.601 70.7745 141.218 70.5222 141.218 69.1998ZM143.933 70.47L144.211 70.0698C145.214 68.8054 145.884 67.3099 146.16 65.7198C146.271 66.5648 146.158 67.424 145.833 68.2118C145.507 68.9995 144.981 69.6882 144.307 70.209L143.933 70.47Z" fill="#F2F7F8"/>
<path d="M66.9897 148.5C67.3899 148.5 67.4769 148.257 67.5291 147.961C67.8771 145.951 69.8085 144.916 70.4349 142.741C70.5034 142.581 70.5227 142.405 70.4901 142.234C70.4575 142.064 70.3747 141.907 70.2522 141.784C70.111 141.66 69.9349 141.583 69.7481 141.562C69.5613 141.542 69.3727 141.58 69.2082 141.671C68.7721 141.879 68.3839 142.175 68.0685 142.541C67.8684 141.984 67.7205 141.445 67.1115 141.462C66.5025 141.479 66.3546 142.019 66.1632 142.463C66.0131 142.895 65.9195 143.346 65.8848 143.802C65.7195 145.247 66.4242 146.543 66.5634 147.935C66.5547 148.213 66.5895 148.466 66.9897 148.5Z" fill="#F2F7F8"/>
<path d="M166.318 113.753C158.841 111.242 152.116 106.892 146.76 101.103C146.441 100.776 146.258 100.341 146.247 99.8847C146.038 96.2234 146.082 92.552 146.378 88.8966C146.099 86.7738 145.716 86.8869 143.42 82.3716C143.317 82.0543 143.102 81.7854 142.816 81.6156C142.529 81.4457 142.19 81.3866 141.862 81.4494C141.675 81.4753 141.484 81.4753 141.297 81.4494C140.54 82.4151 140.322 82.2498 139.009 81.1536C138.844 81.0365 138.693 80.9024 138.556 80.7534C138.05 80.0805 137.318 79.6138 136.494 79.4397C136.242 79.5824 136.003 79.7485 135.781 79.9356C135.128 80.475 134.911 79.9356 134.485 79.7007L134.18 79.8225C133.641 80.0661 133.484 80.4576 133.867 80.91C134.74 81.9492 135.666 82.9424 136.642 83.8854C136.842 84.0768 137.164 84.2943 136.903 84.5901C136.642 84.8859 136.373 84.5901 136.164 84.4161C134.345 83.085 133.093 81.2319 131.692 79.5093C130.143 77.604 130.082 78.1956 129.004 78.9003C128.146 79.694 127.186 80.3698 126.15 80.91C125.854 81.1449 125.558 81.3972 125.28 81.6582C123.262 83.52 123.679 83.3286 124.558 86.0082C124.68 86.3736 124.897 86.4345 125.21 86.217C126.228 85.521 127.412 85.0512 128.212 84.0594C128.63 83.5461 128.908 83.5635 129.169 83.9376C130.082 83.6505 131.057 86.1126 133.119 89.6709C133.406 90.1668 133.58 90.7671 134.311 90.9237C134.737 91.0107 134.398 91.3848 134.128 91.7937C134.076 92.109 133.923 92.3989 133.693 92.6202C131.822 94.5864 131.483 95.6652 131.005 95.4825C130.847 95.728 130.732 95.9987 130.665 96.2829C130.217 95.7283 129.89 95.0849 129.708 94.395C129.268 93.301 128.683 92.2711 127.968 91.3326C127.46 91.1531 126.909 91.1353 126.39 91.2817C125.871 91.4282 125.411 91.7316 125.071 92.1504C124.975 92.2258 124.894 92.3198 124.835 92.4268C124.776 92.5338 124.738 92.6517 124.725 92.7734C124.712 92.8952 124.724 93.0183 124.759 93.1354C124.795 93.2526 124.854 93.3614 124.932 93.4554L125.289 93.8817C127.091 95.9704 128.507 98.3623 129.473 100.946C129.984 101.454 130.616 101.823 131.309 102.016C132.408 101.949 133.51 102.025 134.589 102.242C135.777 102.414 136.932 102.763 138.017 103.278C138.879 103.427 139.752 103.5 140.627 103.495C140.866 103.471 141.106 103.522 141.314 103.643C141.522 103.763 141.686 103.946 141.784 104.165C144.124 108.211 144.968 110.359 149.318 116.397C153.402 121.217 157.983 125.591 162.986 129.447C163.349 129.723 163.733 129.97 164.134 130.187C165.841 129.231 167.164 127.712 167.875 125.889C168.803 122.891 169.387 119.797 169.615 116.667C169.406 114.544 169.163 115.058 166.318 113.753Z" fill="#F2F7F8"/>
<path d="M48.0935 87.87C48.2889 87.8754 48.4818 87.8258 48.6504 87.7269C48.819 87.628 48.9564 87.4838 49.0471 87.3106C49.1377 87.1375 49.1779 86.9424 49.1632 86.7475C49.1484 86.5526 49.0792 86.3658 48.9635 86.2083C48.9026 86.0865 48.8243 85.9734 48.7547 85.8603C46.2752 84.9903 44.9876 84.7467 43.4042 84.0246C43.1606 83.9115 42.83 83.8071 42.9083 83.4156C42.9866 83.0241 43.2128 83.0502 43.4825 82.9893C44.5481 82.8142 45.6229 82.7009 46.7015 82.65C48.05 82.5369 49.3985 82.4934 50.7383 82.2933C50.9 82.2372 51.0416 82.1346 51.1453 81.9984C51.2489 81.8623 51.3102 81.6985 51.3212 81.5277C51.3212 80.8056 50.7905 80.5533 50.1467 80.2227C49.7987 80.2227 49.4594 80.2227 49.1201 80.2749C47.1365 80.4402 45.1442 80.3619 43.178 80.7099C42.9605 80.7099 42.7517 80.7099 42.6647 80.4924C42.6187 80.401 42.6057 80.2965 42.6279 80.1966C42.6501 80.0968 42.7061 80.0076 42.7865 79.9443C42.9886 79.7816 43.2039 79.636 43.4303 79.5093C48.5111 76.473 46.2143 78.0564 50.3903 75.0114C50.7122 74.7765 50.9645 74.4894 50.8427 74.0718C50.7764 73.8789 50.6485 73.713 50.4788 73.5999C50.309 73.4867 50.1067 73.4324 49.9031 73.4454C49.1473 73.4032 48.3912 73.5218 47.6846 73.7934C45.1442 75.0984 43.265 76.473 39.9938 77.7693C39.7894 77.8474 39.5639 77.851 39.3571 77.7794C39.1502 77.7078 38.9752 77.5656 38.8628 77.3778C38.6192 77.0385 38.9237 76.7427 39.1586 76.5078C39.9743 75.6045 40.843 74.7504 41.7599 73.95C42.1044 73.5101 42.4239 73.0512 42.7169 72.5754C42.9605 72.1752 43.3259 71.7054 42.917 71.2356C42.5081 70.7658 41.8469 71.0355 41.177 71.3226C38.915 73.3584 36.6095 75.3246 34.2866 77.2995C33.9125 77.6214 34.0169 77.8389 34.1648 78.1695C34.6648 79.4417 34.6648 80.8559 34.1648 82.128C34.1213 82.2498 34.1648 82.4499 33.9473 82.4325C33.9043 82.4303 33.8621 82.4195 33.8232 82.4007C33.7844 82.3819 33.7498 82.3555 33.7214 82.323C33.693 82.2905 33.6714 82.2527 33.6579 82.2117C33.6444 82.1708 33.6393 82.1275 33.6428 82.0845C33.5993 80.3445 33.8342 78.8394 32.6858 77.6475C32.2769 77.2125 32.39 76.7775 32.5118 76.2729C32.8772 74.7678 33.3818 73.3062 33.7559 71.7837C33.7336 71.6795 33.6893 71.5813 33.626 71.4956C33.5626 71.4099 33.4817 71.3387 33.3886 71.2868C33.2956 71.2349 33.1925 71.2035 33.0863 71.1947C32.9801 71.1858 32.8732 71.1998 32.7728 71.2356C31.8071 71.4444 30.8066 71.6532 30.6065 72.9234C30.4863 73.4566 30.3352 73.9824 30.1541 74.4981C29.3711 77.3952 28.8143 80.3619 27.5441 83.1111C27.3817 83.5696 27.1899 84.0171 26.9699 84.4509C26.884 84.9797 26.9472 85.5221 27.1526 86.0169C27.9182 88.0701 27.7703 89.5578 28.5881 91.698C28.7063 92.0871 28.9038 92.4475 29.1683 92.7563C29.4328 93.0652 29.7585 93.3158 30.1248 93.4924C30.4911 93.669 30.89 93.7678 31.2964 93.7823C31.7027 93.7969 32.1077 93.7271 32.4857 93.5772C36.5399 91.7589 37.5839 90.219 39.4457 88.305C41.7077 86.0256 43.7957 88.3659 48.0935 87.87Z" fill="#F2F7F8"/>
<path d="M79.1702 150.249C79.1702 149.866 79.0919 149.483 79.0484 149.092C78.8649 148.7 78.5897 148.357 78.2459 148.094C77.9022 147.83 77.5 147.653 77.0735 147.578C76.0624 147.353 75.0079 147.426 74.0372 147.787C74.0963 147.346 74.2411 146.92 74.4635 146.534C74.5853 146.125 74.7245 145.716 74.8202 145.299C75.3074 143.054 73.3847 141.558 71.4446 143.185C69.9771 144.406 68.8352 145.973 68.1212 147.743C67.1282 150.322 66.442 153.008 66.0767 155.747C65.7983 157.609 66.2072 157.992 67.9907 157.435C70.6518 156.486 73.218 155.289 75.6554 153.86C77.0996 153.12 78.8918 151.893 79.1702 150.249Z" fill="#F2F7F8"/>
<path d="M112.717 35.8614C113.1 35.9658 113.309 35.6961 113.456 35.409C116.406 29.7714 125.906 26.8134 126.219 23.229C126.257 23.0177 126.249 22.8008 126.194 22.5931C126.14 22.3855 126.041 22.1922 125.904 22.0266C125.768 21.8611 125.597 21.7272 125.403 21.6344C125.21 21.5415 124.998 21.4919 124.784 21.489C124.179 21.4719 123.575 21.5602 123 21.75C121.735 22.1781 120.567 22.8523 119.564 23.7336C119.111 23.3508 119.694 23.1855 119.564 21.315C119.563 21.112 119.505 20.9134 119.395 20.7425C119.286 20.5715 119.13 20.4351 118.946 20.3493C118.753 20.2809 118.544 20.2762 118.348 20.3357C118.152 20.3952 117.981 20.5158 117.859 20.6799C117.409 21.0871 117.009 21.5455 116.667 22.0458C112.56 28.5012 112.769 33.0339 112.473 35.2698C112.439 35.5134 112.439 35.7831 112.717 35.8614Z" fill="#F2F7F8"/>
<path d="M113.691 140.183C116.084 141.166 115.101 142.793 114.727 144.533C114.683 144.733 114.631 145.012 114.909 145.133C115.188 145.255 115.44 144.759 116.423 143.837C117.572 142.767 118.65 141.558 120.477 141.88C120.607 141.892 120.738 141.87 120.857 141.816C120.976 141.763 121.079 141.68 121.156 141.575C122.271 140.482 123.21 139.223 123.94 137.843C124.314 137.068 124.61 136.103 123.94 135.389C123.27 134.676 122.313 134.719 121.373 135.007C120.327 135.432 119.394 136.097 118.65 136.947C118.851 135.798 118.921 134.631 118.859 133.467C118.887 133.16 118.818 132.852 118.662 132.587C118.506 132.322 118.271 132.112 117.989 131.988C117.734 131.893 117.458 131.873 117.192 131.932C116.927 131.99 116.684 132.125 116.493 132.318C115.755 132.84 115.157 133.537 114.753 134.345C114.052 135.795 113.47 137.299 113.013 138.843C112.931 138.971 112.883 139.118 112.875 139.27C112.867 139.421 112.899 139.572 112.968 139.708C113.037 139.843 113.139 139.958 113.266 140.042C113.393 140.125 113.54 140.174 113.691 140.183Z" fill="#15376D"/>
<path d="M36.3051 111.047C34.2784 112.22 32.5395 113.831 31.2156 115.762C30.44 116.767 29.8292 117.889 29.406 119.086C29.295 119.264 29.2522 119.476 29.2854 119.683C29.3186 119.89 29.4255 120.079 29.5866 120.213C29.7476 120.348 29.9519 120.42 30.1617 120.415C30.3716 120.411 30.5728 120.331 30.7284 120.19C31.759 119.474 32.7333 118.68 33.6429 117.815C34.5912 116.945 34.6086 116.876 34.278 118.19C33.6603 120.582 33.0252 123.001 33.7908 124.889C33.9004 125.267 34.1286 125.601 34.4417 125.84C34.7549 126.08 35.1366 126.213 35.5308 126.22C36.4008 126.22 36.6879 125.454 36.9054 124.749C37.3903 122.855 37.6818 120.917 37.7754 118.964C38.0103 116.519 37.845 113.996 39.063 111.717C39.8112 110.368 37.2708 110.49 36.3051 111.047Z" fill="#F2F7F8"/>
<path d="M50.5554 116.58C50.8391 116.741 51.1579 116.83 51.4839 116.839C51.81 116.848 52.1332 116.776 52.4253 116.631C52.7173 116.486 52.9693 116.271 53.159 116.006C53.3487 115.741 53.4704 115.433 53.5134 115.11C53.5054 113.899 53.6338 112.69 53.8962 111.508C54.9054 107.793 56.367 104.365 59.8818 102.26C60.1112 102.158 60.2963 101.978 60.4033 101.751C60.5104 101.524 60.5322 101.266 60.4647 101.024C60.397 100.715 60.2352 100.435 60.0015 100.221C59.7678 100.008 59.4737 99.8719 59.1597 99.8325C58.4239 99.6771 57.6614 99.7019 56.9373 99.9049C56.2132 100.108 55.5489 100.483 55.0011 100.998C53.7795 102.307 52.7987 103.82 52.104 105.47C49.8333 110.186 49.7724 114.231 49.929 114.875C50.0856 115.519 49.9725 116.145 50.5554 116.58Z" fill="#F2F7F8"/>
<path d="M60.8999 53.7138C61.2566 55.1928 61.6481 56.6631 62.1005 58.116C62.3637 58.9075 62.6986 59.6734 63.101 60.4041C63.1976 60.6245 63.3508 60.8155 63.545 60.9577C63.7391 61.0999 63.9674 61.1883 64.2067 61.2139C64.446 61.2395 64.6879 61.2015 64.9077 61.1036C65.1276 61.0056 65.3177 60.8514 65.4587 60.6564C65.7815 60.3443 66.0135 59.9504 66.13 59.5168C66.2464 59.0832 66.243 58.6261 66.1199 58.1943L65.537 56.1846C66.3774 56.5978 67.2503 56.9412 68.147 57.2112C69.3737 57.4722 70.2002 57.1329 70.5743 56.1672C70.6939 55.9252 70.7617 55.661 70.7734 55.3913C70.785 55.1217 70.7403 54.8526 70.642 54.6012C70.5438 54.3498 70.3942 54.1217 70.2027 53.9315C70.0113 53.7412 69.7823 53.593 69.5303 53.4963C68.8887 53.1718 68.2226 52.8984 67.538 52.6785C65.9219 52.0594 64.1945 51.7839 62.4659 51.8694C61.1957 51.9825 60.6215 52.6437 60.8999 53.7138Z" fill="#15376D"/>
<path d="M86.3994 135.259C86.8852 137.256 87.976 139.055 89.5227 140.409C90.4623 141.279 90.6276 141.279 91.1757 140.113C92.6025 137.095 94.1772 135.685 94.6557 133.702C94.7735 133.358 94.7884 132.987 94.6988 132.635C94.6092 132.282 94.4189 131.964 94.1511 131.718C93.8711 131.487 93.5276 131.345 93.1659 131.313C92.8041 131.28 92.4409 131.358 92.124 131.535C91.2221 131.96 90.4501 132.617 89.8881 133.441C89.3487 132.501 88.9485 131.509 87.7827 131.701C87.4676 131.75 87.1732 131.888 86.9342 132.099C86.6953 132.311 86.5218 132.586 86.4342 132.892C86.1854 133.66 86.1733 134.484 86.3994 135.259Z" fill="#F2F7F8"/>
<path d="M76.8819 102.355C77.5809 103.223 78.4725 103.915 79.4859 104.377C80.4993 104.839 81.6066 105.059 82.7196 105.018C83.2764 105.018 83.5896 104.844 83.5287 104.209C83.4504 102.703 83.607 99.4236 83.3895 97.5531C83.3803 97.2688 83.2797 96.9951 83.1026 96.7726C82.9255 96.55 82.6814 96.3905 82.4064 96.3177C82.1601 96.2327 81.8936 96.2255 81.643 96.297C81.3925 96.3686 81.17 96.5156 81.0057 96.7179C80.4123 97.3209 80.0809 98.1338 80.0835 98.9799C80.0835 99.1887 80.214 99.5019 79.9095 99.5802C79.605 99.6585 79.2135 99.2148 77.9085 98.2926C77.4466 97.9425 76.8871 97.7449 76.3077 97.7271C75.342 97.7271 74.9418 98.2056 75.0984 99.1539C75.3744 100.37 75.9934 101.481 76.8819 102.355Z" fill="#F2F7F8"/>
<path d="M109.028 67.86C107.584 67.4772 107.036 69.3129 106.462 70.644C106.193 69.8701 105.855 69.1219 105.453 68.4081C105.113 67.9209 104.774 67.3815 104.096 67.599C103.417 67.8165 103.286 68.4168 103.226 69.0606C103.139 71.4531 103.739 74.8809 104.966 76.7079C105.374 77.3604 106.21 77.5779 106.453 77.0298C106.984 75.9249 107.932 75.1332 108.559 74.1066C109.429 72.7494 110.22 71.4009 110.212 69.7566C110.194 68.6604 109.838 68.0949 109.028 67.86Z" fill="#F2F7F8"/>
<path d="M107.775 159.932C108.406 159.65 108.972 159.242 109.437 158.731C109.759 159.662 110.307 160.724 111.264 160.471C111.925 160.315 112.308 159.601 112.299 158.497C112.16 157.298 112.099 156.092 112.117 154.886C112.178 154.294 111.76 154.207 111.247 154.286C108.411 154.721 107.132 157.157 106.644 158.975C106.594 159.129 106.591 159.294 106.636 159.449C106.681 159.605 106.772 159.743 106.897 159.845C107.016 159.95 107.164 160.014 107.322 160.03C107.48 160.046 107.638 160.011 107.775 159.932Z" fill="#F2F7F8"/>
<path d="M92.4811 155.626C92.2015 155.641 91.9376 155.76 91.7412 155.959C91.5449 156.159 91.4302 156.425 91.4197 156.704C91.3675 157.226 91.1065 157.374 90.6193 157.331C89.6954 157.31 88.7797 157.51 87.9484 157.914C87.583 158.053 87.2524 158.279 87.2524 158.705C87.2524 159.132 87.6178 159.314 87.9832 159.445C88.8958 159.806 89.8737 159.972 90.8542 159.932C92.0902 159.931 93.315 159.698 94.4647 159.245C95.761 158.845 93.9862 158.314 93.4729 156.539C93.3424 156.061 93.0901 155.565 92.4811 155.626Z" fill="#F2F7F8"/>
<path d="M54.0444 118.32C53.9967 117.972 53.8181 117.655 53.545 117.433C53.2719 117.212 52.9248 117.103 52.5741 117.128C51.8868 117.128 51.0429 117.015 50.8341 117.85C50.3904 119.695 49.9641 122.026 51.7998 122.278C52.2612 122.369 52.7397 122.28 53.1375 122.029C53.5353 121.778 53.8224 121.385 53.94 120.93C54.0903 120.363 54.1461 119.775 54.1053 119.19C54.1198 118.899 54.0994 118.607 54.0444 118.32Z" fill="#F2F7F8"/>
<path d="M128.829 130.926C126.48 121.783 127.368 114.396 126.15 104.826C126.021 103.369 125.491 101.976 124.619 100.801C123.746 99.6263 122.566 98.716 121.208 98.1708C117.476 96.5004 113.117 97.9881 110.429 97.6836C111.725 96.0828 111.725 95.4303 110.481 93.8295C110.318 93.5915 110.125 93.3751 109.907 93.1857C109.254 92.7159 109.376 92.2635 109.907 91.7763C110.754 90.8588 111.252 89.6737 111.316 88.4268C111.391 87.6608 111.209 86.8918 110.8 86.2401C110.39 85.5884 109.777 85.0908 109.054 84.825C107.885 84.4185 106.669 84.1641 105.435 84.0681C102.405 83.9184 99.3683 84.0436 96.3611 84.4422C89.027 85.3122 79.1612 84.3552 73.0364 84.0159C69.974 83.8419 67.8686 85.4949 65.6501 87.0609C64.7801 87.6612 64.7801 88.4616 65.2847 89.3751C66.2939 91.3152 68.7647 91.5936 67.5815 92.394C66.7635 92.9853 66.1835 93.8491 65.9459 94.83C65.8527 95.1883 65.6562 95.5113 65.3808 95.7588C65.1055 96.0063 64.7635 96.1674 64.3973 96.222C62.5065 96.6327 60.5626 96.7414 58.6379 96.5439C56.8634 96.4471 55.1104 96.9699 53.6789 98.0229C50.5338 100.34 48.1916 103.583 46.9799 107.297C46.3241 109.557 46.0304 111.906 46.1099 114.257C45.788 138.234 46.3187 133.484 44.918 143.272C44.048 149.196 41.8469 156.156 47.7107 160.75C52.1303 164.23 57.0023 166.44 62.753 166.457C74.1761 166.509 76.673 169.937 102.416 166.753C107.071 166.179 111.673 165.204 116.275 164.273C118.172 163.899 126.594 161.246 126.811 161.107C128.864 159.732 129.882 157.679 130.639 155.408C132.109 151.015 131.64 146.578 131.074 142.132C130.561 138.353 129.811 134.611 128.829 130.926ZM129.639 154.495C129.365 155.555 128.968 156.58 128.455 157.548C128.157 158.192 127.723 158.764 127.182 159.224C126.641 159.684 126.007 160.02 125.323 160.211C122.261 160.985 119.329 162.307 116.258 163.012C105.863 165.429 95.243 166.747 84.5726 166.944C76.1075 167.084 72.5318 165.535 61.6307 165.309C56.8382 165.155 52.2326 163.414 48.5372 160.358C45.2486 157.792 44.5526 154.268 44.9702 150.345C45.4748 145.734 46.5275 141.192 46.919 136.564C47.1626 133.623 46.919 130.674 46.9799 127.725C47.0669 122.444 46.8146 117.163 46.9277 111.882C46.9654 108.285 48.2823 104.818 50.6426 102.103C52.9307 99.3888 55.184 97.3878 58.7597 97.6314C61.1 97.7967 63.4403 97.8837 65.5631 96.5961C65.8241 96.4395 65.9372 96.5178 66.0938 96.7788C66.4766 97.4139 66.5027 97.4052 66.9638 97.6488C67.1378 97.5096 67.0682 97.3617 66.9638 97.1964C66.3374 95.5086 66.5723 94.5864 67.9556 93.351C68.8952 92.481 68.9822 91.9416 68.3384 90.8715C67.9364 90.2714 67.4566 89.7273 66.9116 89.2533C66.7788 89.1622 66.6702 89.0401 66.5952 88.8976C66.5201 88.7552 66.4809 88.5965 66.4809 88.4355C66.4809 88.2745 66.5201 88.1159 66.5952 87.9734C66.6702 87.8309 66.7788 87.7088 66.9116 87.6177C68.1222 86.5844 69.458 85.7075 70.8875 85.0077C71.4443 84.6945 80.9534 85.3296 83.4938 85.4427C91.5152 85.7733 91.0367 85.9647 98.4143 85.1121C101.608 84.7132 104.846 84.8752 107.984 85.5906C108.504 85.6853 108.989 85.9172 109.39 86.2622C109.79 86.6072 110.091 87.053 110.261 87.5532C110.431 88.0535 110.465 88.5902 110.358 89.1078C110.252 89.6254 110.009 90.1052 109.655 90.4974C108.002 92.6028 108.002 92.6811 109.855 94.6212C110.385 95.178 110.542 95.6304 110.333 96.0393C109.994 96.7005 108.141 97.1703 109.559 98.2665C110.977 99.3627 113.143 98.1795 117.493 98.3796C119.345 98.4358 121.138 99.0415 122.644 100.12C124.723 101.625 125.341 103.808 125.654 106.21C126.524 113.048 125.088 121.113 127.603 130.987C128.609 134.745 129.373 138.563 129.891 142.419C130.387 146.499 130.891 150.51 129.63 154.495H129.639Z" fill="#15376D"/>
<path d="M108.75 59.16C108.845 59.3688 109.724 61.3872 109.759 61.4568C109.796 61.5837 109.86 61.7006 109.949 61.7986C110.037 61.8967 110.147 61.9734 110.269 62.0228C110.391 62.0723 110.524 62.0932 110.655 62.0841C110.787 62.075 110.915 62.036 111.029 61.9701C113.35 61.1204 115.621 60.1416 117.833 59.0382C117.869 59.3787 117.775 59.7202 117.572 59.9952C113.831 67.3467 110.525 68.3559 112.83 69.7131C114.779 70.9137 115.17 71.3922 116.31 70.2525C117.893 68.6691 121.304 64.5018 122.287 63.2925C123.27 66.6681 122.626 67.4685 122.557 70.731C122.557 72.2274 122.783 72.471 124.236 72.8103L125.28 73.08C127.02 73.4628 126.837 72.906 127.49 69.7044C127.968 67.3293 128.447 65.5197 128.577 65.0934C128.768 64.4409 128.977 64.4583 129.517 64.8933C130.805 65.8714 131.8 67.1831 132.396 68.6865C132.588 69.1128 132.797 69.4695 133.362 69.2955C134.156 69.0424 134.982 68.9047 135.815 68.8866C137.086 68.8866 136.39 67.4337 135.763 66.1983C135.233 65.1456 134.737 64.0668 134.206 63.0141C134.03 62.7224 133.944 62.3856 133.958 62.0454C133.972 61.7052 134.085 61.3765 134.284 61.1001C134.927 59.9128 135.508 58.6932 136.024 57.4461C137.094 55.0623 135.946 54.6969 137.173 54.0531C146.459 49.1211 154.962 42.8379 162.403 35.409C163.245 34.6217 164 33.7467 164.656 32.799C165.117 32.0943 165.439 31.2591 164.082 32.5902C158.056 38.5522 151.498 43.9512 144.489 48.72C141.784 50.5296 139.113 52.0086 136.294 53.7138C136.059 53.8617 135.798 53.9835 135.702 54.2619C135.676 54.3229 135.658 54.3873 135.65 54.4533C135.467 56.9067 134.249 58.9686 133.266 60.9435C133.104 61.2644 133.019 61.619 133.019 61.9788C133.019 62.3386 133.104 62.6933 133.266 63.0141C133.884 64.4496 134.615 65.8155 135.32 67.1988C135.624 67.7469 135.659 67.9644 135.067 67.9992C134.476 68.034 133.858 68.382 133.388 68.2341C132.918 68.0862 132.805 67.2336 132.449 66.7638C132.292 66.555 132.188 66.3114 132.031 66.1113C131.25 64.9576 130.136 64.0686 128.838 63.5622C128.542 63.4578 127.968 63.3447 128.029 63.6753C128.081 64.5453 127.533 65.163 127.394 65.9286C127.081 67.6077 126.246 71.5836 126.211 71.7663C126.176 71.949 126.211 72.2796 125.802 72.2883C123.914 72.3579 123.305 71.7141 123.514 69.8349V69.6609C123.592 67.6773 123.957 65.6763 123.174 63.7623C122.905 63.1011 122.67 62.6661 123.288 62.205C123.688 61.9005 123.287 61.1958 122.765 61.6743C121.095 63.1272 122.304 62.0832 116.675 68.6343C115.336 70.1829 115.318 70.1394 113.622 69.0693C113.161 68.7735 113.082 68.5473 113.396 68.1297C113.935 67.4163 114.466 66.6855 114.979 65.9547C116.499 64.0324 117.724 61.8949 118.616 59.6124C118.816 59.0208 118.972 58.5597 119.651 58.4814C119.886 58.4814 120.155 58.3683 120.095 58.0725C120.034 57.7767 119.781 57.7767 119.538 57.7767C117.615 57.7767 116.249 58.8903 111.986 60.639C110.385 61.3002 110.786 61.3437 110.037 59.8473C109.672 59.1078 109.785 58.7772 110.516 58.4118C112.519 57.4563 114.454 56.3663 116.31 55.1493C118.276 53.8182 120.364 52.635 121.983 50.8515C123.366 53.5398 124.21 54.4707 125.262 54.3315C122.191 50.7471 122.905 49.8162 121.434 49.4247C120.216 48.9869 119.11 48.2824 118.198 47.3628C117.65 46.893 117.328 46.6929 117.746 46.1187C118.312 45.4295 118.941 44.7946 119.625 44.2221C120.182 43.674 119.973 44.4831 122.609 45.762C123.74 46.3101 125.845 47.0496 126.002 47.0931C126.842 47.4114 127.745 47.5299 128.639 47.4393C129.532 47.3487 130.393 47.0515 131.152 46.5711C133.332 45.3219 135.386 43.8652 137.286 42.2211C145.177 35.0958 151.38 26.3262 154.338 20.01C154.675 19.4896 154.87 18.8895 154.903 18.27C154.903 18.1221 154.903 17.9655 154.703 17.9481C154.503 17.9307 154.451 18.0351 154.416 18.1917C154.185 18.9624 153.848 19.6973 153.416 20.3754C148.283 29.667 139.4 40.6725 130.082 46.11C129.643 46.3789 129.153 46.5561 128.643 46.6308C128.133 46.7056 127.614 46.6764 127.115 46.545C124.704 45.8574 122.402 44.8322 120.277 43.5C120.06 43.3695 119.851 43.0476 119.52 43.326C118.586 43.9552 117.747 44.7172 117.032 45.588C116.849 45.8838 116.728 46.2405 116.162 46.1622C115.849 46.1622 115.823 46.458 115.936 46.6755C116.063 46.8993 116.228 47.0994 116.423 47.2671C117.915 48.5723 119.56 49.6912 121.321 50.5992C119.28 52.1572 117.161 53.6092 114.97 54.9492C113.117 56.115 111.116 57.0198 109.193 58.0551C108.793 58.29 108.48 58.5684 108.75 59.16Z" fill="#15376D"/>
<path d="M37.6623 93.09C39.2701 91.7923 40.7421 90.3348 42.0558 88.74C42.8736 87.7917 42.7257 88.3224 45.7011 88.6356C46.7731 88.8541 47.8615 88.9821 48.9549 89.0184C49.503 89.0184 50.0946 88.9401 50.3556 88.3485C51.1299 86.6607 50.6166 85.4688 48.8592 84.8685C47.9892 84.564 46.2492 84.0594 45.2052 83.7462C45.7861 83.6025 46.3816 83.5266 46.98 83.52C48.677 83.4348 50.3644 83.2137 52.026 82.8588C52.461 82.7457 52.896 82.5891 53.0004 82.1106C53.042 81.8167 53.0249 81.5176 52.9502 81.2304C52.8754 80.9432 52.7444 80.6736 52.5648 80.4374C52.3852 80.2011 52.1605 80.0028 51.9038 79.854C51.647 79.7051 51.3633 79.6087 51.069 79.5702H48.1893C46.3884 79.6746 46.4493 79.5702 45.1269 79.5702C45.3357 79.4397 45.6576 79.2048 45.9186 79.0569C47.7717 78.0042 49.6248 76.9515 51.4866 75.9162C53.0091 75.0462 52.0956 73.8195 51.1734 72.3231C51.044 72.0624 50.8177 71.8626 50.5429 71.7667C50.2681 71.6708 49.9666 71.6862 49.7031 71.8098C46.4319 72.906 44.0655 75.0288 40.4811 76.5078C41.673 74.8635 43.7958 73.5498 45.2139 71.3487C45.5532 70.8093 45.6489 70.2699 45.0312 69.8349C44.4439 69.496 43.7704 69.336 43.0934 69.3746C42.4165 69.4133 41.7655 69.6488 41.2206 70.0524C38.8281 72.0621 36.5139 74.1414 34.2606 76.2729C33.9996 76.5165 33.7212 77.0907 33.3471 76.8471C32.973 76.6035 33.3471 76.2033 33.4254 75.7422C33.7821 74.0631 34.5564 72.4797 34.6956 70.7484C34.8174 69.165 34.5738 68.9214 33.0165 68.8692C31.1373 68.817 31.1982 68.8692 30.5892 70.6092C29.2513 74.3261 28.1728 78.1313 27.3615 81.9975C27.0836 83.6292 26.2131 85.1008 24.9168 86.13C20.7234 89.3751 16.4778 92.568 12.2235 95.7C10.1181 97.2834 7.9605 98.7624 5.2635 99.2844C4.1934 99.5019 4.3065 100.267 5.046 100.154C7.68883 99.6551 10.1738 98.5305 12.2931 96.8745C16.1646 94.1166 19.9317 91.2021 23.7162 88.305C25.0856 87.2907 26.1997 85.9711 26.97 84.4509C28.3098 81.7104 27.84 79.4832 31.1895 70.905C31.2652 70.5467 31.4773 70.232 31.7809 70.0274C32.0846 69.8228 32.456 69.7444 32.8164 69.8088C34.017 69.8871 34.0692 69.9132 33.8604 71.1225C33.5994 72.5928 32.8425 74.7504 32.4771 76.2729C32.3751 76.4955 32.3374 76.7421 32.3681 76.985C32.3989 77.2279 32.4969 77.4573 32.6511 77.6475C33.7995 78.8394 33.5211 80.3184 33.6081 82.0845C33.6046 82.1275 33.6097 82.1707 33.6232 82.2117C33.6367 82.2527 33.6583 82.2905 33.6867 82.323C33.7151 82.3554 33.7497 82.3819 33.7885 82.4007C33.8273 82.4195 33.8695 82.4303 33.9126 82.4325C34.1214 82.4325 34.0866 82.2498 34.1301 82.128C34.63 80.8559 34.63 79.4416 34.1301 78.1695C33.9822 77.8302 33.8778 77.6214 34.2519 77.2995C35.844 75.951 40.194 72.2187 41.6295 70.8789C41.9815 70.5424 42.4207 70.3111 42.8973 70.2112C43.3739 70.1113 43.869 70.1467 44.3265 70.3134C44.8572 70.4439 44.8485 70.6788 44.5788 71.0268C43.0911 73.0017 41.2293 74.124 39.15 76.4904C38.9151 76.7514 38.6106 77.0472 38.8542 77.3604C38.9666 77.5482 39.1416 77.6904 39.3484 77.762C39.5553 77.8336 39.7807 77.83 39.9852 77.7519C43.674 76.3164 45.8838 74.5329 48.8853 73.1757C50.4339 72.4884 50.5035 72.5232 51.3387 74.0457C51.7041 74.7156 51.6519 75.1071 50.8863 75.4377C48.0681 76.753 45.3443 78.2617 42.7344 79.953C42.6561 80.0199 42.6024 80.111 42.5819 80.2119C42.5614 80.3128 42.5753 80.4177 42.6213 80.5098C42.7083 80.736 42.9171 80.7621 43.1259 80.7273C45.098 80.4822 47.0812 80.337 49.068 80.2923C49.8134 80.2009 50.5672 80.2009 51.3126 80.2923C52.1217 80.4228 52.113 81.1623 52.1826 81.693C52.2522 82.2237 51.6693 82.0932 51.3126 82.1628C49.1463 82.5804 44.9007 82.6326 43.4043 82.9458C43.1346 82.998 42.8823 83.0589 42.8214 83.3721C42.7605 83.6853 43.0737 83.868 43.326 83.9724C44.9355 84.7119 46.893 85.1556 49.0332 85.9386C50.0772 86.3127 49.3638 87.1305 49.4247 87.7308C49.4856 88.3311 48.9288 88.1832 48.5547 88.1658C46.6643 88.0516 44.7854 87.7927 42.9345 87.3915C42.6732 87.3197 42.3971 87.3224 42.1373 87.3993C41.8775 87.4761 41.6443 87.6241 41.4642 87.8265C39.2647 90.28 36.8382 92.52 34.2171 94.5168C34.0494 94.6653 33.8538 94.7787 33.6416 94.8504C33.4294 94.9221 33.2051 94.9507 32.9817 94.9344C31.8894 94.8065 30.7829 94.9767 29.7796 95.4271C28.7762 95.8774 27.9136 96.591 27.2832 97.4922C24.4905 101.059 21.5847 104.539 18.7398 108.063C16.9998 110.22 15.051 112.195 13.6155 114.596C13.1892 115.301 12.9804 115.945 13.7373 115.118C18.9138 109.707 23.4987 103.808 28.188 97.9794C28.665 97.3312 29.2751 96.7925 29.9773 96.3994C30.6795 96.0063 31.4577 95.7678 32.2596 95.7C34.4694 95.5347 36.0702 94.3167 37.6623 93.09Z" fill="#15376D"/>
<path d="M75.9336 50.982C76.1598 51.852 76.6383 52.1391 77.5605 51.852C79.6194 51.4137 81.5435 50.4889 83.172 49.155C83.2764 49.0593 83.3634 48.8157 83.5722 48.9984C83.781 49.1811 83.8941 49.2594 83.7636 49.5117C83.6331 49.764 83.6418 49.8336 83.5809 49.9902C81.0753 55.593 78.4131 60.03 77.8563 61.0305C77.5779 61.5525 77.6214 61.9005 78.3609 61.9005C83.2938 62.0049 80.7708 64.3713 86.1909 56.202C86.3214 56.0019 86.3823 55.6452 86.7912 55.6887C86.8081 58.2286 86.619 60.7658 86.2257 63.2751C86.0005 64.3424 85.9681 65.4415 86.13 66.5202C86.2344 66.9117 86.4084 67.251 86.8608 67.2423C87.7405 67.2612 88.6155 67.375 89.4708 67.5816C90.1929 67.7034 90.5322 67.3641 90.6279 66.6594C91.3413 61.0044 91.4283 60.9609 92.4375 55.3494C94.6821 59.508 94.2906 59.9256 95.7 63.5709C96.0915 64.5888 96.57 64.8063 97.6923 64.554C98.0229 64.4757 98.3535 64.38 98.6841 64.2756C98.9704 64.2108 99.2206 64.038 99.3827 63.7933C99.5448 63.5486 99.6062 63.2508 99.5541 62.9619C99.441 61.4916 99.093 59.9952 97.9359 54.1227C98.0216 54.0559 98.1117 53.9949 98.2056 53.94C99.0234 54.81 99.8238 55.7409 100.676 56.55C101.99 57.8463 102.904 56.3586 104.156 55.1841C104.285 55.0904 104.392 54.969 104.468 54.8289C104.544 54.6887 104.588 54.5333 104.596 54.374C104.605 54.2147 104.577 54.0556 104.516 53.9082C104.455 53.7609 104.362 53.6291 104.243 53.5224C103.483 52.4876 102.664 51.4971 101.79 50.5557C101.181 50.018 100.783 49.2809 100.668 48.4764C100.537 47.1279 100.381 45.7794 100.189 44.4396C99.8673 42.1776 99.4584 39.933 97.8228 38.1582C97.555 37.8469 97.2641 37.556 96.9528 37.2882C96.8898 37.2343 96.8095 37.2047 96.7266 37.2047C96.6437 37.2047 96.5634 37.2343 96.5004 37.2882C96.4454 37.349 96.4149 37.4281 96.4149 37.5101C96.4149 37.5921 96.4454 37.6711 96.5004 37.7319L96.5961 37.8711C97.602 39.1005 98.3345 40.53 98.745 42.0645C99.1322 43.7476 99.3911 45.4578 99.5193 47.1801C99.5267 47.931 99.6845 48.6727 99.9833 49.3616C100.282 50.0504 100.716 50.6724 101.259 51.1908C102.092 52.0419 102.852 52.9615 103.53 53.94C103.678 54.1227 103.965 54.3054 103.66 54.5925C103.138 55.0884 102.625 55.593 102.094 56.0889C102.047 56.1441 101.988 56.1883 101.922 56.2187C101.856 56.249 101.784 56.2647 101.712 56.2647C101.639 56.2647 101.567 56.249 101.501 56.2187C101.435 56.1883 101.376 56.1441 101.329 56.0889C100.05 54.6969 98.31 53.766 97.44 52.0869C97.3356 51.8955 97.1877 51.7215 96.9789 51.7911C96.7701 51.8607 96.7266 52.0956 96.7614 52.3131C97.3182 56.0454 98.2491 59.5254 98.7276 62.7531C98.8059 63.2316 98.6754 63.4491 98.2665 63.6231C97.0485 64.0668 96.7179 63.9363 96.2742 62.6748C95.4042 60.2649 94.7691 57.7854 93.3684 55.593C92.9769 54.9927 92.5593 54.3924 92.9073 53.6007C92.9682 53.4615 93.0204 53.1744 92.7333 53.1048C92.4462 53.0352 92.3592 53.244 92.2896 53.4267C92.0614 54.0125 91.8668 54.6109 91.7067 55.2189C90.9324 58.5858 90.4713 62.0049 90.0189 65.424C89.9493 65.9199 90.2364 66.6072 89.7753 66.8682C89.3142 67.1292 88.7313 66.7203 88.2006 66.6246C86.8521 66.3636 86.826 66.3288 86.9739 64.8846C87.7047 57.5592 87.7743 58.464 87.4263 54.5664C87.4263 54.4446 87.6003 54.3054 87.4263 54.1836C87.2523 54.0618 87.1044 54.1836 86.9478 54.2532C85.8603 54.8883 85.3818 55.8801 82.1976 60.7956C81.9975 61.1001 81.8322 61.5438 81.4233 61.5438C80.5258 61.6593 79.6141 61.5912 78.7437 61.3437C80.9342 57.6383 82.8364 53.7699 84.4335 49.7727C85.3263 50.164 86.2944 50.3537 87.2688 50.3281C88.2432 50.3026 89.2001 50.0624 90.0711 49.6248C89.3712 49.4638 88.6455 49.449 87.9396 49.5813C86.5911 49.5813 85.1817 49.5117 84.1638 48.6156C83.5113 48.0414 83.2155 48.2328 82.7022 48.6156C81.375 49.5745 79.9077 50.3228 78.3522 50.8341C76.6122 51.4083 76.9515 51.2952 75.7422 48.9201C75.603 48.6417 75.5247 48.4851 75.9597 48.3285C80.5359 46.7277 84.0507 43.6305 87.2697 40.1766C87.609 39.8199 88.5138 39.3066 87.5655 38.6019C87.5133 38.6019 87.5655 38.3409 87.6264 38.2104C88.3398 33.7212 89.1141 29.2494 89.7666 24.7602C90.6534 18.6607 92.448 12.7283 95.091 7.16011C95.7174 5.78551 95.2911 5.47231 94.4907 6.89911C88.9749 16.8171 88.5312 27.3354 87.1479 36.9576C86.9913 38.0103 87.2784 39.1413 86.2779 40.0635C82.9545 43.0737 79.5702 45.9795 75.4029 47.7891C74.3154 48.1632 75.342 48.72 75.9336 50.982Z" fill="#15376D"/>
<path d="M42.5169 38.7933C43.042 39.5874 43.6878 40.2948 44.4309 40.89C44.8572 41.1945 44.8746 41.4555 44.6397 41.9427C43.5609 44.2308 42.5256 46.545 41.4903 48.8505C40.6203 50.7036 42.0558 50.3382 44.022 52.2435C44.5962 52.8177 44.4744 52.4436 44.6658 53.9052C44.805 54.8796 44.9529 55.8627 45.0399 56.8371C45.153 58.1073 45.4575 58.5771 46.7799 58.5771C48.1023 58.5771 49.2246 59.1339 50.3382 58.2465C50.4866 58.1542 50.6594 58.1087 50.8341 58.116C52.3147 57.9254 53.8046 57.8151 55.2972 57.7854C56.8371 57.8985 58.4466 57.6984 60.0387 57.7071C60.3954 57.7071 60.6912 57.6027 60.6651 57.1851C60.7064 55.8897 60.5806 54.5943 60.291 53.331C59.9169 52.2348 59.0208 52.3131 57.9159 52.6785C56.3847 53.1831 55.9932 53.7312 55.7061 53.0874C55.1258 51.6152 54.4001 50.2046 53.5398 48.8766C53.2788 48.4938 53.2962 48.2241 53.7747 48.0066C55.1667 47.3976 56.5413 46.7712 57.9246 46.1448C58.0469 46.358 58.09 46.6076 58.0464 46.8495C58.071 48.3767 58.1785 49.9014 58.3683 51.417C58.464 52.0695 58.7946 52.287 59.4558 52.0782C60.3258 51.8346 61.3002 51.6606 62.2224 51.4779C63.6753 51.1908 62.9271 50.3904 62.553 48.7113C62.1354 46.806 62.553 44.9268 62.7618 43.0389C62.9706 41.151 62.379 40.3071 60.465 39.8634C58.8129 39.6394 57.1849 39.2637 55.6017 38.7411C55.2217 38.6101 54.878 38.3913 54.5983 38.1026C54.3187 37.8139 54.111 37.4634 53.9922 37.0794C51.6843 30.6737 50.2447 23.9878 49.7118 17.1999C49.5204 14.5203 49.6074 11.8407 49.5639 9.1524C49.5639 8.4042 49.155 8.3346 49.0419 9.0741C48.8172 10.6152 48.7096 12.1712 48.72 13.7286C48.6562 18.6922 49.2026 23.6448 50.3469 28.4751C50.9686 31.6436 51.9312 34.7356 53.2179 37.6971C53.3688 38.2313 53.713 38.6903 54.1836 38.9847C55.4969 39.7133 56.9232 40.2162 58.4031 40.4724C59.3514 40.5507 60.5085 40.7073 61.0131 40.7943C62.7531 41.0988 62.2224 41.8818 61.8309 43.8915C61.4248 45.5748 61.348 47.3207 61.6047 49.0332C61.7178 49.677 62.4747 50.4165 62.0745 50.8776C61.6743 51.3387 60.7521 51.2691 60.0561 51.4344L59.8821 51.4779C59.3601 51.5649 59.1165 51.4779 59.0991 50.8515C59.0469 49.2681 58.9164 47.6847 58.9425 46.0926C58.9425 45.8055 58.9425 45.4662 58.725 45.3357C58.5075 45.2052 58.3074 45.3357 58.0377 45.3966C56.2448 45.8791 54.5222 46.5927 52.9134 47.5194C52.7927 47.5584 52.6856 47.6309 52.6045 47.7284C52.5234 47.8259 52.4716 47.9444 52.4552 48.0702C52.4388 48.1959 52.4585 48.3237 52.5118 48.4388C52.5652 48.5538 52.6502 48.6513 52.7568 48.72C53.2527 49.2072 53.1483 49.416 54.288 52.0869C55.158 54.1662 55.158 54.4011 56.7327 53.8965C57.5676 53.5537 58.4459 53.3283 59.3427 53.2266C60.4998 53.1483 59.421 54.0966 59.8995 56.3064C60.0213 56.8371 59.8038 56.8806 59.3862 56.8806H53.5311C53.3673 56.8966 53.2027 56.8617 53.0594 56.7808C52.9162 56.6998 52.8014 56.5767 52.7307 56.4282C51.9134 55.1914 50.9429 54.063 49.8423 53.07C49.5987 52.8525 49.2855 52.4697 48.9723 52.8003C48.6591 53.1309 49.1115 53.3484 49.3116 53.5485C50.3556 54.6012 51.1473 55.8453 52.1826 57.0285C51.1647 57.3417 49.9815 57.333 49.1376 58.0377C49.1376 57.9855 49.1376 57.9507 49.0767 57.8985C47.866 54.8771 45.755 52.3014 43.0302 50.5209C42.5865 50.2251 41.2902 49.9728 41.9949 49.2594C42.2962 49.0256 42.5427 48.7287 42.717 48.3894C43.7678 46.3393 44.641 44.2029 45.327 42.0036C45.3996 41.8296 45.4242 41.6394 45.3982 41.4527C45.3722 41.266 45.2965 41.0897 45.1791 40.9422C44.7963 40.4811 44.457 39.9765 44.0829 39.498C38.8156 32.8213 35.0553 25.084 33.06 16.8171C32.6772 15.1728 32.1291 15.3033 32.4597 16.9563C34.0037 24.9393 37.4541 32.4309 42.5169 38.7933ZM48.1893 57.8637C47.6053 57.8904 47.0203 57.8407 46.4493 57.7158C46.3515 57.6866 46.2609 57.6376 46.183 57.5717C46.1052 57.5058 46.0418 57.4246 45.9969 57.333C45.87 56.9595 45.7967 56.57 45.7794 56.1759C45.7011 55.3929 45.5445 54.6186 45.501 53.8008C46.6546 54.9659 47.5681 56.3463 48.1893 57.8637Z" fill="#15376D"/>
<path d="M146.238 99.876C146.243 100.334 146.427 100.771 146.752 101.094C152.106 106.885 158.832 111.236 166.309 113.744C167.179 114.031 167.78 114.24 168.267 114.379C168.754 114.518 169.137 114.196 168.597 113.935C166.301 112.822 161.925 111.325 158.549 109.272C154.564 106.81 150.519 104.383 147.674 100.476C147.417 100.137 147.272 99.7269 147.256 99.3018C147.053 95.2443 147.053 91.1792 147.256 87.1218C147.323 86.8148 147.302 86.4951 147.195 86.1996C146.141 84.3917 144.979 82.6486 143.715 80.9796C142.376 79.1439 142.28 79.1178 140.931 80.8839C140.601 81.3015 140.436 81.1884 140.157 80.9448C139.357 80.2749 138.556 79.6224 137.756 78.9612C137.488 78.7378 137.168 78.5862 136.826 78.5207C136.483 78.4553 136.13 78.4781 135.798 78.5871C134.938 78.8091 134.097 79.1 133.284 79.4571C132.78 79.7094 132.606 79.5441 132.336 79.1961C131.883 78.6219 131.405 78.0825 130.918 77.5518C130.735 77.3517 130.526 77.0646 130.196 77.2299C129.721 77.4339 129.274 77.697 128.865 78.0129C126.855 79.8051 124.454 80.9883 122.157 82.3629C121.774 82.5891 121.931 82.7805 122.087 82.9632C122.857 83.9353 123.382 85.078 123.618 86.2953C123.775 86.9478 124.193 87.5655 125.028 87.3828C125.762 87.2354 126.457 86.9393 127.072 86.5128C127.255 86.391 127.942 85.6863 128.534 85.1034L128.795 84.8424C128.83 84.8078 128.873 84.7812 128.919 84.7647C128.966 84.7482 129.015 84.742 129.065 84.7467C129.114 84.7511 129.162 84.7657 129.205 84.7897C129.249 84.8136 129.287 84.8464 129.317 84.8859C129.421 85.0425 129.491 85.2252 129.587 85.3731C130.848 87.3219 131.622 89.5839 133.293 91.2717C133.432 91.4109 133.389 91.5066 133.293 91.6284L130.561 94.6821C130.15 93.3359 129.521 92.0662 128.699 90.9237C128.505 90.6322 128.237 90.3979 127.921 90.2449C127.606 90.0919 127.256 90.0259 126.907 90.0537C126.045 90.1472 125.224 90.4718 124.532 90.9933C123.453 91.7676 123.157 92.2548 124.193 93.6033C126.171 96.1176 127.804 98.8856 129.047 101.833C129.132 102.124 129.321 102.373 129.578 102.533C129.834 102.693 130.141 102.754 130.439 102.703C131.962 102.559 133.499 102.698 134.972 103.112C136.808 103.504 138.713 103.887 139.966 105.522C141.071 106.966 142.202 108.393 143.22 109.872C147.647 116.476 153.02 122.394 159.167 127.438C160.423 128.59 161.828 129.57 163.343 130.352C164.465 130.9 165.022 130.935 162.899 129.308C154.026 122.474 146.505 114.044 140.723 104.452C140.296 103.747 140.27 103.765 139.522 103.869C139.444 103.869 139.365 103.808 139.287 103.765C137.814 102.936 136.206 102.377 134.537 102.112C133.232 101.964 131.988 101.625 130.683 101.999C129.735 102.295 129.769 101.799 129.413 100.807C128.446 98.2258 127.03 95.8368 125.228 93.7512C123.819 92.0112 123.749 91.8807 125.924 91.0194C126.063 90.9585 126.202 90.9324 126.333 90.8802C126.637 90.7444 126.98 90.7224 127.3 90.8182C127.619 90.914 127.893 91.1212 128.073 91.4022C128.705 92.3059 129.228 93.2813 129.63 94.308C129.813 94.7343 129.926 95.178 130.161 95.6304C130.192 95.688 130.239 95.7358 130.295 95.7681C130.352 95.8004 130.417 95.816 130.483 95.8131C130.547 95.8116 130.61 95.7932 130.665 95.7596C130.72 95.726 130.765 95.6784 130.796 95.6217C131.204 95.0081 131.689 94.4496 132.24 93.96C132.979 93.1852 133.662 92.3596 134.285 91.4892C134.389 91.3152 134.728 90.9672 134.285 90.8802C133.554 90.7236 133.415 90.1233 133.093 89.6274C132.31 88.2789 131.579 86.9043 130.822 85.5471C130.575 85.0556 130.255 84.604 129.874 84.2073C129.526 83.8767 129.265 83.694 128.821 84.0768C127.637 85.3433 126.135 86.2687 124.471 86.7564C124.408 85.2817 123.844 83.8727 122.87 82.7631C127.977 79.8225 128.821 79.431 129.561 78.1869C129.874 77.6388 130.37 77.5866 130.692 78.2304C130.978 78.6997 131.31 79.1397 131.683 79.5441C133.075 81.2841 134.293 83.1198 136.155 84.4509C136.373 84.6075 136.625 84.9381 136.886 84.6249C137.147 84.3117 136.825 84.1116 136.634 83.9202C135.654 82.9682 134.728 81.9633 133.858 80.91C133.484 80.4576 133.632 80.04 134.163 79.8225C135.903 79.083 137.33 79.2744 138.513 80.7534C138.651 80.9003 138.803 81.0343 138.965 81.1536C140.296 82.2498 140.496 82.4151 141.253 81.4494C142.715 79.5702 141.793 79.9095 145.83 85.3818C146.284 85.9211 146.507 86.6189 146.447 87.3219C146.077 91.4962 146.007 95.6917 146.238 99.876Z" fill="#15376D"/>
<path d="M95.7955 36.54C99.4582 27.7443 99.2755 22.4634 107.871 9.85712C108.323 9.19592 108.741 8.50862 109.141 7.80392C109.141 7.71692 109.524 6.45542 108.393 7.80392C101.52 16.2342 97.9531 26.0739 95.3953 36.2877C95.3257 36.627 95.6998 36.801 95.7955 36.54Z" fill="#15376D"/>
<path d="M69.4782 88.5312C69.7131 88.2789 69.8958 88.4529 70.0959 88.5312C80.2401 90.2712 78.1608 90.1407 88.3659 90.4365C96.3699 90.045 94.3863 90.1668 103.278 89.4447C104.371 89.4048 105.461 89.2944 106.54 89.1141C106.716 89.0944 106.877 89.0089 106.992 88.8749C107.106 88.7408 107.166 88.5682 107.158 88.392C107.181 88.1893 107.138 87.9845 107.037 87.8077C106.935 87.6308 106.779 87.4911 106.592 87.4089C106.392 87.3306 105.983 87.1914 106.149 87.7047C106.314 88.218 105.94 88.3746 105.522 88.4268C98.6835 89.4584 91.7597 89.8139 84.8511 89.4882C77.2473 89.0184 75.2811 88.392 69.2607 87.5568C69.0345 87.5568 68.7822 87.5568 68.6691 87.783C68.6281 87.8917 68.6266 88.0113 68.6647 88.121C68.7029 88.2307 68.7783 88.3235 68.8779 88.3833C69.0519 88.4964 69.2172 88.8183 69.4782 88.5312Z" fill="#15376D"/>
<path d="M101.459 163.229C100.076 163.282 98.684 163.369 97.3355 163.456L95.4041 163.577C94.5341 163.638 93.6032 163.76 92.7332 163.882C91.4929 164.081 90.2396 164.189 88.9835 164.204C86.3735 164.204 83.7026 164.039 81.1535 163.891C79.2569 163.786 77.2994 163.682 75.368 163.621C74.2892 163.621 73.1408 163.551 72.0098 163.464C71.2181 163.395 70.409 163.36 69.626 163.325C68.582 163.325 67.5032 163.229 66.4505 163.116C66.1808 163.116 65.8067 163.038 65.4413 162.986C64.3886 162.838 64.3886 162.838 64.3712 162.986C64.3538 163.134 64.3712 163.108 66.2678 163.525C67.4107 163.771 68.5794 163.876 69.7478 163.838C70.3285 163.828 70.9093 163.848 71.4878 163.899C73.5845 164.143 75.716 164.23 77.7779 164.317C79.0742 164.369 80.3879 164.421 81.7364 164.517C83.7374 164.656 85.7993 164.778 87.896 164.778C89.822 164.791 91.7465 164.669 93.6554 164.413C95.1344 164.213 96.6482 164.117 98.1185 164.03C99.0494 163.978 100.015 163.917 100.963 163.83C100.963 163.83 102.286 163.691 102.268 163.403C102.234 163.256 102.112 163.203 101.459 163.229Z" fill="#15376D"/>
<path d="M97.5358 94.0557C89.5231 94.134 80.623 94.134 71.9317 92.7942C70.8964 92.6376 71.5315 93.1857 71.9317 93.2553H72.0013C75.6536 93.8966 79.3449 94.2918 83.0503 94.4385C86.6434 94.5951 89.671 94.6734 92.4463 94.6734C93.7774 94.6734 95.0563 94.6734 96.3004 94.6212C97.5445 94.569 101.686 94.0122 97.5358 94.0557Z" fill="#15376D"/>
<path d="M105.218 96.4221C105.216 96.4029 105.207 96.3851 105.192 96.3723C105.178 96.3594 105.159 96.3524 105.14 96.3525C102.799 96.3525 100.424 96.4569 98.1275 96.5787C94.2458 96.9136 90.3425 96.9136 86.4608 96.5787C86.4414 96.5766 86.4219 96.5805 86.4048 96.5898C86.3877 96.5992 86.3738 96.6135 86.3651 96.6309C86.355 96.6464 86.3496 96.6646 86.3496 96.6831C86.3496 96.7016 86.355 96.7198 86.3651 96.7353C87.0002 97.2486 90.4454 97.4922 94.256 97.4922C98.606 97.4922 103.521 97.1703 105.14 96.5526C105.155 96.5531 105.171 96.5495 105.184 96.5421C105.198 96.5347 105.209 96.5237 105.217 96.5104C105.225 96.4971 105.23 96.4819 105.23 96.4664C105.23 96.4508 105.226 96.4356 105.218 96.4221Z" fill="#15376D"/>
<path d="M118.32 160.167C118.074 160.057 117.799 160.029 117.537 160.089L107.706 161.95C107.062 162.064 106.931 162.168 106.757 162.638C106.705 162.803 106.94 162.734 107.027 162.707C108.602 162.307 110.246 162.029 111.83 161.759C113.819 161.459 115.789 161.041 117.728 160.506L118.32 160.332C118.337 160.327 118.352 160.316 118.363 160.301C118.374 160.286 118.38 160.268 118.38 160.25C118.38 160.231 118.374 160.213 118.363 160.199C118.352 160.184 118.337 160.173 118.32 160.167Z" fill="#15376D"/>
<path d="M73.7327 98.5275L69.8003 98.0055C69.5741 98.0055 69.4088 98.0055 69.3827 98.1621C69.3566 98.3187 69.3827 98.3796 69.6959 98.484C70.4602 98.7002 71.2442 98.8401 72.0362 98.9016C72.5843 98.9712 73.1497 99.0321 73.6891 99.1539C73.7303 99.1568 73.7716 99.1515 73.8107 99.1384C73.8498 99.1253 73.8859 99.1046 73.917 99.0776C73.9481 99.0505 73.9736 99.0176 73.9919 98.9807C74.0103 98.9438 74.0212 98.9036 74.0241 98.8625C74.027 98.8213 74.0217 98.7801 74.0086 98.741C73.9955 98.7019 73.9748 98.6657 73.9477 98.6346C73.9207 98.6035 73.8878 98.5781 73.8509 98.5597C73.8139 98.5413 73.7738 98.5304 73.7327 98.5275Z" fill="#15376D"/>
<path d="M54.3226 159.749C53.7397 159.532 53.1046 159.166 52.513 159.001C51.1993 158.653 52.3042 159.871 52.513 159.993C53.1476 160.325 53.8376 160.537 54.5488 160.619C55.906 160.732 54.4357 159.802 54.3226 159.749Z" fill="#15376D"/>
</svg>
