<svg width="174" height="174" viewBox="0 0 174 174" fill="none" xmlns="http://www.w3.org/2000/svg">
<path d="M137.242 42.2145C135.355 43.8546 133.316 45.3111 131.152 46.5645C130.393 47.0448 129.533 47.342 128.639 47.4326C127.745 47.5232 126.842 47.4047 126.002 47.0865C125.371 47.1375 124.737 47.0441 124.148 46.8135C123.558 46.5828 123.029 46.221 122.6 45.7554C121.739 45.3503 120.937 44.8292 120.217 44.2068C120.017 44.1806 119.816 44.1806 119.616 44.2068C119.059 44.6731 118.535 45.179 118.05 45.7206C117.962 46.2603 118.01 46.8135 118.189 47.3301C119.103 48.2503 120.208 48.9574 121.426 49.4007C122.792 49.7661 122.218 50.4882 124.532 53.4201C124.576 53.4874 124.596 53.5681 124.587 53.6482C124.579 53.7284 124.542 53.8031 124.485 53.8596C124.427 53.9161 124.352 53.9509 124.272 53.958C124.191 53.9651 124.111 53.9441 124.045 53.8986C123.176 52.9941 122.475 51.9424 121.974 50.7927C120.356 52.5327 118.268 53.7594 116.302 55.0905C114.44 56.3081 112.499 57.3981 110.49 58.353C109.75 58.7184 109.62 59.049 110.011 59.7885C110.751 61.2762 110.359 61.2327 111.96 60.5802C116.162 58.8402 117.589 57.7266 119.512 57.7179C119.755 57.7179 120.016 57.7179 120.069 58.0137C120.121 58.3095 119.86 58.4052 119.625 58.4226C118.938 58.4922 118.755 58.962 118.59 59.5449C117.598 62.4333 115.484 65.2347 113.37 68.0622C113.056 68.4798 113.143 68.7234 113.596 69.0105C115.292 70.0806 115.336 70.1241 116.65 68.5755C122.235 62.1288 121.087 63.1032 122.74 61.6155C123.279 61.1631 123.662 61.8504 123.262 62.1462C123.117 62.234 123.004 62.3659 122.94 62.5225C122.876 62.679 122.864 62.8521 122.905 63.0162C122.942 62.9834 122.988 62.9606 123.036 62.95C123.085 62.9393 123.136 62.9411 123.183 62.9553C123.549 63.0684 123.488 63.6165 123.549 64.008C123.975 66.5658 123.462 69.0279 123.879 70.968C123.916 71.1706 124.024 71.3536 124.183 71.4842C124.343 71.6149 124.543 71.6847 124.749 71.6814C125.27 71.7331 125.795 71.627 126.254 71.3769C126.628 69.5238 127.037 67.6794 127.377 65.8263C127.525 65.052 128.064 64.4169 128.012 63.5643C128.012 63.2424 128.525 63.3555 128.821 63.4512C130.126 63.9979 131.234 64.9296 131.996 66.1221C132.153 66.3222 132.257 66.5745 132.414 66.7746C132.771 67.2531 132.797 68.0709 133.354 68.2449C133.607 68.3176 133.875 68.3176 134.128 68.2449C134.593 68.0244 134.992 67.6854 135.285 67.2618C133.284 63.3033 132.623 62.3202 133.153 61.2675C133.823 59.9016 133.667 60.3018 134.424 58.6575C135.113 57.2986 135.544 55.8236 135.694 54.3075C135.763 52.9938 136.381 53.1852 138.513 52.437C148.674 46.3905 151.702 43.737 159.984 36.4725C160.75 35.7852 162.994 33.6885 163.577 33.0621C164.088 32.6163 164.471 32.0434 164.688 31.4016C164.905 30.7598 164.948 30.072 164.813 29.4081C164.152 26.4153 161.655 22.0653 157.453 18.855C156.348 17.985 155.573 18.1503 154.843 19.3248C154.712 19.5162 154.642 19.6728 154.381 20.0556C151.38 26.3457 145.194 35.0892 137.242 42.2145Z" fill="#36383B"/>
<path d="M148.7 135.895C146.96 135.739 146.143 133.511 145.899 131.737C145.556 129.525 145.085 127.335 144.49 125.177C143.62 121.958 141.627 121.697 138.53 121.645C138.211 121.668 137.894 121.581 137.632 121.399C137.369 121.217 137.176 120.951 137.086 120.644C135.476 116.39 136.259 113.684 134.041 114.032C132.971 113.815 132.17 114.528 131.483 115.137C130.996 115.581 131.561 116.381 131.622 117.025C131.997 119.465 132.579 121.87 133.362 124.211C133.577 124.793 133.937 125.311 134.407 125.716C134.877 126.121 135.443 126.4 136.051 126.525C138.887 127.143 139.531 125.203 141.184 131.336C142.054 134.555 143.411 137.479 146.317 139.349C150.806 142.246 150.179 146.179 151.632 149.963C152.041 151.016 152.502 151.329 153.372 151.042C154.957 150.483 156.387 149.559 157.548 148.345C157.791 148.133 157.951 147.842 157.999 147.523C158.047 147.204 157.98 146.879 157.809 146.605C153.833 139.323 152.537 136.243 148.7 135.895Z" fill="#36383B"/>
<path d="M65.4066 155.732C65.7354 153.52 65.9474 151.293 66.0417 149.059C66.2679 144.083 62.8575 142.186 59.8299 144.779C58.0899 146.258 57.7071 148.319 57.5592 150.451C57.5592 151.025 57.4461 151.217 56.9067 150.816C56.5111 150.529 56.0953 150.27 55.6626 150.042C54.2706 149.25 52.8786 148.52 51.1995 148.676C50.7345 148.668 50.2815 148.824 49.9202 149.117C49.559 149.409 49.3126 149.82 49.2246 150.277C49.0967 151.088 49.165 151.919 49.4238 152.698C49.6827 153.478 50.1245 154.184 50.7123 154.757C53.2266 157.663 58.9686 157.959 63.8928 159.316C65.5197 159.743 65.0238 158.559 65.4066 155.732Z" fill="#AEC7F6"/>
<path d="M25.3605 125.081C25.2126 124.994 25.0213 124.977 24.8908 124.863C24.7929 124.779 24.6774 124.717 24.5526 124.682C24.4277 124.647 24.2968 124.641 24.1692 124.664C24.0417 124.686 23.9207 124.737 23.8153 124.812C23.7098 124.887 23.6225 124.985 23.5596 125.098C21.7675 127.465 20.2798 129.97 20.68 133.085C20.8223 133.799 20.7073 134.54 20.3554 135.177C20.0034 135.814 19.4372 136.306 18.7572 136.565L18.531 136.687C11.4579 141.037 13.7635 147.492 13.5286 150.485C13.5286 150.981 13.7286 151.216 14.1897 151.111C15.0597 150.92 15.9297 150.694 16.7997 150.45C18.5397 149.946 14.0157 143.099 20.4189 139.401C21.4618 138.785 22.4617 138.099 23.4117 137.348C24.4906 136.478 25.378 134.564 24.7341 133.111C24.3068 132.268 24.1816 131.303 24.3795 130.378C24.5774 129.454 25.0865 128.625 25.8217 128.03C27.2746 126.569 27.1962 126.099 25.3605 125.081Z" fill="#36383B"/>
<path d="M130.195 33.4267C130.831 33.6877 130.787 33.0526 133.762 28.6591C135.45 26.1709 137.669 26.4145 139.452 25.8577C141.236 25.3009 142.471 24.5092 142.723 22.5952C142.844 21.8868 142.926 21.1723 142.967 20.455C142.876 19.3541 143.175 18.2564 143.811 17.3533C144.447 16.4502 145.38 15.799 146.447 15.5134C147.021 15.3046 147.491 15.0175 147.448 14.3563C147.12 13.2806 146.492 12.3209 145.638 11.5897C144.568 10.5979 143.82 10.7197 142.663 11.8333C140.391 14.0534 139.06 17.0628 138.948 20.2375C138.974 20.639 138.88 21.0392 138.679 21.3876C138.478 21.736 138.178 22.017 137.817 22.195C136.738 22.7431 135.65 23.2564 134.563 23.7958C133.588 24.2504 132.739 24.9356 132.089 25.792C131.439 26.6485 131.007 27.6504 130.831 28.7113C130.587 29.9467 130.309 31.1821 130.048 32.4175C129.969 32.7916 129.734 33.244 130.195 33.4267Z" fill="#36383B"/>
<path d="M94.7779 148.893C94.7779 146.987 96.5179 143.716 96.9616 141.063C97.0785 140.499 97.0155 139.912 96.7813 139.386C96.5472 138.86 96.1538 138.421 95.6566 138.131C94.6648 137.609 93.9862 137.809 92.9248 138.861C92.012 139.823 91.4063 141.034 91.1848 142.341C91.0282 143.116 90.7846 142.916 90.3757 142.62C89.5057 141.985 88.6357 141.367 87.7657 140.732C86.8259 140.05 85.6668 139.74 84.5119 139.862C84.3453 139.849 84.1779 139.874 84.0219 139.933C83.8658 139.993 83.7249 140.086 83.6092 140.207C83.4936 140.328 83.4061 140.472 83.3531 140.631C83.3001 140.789 83.2829 140.958 83.3026 141.123C83.3377 142.077 83.6391 143.003 84.1726 143.794C85.5994 146.204 87.844 147.805 90.1408 149.432C91.6198 150.38 94.8301 150.441 94.7779 148.893Z" fill="#AEC7F6"/>
<path d="M105.531 143.221C103.382 141.35 101.442 144.091 102.982 146.988C104.257 149.449 106.071 151.59 108.289 153.252C109.046 153.8 109.237 153.757 109.716 152.921C112.1 148.867 113.579 146.718 114.066 144.221C114.762 140.741 112.047 139.776 110.055 142.368C109.124 143.488 108.415 144.776 107.967 146.161C107.266 145.095 106.449 144.108 105.531 143.221Z" fill="#36383B"/>
<path d="M68.4777 137.566C70.5068 138.791 72.8241 139.458 75.1941 139.498H76.4904C76.7514 139.498 76.9254 139.419 76.9515 139.106C77.2734 136.313 79.2048 133.312 78.3 130.641C78.2297 130.328 78.0653 130.045 77.8288 129.829C77.5924 129.612 77.2952 129.474 76.9776 129.432C76.6255 129.394 76.2703 129.465 75.9594 129.634C75.6485 129.803 75.3967 130.064 75.2376 130.38C74.6406 131.378 74.3389 132.524 74.3676 133.686C74.4633 135.617 72.8451 133.155 69.6522 133.408C69.1029 133.413 68.5698 133.595 68.1324 133.927C67.695 134.259 67.3767 134.724 67.2249 135.252C67.1566 135.721 67.2416 136.2 67.4673 136.617C67.6931 137.034 68.0474 137.367 68.4777 137.566Z" fill="#AEC7F6"/>
<path d="M105.47 155.983C103.365 153.591 103.895 150.867 100.763 148.797C100.502 148.586 100.181 148.465 99.8455 148.451C99.5103 148.437 99.1795 148.53 98.9017 148.719C98.3014 149.154 98.3971 149.806 98.5363 150.459C98.8394 151.581 99.3435 152.639 100.024 153.582C98.3296 153.37 96.6127 153.719 95.1346 154.574C93.7165 155.487 94.4386 157.053 96.1786 157.488C98.9452 158.175 101.799 157.227 105.957 157.836C107.332 158.045 106.358 157.027 105.47 155.983Z" fill="#AEC7F6"/>
<path d="M61.7699 71.463C61.2392 71.2629 60.8303 71.5761 60.4649 71.9241C58.74 73.5647 57.6494 75.7614 57.3851 78.1272C57.3068 79.1886 57.3851 79.2756 58.4378 79.1973C59.7863 79.1016 61.1261 78.9798 62.4659 78.8232C63.7217 78.7549 64.957 78.4755 66.1199 77.9967C67.451 77.3529 67.6511 76.2567 66.5288 75.291C66.1299 74.9797 65.6726 74.7515 65.1839 74.62C64.6953 74.4885 64.1852 74.4564 63.6839 74.5254C63.1793 74.5254 62.4833 74.8038 62.2136 74.5254C61.9439 74.247 62.3615 73.5945 62.3789 73.0899C62.3963 72.5853 62.3093 71.6718 61.7699 71.463Z" fill="#36383B"/>
<path d="M94.6039 42.7967C94.6039 41.0567 93.9427 40.4999 92.194 40.3781C89.4448 40.1954 87.7309 41.7266 86.3215 43.7798C86.2157 43.9029 86.1432 44.0511 86.1111 44.2103C86.0789 44.3694 86.0882 44.5341 86.1379 44.6887C86.1877 44.8432 86.2763 44.9824 86.3953 45.0929C86.5143 45.2034 86.6596 45.2815 86.8174 45.3197C87.3266 45.5221 87.8718 45.618 88.4194 45.6015C88.9671 45.5851 89.5055 45.4566 90.0016 45.224C91.1065 44.7803 91.1152 44.7803 91.324 45.9722C91.4589 46.7392 91.7021 47.4833 92.0461 48.182C92.6116 49.3304 93.3946 49.3565 94.0471 48.2516C95.3086 46.1114 94.6126 43.4144 94.6039 42.7967Z" fill="#36383B"/>
<path d="M79.7008 153.356C79.8226 153.704 79.9705 154 80.3794 154.035C80.7883 154.07 80.9014 153.748 81.0406 153.461C83.1808 149.25 84.0421 148.754 84.451 147.371C84.5754 147.083 84.6137 146.766 84.5612 146.457C84.5087 146.148 84.3676 145.861 84.1552 145.631C83.2243 144.761 82.2412 146.501 82.1368 145.248C81.9802 143.508 80.8753 143.308 80.1967 144.117C78.6742 145.909 78.97 151.286 79.7008 153.356Z" fill="#36383B"/>
<path d="M88.1049 117.451L89.3316 115.711C89.6986 116.54 90.2596 117.268 90.9672 117.834C91.6893 118.391 92.3505 118.138 92.6202 117.268C92.731 116.923 92.745 116.554 92.6607 116.201C92.5763 115.848 92.3968 115.525 92.1417 115.267C91.3555 114.381 90.481 113.576 89.5317 112.866C89.3441 112.688 89.0949 112.588 88.8357 112.588C88.5766 112.588 88.3274 112.688 88.1397 112.866C86.8086 113.928 86.7303 115.407 86.6433 116.903C86.6433 117.26 86.6868 117.625 87.1044 117.73C87.279 117.797 87.4705 117.806 87.6508 117.756C87.831 117.706 87.9902 117.599 88.1049 117.451Z" fill="#36383B"/>
<path d="M44.0394 100.225C43.475 98.9201 42.5326 97.8141 41.3337 97.0496C40.2027 96.3449 39.0717 96.284 38.4801 97.0496C38.1399 97.4739 37.8878 97.9616 37.7384 98.4845C37.589 99.0073 37.5454 99.5547 37.6101 100.095C37.8537 101.635 40.0461 103.279 41.6034 103.279C41.9872 103.307 42.372 103.241 42.7246 103.087C43.0772 102.933 43.3869 102.695 43.6269 102.395C43.8669 102.094 44.0298 101.739 44.1017 101.361C44.1736 100.983 44.1522 100.593 44.0394 100.225ZM40.02 102.104C39.0891 101.539 38.1669 100.939 38.1843 99.3899C38.9499 101.504 40.6638 101.869 42.3168 102.287C41.6121 102.757 41.0379 102.739 40.02 102.104ZM42.2733 101.548C40.4463 101.304 39.0543 100.556 38.7498 98.7287C38.6019 97.8587 39.0108 97.3106 39.8982 97.3976C41.0814 97.502 43.2651 99.4508 43.4913 100.599C43.587 101.147 43.0563 101.565 42.2472 101.548H42.2733Z" fill="#36383B"/>
<path d="M34.565 21.5762C35.5916 24.4298 36.7487 27.2312 38.045 29.9891C39.7985 33.3276 41.8361 36.5091 44.135 39.4982C44.5004 39.9767 44.8397 40.4726 45.2225 40.9424C45.3431 41.0882 45.4214 41.2641 45.4491 41.4513C45.4767 41.6384 45.4525 41.8295 45.3791 42.0038C44.6892 44.1988 43.8161 46.332 42.7691 48.3809C42.7691 48.4592 42.6734 48.5288 42.6386 48.6071C42.4704 48.844 42.2748 49.0601 42.0557 49.2509C42.1601 49.712 42.5516 50.0513 43.3172 50.4689C43.6485 50.6447 43.9207 50.914 44.1002 51.2432C46.3442 52.9657 48.0816 55.2621 49.1288 57.89L49.703 57.6986C50.5141 57.4006 51.3496 57.1735 52.1999 57.02C51.1559 55.8455 50.3642 54.6101 49.3202 53.54C49.1201 53.3399 48.6677 53.1137 48.9809 52.7918C49.2941 52.4699 49.616 52.7918 49.8509 53.0615C50.9463 54.0491 51.9085 55.1751 52.7132 56.411C53.0786 56.9591 53.2265 56.8547 54.6011 56.8547C56.0815 56.8359 57.5496 56.5834 58.9511 56.1065C59.2654 56.0047 59.5454 55.8181 59.7602 55.5671C59.6297 53.8271 60.2909 53.1398 59.3078 53.2007C58.4114 53.3042 57.5333 53.5296 56.6978 53.8706C55.0796 54.41 55.1579 54.0881 54.2531 52.061C53.6427 51.0044 53.1496 49.8841 52.7828 48.7202C52.685 48.651 52.6076 48.5569 52.5585 48.4476C52.5095 48.3383 52.4906 48.2179 52.504 48.0988C52.5173 47.9797 52.5623 47.8664 52.6343 47.7707C52.7063 47.675 52.8027 47.6003 52.9133 47.5544L53.0177 47.4935C53.3918 47.1281 53.5919 47.1629 57.6026 44.6312C57.9941 44.3876 58.2203 44.4485 58.2464 44.8922L58.2986 45.362C58.8641 45.1967 58.9163 45.7274 58.9163 46.145C58.9163 47.7371 59.0207 49.3118 59.0729 50.9039C59.0704 51.037 59.091 51.1694 59.1338 51.2954C59.3826 51.3487 59.6411 51.3337 59.882 51.2519C60.3201 51.1556 60.7252 50.9457 61.0566 50.6433C61.3879 50.341 61.6339 49.9568 61.7699 49.5293C61.6878 49.3797 61.6291 49.2183 61.5959 49.0508C61.341 46.9566 61.4916 44.8328 62.0396 42.7955C62.1527 42.3518 62.1962 41.8037 61.6916 41.5601C61.1625 41.299 60.6484 41.0086 60.1517 40.6901C59.5775 40.6118 59.0033 40.5509 58.4117 40.4987C56.9361 40.2415 55.5133 39.7417 54.2009 39.0197C53.6702 38.7848 53.4701 38.2193 53.2352 37.7234C51.9472 34.7617 50.9818 31.6698 50.3555 28.5014C49.2126 23.6707 48.6633 18.7187 48.7199 13.7549C48.7041 12.198 48.8059 10.642 49.0244 9.10042C49.0333 8.98904 49.0508 8.87852 49.0766 8.76982C48.9896 8.03032 48.7199 7.83022 48.0152 7.83022C45.3947 7.75198 42.7891 8.25159 40.3834 9.29357C37.9776 10.3355 35.8308 11.8944 34.0952 13.8593C32.1899 15.9734 33.608 18.8879 34.565 21.5762Z" fill="#36383B"/>
<path d="M45.9534 57.333C46.0939 57.4723 46.2452 57.6003 46.4058 57.7158C46.7501 57.8041 47.1032 57.8537 47.4585 57.8637H48.1893C47.5552 56.3427 46.6268 54.9619 45.4575 53.8008C45.4575 54.6099 45.6576 55.3929 45.7359 56.1759C45.7533 56.5699 45.8265 56.9595 45.9534 57.333Z" fill="#36383B"/>
<path d="M125.524 147.822C124.782 147.616 124.007 147.56 123.244 147.657C122.481 147.755 121.744 148.003 121.078 148.387C121.382 147.465 121.574 146.778 121.844 146.117C122.14 145.281 122.249 144.39 122.165 143.507C122.192 143.292 122.158 143.074 122.067 142.878C121.975 142.682 121.83 142.515 121.648 142.398C121.467 142.281 121.255 142.217 121.039 142.215C120.823 142.212 120.61 142.271 120.425 142.384C119.887 142.592 119.393 142.902 118.973 143.298C116.889 145.305 115.273 147.747 114.24 150.449C113.374 152.355 113.046 154.461 113.291 156.539C113.483 157.792 113.848 158.036 115.031 157.531C119.381 155.687 123.375 156.574 126.724 154.199C127.353 153.783 127.835 153.178 128.1 152.472C128.366 151.766 128.402 150.994 128.203 150.267C128.031 149.649 127.688 149.092 127.214 148.66C126.74 148.227 126.155 147.937 125.524 147.822Z" fill="#36383B"/>
<path d="M103.669 136.208L103.469 136.06C103.734 134.77 103.839 133.452 103.782 132.136C103.721 131.467 103.643 130.744 102.825 130.466C102.529 130.39 102.216 130.413 101.933 130.53C101.651 130.648 101.414 130.855 101.259 131.119C98.0316 134.842 97.7793 138.079 97.5966 143.038C97.5865 143.759 97.7665 144.47 98.1186 145.099C98.1585 145.235 98.2309 145.359 98.3295 145.461C98.4281 145.562 98.55 145.638 98.6845 145.682C98.8191 145.725 98.9622 145.736 99.1016 145.711C99.241 145.687 99.3725 145.63 99.4845 145.543C100.373 145.167 101.149 144.568 101.738 143.803C102.29 143.057 103.105 142.547 104.017 142.376C106.932 141.733 108.48 139.549 109.742 137.156C109.975 136.715 110.062 136.211 109.99 135.717C109.918 135.222 109.691 134.764 109.342 134.407C109.007 134.071 108.581 133.841 108.117 133.747C107.652 133.652 107.17 133.697 106.732 133.876C105.47 134.273 104.387 135.098 103.669 136.208Z" fill="#36383B"/>
<path d="M67.9208 28.2143C68.3645 29.7455 68.9996 29.9543 70.2959 29.0843C70.7309 28.7972 71.1659 28.4666 71.5661 28.2143C72.2969 27.7532 72.4361 27.8141 72.671 28.6493C73.4279 32.1293 73.2278 35.6876 74.5415 38.8718C74.6633 39.185 74.846 39.4286 75.2462 39.3677C75.6464 39.3068 75.6899 39.0719 75.7508 38.7674C75.9636 37.6662 76.0771 36.5481 76.0901 35.4266C76.151 33.8258 76.6295 26.483 76.7513 23.9774C76.7513 23.1683 76.3163 22.7594 75.5246 22.7333C74.7329 22.7072 73.9499 22.6637 73.2017 22.6202C72.6971 22.568 72.5405 22.3592 72.5927 21.9155C72.6797 20.9063 72.7667 19.9145 72.8798 18.9053C72.9929 17.8961 72.4013 17.3306 71.6096 17.7395C70.0389 18.5702 68.5777 19.593 67.2596 20.7845C67.1308 20.8862 67.0314 21.0205 66.9717 21.1734C66.9121 21.3264 66.8943 21.4925 66.9203 21.6545C67.1356 23.8575 67.4696 26.0473 67.9208 28.2143Z" fill="#36383B"/>
<path d="M57.6375 132.405C56.6631 134.441 57.2808 137.173 57.7593 139.409C57.855 139.853 57.8985 140.079 57.3069 139.931C56.9689 139.862 56.6253 139.824 56.2803 139.818C54.7306 139.845 53.1972 140.139 51.7476 140.688C51.4063 140.785 51.1176 141.014 50.9447 141.324C50.7718 141.633 50.7289 141.999 50.8254 142.341C50.9028 142.855 51.0947 143.346 51.3867 143.777C51.6788 144.207 52.0638 144.567 52.5132 144.829C53.9312 145.617 55.5506 145.968 57.1677 145.838C57.9159 145.795 58.6728 145.716 58.9686 144.803C59.0469 144.559 59.3253 144.368 59.5515 144.185C60.4619 143.375 61.6307 142.916 62.8488 142.889C63.4317 142.889 63.9537 142.715 63.6405 141.88C63.3273 141.045 63.4143 137.53 62.0745 133.615C61.2654 131.248 58.7337 130.126 57.6375 132.405Z" fill="#36383B"/>
<path d="M86.0604 147.899C86.0106 147.929 85.964 147.964 85.9212 148.004C82.4412 150.466 81.0579 154.094 80.2836 158.026C80.127 158.818 80.5794 159.34 81.2319 159.235C83.25 158.99 85.2456 158.586 87.2001 158.026C89.3664 157.304 91.9503 156.495 91.6719 154.25C91.5675 153.38 90.9324 153.05 90.2538 152.771C89.3971 152.423 88.469 152.285 87.5481 152.371L87.4263 152.423C87.4534 152.39 87.4741 152.351 87.4872 152.31C87.8439 151.214 88.8792 149.204 88.3572 148.073L87.4872 147.36C87 147.282 86.5128 147.664 86.0604 147.899Z" fill="#AEC7F6"/>
<path d="M114.84 92.2905C115.24 93.0039 115.98 92.9256 116.693 92.769C118.581 92.334 120.251 91.2987 122.148 90.8637C123.349 90.5853 124.471 89.9937 125.759 90.1068C126.167 90.1503 127.003 89.5413 125.915 89.2368C125.778 89.1991 125.648 89.1372 125.532 89.0541C119.138 84.2082 118.572 83.6514 117.276 83.2947C115.78 82.8771 114.492 83.2947 114.014 84.4605C113.535 85.6263 114.083 86.5311 115.466 87.4011C116.18 87.8448 116.998 88.0797 117.815 88.5321C116.371 89.5152 113.97 90.7419 114.84 92.2905Z" fill="#AEC7F6"/>
<path d="M89.6099 74.2199C88.292 74.112 86.9656 74.2597 85.7036 74.6549C85.3592 74.6998 85.0407 74.8617 84.8015 75.1136C84.5623 75.3655 84.417 75.6919 84.3899 76.0382C84.329 76.9082 84.9032 77.2736 85.5383 77.5781C86.4251 77.9396 87.3872 78.0771 88.3397 77.9783C90.0038 77.9653 91.6612 77.7668 93.2813 77.3867C93.5684 77.3345 94.1513 77.2388 93.8642 76.7951C93.5639 76.208 93.4689 75.5372 93.5945 74.8898C93.6662 73.3634 93.4019 71.8398 92.8202 70.4267C92.5679 69.8699 92.2373 69.2783 91.5152 69.3566C90.7931 69.4349 90.5147 69.9917 90.3146 70.5833C90.0266 71.5512 90.0026 72.5785 90.245 73.5587C90.3581 74.0981 90.3146 74.3243 89.6099 74.2199Z" fill="#36383B"/>
<path d="M97.7967 109.115C98.3535 109.228 98.6145 108.784 98.8146 108.358C99.1914 107.574 99.4831 106.751 99.6846 105.905C100.421 106.561 101.369 106.931 102.356 106.949C103.112 106.905 103.739 106.749 104.026 105.992C104.163 105.668 104.183 105.308 104.083 104.971C103.983 104.635 103.769 104.344 103.478 104.147C102.111 103.079 100.529 102.319 98.8407 101.92C98.6712 101.886 98.4965 101.889 98.3279 101.927C98.1593 101.965 98.0006 102.038 97.862 102.141C97.7234 102.245 97.6081 102.376 97.5234 102.527C97.4387 102.677 97.3866 102.844 97.3704 103.016C96.9811 104.642 96.8085 106.313 96.8571 107.984C96.8632 108.251 96.9593 108.508 97.1299 108.713C97.3005 108.918 97.5355 109.06 97.7967 109.115Z" fill="#36383B"/>
<path d="M73.2452 155.922C72.5601 155.933 71.8843 156.082 71.258 156.36C70.6318 156.638 70.0679 157.04 69.5999 157.54C69.4336 157.7 69.3159 157.903 69.2606 158.127C69.2054 158.351 69.2147 158.586 69.2876 158.804C69.3605 159.023 69.4939 159.216 69.6724 159.362C69.8509 159.508 70.0671 159.6 70.2959 159.628C71.7056 159.897 73.1517 159.915 74.5676 159.68C75.537 159.638 76.4979 159.481 77.4299 159.21C77.8736 159.063 78.2999 158.88 78.2999 158.34C78.3359 158.079 78.2813 157.813 78.1452 157.586C78.0091 157.36 77.7996 157.187 77.5517 157.096C76.1887 156.476 74.7345 156.079 73.2452 155.922Z" fill="#36383B"/>
<path d="M21.95 68.4951C24.1424 67.5729 26.0042 64.3017 25.43 62.0223C25.1255 60.7695 24.0989 59.6646 22.5503 60.4911C21.5082 60.9726 20.6358 61.7577 20.0475 62.7435C19.4591 63.7293 19.1822 64.8697 19.253 66.0156V66.7725C19.2592 67.089 19.3434 67.3992 19.4982 67.6754C19.653 67.9516 19.8736 68.1853 20.1404 68.3557C20.4073 68.5262 20.7121 68.628 21.0278 68.6524C21.3435 68.6767 21.6603 68.6226 21.95 68.4951ZM22.6199 66.99C23.4873 65.628 24.1388 64.1401 24.5513 62.5791C25.0559 63.6666 23.9858 66.12 22.6199 66.99ZM20.123 65.9634C20.123 63.6057 21.1409 62.0571 23.0375 61.3785C23.5769 61.1871 23.9075 61.2219 23.7248 61.9092C23.4017 63.5423 22.7279 65.0859 21.7499 66.4332C20.1491 68.2341 20.1578 66.0504 20.123 65.9547V65.9634Z" fill="#36383B"/>
<path d="M25.0735 53.2711C25.6564 53.3668 26.2219 53.3407 26.6308 53.3842C27.4329 53.4433 28.2394 53.3817 29.0233 53.2015C29.5285 53.071 29.9864 52.7998 30.3437 52.4194C30.701 52.039 30.943 51.565 31.0417 51.0526C31.0474 50.4843 30.8854 49.9269 30.5759 49.4503C30.2664 48.9737 29.8231 48.5989 29.3017 48.373C28.2682 48.028 27.1582 47.9827 26.1001 48.2425C25.1202 48.2999 24.1698 48.5988 23.3335 49.1125C23.0876 49.267 22.8955 49.4937 22.7834 49.7615C22.6713 50.0294 22.6446 50.3253 22.7071 50.6089C23.0029 51.9574 23.5423 53.0188 25.0735 53.2711ZM24.2035 51.8704C26.0788 52.2117 28.0115 52.0403 29.7976 51.3745C29.119 52.8274 25.7695 53.071 24.2383 51.8704H24.2035ZM24.3601 49.6519C25.378 49.3598 26.4205 49.1618 27.4747 49.0603C27.9997 49.0557 28.5203 49.1563 29.0059 49.3561C29.3278 49.4866 29.7802 49.5823 29.7889 50.0521C29.7976 50.5219 29.4235 50.8177 29.0233 51.0004C28.1945 51.3315 27.3049 51.4828 26.4133 51.4441C25.7201 51.403 25.0325 51.2952 24.3601 51.1222C24.0034 51.0439 23.5858 50.9395 23.5684 50.461C23.551 49.9825 24.0121 49.765 24.3601 49.6519Z" fill="#36383B"/>
<path d="M143.933 64.0502C143.022 64.5485 142.236 65.2465 141.633 66.0917C141.031 66.9369 140.627 67.9075 140.453 68.9309C139.983 70.9928 141.801 72.5849 143.785 71.4365C144.746 70.949 145.551 70.2011 146.108 69.2781C146.665 68.3552 146.951 67.2943 146.934 66.2165V65.6075C146.895 65.2764 146.775 64.9599 146.585 64.6858C146.396 64.4116 146.142 64.188 145.846 64.0344C145.55 63.8809 145.221 63.802 144.887 63.8048C144.554 63.8075 144.226 63.8918 143.933 64.0502ZM141.218 69.2006C141.51 67.4739 142.442 65.9206 143.828 64.8506C144.15 64.5896 144.603 64.2503 145.003 64.5548C145.182 64.7222 145.311 64.9362 145.376 65.1728C145.44 65.4094 145.438 65.6593 145.368 65.8946C145.237 66.6862 144.975 67.4505 144.594 68.1566C144.212 69.128 143.488 69.9262 142.558 70.4012C141.601 70.7753 141.218 70.523 141.218 69.2006ZM143.933 70.4708L144.211 70.0706C145.214 68.8062 145.884 67.3106 146.16 65.7206C146.271 66.5656 146.158 67.4248 145.833 68.2125C145.507 69.0003 144.981 69.6889 144.307 70.2098L143.933 70.4708Z" fill="#36383B"/>
<path d="M66.99 148.5C67.3902 148.5 67.4772 148.256 67.5294 147.96C67.8774 145.951 69.8088 144.915 70.4352 142.74C70.5037 142.581 70.5229 142.404 70.4903 142.234C70.4578 142.063 70.3749 141.906 70.2525 141.783C70.1112 141.659 69.9352 141.582 69.7483 141.562C69.5615 141.541 69.373 141.579 69.2085 141.67C68.7723 141.878 68.3842 142.174 68.0688 142.54C67.8687 141.983 67.7208 141.444 67.1118 141.461C66.5028 141.479 66.3549 142.018 66.1635 142.462C66.0133 142.895 65.9198 143.345 65.8851 143.802C65.7198 145.246 66.4245 146.542 66.5637 147.934C66.555 148.213 66.5898 148.465 66.99 148.5Z" fill="#36383B"/>
<path d="M166.318 113.753C158.841 111.243 152.116 106.893 146.76 101.103C146.441 100.777 146.257 100.342 146.247 99.8852C146.038 96.2239 146.082 92.5525 146.377 88.8971C146.099 86.7743 145.716 86.8874 143.419 82.3721C143.317 82.0548 143.102 81.7859 142.815 81.6161C142.529 81.4462 142.189 81.3871 141.862 81.4499C141.674 81.4758 141.484 81.4758 141.297 81.4499C140.54 82.4156 140.322 82.2503 139.008 81.1541C138.844 81.0371 138.692 80.9029 138.556 80.7539C138.05 80.0811 137.318 79.6143 136.494 79.4402C136.241 79.583 136.003 79.749 135.781 79.9361C135.128 80.4755 134.911 79.9361 134.484 79.7012L134.18 79.823C133.641 80.0666 133.484 80.4581 133.867 80.9105C134.74 81.9498 135.666 82.9429 136.642 83.8859C136.842 84.0773 137.164 84.2948 136.903 84.5906C136.642 84.8864 136.372 84.5906 136.164 84.4166C134.345 83.0855 133.092 81.2324 131.692 79.5098C130.143 77.6045 130.082 78.1961 129.003 78.9008C128.146 79.6945 127.186 80.3703 126.15 80.9105C125.854 81.1454 125.558 81.3977 125.28 81.6587C123.261 83.5205 123.679 83.3291 124.558 86.0087C124.68 86.3741 124.897 86.435 125.21 86.2175C126.228 85.5215 127.411 85.0517 128.212 84.0599C128.629 83.5466 128.908 83.564 129.169 83.9381C130.082 83.651 131.057 86.1131 133.119 89.6714C133.406 90.1673 133.58 90.7676 134.31 90.9242C134.737 91.0112 134.397 91.3853 134.128 91.7942C134.076 92.1095 133.923 92.3994 133.693 92.6207C131.822 94.5869 131.483 95.6657 131.004 95.483C130.847 95.7285 130.732 95.9992 130.665 96.2834C130.216 95.7289 129.89 95.0854 129.708 94.3955C129.268 93.3016 128.682 92.2716 127.968 91.3331C127.46 91.1536 126.909 91.1358 126.39 91.2823C125.871 91.4287 125.41 91.7321 125.071 92.1509C124.975 92.2263 124.894 92.3203 124.835 92.4273C124.775 92.5343 124.738 92.6522 124.725 92.7739C124.712 92.8957 124.724 93.0188 124.759 93.1359C124.795 93.2531 124.853 93.3619 124.932 93.4559L125.289 93.8822C127.09 95.9709 128.507 98.3628 129.473 100.947C129.983 101.455 130.615 101.823 131.309 102.017C132.407 101.949 133.51 102.025 134.589 102.243C135.777 102.415 136.932 102.764 138.017 103.278C138.879 103.427 139.752 103.5 140.627 103.496C140.865 103.471 141.106 103.523 141.314 103.643C141.522 103.763 141.686 103.946 141.784 104.166C144.124 108.211 144.968 110.36 149.318 116.398C153.401 121.217 157.983 125.591 162.986 129.448C163.349 129.723 163.733 129.97 164.134 130.187C165.841 129.231 167.163 127.712 167.875 125.89C168.803 122.891 169.386 119.798 169.615 116.668C169.406 114.545 169.163 115.058 166.318 113.753Z" fill="#36383B"/>
<path d="M48.0935 87.8699C48.2889 87.8753 48.4818 87.8257 48.6504 87.7268C48.819 87.6279 48.9564 87.4837 49.0471 87.3106C49.1377 87.1374 49.1779 86.9423 49.1632 86.7474C49.1484 86.5526 49.0792 86.3657 48.9635 86.2082C48.9026 86.0864 48.8243 85.9734 48.7547 85.8603C46.2752 84.9903 44.9876 84.7467 43.4042 84.0246C43.1606 83.9115 42.83 83.807 42.9083 83.4155C42.9866 83.024 43.2128 83.0501 43.4825 82.9892C44.5481 82.8141 45.6229 82.7008 46.7015 82.6499C48.05 82.5368 49.3985 82.4933 50.7383 82.2932C50.9 82.2371 51.0416 82.1346 51.1453 81.9984C51.2489 81.8622 51.3102 81.6984 51.3212 81.5276C51.3212 80.8055 50.7905 80.5532 50.1467 80.2226C49.7987 80.2226 49.4594 80.2226 49.1201 80.2748C47.1365 80.4401 45.1442 80.3618 43.178 80.7098C42.9605 80.7098 42.7517 80.7098 42.6647 80.4923C42.6187 80.401 42.6057 80.2965 42.6279 80.1966C42.6501 80.0967 42.7061 80.0076 42.7865 79.9442C42.9886 79.7815 43.2039 79.636 43.4303 79.5092C48.5111 76.4729 46.2143 78.0564 50.3903 75.0114C50.7122 74.7764 50.9645 74.4893 50.8427 74.0717C50.7764 73.8788 50.6485 73.713 50.4788 73.5998C50.309 73.4866 50.1067 73.4324 49.9031 73.4453C49.1473 73.4031 48.3912 73.5217 47.6846 73.7933C45.1442 75.0983 43.265 76.4729 39.9938 77.7692C39.7894 77.8474 39.5639 77.8509 39.3571 77.7793C39.1502 77.7077 38.9752 77.5656 38.8628 77.3778C38.6192 77.0385 38.9237 76.7427 39.1586 76.5078C39.9743 75.6044 40.843 74.7503 41.7599 73.9499C42.1044 73.51 42.4239 73.0511 42.7169 72.5753C42.9605 72.1751 43.3259 71.7053 42.917 71.2355C42.5081 70.7657 41.8469 71.0355 41.177 71.3226C38.915 73.3584 36.6095 75.3245 34.2866 77.2994C33.9125 77.6213 34.0169 77.8388 34.1648 78.1694C34.6648 79.4416 34.6648 80.8558 34.1648 82.128C34.1213 82.2498 34.1648 82.4498 33.9473 82.4324C33.9043 82.4303 33.8621 82.4194 33.8232 82.4006C33.7844 82.3818 33.7498 82.3554 33.7214 82.3229C33.693 82.2905 33.6714 82.2526 33.6579 82.2117C33.6444 82.1707 33.6393 82.1274 33.6428 82.0844C33.5993 80.3444 33.8342 78.8393 32.6858 77.6474C32.2769 77.2124 32.39 76.7774 32.5118 76.2728C32.8772 74.7677 33.3818 73.3062 33.7559 71.7837C33.7336 71.6794 33.6893 71.5812 33.626 71.4955C33.5626 71.4098 33.4817 71.3386 33.3886 71.2867C33.2956 71.2348 33.1925 71.2034 33.0863 71.1946C32.9801 71.1858 32.8732 71.1997 32.7728 71.2355C31.8071 71.4443 30.8066 71.6531 30.6065 72.9233C30.4863 73.4566 30.3352 73.9823 30.1541 74.498C29.3711 77.3951 28.8143 80.3618 27.5441 83.111C27.3817 83.5695 27.1899 84.0171 26.9699 84.4508C26.884 84.9797 26.9472 85.522 27.1526 86.0169C27.9182 88.0701 27.7703 89.5577 28.5881 91.698C28.7063 92.087 28.9038 92.4474 29.1683 92.7563C29.4328 93.0651 29.7585 93.3158 30.1248 93.4924C30.4911 93.669 30.89 93.7677 31.2964 93.7823C31.7027 93.7969 32.1077 93.727 32.4857 93.5771C36.5399 91.7588 37.5839 90.2189 39.4457 88.3049C41.7077 86.0255 43.7957 88.3658 48.0935 87.8699Z" fill="#36383B"/>
<path d="M79.1699 150.25C79.1699 149.867 79.0916 149.484 79.0481 149.093C78.8647 148.7 78.5894 148.358 78.2457 148.094C77.9019 147.831 77.4998 147.654 77.0732 147.579C76.0622 147.354 75.0077 147.427 74.0369 147.788C74.0961 147.346 74.2409 146.921 74.4632 146.535C74.585 146.126 74.7242 145.717 74.8199 145.299C75.3071 143.055 73.3844 141.558 71.4443 143.185C69.9768 144.407 68.835 145.973 68.1209 147.744C67.1279 150.323 66.4417 153.009 66.0764 155.748C65.798 157.61 66.2069 157.993 67.9904 157.436C70.6516 156.487 73.2177 155.289 75.6551 153.86C77.0993 153.121 78.8915 151.894 79.1699 150.25Z" fill="#36383B"/>
<path d="M112.717 35.862C113.1 35.9664 113.309 35.6967 113.457 35.4096C116.406 29.772 125.906 26.814 126.22 23.2296C126.257 23.0184 126.249 22.8014 126.195 22.5938C126.14 22.3862 126.041 22.1928 125.905 22.0273C125.768 21.8617 125.597 21.7279 125.404 21.635C125.21 21.5422 124.999 21.4926 124.784 21.4896C124.179 21.4726 123.575 21.5609 123.001 21.7506C121.735 22.1788 120.568 22.8529 119.564 23.7342C119.112 23.3514 119.695 23.1861 119.564 21.3156C119.563 21.1127 119.505 20.9141 119.395 20.7431C119.286 20.5721 119.13 20.4357 118.946 20.3499C118.754 20.2816 118.544 20.2768 118.348 20.3363C118.153 20.3958 117.981 20.5164 117.859 20.6805C117.41 21.0877 117.01 21.5461 116.667 22.0464C112.561 28.5018 112.769 33.0345 112.474 35.2704C112.439 35.514 112.439 35.7837 112.717 35.862Z" fill="#36383B"/>
<path d="M113.692 140.183C116.084 141.166 115.101 142.793 114.727 144.533C114.683 144.733 114.631 145.011 114.91 145.133C115.188 145.255 115.44 144.759 116.423 143.837C117.572 142.767 118.651 141.557 120.478 141.879C120.607 141.891 120.738 141.87 120.857 141.816C120.976 141.763 121.079 141.68 121.156 141.575C122.271 140.482 123.21 139.223 123.94 137.843C124.314 137.068 124.61 136.103 123.94 135.389C123.27 134.676 122.313 134.719 121.374 135.006C120.327 135.432 119.395 136.096 118.651 136.946C118.851 135.798 118.921 134.631 118.859 133.466C118.888 133.16 118.819 132.852 118.663 132.587C118.506 132.322 118.271 132.112 117.989 131.987C117.735 131.892 117.458 131.873 117.192 131.932C116.927 131.99 116.684 132.124 116.493 132.318C115.755 132.84 115.157 133.537 114.753 134.345C114.052 135.795 113.47 137.299 113.013 138.843C112.931 138.971 112.883 139.118 112.875 139.269C112.868 139.421 112.9 139.572 112.968 139.708C113.037 139.843 113.14 139.958 113.267 140.042C113.394 140.125 113.54 140.174 113.692 140.183Z" fill="#AEC7F6"/>
<path d="M36.3051 111.047C34.2784 112.22 32.5395 113.831 31.2156 115.762C30.44 116.767 29.8292 117.889 29.406 119.086C29.295 119.264 29.2522 119.476 29.2854 119.683C29.3186 119.891 29.4255 120.079 29.5866 120.214C29.7476 120.348 29.9519 120.42 30.1617 120.416C30.3716 120.412 30.5728 120.332 30.7284 120.191C31.759 119.474 32.7333 118.68 33.6429 117.816C34.5912 116.946 34.6086 116.876 34.278 118.19C33.6603 120.582 33.0252 123.001 33.7908 124.889C33.9004 125.267 34.1286 125.601 34.4417 125.841C34.7549 126.08 35.1366 126.213 35.5308 126.22C36.4008 126.22 36.6879 125.454 36.9054 124.75C37.3903 122.855 37.6818 120.917 37.7754 118.964C38.0103 116.519 37.845 113.996 39.063 111.717C39.8112 110.368 37.2708 110.49 36.3051 111.047Z" fill="#36383B"/>
<path d="M50.5556 116.581C50.8393 116.742 51.1582 116.83 51.4842 116.839C51.8102 116.848 52.1334 116.777 52.4255 116.632C52.7176 116.487 52.9695 116.272 53.1592 116.007C53.349 115.741 53.4707 115.434 53.5136 115.11C53.5057 113.899 53.6341 112.691 53.8964 111.508C54.9056 107.794 56.3672 104.366 59.882 102.26C60.1114 102.159 60.2965 101.978 60.4036 101.751C60.5106 101.524 60.5324 101.267 60.4649 101.025C60.3973 100.716 60.2355 100.435 60.0018 100.222C59.7681 100.008 59.474 99.8725 59.1599 99.8331C58.4241 99.6777 57.6617 99.7025 56.9375 99.9055C56.2134 100.109 55.5491 100.484 55.0013 100.999C53.7797 102.307 52.7989 103.821 52.1042 105.471C49.8335 110.186 49.7726 114.232 49.9292 114.875C50.0858 115.519 49.9727 116.146 50.5556 116.581Z" fill="#36383B"/>
<path d="M60.8999 53.7151C61.2566 55.1941 61.6481 56.6644 62.1005 58.1173C62.3637 58.9088 62.6986 59.6747 63.101 60.4054C63.1976 60.6258 63.3508 60.8168 63.545 60.959C63.7391 61.1012 63.9674 61.1896 64.2067 61.2152C64.446 61.2409 64.6879 61.2028 64.9077 61.1049C65.1276 61.007 65.3177 60.8527 65.4587 60.6577C65.7815 60.3456 66.0135 59.9518 66.13 59.5181C66.2464 59.0845 66.243 58.6274 66.1199 58.1956L65.537 56.1859C66.3774 56.5991 67.2503 56.9425 68.147 57.2125C69.3737 57.4735 70.2002 57.1342 70.5743 56.1685C70.6939 55.9265 70.7617 55.6623 70.7734 55.3927C70.785 55.123 70.7403 54.8539 70.642 54.6025C70.5438 54.3512 70.3942 54.1231 70.2027 53.9328C70.0113 53.7425 69.7823 53.5943 69.5303 53.4976C68.8887 53.1731 68.2226 52.8997 67.538 52.6798C65.9219 52.0607 64.1945 51.7852 62.4659 51.8707C61.1957 51.9838 60.6215 52.645 60.8999 53.7151Z" fill="#AEC7F6"/>
<path d="M86.3997 135.26C86.8854 137.258 87.9762 139.056 89.523 140.41C90.4626 141.28 90.6279 141.28 91.176 140.115C92.6028 137.096 94.1775 135.686 94.656 133.703C94.7737 133.359 94.7887 132.988 94.6991 132.636C94.6094 132.283 94.4191 131.965 94.1514 131.719C93.8713 131.488 93.5279 131.347 93.1661 131.314C92.8043 131.281 92.4412 131.359 92.1243 131.536C91.2223 131.961 90.4503 132.618 89.8884 133.442C89.349 132.502 88.9488 131.51 87.783 131.702C87.4679 131.751 87.1734 131.889 86.9345 132.1C86.6955 132.312 86.522 132.587 86.4345 132.894C86.1857 133.661 86.1735 134.486 86.3997 135.26Z" fill="#36383B"/>
<path d="M76.8819 102.355C77.5809 103.223 78.4725 103.915 79.4859 104.377C80.4993 104.839 81.6066 105.058 82.7196 105.018C83.2764 105.018 83.5896 104.844 83.5287 104.208C83.4504 102.703 83.607 99.4235 83.3895 97.553C83.3803 97.2687 83.2797 96.995 83.1026 96.7725C82.9255 96.5499 82.6814 96.3904 82.4064 96.3176C82.1601 96.2325 81.8936 96.2253 81.643 96.2969C81.3925 96.3685 81.17 96.5154 81.0057 96.7178C80.4123 97.3208 80.0809 98.1337 80.0835 98.9798C80.0835 99.1886 80.214 99.5018 79.9095 99.5801C79.605 99.6584 79.2135 99.2147 77.9085 98.2925C77.4466 97.9424 76.8871 97.7448 76.3077 97.727C75.342 97.727 74.9418 98.2055 75.0984 99.1538C75.3744 100.37 75.9934 101.481 76.8819 102.355Z" fill="#36383B"/>
<path d="M109.028 67.8614C107.584 67.4786 107.036 69.3143 106.462 70.6454C106.193 69.8715 105.855 69.1233 105.453 68.4095C105.113 67.9223 104.774 67.3829 104.095 67.6004C103.417 67.8179 103.286 68.4182 103.225 69.062C103.138 71.4545 103.739 74.8823 104.965 76.7093C105.374 77.3618 106.209 77.5793 106.453 77.0312C106.984 75.9263 107.932 75.1346 108.558 74.108C109.428 72.7508 110.22 71.4023 110.211 69.758C110.194 68.6618 109.837 68.0963 109.028 67.8614Z" fill="#36383B"/>
<path d="M107.775 159.932C108.406 159.651 108.972 159.242 109.437 158.732C109.759 159.663 110.307 160.724 111.264 160.472C111.925 160.315 112.308 159.602 112.299 158.497C112.16 157.299 112.099 156.093 112.117 154.886C112.178 154.295 111.76 154.208 111.247 154.286C108.411 154.721 107.132 157.157 106.644 158.975C106.594 159.129 106.591 159.294 106.636 159.45C106.681 159.605 106.772 159.743 106.897 159.845C107.016 159.95 107.164 160.015 107.322 160.03C107.48 160.046 107.638 160.012 107.775 159.932Z" fill="#36383B"/>
<path d="M92.4809 155.626C92.2013 155.641 91.9374 155.76 91.741 155.96C91.5446 156.159 91.4299 156.425 91.4195 156.705C91.3673 157.227 91.1063 157.375 90.6191 157.331C89.6951 157.311 88.7795 157.51 87.9482 157.914C87.5828 158.053 87.2522 158.28 87.2522 158.706C87.2522 159.132 87.6176 159.315 87.983 159.445C88.8956 159.806 89.8735 159.972 90.854 159.933C92.0899 159.932 93.3147 159.699 94.4645 159.245C95.7608 158.845 93.986 158.314 93.4727 156.54C93.3422 156.061 93.0899 155.565 92.4809 155.626Z" fill="#36383B"/>
<path d="M54.0444 118.32C53.9967 117.972 53.8181 117.655 53.545 117.433C53.2719 117.212 52.9248 117.103 52.5741 117.128C51.8868 117.128 51.0429 117.015 50.8341 117.85C50.3904 119.695 49.9641 122.026 51.7998 122.279C52.2612 122.369 52.7397 122.28 53.1375 122.029C53.5353 121.778 53.8224 121.385 53.94 120.93C54.0903 120.363 54.1461 119.775 54.1053 119.19C54.1198 118.899 54.0994 118.607 54.0444 118.32Z" fill="#36383B"/>
<path d="M128.829 130.927C126.48 121.783 127.368 114.397 126.15 104.827C126.021 103.37 125.491 101.976 124.619 100.802C123.746 99.627 122.566 98.7166 121.208 98.1714C117.476 96.501 113.117 97.9887 110.429 97.6842C111.725 96.0834 111.725 95.4309 110.481 93.8301C110.318 93.5921 110.125 93.3758 109.907 93.1863C109.254 92.7165 109.376 92.2641 109.907 91.7769C110.754 90.8595 111.252 89.6743 111.316 88.4274C111.391 87.6615 111.209 86.8925 110.8 86.2408C110.39 85.5891 109.777 85.0914 109.054 84.8256C107.885 84.4191 106.669 84.1647 105.435 84.0687C102.405 83.9191 99.3683 84.0443 96.3611 84.4428C89.027 85.3128 79.1612 84.3558 73.0364 84.0165C69.974 83.8425 67.8686 85.4955 65.6501 87.0615C64.7801 87.6618 64.7801 88.4623 65.2847 89.3758C66.2939 91.3159 68.7647 91.5942 67.5815 92.3946C66.7635 92.9859 66.1835 93.8498 65.9459 94.8306C65.8527 95.189 65.6562 95.512 65.3808 95.7595C65.1055 96.007 64.7635 96.168 64.3973 96.2226C62.5065 96.6334 60.5626 96.742 58.6379 96.5446C56.8634 96.4478 55.1104 96.9706 53.6789 98.0235C50.5338 100.341 48.1916 103.584 46.9799 107.298C46.3241 109.557 46.0304 111.906 46.1099 114.258C45.788 138.235 46.3187 133.485 44.918 143.272C44.048 149.197 41.8469 156.157 47.7107 160.751C52.1303 164.231 57.0023 166.44 62.753 166.458C74.1761 166.51 76.673 169.938 102.416 166.754C107.071 166.179 111.673 165.205 116.275 164.274C118.172 163.9 126.594 161.246 126.811 161.107C128.864 159.733 129.882 157.679 130.639 155.409C132.109 151.015 131.64 146.578 131.074 142.133C130.561 138.354 129.811 134.612 128.829 130.927ZM129.639 154.495C129.365 155.556 128.968 156.581 128.455 157.549C128.157 158.193 127.723 158.765 127.182 159.224C126.641 159.684 126.007 160.021 125.323 160.211C122.261 160.985 119.329 162.308 116.258 163.013C105.863 165.43 95.243 166.748 84.5726 166.945C76.1075 167.084 72.5318 165.536 61.6307 165.309C56.8382 165.156 52.2326 163.414 48.5372 160.359C45.2486 157.793 44.5526 154.269 44.9702 150.345C45.4748 145.734 46.5275 141.193 46.919 136.565C47.1626 133.624 46.919 130.675 46.9799 127.725C47.0669 122.444 46.8146 117.164 46.9277 111.883C46.9654 108.285 48.2823 104.819 50.6426 102.104C52.9307 99.3894 55.184 97.3885 58.7597 97.6321C61.1 97.7974 63.4403 97.8843 65.5631 96.5967C65.8241 96.4401 65.9372 96.5184 66.0938 96.7794C66.4766 97.4145 66.5027 97.4058 66.9638 97.6494C67.1378 97.5102 67.0682 97.3624 66.9638 97.1971C66.3374 95.5093 66.5723 94.5871 67.9556 93.3517C68.8952 92.4817 68.9822 91.9422 68.3384 90.8721C67.9364 90.272 67.4566 89.7279 66.9116 89.2539C66.7788 89.1628 66.6702 89.0408 66.5952 88.8983C66.5201 88.7558 66.4809 88.5972 66.4809 88.4362C66.4809 88.2751 66.5201 88.1165 66.5952 87.974C66.6702 87.8315 66.7788 87.7095 66.9116 87.6183C68.1222 86.585 69.458 85.7082 70.8875 85.0083C71.4443 84.6951 80.9534 85.3302 83.4938 85.4433C91.5152 85.7739 91.0367 85.9654 98.4143 85.1128C101.608 84.7139 104.846 84.8758 107.984 85.5912C108.504 85.6859 108.989 85.9178 109.39 86.2628C109.79 86.6079 110.091 87.0536 110.261 87.5539C110.431 88.0542 110.465 88.5908 110.358 89.1085C110.252 89.6261 110.009 90.1058 109.655 90.498C108.002 92.6034 108.002 92.6818 109.855 94.6219C110.385 95.1787 110.542 95.631 110.333 96.0399C109.994 96.7011 108.141 97.1709 109.559 98.2671C110.977 99.3633 113.143 98.1802 117.493 98.3802C119.345 98.4364 121.138 99.0421 122.644 100.12C124.723 101.625 125.341 103.809 125.654 106.21C126.524 113.048 125.088 121.113 127.603 130.988C128.609 134.746 129.373 138.564 129.891 142.42C130.387 146.5 130.891 150.511 129.63 154.495H129.639Z" fill="#AEC7F6"/>
<path d="M108.75 59.1611C108.846 59.3699 109.724 61.3883 109.759 61.4579C109.796 61.5847 109.861 61.7016 109.949 61.7997C110.037 61.8977 110.147 61.9744 110.269 62.0238C110.392 62.0733 110.524 62.0943 110.655 62.0851C110.787 62.076 110.915 62.037 111.029 61.9712C113.35 61.1215 115.621 60.1426 117.833 59.0393C117.869 59.3797 117.776 59.7212 117.572 59.9963C113.831 67.3478 110.525 68.357 112.83 69.7142C114.779 70.9148 115.171 71.3933 116.31 70.2536C117.894 68.6702 121.304 64.5029 122.287 63.2936C123.27 66.6692 122.627 67.4696 122.557 70.7321C122.557 72.2285 122.783 72.4721 124.236 72.8114L125.28 73.0811C127.02 73.4639 126.837 72.9071 127.49 69.7055C127.968 67.3304 128.447 65.5208 128.577 65.0945C128.769 64.442 128.978 64.4594 129.517 64.8944C130.805 65.8724 131.801 67.1842 132.397 68.6876C132.588 69.1139 132.797 69.4706 133.362 69.2966C134.156 69.0435 134.983 68.9058 135.816 68.8877C137.086 68.8877 136.39 67.4348 135.764 66.1994C135.233 65.1467 134.737 64.0679 134.206 63.0152C134.031 62.7235 133.944 62.3866 133.958 62.0464C133.972 61.7062 134.086 61.3775 134.285 61.1012C134.927 59.9139 135.508 58.6943 136.025 57.4472C137.095 55.0634 135.946 54.698 137.173 54.0542C146.459 49.1222 154.962 42.839 162.403 35.4101C163.245 34.6227 164 33.7477 164.656 32.8001C165.117 32.0954 165.439 31.2602 164.082 32.5913C158.056 38.5532 151.498 43.9522 144.49 48.7211C141.784 50.5307 139.113 52.0097 136.294 53.7149C136.059 53.8628 135.798 53.9846 135.703 54.263C135.676 54.3239 135.658 54.3884 135.65 54.4544C135.468 56.9078 134.25 58.9697 133.267 60.9446C133.104 61.2654 133.019 61.6201 133.019 61.9799C133.019 62.3396 133.104 62.6943 133.267 63.0152C133.884 64.4507 134.615 65.8166 135.32 67.1999C135.624 67.748 135.659 67.9655 135.068 68.0003C134.476 68.0351 133.858 68.3831 133.388 68.2352C132.919 68.0873 132.806 67.2347 132.449 66.7649C132.292 66.5561 132.188 66.3125 132.031 66.1124C131.25 64.9586 130.136 64.0697 128.838 63.5633C128.543 63.4589 127.968 63.3458 128.029 63.6764C128.081 64.5464 127.533 65.1641 127.394 65.9297C127.081 67.6088 126.246 71.5847 126.211 71.7674C126.176 71.9501 126.211 72.2807 125.802 72.2894C123.914 72.359 123.305 71.7152 123.514 69.836V69.662C123.592 67.6784 123.958 65.6774 123.175 63.7634C122.905 63.1022 122.67 62.6672 123.288 62.2061C123.688 61.9016 123.288 61.1969 122.766 61.6754C121.095 63.1283 122.305 62.0843 116.676 68.6354C115.336 70.184 115.319 70.1405 113.622 69.0704C113.161 68.7746 113.083 68.5484 113.396 68.1308C113.935 67.4174 114.466 66.6866 114.979 65.9558C116.499 64.0334 117.724 61.896 118.616 59.6135C118.816 59.0219 118.973 58.5608 119.651 58.4825C119.886 58.4825 120.156 58.3694 120.095 58.0736C120.034 57.7778 119.782 57.7778 119.538 57.7778C117.615 57.7778 116.249 58.8914 111.986 60.6401C110.386 61.3013 110.786 61.3448 110.038 59.8484C109.672 59.1089 109.785 58.7783 110.516 58.4129C112.519 57.4573 114.455 56.3673 116.31 55.1504C118.277 53.8193 120.365 52.6361 121.983 50.8526C123.366 53.5409 124.21 54.4718 125.263 54.3326C122.192 50.7482 122.905 49.8173 121.435 49.4258C120.216 48.9879 119.11 48.2835 118.198 47.3639C117.65 46.8941 117.328 46.694 117.746 46.1198C118.312 45.4305 118.941 44.7956 119.625 44.2232C120.182 43.6751 119.973 44.4842 122.609 45.7631C123.74 46.3112 125.846 47.0507 126.002 47.0942C126.842 47.4124 127.745 47.5309 128.639 47.4403C129.533 47.3497 130.393 47.0525 131.153 46.5722C133.332 45.3229 135.386 43.8662 137.286 42.2222C145.177 35.0969 151.38 26.3273 154.338 20.0111C154.676 19.4906 154.871 18.8906 154.904 18.2711C154.904 18.1232 154.904 17.9666 154.703 17.9492C154.503 17.9318 154.451 18.0362 154.416 18.1928C154.185 18.9634 153.849 19.6983 153.416 20.3765C148.283 29.6681 139.4 40.6736 130.082 46.1111C129.643 46.3799 129.153 46.5571 128.644 46.6319C128.134 46.7066 127.614 46.6774 127.116 46.5461C124.704 45.8584 122.402 44.8333 120.278 43.5011C120.06 43.3706 119.851 43.0487 119.521 43.3271C118.586 43.9563 117.748 44.7183 117.032 45.5891C116.85 45.8849 116.728 46.2416 116.162 46.1633C115.849 46.1633 115.823 46.4591 115.936 46.6766C116.063 46.9003 116.228 47.1005 116.423 47.2682C117.915 48.5733 119.56 49.6922 121.322 50.6003C119.281 52.1583 117.161 53.6102 114.971 54.9503C113.117 56.1161 111.116 57.0209 109.194 58.0562C108.794 58.2911 108.48 58.5695 108.75 59.1611Z" fill="#AEC7F6"/>
<path d="M37.6623 93.0898C39.2701 91.7921 40.7421 90.3346 42.0558 88.7398C42.8736 87.7915 42.7257 88.3222 45.7011 88.6354C46.7731 88.8539 47.8615 88.982 48.9549 89.0182C49.503 89.0182 50.0946 88.9399 50.3556 88.3483C51.1299 86.6605 50.6166 85.4686 48.8592 84.8683C47.9892 84.5638 46.2492 84.0592 45.2052 83.746C45.7861 83.6023 46.3816 83.5264 46.98 83.5198C48.677 83.4346 50.3644 83.2135 52.026 82.8586C52.461 82.7455 52.896 82.5889 53.0004 82.1104C53.042 81.8166 53.0249 81.5174 52.9502 81.2302C52.8754 80.943 52.7444 80.6734 52.5648 80.4372C52.3852 80.2009 52.1605 80.0026 51.9038 79.8538C51.647 79.7049 51.3633 79.6085 51.069 79.57H48.1893C46.3884 79.6744 46.4493 79.57 45.1269 79.57C45.3357 79.4395 45.6576 79.2046 45.9186 79.0567C47.7717 78.004 49.6248 76.9513 51.4866 75.916C53.0091 75.046 52.0956 73.8193 51.1734 72.3229C51.044 72.0622 50.8177 71.8625 50.5429 71.7665C50.2681 71.6706 49.9666 71.686 49.7031 71.8096C46.4319 72.9058 44.0655 75.0286 40.4811 76.5076C41.673 74.8633 43.7958 73.5496 45.2139 71.3485C45.5532 70.8091 45.6489 70.2697 45.0312 69.8347C44.4439 69.4958 43.7704 69.3358 43.0934 69.3744C42.4165 69.4131 41.7655 69.6487 41.2206 70.0522C38.8281 72.0619 36.5139 74.1412 34.2606 76.2727C33.9996 76.5163 33.7212 77.0905 33.3471 76.8469C32.973 76.6033 33.3471 76.2031 33.4254 75.742C33.7821 74.0629 34.5564 72.4795 34.6956 70.7482C34.8174 69.1648 34.5738 68.9212 33.0165 68.869C31.1373 68.8168 31.1982 68.869 30.5892 70.609C29.2513 74.3259 28.1728 78.1312 27.3615 81.9973C27.0836 83.629 26.2131 85.1006 24.9168 86.1298C20.7234 89.3749 16.4778 92.5678 12.2235 95.6998C10.1181 97.2832 7.9605 98.7622 5.2635 99.2842C4.1934 99.5017 4.3065 100.267 5.046 100.154C7.68883 99.6549 10.1738 98.5303 12.2931 96.8743C16.1646 94.1164 19.9317 91.2019 23.7162 88.3048C25.0856 87.2905 26.1997 85.9709 26.97 84.4507C28.3098 81.7102 27.84 79.483 31.1895 70.9048C31.2652 70.5466 31.4773 70.2318 31.7809 70.0272C32.0846 69.8226 32.456 69.7442 32.8164 69.8086C34.017 69.8869 34.0692 69.913 33.8604 71.1223C33.5994 72.5926 32.8425 74.7502 32.4771 76.2727C32.3751 76.4953 32.3374 76.7419 32.3681 76.9848C32.3989 77.2277 32.4969 77.4572 32.6511 77.6473C33.7995 78.8392 33.5211 80.3182 33.6081 82.0843C33.6046 82.1273 33.6097 82.1706 33.6232 82.2115C33.6367 82.2525 33.6583 82.2903 33.6867 82.3228C33.7151 82.3553 33.7497 82.3817 33.7885 82.4005C33.8273 82.4193 33.8695 82.4301 33.9126 82.4323C34.1214 82.4323 34.0866 82.2496 34.1301 82.1278C34.63 80.8557 34.63 79.4415 34.1301 78.1693C33.9822 77.83 33.8778 77.6212 34.2519 77.2993C35.844 75.9508 40.194 72.2185 41.6295 70.8787C41.9815 70.5422 42.4207 70.311 42.8973 70.211C43.3739 70.1111 43.869 70.1465 44.3265 70.3132C44.8572 70.4437 44.8485 70.6786 44.5788 71.0266C43.0911 73.0015 41.2293 74.1238 39.15 76.4902C38.9151 76.7512 38.6106 77.047 38.8542 77.3602C38.9666 77.548 39.1416 77.6902 39.3484 77.7618C39.5553 77.8334 39.7807 77.8298 39.9852 77.7517C43.674 76.3162 45.8838 74.5327 48.8853 73.1755C50.4339 72.4882 50.5035 72.523 51.3387 74.0455C51.7041 74.7154 51.6519 75.1069 50.8863 75.4375C48.0681 76.7528 45.3443 78.2615 42.7344 79.9528C42.6561 80.0197 42.6024 80.1108 42.5819 80.2117C42.5614 80.3126 42.5753 80.4175 42.6213 80.5096C42.7083 80.7358 42.9171 80.7619 43.1259 80.7271C45.098 80.482 47.0812 80.3369 49.068 80.2921C49.8134 80.2007 50.5672 80.2007 51.3126 80.2921C52.1217 80.4226 52.113 81.1621 52.1826 81.6928C52.2522 82.2235 51.6693 82.093 51.3126 82.1626C49.1463 82.5802 44.9007 82.6324 43.4043 82.9456C43.1346 82.9978 42.8823 83.0587 42.8214 83.3719C42.7605 83.6851 43.0737 83.8678 43.326 83.9722C44.9355 84.7117 46.893 85.1554 49.0332 85.9384C50.0772 86.3125 49.3638 87.1303 49.4247 87.7306C49.4856 88.3309 48.9288 88.183 48.5547 88.1656C46.6643 88.0514 44.7854 87.7925 42.9345 87.3913C42.6732 87.3195 42.3971 87.3222 42.1373 87.3991C41.8775 87.4759 41.6443 87.6239 41.4642 87.8263C39.2647 90.2798 36.8382 92.5198 34.2171 94.5166C34.0494 94.6651 33.8538 94.7785 33.6416 94.8502C33.4294 94.922 33.2051 94.9505 32.9817 94.9342C31.8894 94.8063 30.7829 94.9766 29.7796 95.4269C28.7762 95.8772 27.9136 96.5909 27.2832 97.492C24.4905 101.059 21.5847 104.539 18.7398 108.063C16.9998 110.22 15.051 112.195 13.6155 114.596C13.1892 115.301 12.9804 115.945 13.7373 115.118C18.9138 109.707 23.4987 103.808 28.188 97.9792C28.665 97.3311 29.2751 96.7924 29.9773 96.3992C30.6795 96.0061 31.4577 95.7676 32.2596 95.6998C34.4694 95.5345 36.0702 94.3165 37.6623 93.0898Z" fill="#AEC7F6"/>
<path d="M75.9336 50.9826C76.1598 51.8526 76.6383 52.1397 77.5605 51.8526C79.6194 51.4143 81.5435 50.4895 83.172 49.1556C83.2764 49.0599 83.3634 48.8163 83.5722 48.999C83.781 49.1817 83.8941 49.26 83.7636 49.5123C83.6331 49.7646 83.6418 49.8342 83.5809 49.9908C81.0753 55.5936 78.4131 60.0306 77.8563 61.0311C77.5779 61.5531 77.6214 61.9011 78.3609 61.9011C83.2938 62.0055 80.7708 64.3719 86.1909 56.2026C86.3214 56.0025 86.3823 55.6458 86.7912 55.6893C86.8081 58.2293 86.619 60.7664 86.2257 63.2757C86.0005 64.3431 85.9681 65.4421 86.13 66.5208C86.2344 66.9123 86.4084 67.2516 86.8608 67.2429C87.7405 67.2618 88.6155 67.3756 89.4708 67.5822C90.1929 67.704 90.5322 67.3647 90.6279 66.66C91.3413 61.005 91.4283 60.9615 92.4375 55.35C94.6821 59.5086 94.2906 59.9262 95.7 63.5715C96.0915 64.5894 96.57 64.8069 97.6923 64.5546C98.0229 64.4763 98.3535 64.3806 98.6841 64.2762C98.9704 64.2114 99.2206 64.0387 99.3827 63.7939C99.5448 63.5492 99.6062 63.2514 99.5541 62.9625C99.441 61.4922 99.093 59.9958 97.9359 54.1233C98.0216 54.0565 98.1117 53.9955 98.2056 53.9406C99.0234 54.8106 99.8238 55.7415 100.676 56.5506C101.99 57.8469 102.904 56.3592 104.156 55.1847C104.285 55.091 104.392 54.9697 104.468 54.8295C104.544 54.6893 104.588 54.5339 104.596 54.3746C104.605 54.2153 104.577 54.0562 104.516 53.9089C104.455 53.7615 104.362 53.6297 104.243 53.523C103.483 52.4883 102.664 51.4977 101.79 50.5563C101.181 50.0186 100.783 49.2815 100.668 48.477C100.537 47.1285 100.381 45.78 100.189 44.4402C99.8673 42.1782 99.4584 39.9336 97.8228 38.1588C97.555 37.8475 97.2641 37.5567 96.9528 37.2888C96.8898 37.2349 96.8095 37.2053 96.7266 37.2053C96.6437 37.2053 96.5634 37.2349 96.5004 37.2888C96.4454 37.3496 96.4149 37.4287 96.4149 37.5107C96.4149 37.5927 96.4454 37.6717 96.5004 37.7325L96.5961 37.8717C97.602 39.1011 98.3345 40.5306 98.745 42.0651C99.1322 43.7483 99.3911 45.4584 99.5193 47.1807C99.5267 47.9316 99.6845 48.6733 99.9833 49.3622C100.282 50.0511 100.716 50.673 101.259 51.1914C102.092 52.0425 102.852 52.9621 103.53 53.9406C103.678 54.1233 103.965 54.306 103.66 54.5931C103.138 55.089 102.625 55.5936 102.094 56.0895C102.047 56.1447 101.988 56.1889 101.922 56.2193C101.856 56.2496 101.784 56.2654 101.712 56.2654C101.639 56.2654 101.567 56.2496 101.501 56.2193C101.435 56.1889 101.376 56.1447 101.329 56.0895C100.05 54.6975 98.31 53.7666 97.44 52.0875C97.3356 51.8961 97.1877 51.7221 96.9789 51.7917C96.7701 51.8613 96.7266 52.0962 96.7614 52.3137C97.3182 56.046 98.2491 59.526 98.7276 62.7537C98.8059 63.2322 98.6754 63.4497 98.2665 63.6237C97.0485 64.0674 96.7179 63.9369 96.2742 62.6754C95.4042 60.2655 94.7691 57.786 93.3684 55.5936C92.9769 54.9933 92.5593 54.393 92.9073 53.6013C92.9682 53.4621 93.0204 53.175 92.7333 53.1054C92.4462 53.0358 92.3592 53.2446 92.2896 53.4273C92.0614 54.0131 91.8668 54.6115 91.7067 55.2195C90.9324 58.5864 90.4713 62.0055 90.0189 65.4246C89.9493 65.9205 90.2364 66.6078 89.7753 66.8688C89.3142 67.1298 88.7313 66.7209 88.2006 66.6252C86.8521 66.3642 86.826 66.3294 86.9739 64.8852C87.7047 57.5598 87.7743 58.4646 87.4263 54.567C87.4263 54.4452 87.6003 54.306 87.4263 54.1842C87.2523 54.0624 87.1044 54.1842 86.9478 54.2538C85.8603 54.8889 85.3818 55.8807 82.1976 60.7962C81.9975 61.1007 81.8322 61.5444 81.4233 61.5444C80.5258 61.6599 79.6141 61.5918 78.7437 61.3443C80.9342 57.6389 82.8364 53.7705 84.4335 49.7733C85.3263 50.1647 86.2944 50.3543 87.2688 50.3287C88.2432 50.3032 89.2001 50.063 90.0711 49.6254C89.3712 49.4644 88.6455 49.4496 87.9396 49.5819C86.5911 49.5819 85.1817 49.5123 84.1638 48.6162C83.5113 48.042 83.2155 48.2334 82.7022 48.6162C81.375 49.5751 79.9077 50.3234 78.3522 50.8347C76.6122 51.4089 76.9515 51.2958 75.7422 48.9207C75.603 48.6423 75.5247 48.4857 75.9597 48.3291C80.5359 46.7283 84.0507 43.6311 87.2697 40.1772C87.609 39.8205 88.5138 39.3072 87.5655 38.6025C87.5133 38.6025 87.5655 38.3415 87.6264 38.211C88.3398 33.7218 89.1141 29.25 89.7666 24.7608C90.6534 18.6613 92.448 12.7289 95.091 7.16072C95.7174 5.78612 95.2911 5.47292 94.4907 6.89972C88.9749 16.8177 88.5312 27.336 87.1479 36.9582C86.9913 38.0109 87.2784 39.1419 86.2779 40.0641C82.9545 43.0743 79.5702 45.9801 75.4029 47.7897C74.3154 48.1638 75.342 48.7206 75.9336 50.9826Z" fill="#AEC7F6"/>
<path d="M42.5169 38.794C43.042 39.5881 43.6878 40.2955 44.4309 40.8907C44.8572 41.1952 44.8746 41.4562 44.6397 41.9434C43.5609 44.2315 42.5256 46.5457 41.4903 48.8512C40.6203 50.7043 42.0558 50.3389 44.022 52.2442C44.5962 52.8184 44.4744 52.4443 44.6658 53.9059C44.805 54.8803 44.9529 55.8634 45.0399 56.8378C45.153 58.108 45.4575 58.5778 46.7799 58.5778C48.1023 58.5778 49.2246 59.1346 50.3382 58.2472C50.4866 58.1549 50.6594 58.1094 50.8341 58.1167C52.3147 57.9261 53.8046 57.8158 55.2972 57.7861C56.8371 57.8992 58.4466 57.6991 60.0387 57.7078C60.3954 57.7078 60.6912 57.6034 60.6651 57.1858C60.7064 55.8904 60.5806 54.595 60.291 53.3317C59.9169 52.2355 59.0208 52.3138 57.9159 52.6792C56.3847 53.1838 55.9932 53.7319 55.7061 53.0881C55.1258 51.6159 54.4001 50.2053 53.5398 48.8773C53.2788 48.4945 53.2962 48.2248 53.7747 48.0073C55.1667 47.3983 56.5413 46.7719 57.9246 46.1455C58.0469 46.3587 58.09 46.6083 58.0464 46.8502C58.071 48.3774 58.1785 49.9021 58.3683 51.4177C58.464 52.0702 58.7946 52.2877 59.4558 52.0789C60.3258 51.8353 61.3002 51.6613 62.2224 51.4786C63.6753 51.1915 62.9271 50.3911 62.553 48.712C62.1354 46.8067 62.553 44.9275 62.7618 43.0396C62.9706 41.1517 62.379 40.3078 60.465 39.8641C58.8129 39.6401 57.1849 39.2644 55.6017 38.7418C55.2217 38.6108 54.878 38.392 54.5983 38.1033C54.3187 37.8146 54.111 37.4641 53.9922 37.0801C51.6843 30.6744 50.2447 23.9885 49.7118 17.2006C49.5204 14.521 49.6074 11.8414 49.5639 9.1531C49.5639 8.4049 49.155 8.3353 49.0419 9.0748C48.8172 10.6159 48.7096 12.1719 48.72 13.7293C48.6562 18.6929 49.2026 23.6455 50.3469 28.4758C50.9686 31.6443 51.9312 34.7363 53.2179 37.6978C53.3688 38.232 53.713 38.691 54.1836 38.9854C55.4969 39.714 56.9232 40.2169 58.4031 40.4731C59.3514 40.5514 60.5085 40.708 61.0131 40.795C62.7531 41.0995 62.2224 41.8825 61.8309 43.8922C61.4248 45.5755 61.348 47.3214 61.6047 49.0339C61.7178 49.6777 62.4747 50.4172 62.0745 50.8783C61.6743 51.3394 60.7521 51.2698 60.0561 51.4351L59.8821 51.4786C59.3601 51.5656 59.1165 51.4786 59.0991 50.8522C59.0469 49.2688 58.9164 47.6854 58.9425 46.0933C58.9425 45.8062 58.9425 45.4669 58.725 45.3364C58.5075 45.2059 58.3074 45.3364 58.0377 45.3973C56.2448 45.8798 54.5222 46.5934 52.9134 47.5201C52.7927 47.5591 52.6856 47.6316 52.6045 47.7291C52.5234 47.8266 52.4716 47.9451 52.4552 48.0709C52.4388 48.1966 52.4585 48.3244 52.5118 48.4395C52.5652 48.5545 52.6502 48.652 52.7568 48.7207C53.2527 49.2079 53.1483 49.4167 54.288 52.0876C55.158 54.1669 55.158 54.4018 56.7327 53.8972C57.5676 53.5544 58.4459 53.329 59.3427 53.2273C60.4998 53.149 59.421 54.0973 59.8995 56.3071C60.0213 56.8378 59.8038 56.8813 59.3862 56.8813H53.5311C53.3673 56.8973 53.2027 56.8624 53.0594 56.7815C52.9162 56.7005 52.8014 56.5774 52.7307 56.4289C51.9134 55.1921 50.9429 54.0637 49.8423 53.0707C49.5987 52.8532 49.2855 52.4704 48.9723 52.801C48.6591 53.1316 49.1115 53.3491 49.3116 53.5492C50.3556 54.6019 51.1473 55.846 52.1826 57.0292C51.1647 57.3424 49.9815 57.3337 49.1376 58.0384C49.1376 57.9862 49.1376 57.9514 49.0767 57.8992C47.866 54.8778 45.755 52.3021 43.0302 50.5216C42.5865 50.2258 41.2902 49.9735 41.9949 49.2601C42.2962 49.0263 42.5427 48.7294 42.717 48.3901C43.7678 46.34 44.641 44.2036 45.327 42.0043C45.3996 41.8303 45.4242 41.6401 45.3982 41.4534C45.3722 41.2667 45.2965 41.0904 45.1791 40.9429C44.7963 40.4818 44.457 39.9772 44.0829 39.4987C38.8156 32.822 35.0553 25.0847 33.06 16.8178C32.6772 15.1735 32.1291 15.304 32.4597 16.957C34.0037 24.94 37.4541 32.4316 42.5169 38.794ZM48.1893 57.8644C47.6053 57.8911 47.0203 57.8414 46.4493 57.7165C46.3515 57.6873 46.2609 57.6383 46.183 57.5724C46.1052 57.5065 46.0418 57.4253 45.9969 57.3337C45.87 56.9602 45.7967 56.5707 45.7794 56.1766C45.7011 55.3936 45.5445 54.6193 45.501 53.8015C46.6546 54.9666 47.5681 56.347 48.1893 57.8644Z" fill="#AEC7F6"/>
<path d="M146.238 99.877C146.243 100.335 146.427 100.772 146.752 101.095C152.106 106.886 158.832 111.237 166.309 113.745C167.179 114.032 167.78 114.241 168.267 114.38C168.754 114.519 169.137 114.197 168.597 113.936C166.301 112.823 161.925 111.326 158.549 109.273C154.564 106.811 150.519 104.384 147.674 100.477C147.417 100.138 147.272 99.7279 147.256 99.3028C147.053 95.2454 147.053 91.1803 147.256 87.1228C147.323 86.8158 147.302 86.4962 147.195 86.2006C146.141 84.3928 144.979 82.6496 143.715 80.9806C142.376 79.1449 142.28 79.1188 140.931 80.8849C140.601 81.3025 140.436 81.1894 140.157 80.9458C139.357 80.2759 138.556 79.6234 137.756 78.9622C137.488 78.7388 137.168 78.5872 136.826 78.5217C136.483 78.4563 136.13 78.4791 135.798 78.5881C134.938 78.8101 134.097 79.101 133.284 79.4581C132.78 79.7104 132.606 79.5451 132.336 79.1971C131.883 78.6229 131.405 78.0835 130.918 77.5528C130.735 77.3527 130.526 77.0656 130.196 77.2309C129.721 77.435 129.274 77.698 128.865 78.0139C126.855 79.8061 124.454 80.9893 122.157 82.3639C121.774 82.5901 121.931 82.7815 122.087 82.9642C122.857 83.9363 123.382 85.079 123.618 86.2963C123.775 86.9488 124.193 87.5665 125.028 87.3838C125.762 87.2365 126.457 86.9404 127.072 86.5138C127.255 86.392 127.942 85.6873 128.534 85.1044L128.795 84.8434C128.83 84.8088 128.873 84.7823 128.919 84.7658C128.966 84.7492 129.015 84.7431 129.065 84.7477C129.114 84.7521 129.162 84.7667 129.205 84.7907C129.249 84.8147 129.287 84.8475 129.317 84.8869C129.421 85.0435 129.491 85.2262 129.587 85.3741C130.848 87.3229 131.622 89.5849 133.293 91.2727C133.432 91.4119 133.389 91.5076 133.293 91.6294L130.561 94.6831C130.15 93.3369 129.521 92.0673 128.699 90.9247C128.505 90.6332 128.237 90.3989 127.921 90.2459C127.606 90.093 127.256 90.027 126.907 90.0547C126.045 90.1482 125.224 90.4728 124.532 90.9943C123.453 91.7686 123.157 92.2558 124.193 93.6043C126.171 96.1186 127.804 98.8866 129.047 101.835C129.132 102.125 129.321 102.374 129.578 102.534C129.834 102.695 130.141 102.755 130.439 102.705C131.962 102.56 133.499 102.699 134.972 103.113C136.808 103.505 138.713 103.888 139.966 105.523C141.071 106.968 142.202 108.394 143.22 109.873C147.647 116.477 153.02 122.395 159.167 127.439C160.423 128.591 161.828 129.571 163.343 130.353C164.465 130.901 165.022 130.936 162.899 129.309C154.026 122.475 146.505 114.045 140.723 104.453C140.296 103.749 140.27 103.766 139.522 103.87C139.444 103.87 139.365 103.809 139.287 103.766C137.814 102.937 136.206 102.378 134.537 102.113C133.232 101.965 131.988 101.626 130.683 102C129.735 102.296 129.769 101.8 129.413 100.808C128.446 98.2268 127.03 95.8378 125.228 93.7522C123.819 92.0122 123.749 91.8817 125.924 91.0204C126.063 90.9595 126.202 90.9334 126.333 90.8812C126.637 90.7455 126.98 90.7235 127.3 90.8193C127.619 90.9151 127.893 91.1223 128.073 91.4032C128.705 92.307 129.228 93.2824 129.63 94.309C129.813 94.7353 129.926 95.179 130.161 95.6314C130.192 95.6891 130.239 95.7368 130.295 95.7691C130.352 95.8014 130.417 95.817 130.483 95.8141C130.547 95.8127 130.61 95.7942 130.665 95.7606C130.72 95.727 130.765 95.6794 130.796 95.6227C131.204 95.0091 131.689 94.4506 132.24 93.961C132.979 93.1863 133.662 92.3607 134.285 91.4902C134.389 91.3162 134.728 90.9682 134.285 90.8812C133.554 90.7246 133.415 90.1243 133.093 89.6284C132.31 88.2799 131.579 86.9053 130.822 85.5481C130.575 85.0567 130.255 84.605 129.874 84.2083C129.526 83.8777 129.265 83.695 128.821 84.0778C127.637 85.3443 126.135 86.2698 124.471 86.7574C124.408 85.2827 123.844 83.8738 122.87 82.7641C127.977 79.8235 128.821 79.432 129.561 78.1879C129.874 77.6398 130.37 77.5876 130.692 78.2314C130.978 78.7008 131.31 79.1408 131.683 79.5451C133.075 81.2851 134.293 83.1208 136.155 84.4519C136.373 84.6085 136.625 84.9391 136.886 84.6259C137.147 84.3127 136.825 84.1126 136.634 83.9212C135.654 82.9692 134.728 81.9643 133.858 80.911C133.484 80.4586 133.632 80.041 134.163 79.8235C135.903 79.084 137.33 79.2754 138.513 80.7544C138.651 80.9014 138.803 81.0353 138.965 81.1546C140.296 82.2508 140.496 82.4161 141.253 81.4504C142.715 79.5712 141.793 79.9105 145.83 85.3828C146.284 85.9221 146.507 86.6199 146.447 87.3229C146.077 91.4972 146.007 95.6927 146.238 99.877Z" fill="#AEC7F6"/>
<path d="M95.7957 36.5408C99.4584 27.7451 99.2757 22.4642 107.871 9.85789C108.324 9.19669 108.741 8.50939 109.142 7.80469C109.142 7.71769 109.524 6.45619 108.393 7.80469C101.52 16.235 97.9533 26.0747 95.3955 36.2885C95.3259 36.6278 95.7 36.8018 95.7957 36.5408Z" fill="#AEC7F6"/>
<path d="M69.4782 88.5324C69.7131 88.2801 69.8958 88.4541 70.0959 88.5324C80.2401 90.2724 78.1608 90.1419 88.3659 90.4377C96.3699 90.0462 94.3863 90.168 103.278 89.4459C104.371 89.406 105.461 89.2956 106.54 89.1153C106.716 89.0956 106.877 89.0101 106.992 88.8761C107.106 88.742 107.166 88.5694 107.158 88.3932C107.181 88.1905 107.138 87.9857 107.037 87.8089C106.935 87.632 106.779 87.4923 106.592 87.4101C106.392 87.3318 105.983 87.1926 106.149 87.7059C106.314 88.2192 105.94 88.3758 105.522 88.428C98.6835 89.4595 91.7597 89.8151 84.8511 89.4894C77.2473 89.0196 75.2811 88.3932 69.2607 87.558C69.0345 87.558 68.7822 87.558 68.6691 87.7842C68.6281 87.8929 68.6266 88.0125 68.6647 88.1222C68.7029 88.2319 68.7783 88.3247 68.8779 88.3845C69.0519 88.4976 69.2172 88.8195 69.4782 88.5324Z" fill="#AEC7F6"/>
<path d="M101.459 163.23C100.076 163.282 98.684 163.369 97.3355 163.456L95.4041 163.578C94.5341 163.638 93.6032 163.76 92.7332 163.882C91.4929 164.081 90.2396 164.189 88.9835 164.204C86.3735 164.204 83.7026 164.039 81.1535 163.891C79.2569 163.786 77.2994 163.682 75.368 163.621C74.2892 163.621 73.1408 163.551 72.0098 163.464C71.2181 163.395 70.409 163.36 69.626 163.325C68.582 163.325 67.5032 163.23 66.4505 163.116C66.1808 163.116 65.8067 163.038 65.4413 162.986C64.3886 162.838 64.3886 162.838 64.3712 162.986C64.3538 163.134 64.3712 163.108 66.2678 163.525C67.4107 163.771 68.5794 163.876 69.7478 163.839C70.3285 163.828 70.9093 163.848 71.4878 163.899C73.5845 164.143 75.716 164.23 77.7779 164.317C79.0742 164.369 80.3879 164.421 81.7364 164.517C83.7374 164.656 85.7993 164.778 87.896 164.778C89.822 164.791 91.7465 164.669 93.6554 164.413C95.1344 164.213 96.6482 164.117 98.1185 164.03C99.0494 163.978 100.015 163.917 100.963 163.83C100.963 163.83 102.286 163.691 102.268 163.404C102.234 163.256 102.112 163.203 101.459 163.23Z" fill="#AEC7F6"/>
<path d="M97.5358 94.0571C89.5231 94.1354 80.623 94.1354 71.9317 92.7956C70.8964 92.639 71.5315 93.1871 71.9317 93.2567H72.0013C75.6536 93.8979 79.3449 94.2932 83.0503 94.4399C86.6434 94.5965 89.671 94.6748 92.4463 94.6748C93.7774 94.6748 95.0563 94.6748 96.3004 94.6226C97.5445 94.5704 101.686 94.0136 97.5358 94.0571Z" fill="#AEC7F6"/>
<path d="M105.218 96.4231C105.216 96.4039 105.206 96.3861 105.192 96.3733C105.177 96.3604 105.159 96.3534 105.139 96.3535C102.799 96.3535 100.424 96.4579 98.1273 96.5797C94.2456 96.9146 90.3422 96.9146 86.4606 96.5797C86.4412 96.5776 86.4216 96.5815 86.4045 96.5909C86.3874 96.6002 86.3736 96.6145 86.3649 96.6319C86.3547 96.6474 86.3494 96.6656 86.3494 96.6841C86.3494 96.7026 86.3547 96.7208 86.3649 96.7363C87 97.2496 90.4452 97.4932 94.2558 97.4932C98.6058 97.4932 103.521 97.1713 105.139 96.5536C105.155 96.5542 105.17 96.5505 105.184 96.5431C105.198 96.5357 105.209 96.5247 105.217 96.5114C105.225 96.4981 105.229 96.4829 105.229 96.4674C105.23 96.4518 105.226 96.4366 105.218 96.4231Z" fill="#AEC7F6"/>
<path d="M118.32 160.167C118.074 160.057 117.8 160.03 117.537 160.089L107.706 161.951C107.062 162.064 106.932 162.168 106.758 162.638C106.706 162.804 106.94 162.734 107.027 162.708C108.602 162.308 110.246 162.029 111.83 161.76C113.819 161.46 115.789 161.041 117.728 160.507L118.32 160.333C118.337 160.327 118.353 160.316 118.363 160.301C118.374 160.286 118.38 160.268 118.38 160.25C118.38 160.232 118.374 160.214 118.363 160.199C118.353 160.184 118.337 160.173 118.32 160.167Z" fill="#AEC7F6"/>
<path d="M73.7324 98.5279L69.8 98.0059C69.5738 98.0059 69.4085 98.0059 69.3824 98.1625C69.3563 98.3191 69.3824 98.38 69.6956 98.4844C70.46 98.7006 71.2439 98.8405 72.0359 98.902C72.584 98.9716 73.1495 99.0325 73.6889 99.1543C73.73 99.1571 73.7713 99.1518 73.8104 99.1387C73.8495 99.1256 73.8856 99.105 73.9167 99.0779C73.9478 99.0508 73.9733 99.0179 73.9917 98.981C74.0101 98.9441 74.021 98.9039 74.0239 98.8628C74.0267 98.8217 74.0214 98.7804 74.0083 98.7413C73.9952 98.7022 73.9746 98.6661 73.9475 98.635C73.9204 98.6039 73.8875 98.5784 73.8506 98.56C73.8137 98.5416 73.7735 98.5307 73.7324 98.5279Z" fill="#AEC7F6"/>
<path d="M54.3228 159.75C53.7399 159.532 53.1048 159.167 52.5132 159.002C51.1995 158.654 52.3044 159.872 52.5132 159.994C53.1478 160.325 53.8378 160.537 54.549 160.62C55.9062 160.733 54.4359 159.802 54.3228 159.75Z" fill="#AEC7F6"/>
</svg>
