<svg width="49" height="48" viewBox="0 0 49 48" fill="none" xmlns="http://www.w3.org/2000/svg">
<g clip-path="url(#clip0_151_4626)">
<path d="M43.6069 48C43.3585 47.9991 43.1117 47.9603 42.875 47.8848C42.5759 47.7881 42.2988 47.6332 42.0594 47.4291C41.82 47.2249 41.623 46.9753 41.4798 46.6947C41.3365 46.4141 41.2498 46.1079 41.2245 45.7937C41.1992 45.4794 41.2358 45.1632 41.3323 44.8632C43.2787 38.0891 44.1203 31.0438 43.8245 24C43.8245 23.3635 44.0765 22.753 44.525 22.3029C44.9736 21.8529 45.5819 21.6 46.2162 21.6C46.8505 21.6 47.4589 21.8529 47.9074 22.3029C48.356 22.753 48.6079 23.3635 48.6079 24C48.9176 31.5448 47.9975 39.0896 45.8838 46.3368C45.7284 46.8201 45.4243 47.2415 45.0151 47.5403C44.606 47.8392 44.1129 48.0001 43.6069 48Z" fill="$primary"/>
<path d="M44.0924 17.04C43.6426 17.0396 43.2021 16.9119 42.8213 16.6716C42.4406 16.4314 42.1351 16.0882 41.9399 15.6816C40.3663 12.4308 37.9159 9.68784 34.8668 7.76434C31.8178 5.84084 28.2923 4.81385 24.6908 4.80001C21.1056 4.7976 17.5924 5.80996 14.5547 7.72081C14.2886 7.89767 13.99 8.01931 13.6763 8.07856C13.3627 8.13782 13.0404 8.13349 12.7285 8.06583C12.4166 7.99818 12.1213 7.86856 11.86 7.68462C11.5988 7.50068 11.3769 7.26614 11.2074 6.99481C11.0379 6.72348 10.9242 6.42085 10.873 6.10474C10.8219 5.78864 10.8343 5.46547 10.9095 5.15425C10.9847 4.84303 11.1213 4.55007 11.3111 4.29262C11.5009 4.03517 11.7401 3.81845 12.0147 3.65521C15.8127 1.26333 20.2067 -0.00368505 24.6908 8.05047e-06C29.1912 0.019106 33.5962 1.30353 37.406 3.70754C41.2159 6.11156 44.278 9.53893 46.2449 13.6008C46.4211 13.9666 46.5018 14.3713 46.4795 14.7769C46.4572 15.1825 46.3327 15.5758 46.1176 15.92C45.9025 16.2641 45.6038 16.5479 45.2496 16.7446C44.8954 16.9413 44.4972 17.0446 44.0924 17.0448V17.04Z" fill="$primary"/>
<path d="M3.06722 33.6C2.99069 33.6 2.91176 33.6 2.82805 33.588C2.20065 33.5271 1.62255 33.2202 1.21947 32.7339C0.816381 32.2476 0.620891 31.6213 0.675504 30.9912C0.675504 30.9144 0.766389 29.7 0.766389 24C0.755835 18.9056 2.37467 13.9423 5.3848 9.84002C5.76032 9.32635 6.32381 8.9834 6.95131 8.88663C7.57881 8.78987 8.21892 8.9472 8.73082 9.32402C9.24272 9.70084 9.58447 10.2663 9.68091 10.8959C9.77734 11.5256 9.62055 12.1679 9.24504 12.6816C6.84068 15.9614 5.54803 19.9285 5.557 24C5.557 30 5.46373 31.2456 5.44699 31.44C5.38769 32.032 5.11138 32.5808 4.67166 32.9799C4.23193 33.379 3.66015 33.6 3.06722 33.6Z" fill="$primary"/>
<path d="M37.9361 41.3544C37.5812 41.3548 37.2307 41.276 36.9099 41.1236C36.5891 40.9712 36.3061 40.7491 36.0815 40.4734C35.8569 40.1977 35.6962 39.8753 35.6112 39.5295C35.5261 39.1838 35.5188 38.8233 35.5898 38.4744C36.4408 33.6993 36.7959 28.8486 36.6494 24C36.6521 22.4809 36.3647 20.9754 35.8027 19.5648C35.6071 18.9834 35.6408 18.3489 35.897 17.7917C36.1532 17.2345 36.6123 16.7969 37.1801 16.5689C37.7478 16.3409 38.381 16.3398 38.9496 16.5658C39.5181 16.7918 39.9788 17.2277 40.2369 17.784C41.0281 19.7602 41.434 21.8703 41.4328 24C41.5857 29.1729 41.1977 34.3475 40.2752 39.4392C40.1641 39.9796 39.8709 40.4651 39.4448 40.8139C39.0188 41.1628 38.486 41.3536 37.9361 41.3544Z" fill="$primary"/>
<path d="M10.3405 26.4C9.70614 26.4 9.09779 26.1471 8.64926 25.6971C8.20072 25.247 7.94874 24.6365 7.94874 24C7.95055 20.9527 8.77832 17.9632 10.3434 15.3518C11.9085 12.7403 14.1519 10.6052 16.8336 9.17507C19.5152 7.74492 22.5339 7.07361 25.5666 7.23302C28.5992 7.39243 31.5316 8.37655 34.0496 10.08C34.3152 10.2543 34.5435 10.4798 34.7214 10.7435C34.8992 11.0071 35.023 11.3037 35.0855 11.6159C35.148 11.928 35.148 12.2496 35.0855 12.5617C35.023 12.8739 34.8992 13.1704 34.7213 13.4341C34.5434 13.6978 34.315 13.9233 34.0495 14.0975C33.7839 14.2717 33.4864 14.3912 33.1744 14.4489C32.8623 14.5067 32.5419 14.5015 32.2319 14.4338C31.9219 14.366 31.6283 14.2371 31.3685 14.0544C29.5697 12.8395 27.4757 12.1381 25.3104 12.0254C23.1451 11.9127 20.9899 12.3928 19.0756 13.4144C17.1612 14.436 15.5597 15.9607 14.4423 17.8253C13.325 19.6899 12.7339 21.8243 12.7322 24C12.7322 24.6365 12.4802 25.247 12.0317 25.6971C11.5831 26.1471 10.9748 26.4 10.3405 26.4Z" fill="$primary"/>
<path d="M5.55701 48C4.92268 48 4.31434 47.7471 3.86581 47.2971C3.41727 46.847 3.16529 46.2365 3.16529 45.6C3.15949 42.2804 4.13954 39.0343 5.98034 36.276C6.73919 35.141 7.25774 33.8618 7.50387 32.5176C7.62756 31.8932 7.99338 31.3436 8.52086 30.9899C9.04834 30.6361 9.69426 30.5071 10.3165 30.6312C10.9388 30.7553 11.4865 31.1224 11.839 31.6517C12.1915 32.181 12.3201 32.8292 12.1964 33.4536C11.8281 35.4153 11.0674 37.2816 9.96017 38.94C8.64461 40.9099 7.94429 43.2287 7.94873 45.6C7.94873 46.2365 7.69674 46.847 7.24821 47.2971C6.79967 47.7471 6.19133 48 5.55701 48Z" fill="$primary"/>
<path d="M28.264 47.796C27.9058 47.7962 27.5524 47.7141 27.2308 47.556C26.9474 47.4199 26.6936 47.2291 26.4838 46.9945C26.2739 46.7599 26.1122 46.4862 26.0078 46.1889C25.9034 45.8916 25.8584 45.5765 25.8754 45.2618C25.8923 44.947 25.9709 44.6387 26.1066 44.3544C27.0231 42.441 27.7397 40.4375 28.2448 38.376C28.3134 38.0627 28.4439 37.7663 28.6285 37.5044C28.8132 37.2425 29.0483 37.0205 29.3199 36.8513C29.5916 36.6822 29.8943 36.5694 30.2101 36.5197C30.526 36.4699 30.8485 36.4843 31.1588 36.5618C31.469 36.6393 31.7606 36.7784 32.0163 36.9709C32.272 37.1635 32.4867 37.4055 32.6476 37.6827C32.8085 37.9599 32.9124 38.2667 32.9532 38.5848C32.9939 38.903 32.9706 39.2262 32.8848 39.5352C32.301 41.913 31.4755 44.2243 30.4213 46.4328C30.2264 46.8411 29.9205 47.1857 29.5387 47.4269C29.157 47.6681 28.7151 47.7961 28.264 47.796Z" fill="$primary"/>
<path d="M13.928 44.0064C13.4952 44.006 13.0706 43.8878 12.6995 43.6644C12.3284 43.4409 12.0246 43.1206 11.8206 42.7376C11.6167 42.3545 11.5201 41.9231 11.5412 41.4894C11.5623 41.0556 11.7003 40.6357 11.9405 40.2744C15.1239 35.4936 15.1239 30.672 15.1239 24C15.1239 21.4539 16.1318 19.0121 17.9259 17.2118C19.7201 15.4114 22.1535 14.4 24.6908 14.4C27.228 14.4 29.6614 15.4114 31.4556 17.2118C33.2497 19.0121 34.2576 21.4539 34.2576 24C34.2576 25.8288 34.2576 27.7104 34.1811 29.6424C34.157 30.2626 33.8944 30.8492 33.4484 31.2793C33.0025 31.7093 32.4079 31.9493 31.7894 31.9488H31.6937C31.3798 31.9364 31.0713 31.8621 30.786 31.7301C30.5007 31.5981 30.244 31.4109 30.0308 31.1794C29.8176 30.9478 29.6519 30.6763 29.5433 30.3805C29.4346 30.0847 29.3852 29.7702 29.3977 29.4552C29.4742 27.6 29.4742 25.7664 29.4742 24C29.4742 22.727 28.9702 21.5061 28.0732 20.6059C27.1761 19.7057 25.9594 19.2 24.6908 19.2C23.4221 19.2 22.2054 19.7057 21.3084 20.6059C20.4113 21.5061 19.9073 22.727 19.9073 24C19.9073 30.948 19.9073 36.96 15.9275 42.9384C15.7081 43.2684 15.4107 43.5386 15.0617 43.725C14.7128 43.9114 14.3233 44.008 13.928 44.0064Z" fill="$primary"/>
<path d="M19.9073 48C19.4745 47.9996 19.0499 47.8814 18.6788 47.658C18.3077 47.4345 18.0039 47.1142 17.7999 46.7312C17.596 46.3481 17.4994 45.9167 17.5205 45.483C17.5416 45.0492 17.6796 44.6293 17.9198 44.268C22.299 37.68 22.299 31.032 22.299 24C22.299 23.3635 22.551 22.753 22.9996 22.3029C23.4481 21.8529 24.0564 21.6 24.6908 21.6C25.3251 21.6 25.9334 21.8529 26.382 22.3029C26.8305 22.753 27.0825 23.3635 27.0825 24C27.0825 31.44 27.0825 39.12 21.8972 46.932C21.6787 47.2606 21.3828 47.53 21.0357 47.7163C20.6886 47.9026 20.301 48.0001 19.9073 48Z" fill="$primary"/>
</g>
<defs>
<clipPath id="clip0_151_4626">
<rect width="48" height="48" fill="white" transform="translate(0.666504)"/>
</clipPath>
</defs>
</svg>
