<svg width="145" height="30" viewBox="0 0 145 30" fill="none" xmlns="http://www.w3.org/2000/svg">
<path d="M17.2638 6.74167H6.4993V12.2335H17.0607V18.4991H6.4993V28.952H0V0.476074H17.2638V6.74167Z" fill="$primary"/>
<path d="M34.2456 8.61392H40.3387V28.9539H34.2456V27.0437C33.027 28.6974 31.0887 29.5243 28.4351 29.5243C26.2672 29.5243 24.4614 28.777 23.0131 27.2869C21.5649 25.7968 20.8408 23.7363 20.8408 21.1053V8.61834H26.9339V20.2121C26.9339 21.406 27.2651 22.3213 27.9273 22.958C28.5896 23.5948 29.4374 23.9131 30.4661 23.9131C31.6318 23.9131 32.5502 23.5594 33.2301 22.8563C33.9056 22.1533 34.2456 21.1053 34.2456 19.7257V8.61834V8.61392Z" fill="$primary"/>
<path d="M56.7003 14.47H52.5146V21.6686C52.5146 22.4822 52.8414 22.9951 53.4904 23.2162C54.1394 23.4329 55.2079 23.4992 56.7003 23.4196V28.9512C52.8281 29.358 50.148 28.9866 48.6557 27.8325C47.1677 26.6784 46.4215 24.6267 46.4215 21.6686V14.47H43.1719V8.61121H46.4215V4.74661L52.5146 2.91602V8.61121H56.7003V14.47Z" fill="$primary"/>
<path d="M73.6782 8.61392H79.7713V28.9539H73.6782V27.0437C72.4596 28.6974 70.5213 29.5243 67.8677 29.5243C65.6998 29.5243 63.894 28.777 62.4458 27.2869C60.9975 25.7968 60.2734 23.7363 60.2734 21.1053V8.61834H66.3665V20.2121C66.3665 21.406 66.6977 22.3213 67.36 22.958C68.0223 23.5948 68.87 23.9131 69.8988 23.9131C71.0644 23.9131 71.9828 23.5594 72.6627 22.8563C73.3383 22.1533 73.6782 21.1053 73.6782 19.7257V8.61834V8.61392Z" fill="$primary"/>
<path d="M90.3304 12.2341C90.7101 10.9341 91.474 9.9348 92.6263 9.24501C93.7787 8.55522 95.0415 8.2059 96.4235 8.2059V15.1215C94.9355 14.8783 93.5447 15.1303 92.2599 15.8732C90.975 16.6205 90.3304 17.916 90.3304 19.7599V28.9527H84.2373V8.6127H90.3304V12.2341Z" fill="$primary"/>
<path d="M104.099 21.2207C104.801 23.1177 106.426 24.0683 108.973 24.0683C110.625 24.0683 111.923 23.551 112.872 22.5207L117.746 25.3285C115.742 28.1231 112.792 29.5203 108.889 29.5203C105.476 29.5203 102.748 28.5033 100.703 26.4693C98.6591 24.4353 97.6348 21.8707 97.6348 18.7799C97.6348 15.6892 98.6414 13.1599 100.659 11.1127C102.677 9.06539 105.269 8.03955 108.439 8.03955C111.388 8.03955 113.848 9.06539 115.812 11.1127C117.777 13.1599 118.757 15.7157 118.757 18.7799C118.757 19.6466 118.678 20.4602 118.515 21.2207H104.094H104.099ZM103.975 16.6664H112.709C112.112 14.5262 110.678 13.4518 108.404 13.4518C106.13 13.4518 104.571 14.5218 103.975 16.6664Z" fill="$primary"/>
<path d="M144.959 28.952H137.568L132.773 20.7144L127.982 28.952H120.591L129.081 14.3647L120.993 0.476074H128.384L132.768 8.01513L137.157 0.476074H144.548L136.464 14.3647L144.954 28.952H144.959Z" fill="$primary"/>
</svg>
