<svg width="129" height="42" viewBox="0 0 129 42" fill="none" xmlns="http://www.w3.org/2000/svg">
<path d="M17.2258 32.3951C22.0455 32.3951 25.6774 30.8181 28.5206 27.8551C31.4473 24.9251 32.356 20.823 32.356 17.5045C32.356 16.4741 32.2769 15.5292 32.1189 14.7358H17.2258V19.1605H27.8128C27.4967 21.6494 26.6638 23.4667 25.4048 24.7309C23.8615 26.2683 21.4542 27.9704 17.2258 27.9704C10.7082 27.9704 5.61094 22.716 5.61094 16.1975C5.61094 9.67901 10.7082 4.4214 17.2258 4.4214C20.7392 4.4214 23.3113 5.80741 25.2044 7.58519L28.3263 4.4642C25.6774 1.9391 22.164 0 17.2258 0C8.29571 0 0.790527 7.26584 0.790527 16.1975C0.790527 25.1259 8.29571 32.3951 17.2258 32.3951ZM44.4086 32.3951C50.1732 32.3951 54.8745 27.9704 54.8745 21.9621C54.8745 15.921 50.1732 11.5358 44.4086 11.5358C38.6342 11.5358 33.9329 15.921 33.9329 21.9621C33.9329 27.9704 38.6342 32.3951 44.4086 32.3951ZM44.4086 28.2864C41.2449 28.2864 38.5156 25.679 38.5156 21.9621C38.5156 18.2123 41.2449 15.6477 44.4086 15.6477C47.5658 15.6477 50.2918 18.2123 50.2918 21.9621C50.2918 25.679 47.5658 28.2864 44.4086 28.2864ZM67.2399 32.3951C73.0078 32.3951 77.709 27.9704 77.709 21.9621C77.709 15.921 73.0078 11.5358 67.2399 11.5358C61.4687 11.5358 56.7675 15.921 56.7675 21.9621C56.7675 27.9704 61.4687 32.3951 67.2399 32.3951ZM67.2399 28.2864C64.0794 28.2864 61.3502 25.679 61.3502 21.9621C61.3502 18.2123 64.0794 15.6477 67.2399 15.6477C70.4004 15.6477 73.1263 18.2123 73.1263 21.9621C73.1263 25.679 70.4004 28.2864 67.2399 28.2864ZM89.6794 41.758C95.049 41.758 99.5988 38.6008 99.5988 30.8938V12.1679H95.2498V13.8667H95.0918C94.0613 12.642 92.086 11.5358 89.6037 11.5358C84.3856 11.5358 79.6086 16.1185 79.6086 22.0049C79.6086 27.8551 84.3856 32.3951 89.6037 32.3951C92.086 32.3951 94.0613 31.2889 95.0918 30.0247H95.2498V31.5259C95.2498 35.5193 93.1165 37.6494 89.6794 37.6494C86.8778 37.6494 85.1362 35.6379 84.4218 33.9325L80.435 35.5951C81.584 38.3638 84.6226 41.758 89.6794 41.758ZM89.9922 28.2864C86.835 28.2864 84.1848 25.6428 84.1848 22.0049C84.1848 18.3309 86.835 15.6477 89.9922 15.6477C93.1165 15.6477 95.5658 18.3309 95.5658 22.0049C95.5658 25.6428 93.1165 28.2864 89.9922 28.2864ZM107.339 1.10617H102.756V31.763H107.339V1.10617ZM119.902 32.3951C124.679 32.3951 127.447 29.4749 128.593 27.7728L125.034 25.4058C123.852 27.1374 122.233 28.2864 119.902 28.2864C117.571 28.2864 115.908 27.2198 114.845 25.1259L128.791 19.3547L128.316 18.1728C127.447 15.842 124.797 11.5358 119.388 11.5358C114.015 11.5358 109.551 15.7663 109.551 21.9621C109.551 27.8123 113.976 32.3951 119.902 32.3951ZM114.094 21.6494C113.976 17.623 117.215 15.5654 119.546 15.5654C121.363 15.5654 122.904 16.4741 123.421 17.7778L114.094 21.6494Z" fill="#4B5563"/>
</svg>
