<svg width="176" height="198" viewBox="0 0 176 198" fill="none" xmlns="http://www.w3.org/2000/svg">
<path opacity="0.15" d="M19.2627 192.268C19.2627 193.581 26.5047 194.84 39.3955 195.768C52.2863 196.696 69.7699 197.217 88.0003 197.217C106.231 197.217 123.714 196.696 136.605 195.768C149.496 194.84 156.738 193.581 156.738 192.268C156.738 190.956 149.496 189.697 136.605 188.769C123.714 187.841 106.231 187.319 88.0003 187.319C69.7699 187.319 52.2863 187.841 39.3955 188.769C26.5047 189.697 19.2627 190.956 19.2627 192.268Z" fill="#15376D"/>
<path d="M155.898 77.3159H20.1009C18.4961 77.3166 16.9572 77.9546 15.8227 79.0897C14.6881 80.2248 14.0508 81.7639 14.0508 83.3688V171.21H161.948V83.3688C161.948 81.7639 161.311 80.2248 160.176 79.0897C159.042 77.9546 157.503 77.3166 155.898 77.3159Z" fill="#F2F7F8" stroke="#15376D" stroke-width="2" stroke-linecap="round" stroke-linejoin="round"/>
<path d="M148.778 87.7547H27.3623C26.6375 87.7547 25.9425 88.0426 25.43 88.5551C24.9175 89.0676 24.6296 89.7626 24.6296 90.4874L24.4902 171.213H151.51V90.4874C151.51 89.7626 151.222 89.0676 150.71 88.5551C150.197 88.0426 149.502 87.7547 148.778 87.7547Z" fill="#F2F7F8"/>
<path d="M148.778 87.7547H27.3623C26.6375 87.7547 25.9425 88.0426 25.43 88.5551C24.9175 89.0676 24.6296 89.7626 24.6296 90.4874L24.4902 171.213H151.51V90.4874C151.51 89.7626 151.222 89.0676 150.71 88.5551C150.197 88.0426 149.502 87.7547 148.778 87.7547Z" stroke="#15376D" stroke-width="2" stroke-linecap="round" stroke-linejoin="round"/>
<path d="M175 181.652H1V174.238C1 173.436 1.31862 172.666 1.88585 172.098C2.45309 171.53 3.22251 171.211 4.02506 171.21H171.975C172.777 171.211 173.547 171.53 174.114 172.098C174.681 172.666 175 173.436 175 174.238V181.652Z" fill="#F2F7F8" stroke="#15376D" stroke-width="2" stroke-linecap="round" stroke-linejoin="round"/>
<path d="M175 181.652C158.839 186.27 142.114 188.612 125.306 188.612H50.7043C33.8969 188.612 17.1714 186.27 1.01074 181.652H175Z" fill="#F2F7F8" stroke="#15376D" stroke-width="2" stroke-linecap="round" stroke-linejoin="round"/>
<path d="M78.2651 53.2957L72.8626 59.0699L79.2543 78.633L67.7197 171.21H106.004L115.547 92.2035C115.779 89.8204 116.574 87.5266 117.867 85.5112L78.2651 53.2957Z" fill="#F2F7F8" stroke="#15376D" stroke-width="2" stroke-linecap="round" stroke-linejoin="round"/>
<path d="M139.024 82.8113L81.3947 42.1956C78.6012 40.2271 76.2623 37.6826 74.5356 34.7335C72.8089 31.7845 71.7345 28.4995 71.3849 25.1C70.8437 18.8155 68.07 12.9325 63.5661 8.51635C59.0622 4.10016 53.1258 1.44272 46.8319 1.02522C41.4869 0.788954 36.2008 2.22149 31.7066 5.12422C31.6105 5.18582 31.5303 5.26917 31.4724 5.36752C31.4146 5.46586 31.3807 5.57645 31.3735 5.69033C31.3663 5.80421 31.3861 5.91818 31.4311 6.02302C31.4761 6.12786 31.5452 6.22063 31.6328 6.29381L43.6073 16.033C44.2851 16.5859 44.7164 17.3847 44.807 18.2547L45.6268 26.2095C45.662 26.5631 45.6407 26.9201 45.5639 27.267L38.8115 57.5423C38.7001 58.0438 38.7369 58.5668 38.9173 59.0478C39.0977 59.5288 39.414 59.947 39.8277 60.2515C40.2414 60.556 40.7346 60.7338 41.2475 60.7632C41.7604 60.7926 42.2707 60.6723 42.7165 60.417C48.5749 58.1664 54.9517 57.6242 61.1061 58.8533C67.2604 60.0824 72.9397 63.0325 77.4842 67.3608L119.584 106.711C121.151 108.004 122.958 108.975 124.901 109.566C126.844 110.158 128.886 110.359 130.907 110.158C132.929 109.957 134.891 109.359 136.68 108.396C138.469 107.434 140.05 106.127 141.332 104.551C142.613 102.975 143.571 101.161 144.148 99.2136C144.726 97.266 144.913 95.2233 144.697 93.2033C144.482 91.1833 143.869 89.2258 142.894 87.4437C141.919 85.6615 140.601 84.09 139.016 82.8195L139.024 82.8113ZM129.916 100.675C128.748 100.794 127.57 100.565 126.532 100.016C125.494 99.4663 124.643 98.6215 124.085 97.5881C123.527 96.5546 123.288 95.379 123.399 94.2098C123.509 93.0407 123.963 91.9305 124.705 91.0196C125.446 90.1087 126.441 89.4381 127.563 89.0925C128.685 88.7469 129.885 88.7418 131.01 89.078C132.135 89.4141 133.136 90.0763 133.884 90.9809C134.633 91.8855 135.097 92.9919 135.217 94.1601C135.297 94.9359 135.223 95.7199 135 96.4673C134.777 97.2146 134.409 97.9106 133.916 98.5156C133.424 99.1206 132.817 99.6226 132.131 99.9931C131.445 100.364 130.692 100.595 129.916 100.675Z" fill="#F2F7F8"/>
<path d="M45.2283 28.7782L33.4587 29.9888C33.0275 30.0336 32.5918 29.9929 32.1763 29.8691C31.7609 29.7453 31.3739 29.5408 31.0376 29.2674L21.2382 21.2962C21.1769 21.2403 21.1017 21.2018 21.0206 21.1846C20.9394 21.1674 20.8551 21.1721 20.7764 21.1983C20.6976 21.2244 20.6273 21.2711 20.5725 21.3334C20.5178 21.3958 20.4806 21.4716 20.4649 21.5531C19.9376 24.126 19.8077 26.7644 20.0796 29.3767C21.1726 40.0068 30.2424 49.3443 39.9816 52.3311L45.2283 28.7782Z" fill="#F2F7F8"/>
<path d="M45.2283 28.7782L33.4587 29.9888C33.0275 30.0336 32.5918 29.9929 32.1763 29.8691C31.7609 29.7453 31.3739 29.5408 31.0376 29.2674L21.2382 21.2962C21.1769 21.2403 21.1017 21.2018 21.0206 21.1846C20.9394 21.1674 20.8551 21.1721 20.7764 21.1983C20.6976 21.2244 20.6273 21.2711 20.5725 21.3334C20.5178 21.3958 20.4806 21.4716 20.4649 21.5531C19.9376 24.126 19.8077 26.7644 20.0796 29.3767C21.1726 40.0068 30.2424 49.3443 39.9816 52.3311L45.2283 28.7782Z" stroke="#15376D" stroke-width="2" stroke-linecap="round" stroke-linejoin="round"/>
<path d="M73.9072 49.7487L116.264 84.1967" stroke="#15376D" stroke-width="2" stroke-linecap="round" stroke-linejoin="round"/>
<path d="M52.6025 35.9761L64.4213 34.76L65.6374 46.5761L53.8213 47.7921L52.6025 35.9761Z" fill="#F2F7F8" stroke="#15376D" stroke-width="2" stroke-linecap="round" stroke-linejoin="round"/>
<path d="M31.6358 6.29382L43.6076 16.0303C44.2854 16.5832 44.7167 17.382 44.8073 18.252L45.6271 26.2068C45.6623 26.5604 45.641 26.9174 45.5642 27.2643L38.8118 57.5423C38.7005 58.0438 38.7372 58.5668 38.9176 59.0478C39.098 59.5288 39.4143 59.947 39.828 60.2515C40.2417 60.5561 40.735 60.7338 41.2478 60.7632C41.7607 60.7926 42.271 60.6724 42.7168 60.4171C48.5756 58.1659 54.9529 57.6233 61.1078 58.8525C67.2627 60.0816 72.9425 63.032 77.4873 67.3608L119.584 106.711C121.153 107.988 122.958 108.942 124.896 109.521C126.834 110.1 128.866 110.291 130.878 110.084C132.89 109.877 134.841 109.275 136.621 108.314C138.4 107.353 139.973 106.05 141.249 104.481C143.825 101.313 145.037 97.2504 144.619 93.1881C144.2 89.1257 142.185 85.396 139.016 82.8195L81.395 42.1956C78.6015 40.2271 76.2626 37.6826 74.5359 34.7335C72.8092 31.7845 71.7348 28.4995 71.3852 25.1001C70.8441 18.816 68.0708 12.9333 63.5675 8.51722C59.0641 4.10109 53.1284 1.44336 46.8349 1.02524C41.4891 0.78858 36.202 2.22113 31.7069 5.12424C31.6105 5.18599 31.53 5.26963 31.4721 5.36835C31.4141 5.46707 31.3803 5.57808 31.3734 5.69234C31.3665 5.8066 31.3866 5.92088 31.4322 6.02588C31.4778 6.13088 31.5476 6.22362 31.6358 6.29655V6.29382Z" stroke="#15376D" stroke-width="2" stroke-linecap="round" stroke-linejoin="round"/>
<path d="M124.089 97.5868C124.461 98.2722 124.964 98.8777 125.57 99.3686C126.176 99.8595 126.873 100.226 127.621 100.448C128.368 100.67 129.152 100.742 129.928 100.66C130.704 100.579 131.456 100.346 132.141 99.9738C132.826 99.6019 133.432 99.0985 133.923 98.4926C134.414 97.8866 134.78 97.19 135.002 96.4423C135.224 95.6946 135.296 94.9106 135.215 94.135C135.133 93.3594 134.9 92.6074 134.528 91.922C134.156 91.2366 133.653 90.6311 133.047 90.1402C132.441 89.6493 131.744 89.2826 130.996 89.0609C130.249 88.8393 129.465 88.7671 128.689 88.8484C127.914 88.9297 127.162 89.1631 126.476 89.535C125.791 89.907 125.185 90.4103 124.694 91.0162C124.203 91.6222 123.837 92.3189 123.615 93.0666C123.393 93.8142 123.321 94.5983 123.403 95.3738C123.484 96.1494 123.717 96.9014 124.089 97.5868Z" stroke="#15376D" stroke-width="2" stroke-linecap="round" stroke-linejoin="round"/>
<path d="M77.0219 96.5402L77.5958 90.4819C76.7951 80.0404 64.4025 79.4829 61.4567 73.8454C59.5219 70.1481 52.9116 54.1046 52.9116 54.1046C52.5664 53.3069 52.3817 52.449 52.368 51.5798C52.3543 50.7107 52.512 49.8474 52.832 49.0392C53.152 48.231 53.628 47.4937 54.2329 46.8695C54.8378 46.2453 55.5598 45.7463 56.3575 45.4011C57.1552 45.0558 58.0132 44.8711 58.8823 44.8575C59.7514 44.8438 60.6147 45.0015 61.4229 45.3215C62.2311 45.6414 62.9684 46.1175 63.5926 46.7224C64.2169 47.3273 64.7158 48.0492 65.061 48.847L70.2914 60.9336L72.9721 61.2478C78.2695 61.8688 83.1906 64.2981 86.9049 68.1259C90.6192 71.9537 92.8993 76.9456 93.3606 82.2593L108.494 96.3244" fill="#F2F7F8"/>
<path d="M77.0219 96.5402L77.5958 90.4819C76.7951 80.0404 64.4025 79.4829 61.4567 73.8454C59.5219 70.1481 52.9116 54.1046 52.9116 54.1046C52.5664 53.3069 52.3817 52.449 52.368 51.5798C52.3543 50.7107 52.512 49.8474 52.832 49.0392C53.152 48.231 53.628 47.4937 54.2329 46.8695C54.8378 46.2453 55.5598 45.7463 56.3575 45.4011C57.1552 45.0558 58.0132 44.8711 58.8823 44.8575C59.7514 44.8438 60.6147 45.0015 61.4229 45.3215C62.2311 45.6414 62.9684 46.1175 63.5926 46.7224C64.2169 47.3273 64.7158 48.0492 65.061 48.847L70.2914 60.9336L72.9721 61.2478C78.2695 61.8688 83.1906 64.2981 86.9049 68.1259C90.6192 71.9537 92.8993 76.9456 93.3606 82.2593L108.494 96.3244" stroke="#15376D" stroke-width="2" stroke-linecap="round" stroke-linejoin="round"/>
<path d="M93.5963 56.2006C94.4599 56.3019 95.3351 56.2321 96.1717 55.9951C97.0084 55.758 97.7901 55.3585 98.4723 54.8192C99.1544 54.2799 99.7236 53.6115 100.147 52.8521C100.571 52.0928 100.841 51.2574 100.942 50.3936L102.098 40.5314C102.302 38.7877 101.805 37.0342 100.717 35.6566C99.6283 34.2791 98.0372 33.3904 96.2934 33.186C94.5497 32.9816 92.7962 33.4783 91.4186 34.5668C90.0411 35.6553 89.1524 37.2465 88.948 38.9902L87.7948 48.8524C87.6927 49.7159 87.7618 50.5911 87.9981 51.4279C88.2345 52.2647 88.6335 53.0467 89.1723 53.7291C89.7111 54.4116 90.3792 54.9811 91.1383 55.4052C91.8974 55.8293 92.7326 56.0996 93.5963 56.2006Z" fill="#F2F7F8" stroke="#15376D" stroke-width="2" stroke-linecap="round" stroke-linejoin="round"/>
<path d="M106.166 65.3386C107.029 65.44 107.904 65.3703 108.741 65.1334C109.577 64.8965 110.359 64.4972 111.041 63.9582C111.723 63.4192 112.292 62.7511 112.716 61.9921C113.14 61.233 113.41 60.3979 113.511 59.5344L114.667 49.6722C114.871 47.9285 114.374 46.1751 113.286 44.7978C112.197 43.4205 110.605 42.5322 108.862 42.3282C107.118 42.1241 105.365 42.6212 103.987 43.7099C102.61 44.7987 101.722 46.39 101.518 48.1337L100.365 57.9932C100.263 58.8564 100.333 59.7312 100.569 60.5675C100.806 61.4038 101.205 62.1854 101.744 62.8674C102.283 63.5495 102.95 64.1188 103.709 64.5428C104.468 64.9668 105.303 65.2372 106.166 65.3386Z" fill="#F2F7F8" stroke="#15376D" stroke-width="2" stroke-linecap="round" stroke-linejoin="round"/>
<path d="M81.4167 45.6033C83.1601 45.8072 84.9131 45.3103 86.2901 44.2218C87.6671 43.1333 88.5553 41.5424 88.7594 39.7991L89.5218 33.3063C89.6228 32.4428 89.5528 31.568 89.3157 30.7316C89.0786 29.8953 88.6791 29.1138 88.14 28.4319C87.6009 27.7499 86.9328 27.1808 86.1738 26.7571C85.4147 26.3333 84.5797 26.0632 83.7163 25.9622C82.8528 25.8612 81.978 25.9312 81.1416 26.1683C80.3053 26.4054 79.5238 26.8049 78.8419 27.344C77.4646 28.4327 76.5762 30.024 76.3722 31.7678L75.6125 38.2578C75.5112 39.1213 75.5809 39.9962 75.8177 40.8327C76.0546 41.6692 76.4539 42.4509 76.9929 43.133C77.5319 43.8151 78.2 44.3843 78.9591 44.8082C79.7181 45.2321 80.5532 45.5022 81.4167 45.6033Z" fill="#F2F7F8" stroke="#15376D" stroke-width="2" stroke-linecap="round" stroke-linejoin="round"/>
<path d="M118.93 73.3481C119.794 73.4494 120.668 73.3797 121.505 73.1428C122.341 72.9059 123.123 72.5065 123.804 71.9675C124.486 71.4285 125.055 70.7604 125.479 70.0013C125.903 69.2423 126.172 68.4072 126.273 67.5439L126.852 62.6251C127.057 60.8813 126.56 59.1278 125.472 57.7503C124.383 56.3727 122.792 55.484 121.048 55.2796C119.304 55.0753 117.551 55.572 116.173 56.6605C114.796 57.749 113.907 59.3401 113.703 61.0838L113.126 66.0026C113.025 66.8661 113.095 67.741 113.331 68.5775C113.568 69.414 113.968 70.1957 114.507 70.8778C115.046 71.5599 115.714 72.1291 116.473 72.553C117.232 72.9769 118.067 73.247 118.93 73.3481Z" fill="#F2F7F8" stroke="#15376D" stroke-width="2" stroke-linecap="round" stroke-linejoin="round"/>
</svg>
