<svg width="37" height="36" viewBox="0 0 37 36" fill="none" xmlns="http://www.w3.org/2000/svg">
<path d="M36.6665 10.8947C36.6665 8.46379 33.7397 2.69053 32.8433 0.979579C32.6878 0.682751 32.4594 0.435286 32.1821 0.262989C31.9047 0.0906909 31.5885 -0.000128529 31.2665 1.55251e-07H6.0665C5.7476 -0.000135715 5.43439 0.0889129 5.15892 0.258035C4.88345 0.427157 4.6556 0.670279 4.4987 0.962526C3.6005 2.63937 0.666504 8.30842 0.666504 10.8947C0.667289 11.7222 0.82717 12.5409 1.13652 13.3015C1.44586 14.0622 1.89828 14.7491 2.4665 15.3208V34.1053C2.4665 34.6078 2.65615 35.0897 2.99371 35.445C3.33128 35.8004 3.78911 36 4.2665 36H7.8665C8.34389 36 8.80173 35.8004 9.1393 35.445C9.47686 35.0897 9.6665 34.6078 9.6665 34.1053V22.7368H16.8665V34.1053C16.8665 34.6078 17.0561 35.0897 17.3937 35.445C17.7313 35.8004 18.1891 36 18.6665 36H33.0665C33.5439 36 34.0017 35.8004 34.3393 35.445C34.6769 35.0897 34.8665 34.6078 34.8665 34.1053V15.2413C35.4252 14.6784 35.872 14.0044 36.181 13.2582C36.49 12.512 36.655 11.7086 36.6665 10.8947ZM7.1303 3.78947H30.1865C31.4294 6.01948 32.3972 8.40714 33.0665 10.8947C33.0296 11.5101 32.7806 12.0902 32.3664 12.5262C31.9522 12.9622 31.4011 13.2243 30.8165 13.2632C30.2201 13.2622 29.6483 13.0123 29.2266 12.5684C28.8048 12.1244 28.5675 11.5226 28.5665 10.8947C28.5665 10.3922 28.3769 9.91029 28.0393 9.55496C27.7017 9.19962 27.2439 9 26.7665 9C26.2891 9 25.8313 9.19962 25.4937 9.55496C25.1561 9.91029 24.9665 10.3922 24.9665 10.8947C24.9665 11.5229 24.7295 12.1253 24.3075 12.5695C23.8855 13.0136 23.3132 13.2632 22.7165 13.2632C22.1198 13.2632 21.5475 13.0136 21.1255 12.5695C20.7036 12.1253 20.4665 11.5229 20.4665 10.8947C20.4665 10.3922 20.2769 9.91029 19.9393 9.55496C19.6017 9.19962 19.1439 9 18.6665 9C18.1891 9 17.7313 9.19962 17.3937 9.55496C17.0561 9.91029 16.8665 10.3922 16.8665 10.8947C16.8665 11.5229 16.6295 12.1253 16.2075 12.5695C15.7855 13.0136 15.2132 13.2632 14.6165 13.2632C14.0198 13.2632 13.4475 13.0136 13.0255 12.5695C12.6036 12.1253 12.3665 11.5229 12.3665 10.8947C12.3665 10.3922 12.1769 9.91029 11.8393 9.55496C11.5017 9.19962 11.0439 9 10.5665 9C10.0891 9 9.63128 9.19962 9.29371 9.55496C8.95615 9.91029 8.7665 10.3922 8.7665 10.8947C8.76555 11.5226 8.52819 12.1244 8.10644 12.5684C7.68469 13.0123 7.11295 13.2622 6.5165 13.2632C5.92209 13.2553 5.35412 13.0032 4.93377 12.5608C4.51342 12.1183 4.27397 11.5204 4.2665 10.8947C4.90417 8.39824 5.86796 6.007 7.1303 3.78947ZM28.5665 26.5263C28.5665 26.7776 28.4717 27.0185 28.3029 27.1962C28.1341 27.3739 27.9052 27.4737 27.6665 27.4737H22.2665C22.0278 27.4737 21.7989 27.3739 21.6301 27.1962C21.4613 27.0185 21.3665 26.7776 21.3665 26.5263V20.8421C21.3665 20.5908 21.4613 20.3499 21.6301 20.1722C21.7989 19.9945 22.0278 19.8947 22.2665 19.8947H27.6665C27.9052 19.8947 28.1341 19.9945 28.3029 20.1722C28.4717 20.3499 28.5665 20.5908 28.5665 20.8421V26.5263Z" fill="$primary"/>
</svg>
