<svg width="44" height="48" viewBox="0 0 44 48" fill="none" xmlns="http://www.w3.org/2000/svg">
<path d="M39.1111 2.4H31.0982C30.6725 1.6727 30.0595 1.0681 29.3207 0.646854C28.5819 0.225608 27.7432 0.00252947 26.8889 0H17.1111C16.2568 0.00252947 15.4181 0.225608 14.6793 0.646854C13.9405 1.0681 13.3275 1.6727 12.9018 2.4H4.88889C3.59227 2.4 2.34877 2.90571 1.43192 3.80589C0.515078 4.70606 0 5.92696 0 7.2V43.2C0 44.473 0.515078 45.6939 1.43192 46.5941C2.34877 47.4943 3.59227 48 4.88889 48H39.1111C40.4077 48 41.6512 47.4943 42.5681 46.5941C43.4849 45.6939 44 44.473 44 43.2V7.2C44 5.92696 43.4849 4.70606 42.5681 3.80589C41.6512 2.90571 40.4077 2.4 39.1111 2.4ZM17.1111 4.8H26.8889V12H17.1111V4.8ZM31.0444 24.6936L21.3278 33.9504C20.8716 34.3851 20.2609 34.6283 19.6252 34.6283C18.9895 34.6283 18.3788 34.3851 17.9227 33.9504L12.9556 29.2368C12.7251 29.0162 12.5411 28.7531 12.4142 28.4627C12.2872 28.1723 12.2198 27.8602 12.2157 27.5441C12.2116 27.2281 12.2709 26.9144 12.3903 26.6209C12.5097 26.3274 12.6868 26.0599 12.9116 25.8336C13.1363 25.6073 13.4042 25.4267 13.7 25.302C13.9958 25.1774 14.3137 25.1112 14.6356 25.1072C14.9574 25.1032 15.2769 25.1614 15.5759 25.2787C15.8748 25.3959 16.1473 25.5698 16.3778 25.7904L19.624 28.884L27.6418 21.2496C27.8699 21.0199 28.1426 20.8374 28.4437 20.713C28.7449 20.5885 29.0684 20.5246 29.3951 20.525C29.7219 20.5254 30.0452 20.5901 30.3461 20.7153C30.6469 20.8405 30.9191 21.0237 31.1466 21.2539C31.3741 21.4842 31.5523 21.7569 31.6706 22.056C31.7889 22.355 31.845 22.6743 31.8354 22.995C31.8259 23.3156 31.751 23.6312 31.6152 23.9229C31.4793 24.2147 31.2852 24.4767 31.0444 24.6936Z" fill="$primary"/>
</svg>
