<svg width="30" height="36" viewBox="0 0 30 36" fill="none" xmlns="http://www.w3.org/2000/svg">
<path d="M15.0003 6.86363e-06C12.2655 -0.00255719 9.58215 0.71332 7.24092 2.07008C4.89969 3.42684 2.98985 5.37275 1.71831 7.69699C0.446782 10.0212 -0.137961 12.6352 0.0274368 15.2556C0.192835 17.8761 1.10207 20.4031 2.65663 22.563C2.71885 22.6804 2.79431 22.7908 2.88164 22.8924L3.10665 23.1552C3.31665 23.4162 3.53229 23.6682 3.71792 23.8752L13.5527 35.3484C13.7291 35.5527 13.9503 35.7171 14.2005 35.8297C14.4508 35.9424 14.7239 36.0005 15.0003 36C15.2774 36.0001 15.5512 35.9413 15.8018 35.8277C16.0524 35.7141 16.2737 35.5485 16.4497 35.343L25.9976 24.174C26.3843 23.7748 26.7462 23.3541 27.0814 22.914L27.3195 22.635C27.4103 22.5292 27.4871 22.4132 27.5483 22.2894C29.0301 20.1174 29.8726 17.6013 29.9867 15.0072C30.1007 12.4132 29.4821 9.83788 28.1962 7.55376C26.9103 5.26964 25.0051 3.36174 22.6821 2.032C20.3591 0.702267 17.7049 0.000163184 15.0003 6.86363e-06ZM15.0003 9C16.1128 9 17.2004 9.31671 18.1255 9.91007C19.0506 10.5034 19.7716 11.3468 20.1973 12.3335C20.6231 13.3202 20.7345 14.406 20.5174 15.4535C20.3004 16.501 19.7646 17.4632 18.9779 18.2184C18.1912 18.9736 17.1889 19.4879 16.0977 19.6962C15.0065 19.9046 13.8755 19.7977 12.8476 19.389C11.8197 18.9802 10.9412 18.2881 10.3231 17.4001C9.70495 16.5121 9.37503 15.468 9.37503 14.4C9.37503 12.9678 9.96769 11.5943 11.0226 10.5816C12.0776 9.56893 13.5084 9 15.0003 9Z" fill="#4600C7"/>
</svg>
