<svg width="136" height="38" viewBox="0 0 136 38" fill="none" xmlns="http://www.w3.org/2000/svg">
<path d="M53.0489 14.6008C51.3144 14.6008 50.4564 15.9657 50.0626 16.8461C49.8427 17.3377 49.7812 17.7264 49.6028 17.7264C49.3514 17.7264 49.5314 17.3886 49.3257 16.6394C49.0551 15.6537 48.2393 14.6008 46.5061 14.6008C44.6838 14.6008 43.9036 16.1404 43.5336 16.9864C43.2806 17.5648 43.2803 17.7264 43.0857 17.7264C42.8038 17.7264 43.0374 17.267 43.1642 16.7269C43.4141 15.6635 43.2241 14.8508 43.2241 14.8508H40.3354V25.7129H44.2783C44.2783 25.7129 44.2783 21.1734 44.2783 20.3085C44.2783 19.2426 44.7243 17.89 45.4886 17.89C46.3717 17.89 46.5485 18.5681 46.5485 19.8241C46.5485 20.9627 46.5485 25.7153 46.5485 25.7153H50.5072C50.5072 25.7153 50.5072 21.1482 50.5072 20.3085C50.5072 19.3597 50.8944 17.89 51.7233 17.89C52.6187 17.89 52.7772 18.8428 52.7772 19.8241C52.7772 20.8053 52.7772 25.7129 52.7772 25.7129H56.6648C56.6648 25.7129 56.6648 21.409 56.6648 19.3253C56.6648 16.4907 55.6656 14.6008 53.0489 14.6008Z" fill="#4B5563"/>
<path d="M119.975 14.6009C118.24 14.6009 117.382 15.9658 116.988 16.8462C116.769 17.3378 116.707 17.7265 116.529 17.7265C116.277 17.7265 116.446 17.2974 116.252 16.6395C115.963 15.659 115.244 14.6009 113.432 14.6009C111.61 14.6009 110.829 16.1405 110.46 16.9865C110.207 17.5649 110.206 17.7265 110.012 17.7265C109.73 17.7265 109.963 17.2671 110.09 16.727C110.34 15.6636 110.15 14.8509 110.15 14.8509H107.261V25.713H111.204C111.204 25.713 111.204 21.1735 111.204 20.3087C111.204 19.2427 111.65 17.8901 112.415 17.8901C113.297 17.8901 113.474 18.5683 113.474 19.8242C113.474 20.9628 113.474 25.7154 113.474 25.7154H117.433C117.433 25.7154 117.433 21.1483 117.433 20.3087C117.433 19.3599 117.82 17.8901 118.649 17.8901C119.545 17.8901 119.703 18.8429 119.703 19.8242C119.703 20.8055 119.703 25.713 119.703 25.713H123.591C123.591 25.713 123.591 21.4092 123.591 19.3255C123.591 16.4908 122.592 14.6009 119.975 14.6009Z" fill="#4B5563"/>
<path d="M62.4399 23.1743C61.497 23.392 61.0082 23.1016 61.0082 22.4767C61.0082 21.6206 61.8937 21.2777 63.1576 21.2777C63.7148 21.2777 64.2387 21.3259 64.2387 21.3259C64.2387 21.6924 63.4432 22.9428 62.4399 23.1743ZM63.3998 14.6032C60.3794 14.6032 58.2122 15.7137 58.2122 15.7137V18.9776C58.2122 18.9776 60.6056 17.6016 62.5471 17.6016C64.0968 17.6016 64.2872 18.4374 64.2166 19.1311C64.2166 19.1311 63.7698 19.0128 62.4058 19.0128C59.1922 19.0128 57.5698 20.4734 57.5698 22.8154C57.5698 25.0369 59.3931 25.9655 60.9292 25.9655C63.1707 25.9655 64.156 24.4593 64.4588 23.7446C64.6689 23.2489 64.7072 22.9147 64.8959 22.9147C65.111 22.9147 65.0386 23.1544 65.0282 23.6478C65.01 24.5119 65.0506 25.1651 65.1876 25.7153H68.1595V20.3697C68.1595 17.0322 66.9786 14.6032 63.3998 14.6032Z" fill="#4B5563"/>
<path d="M74.6519 25.7154H78.5949V11.5627H74.6519V25.7154Z" fill="#4B5563"/>
<path d="M82.9372 20.2843C82.9372 19.3076 83.8444 18.419 85.5102 18.419C87.3252 18.419 88.7851 19.2929 89.1125 19.4913V15.7137C89.1125 15.7137 87.9592 14.6032 85.1245 14.6032C82.1364 14.6032 79.6479 16.3518 79.6479 20.1152C79.6479 23.8787 81.9062 25.9655 85.1165 25.9655C87.6241 25.9655 89.1189 24.5877 89.1189 24.5877V20.9995C88.646 21.2642 87.3282 22.1786 85.5283 22.1786C83.6224 22.1786 82.9372 21.3019 82.9372 20.2843Z" fill="#4B5563"/>
<path d="M97.0991 14.6033C94.8165 14.6033 93.9484 16.7664 93.7731 17.142C93.5977 17.5175 93.5111 17.7336 93.3675 17.729C93.1184 17.7208 93.2921 17.2679 93.3892 16.9746C93.5728 16.4206 93.9618 14.9668 93.9618 13.1801C93.9618 11.9683 93.7979 11.5627 93.7979 11.5627H90.394V25.7155H94.3371C94.3371 25.7155 94.3371 21.1914 94.3371 20.3113C94.3371 19.4308 94.6884 17.8926 95.6817 17.8926C96.5044 17.8926 96.762 18.5022 96.762 19.7298C96.762 20.9572 96.762 25.7155 96.762 25.7155H100.705C100.705 25.7155 100.705 22.405 100.705 19.966C100.705 17.1778 100.243 14.6033 97.0991 14.6033Z" fill="#4B5563"/>
<path d="M101.984 14.8657V25.7153H105.927V14.8657C105.927 14.8657 105.264 15.2533 103.959 15.2533C102.655 15.2533 101.984 14.8657 101.984 14.8657Z" fill="#4B5563"/>
<path d="M103.944 11.4528C102.611 11.4528 101.531 12.1581 101.531 13.0282C101.531 13.8981 102.611 14.6034 103.944 14.6034C105.277 14.6034 106.358 13.8981 106.358 13.0282C106.358 12.1581 105.277 11.4528 103.944 11.4528Z" fill="#4B5563"/>
<path d="M69.4331 14.8657V25.7153H73.376V14.8657C73.376 14.8657 72.7133 15.2533 71.4086 15.2533C70.104 15.2533 69.4331 14.8657 69.4331 14.8657Z" fill="#4B5563"/>
<path d="M71.3935 11.4527C70.0606 11.4527 68.98 12.158 68.98 13.028C68.98 13.898 70.0606 14.6032 71.3935 14.6032C72.7265 14.6032 73.8072 13.898 73.8072 13.028C73.8072 12.158 72.7265 11.4527 71.3935 11.4527Z" fill="#4B5563"/>
<path d="M130.342 23.3812C129.438 23.3812 128.773 22.2344 128.773 20.6365C128.773 19.0848 129.456 17.8925 130.311 17.8925C131.408 17.8925 131.876 18.8987 131.876 20.6365C131.876 22.4444 131.445 23.3812 130.342 23.3812ZM131.425 14.6009C129.398 14.6009 128.469 16.1208 128.065 16.9865C127.798 17.5587 127.812 17.7265 127.617 17.7265C127.335 17.7265 127.569 17.2671 127.696 16.727C127.945 15.6636 127.756 14.8509 127.756 14.8509H124.867V28.7129H128.81C128.81 28.7129 128.81 26.4446 128.81 24.318C129.276 25.1095 130.141 25.9552 131.473 25.9552C134.324 25.9552 135.759 23.5428 135.759 20.2835C135.759 16.5892 134.041 14.6009 131.425 14.6009Z" fill="#4B5563"/>
<path d="M26.408 17.8818C26.6732 17.8502 26.9272 17.8487 27.1607 17.8818C27.2957 17.572 27.319 17.0378 27.1974 16.4562C27.0168 15.5916 26.7724 15.0684 26.2672 15.1498C25.7621 15.2313 25.7434 15.8577 25.924 16.7222C26.0256 17.2085 26.2065 17.6242 26.408 17.8818Z" fill="#4B5563"/>
<path d="M22.0703 18.5658C22.4317 18.7245 22.6539 18.8296 22.7408 18.7377C22.7967 18.6804 22.7801 18.5711 22.6938 18.4301C22.5154 18.1388 22.1483 17.8436 21.759 17.6776C20.9628 17.3349 20.0133 17.449 19.2807 17.9753C19.039 18.1525 18.8097 18.3979 18.8425 18.5469C18.8532 18.5951 18.8894 18.6315 18.9742 18.6433C19.1736 18.6662 19.8703 18.3138 20.6729 18.2647C21.2394 18.2301 21.7088 18.4072 22.0703 18.5658Z" fill="#4B5563"/>
<path d="M21.341 18.9808C20.8701 19.0551 20.6105 19.2103 20.4438 19.3546C20.3016 19.4789 20.2136 19.6164 20.2144 19.713C20.2147 19.759 20.2347 19.7856 20.2504 19.7989C20.2719 19.8177 20.2972 19.8283 20.3278 19.8283C20.4341 19.8283 20.6723 19.7326 20.6723 19.7326C21.3275 19.4981 21.7596 19.5266 22.1879 19.5754C22.4246 19.6019 22.5364 19.6166 22.5883 19.5355C22.6037 19.5122 22.6222 19.4618 22.5749 19.385C22.4646 19.2062 21.9893 18.9038 21.3409 18.9807" fill="#4B5563"/>
<path d="M24.9423 20.5038C25.2619 20.6608 25.6138 20.5991 25.7284 20.366C25.8429 20.133 25.6767 19.8167 25.357 19.6595C25.0374 19.5026 24.6855 19.5642 24.5708 19.7973C24.4564 20.0304 24.6226 20.3466 24.9423 20.5038Z" fill="#4B5563"/>
<path d="M26.9963 18.708C26.7367 18.7035 26.5214 18.9887 26.5153 19.3448C26.5092 19.701 26.7149 19.9931 26.9745 19.9976C27.2342 20.002 27.4497 19.7169 27.4556 19.3608C27.4617 19.0046 27.256 18.7123 26.9963 18.708Z" fill="#4B5563"/>
<path d="M9.55611 25.1291C9.49151 25.0481 9.38539 25.0728 9.28263 25.0967C9.21085 25.1136 9.12952 25.1323 9.04036 25.1309C8.84938 25.1271 8.68764 25.0456 8.59681 24.906C8.47851 24.7244 8.48535 24.4535 8.61598 24.1435C8.63355 24.1015 8.65432 24.0551 8.67691 24.0046C8.88511 23.5373 9.23372 22.7552 8.84237 22.01C8.54779 21.4491 8.0674 21.0997 7.4898 21.0265C6.93531 20.9562 6.36442 21.1617 6.00028 21.5635C5.42581 22.1973 5.33602 23.0598 5.44713 23.3645C5.48786 23.476 5.55151 23.5069 5.59781 23.5133C5.69552 23.5263 5.84005 23.4553 5.9306 23.2117C5.93708 23.1942 5.9457 23.167 5.9565 23.1325C5.9969 23.0037 6.07201 22.7639 6.19505 22.5717C6.3434 22.3399 6.57448 22.1804 6.84569 22.1222C7.12201 22.0631 7.40442 22.1159 7.64082 22.2707C8.04331 22.5339 8.19826 23.027 8.02644 23.4975C7.93765 23.7409 7.79334 24.2061 7.82521 24.5885C7.88951 25.3622 8.36543 25.6731 8.79306 25.7061C9.20883 25.7217 9.49938 25.4884 9.5729 25.3177C9.61629 25.2169 9.57967 25.1555 9.55613 25.1291" fill="#4B5563"/>
<path d="M13.5071 10.9172C14.8631 9.35031 16.5324 7.98807 18.0277 7.22315C18.0794 7.19659 18.1343 7.25283 18.1063 7.30353C17.9875 7.51856 17.759 7.97902 17.6864 8.32826C17.6752 8.38268 17.7343 8.42361 17.7803 8.39232C18.7106 7.75821 20.3289 7.07871 21.7484 6.99137C21.8094 6.98759 21.8389 7.06581 21.7904 7.10304C21.5744 7.26868 21.3384 7.4978 21.1659 7.72959C21.1365 7.76902 21.1642 7.82583 21.2133 7.82613C22.21 7.83323 23.6152 8.18204 24.531 8.69573C24.593 8.73041 24.5488 8.85041 24.4796 8.83454C23.0939 8.51704 20.8257 8.27605 18.4696 8.85072C16.3661 9.36383 14.7607 10.1559 13.5895 11.0077C13.5303 11.0508 13.4592 10.9727 13.5071 10.9172L13.5071 10.9172ZM20.2606 26.0989C20.2607 26.0992 20.2609 26.0997 20.261 26.0997C20.2613 26.1001 20.2614 26.101 20.2618 26.1014C20.2614 26.1005 20.261 26.0997 20.2606 26.0989ZM25.8525 26.759C25.8927 26.7421 25.9204 26.6962 25.9157 26.6507C25.9101 26.5946 25.8601 26.5538 25.804 26.5596C25.804 26.5596 22.9102 26.9879 20.1765 25.9872C20.4743 25.0194 21.266 25.3688 22.4628 25.4655C24.6199 25.5941 26.5531 25.279 27.9819 24.8688C29.22 24.5136 30.8461 23.813 32.1091 22.8161C32.5352 23.752 32.6856 24.7817 32.6856 24.7817C32.6856 24.7817 33.0154 24.7228 33.2909 24.8923C33.5513 25.0526 33.7423 25.3857 33.6118 26.2471C33.3462 27.8562 32.6623 29.1621 31.5128 30.3636C30.813 31.1168 29.9636 31.7717 28.9917 32.2478C28.4754 32.5189 27.9258 32.7536 27.3453 32.943C23.0118 34.3584 18.5761 32.8024 17.1462 29.4611C17.0322 29.2098 16.9356 28.9469 16.8595 28.6718C16.2502 26.4699 16.7674 23.8282 18.3845 22.1653C18.3846 22.1652 18.3843 22.1645 18.3845 22.1645C18.4841 22.0586 18.5858 21.9339 18.5858 21.777C18.5858 21.6457 18.5025 21.5072 18.4301 21.4091C17.8644 20.5885 15.9048 19.1903 16.2981 16.4843C16.5806 14.5403 18.2807 13.1712 19.8658 13.2523C19.9997 13.2593 20.1339 13.2675 20.2675 13.2753C20.9544 13.3161 21.5537 13.4042 22.1192 13.4278C23.0656 13.4687 23.9167 13.3311 24.9246 12.4913C25.2647 12.2079 25.5372 11.9623 25.9986 11.8842C26.0471 11.8758 26.1676 11.8326 26.4088 11.844C26.6548 11.857 26.8891 11.9247 27.0995 12.0648C27.9078 12.6025 28.0222 13.9049 28.0642 14.8577C28.0881 15.4015 28.1539 16.7173 28.1763 17.095C28.2278 17.9587 28.4548 18.0804 28.9141 18.2317C29.1724 18.3168 29.4122 18.3801 29.7656 18.4793C30.8353 18.7796 31.4695 19.0844 31.8692 19.4757C32.1077 19.7203 32.2186 19.9803 32.2528 20.2281C32.3789 21.1482 31.5383 22.2849 29.3133 23.3178C26.8809 24.4466 23.9302 24.7325 21.8914 24.5055C21.7351 24.4882 21.179 24.4252 21.177 24.4248C19.5462 24.2052 18.616 26.3128 19.5947 27.7567C20.2256 28.6873 21.9437 29.293 23.6628 29.2933C27.6043 29.2937 30.6339 27.6105 31.7608 26.1569C31.7946 26.1135 31.7979 26.1087 31.851 26.0284C31.9064 25.9448 31.8607 25.8987 31.7916 25.9461C30.8709 26.576 26.7813 29.0772 22.4069 28.3247C22.4069 28.3247 21.8754 28.2373 21.3901 28.0486C21.0046 27.8986 20.1975 27.5273 20.0995 26.6994C23.6297 27.7911 25.8525 26.759 25.8525 26.759V26.759ZM6.46244 18.3694C5.23471 18.6082 4.15261 19.304 3.49095 20.2651C3.09542 19.9353 2.35862 19.2967 2.22852 19.0478C1.17209 17.042 3.38141 13.142 4.92479 10.9395C8.73902 5.4964 14.7129 1.37643 17.4784 2.12399C17.928 2.25123 19.4169 3.97754 19.4169 3.97754C19.4169 3.97754 16.6527 5.51137 14.089 7.64936C10.6348 10.309 8.02557 14.1747 6.46244 18.3694ZM8.5255 27.5741C8.33966 27.6059 8.15013 27.6185 7.95896 27.6139C6.11169 27.5643 4.11629 25.9012 3.918 23.929C3.69885 21.7491 4.81271 20.0714 6.78487 19.6735C7.02064 19.6261 7.30558 19.5986 7.61284 19.6146C8.71782 19.6751 10.3462 20.5235 10.7182 22.9308C11.0477 25.0628 10.5244 27.2332 8.5255 27.5741V27.5741ZM33.5494 23.714C33.5335 23.6581 33.4305 23.2812 33.2888 22.8272C33.1472 22.3729 33.0005 22.0534 33.0005 22.0534C33.5687 21.2027 33.5788 20.4421 33.5033 20.0112C33.4226 19.4772 33.2003 19.022 32.7521 18.5517C32.304 18.0813 31.3875 17.5994 30.0994 17.2377C29.9522 17.1964 29.4663 17.0631 29.4236 17.0501C29.4203 17.0223 29.388 15.4569 29.3588 14.7849C29.3375 14.2991 29.2958 13.5407 29.0605 12.7938C28.78 11.7827 28.2914 10.8979 27.6816 10.3319C29.3646 8.58733 30.4153 6.66541 30.4128 5.01666C30.4079 1.84593 26.5139 0.886606 21.7152 2.87363C21.7102 2.87569 20.7057 3.30161 20.6985 3.30517C20.6939 3.30087 18.8603 1.50174 18.8328 1.47772C13.3616 -3.29446 -3.74463 15.7195 1.72455 20.3374L2.91978 21.35C2.60975 22.1532 2.48792 23.0734 2.58744 24.0629C2.71517 25.3338 3.37075 26.5521 4.43334 27.4933C5.44203 28.3871 6.76824 28.9527 8.05523 28.9517C10.1835 33.8563 15.0464 36.8651 20.7482 37.0344C26.8643 37.216 31.9985 34.3461 34.1498 29.1908C34.2906 28.829 34.8878 27.1988 34.8878 25.7598C34.8878 24.3134 34.0701 23.714 33.5494 23.714Z" fill="#4B5563"/>
</svg>
