<svg width="151" height="33" viewBox="0 0 151 33" fill="none" xmlns="http://www.w3.org/2000/svg">
<path d="M150.905 15.3556V12.7165H147.628V8.61493L147.518 8.65009L144.442 9.58759H144.383V12.6931H139.527V10.9587C139.527 10.1618 139.714 9.54071 140.066 9.13055C140.417 8.7204 140.933 8.51532 141.566 8.51532C142.035 8.51532 142.527 8.63251 142.996 8.84344L143.113 8.89032V6.12352L143.066 6.10009C142.621 5.94188 142.011 5.85985 141.261 5.85985C140.312 5.85985 139.445 6.07079 138.683 6.48563C137.921 6.88407 137.324 7.48173 136.914 8.23173C136.492 8.98173 136.281 9.84891 136.281 10.7981V12.6966H134.007V15.3333H136.292V26.4427H139.562V15.3333H144.422V22.388C144.422 25.2942 145.788 26.7708 148.5 26.7708C148.945 26.7708 149.414 26.7145 149.883 26.6184C150.369 26.513 150.703 26.4075 150.891 26.302L150.937 26.2786V23.6184L150.805 23.7075C150.629 23.8247 150.407 23.9266 150.149 23.997C149.891 24.0673 149.668 24.1141 149.502 24.1141C148.869 24.1141 148.4 23.9501 148.112 23.6138C147.814 23.2798 147.667 22.688 147.667 21.8559V15.3638H150.925L150.917 15.3474L150.905 15.3556ZM126.658 24.1212C125.471 24.1212 124.534 23.7263 123.869 22.9493C123.21 22.17 122.873 21.0579 122.873 19.6446C122.873 18.1868 123.21 17.0431 123.873 16.2509C124.534 15.4634 125.462 15.0626 126.634 15.0626C127.771 15.0626 128.661 15.4446 129.317 16.1993C129.974 16.9587 130.302 18.0907 130.302 19.5649C130.302 21.0579 129.997 22.2052 129.388 22.9716C128.778 23.7333 127.864 24.12 126.669 24.12L126.658 24.1212ZM126.81 12.386C124.548 12.386 122.746 13.0493 121.461 14.3595C120.184 15.672 119.53 17.4837 119.53 19.7501C119.53 21.9063 120.163 23.6348 121.42 24.8946C122.674 26.1602 124.382 26.8165 126.491 26.8165C128.685 26.8165 130.452 26.1368 131.732 24.8184C133.021 23.4919 133.66 21.6942 133.66 19.4829C133.66 17.2962 133.051 15.5501 131.844 14.3032C130.637 13.0446 128.945 12.4095 126.805 12.4095L126.81 12.386ZM114.242 12.4095C112.696 12.4095 111.425 12.8032 110.446 13.5813C109.471 14.3641 108.969 15.386 108.969 16.6282C108.969 17.2774 109.079 17.847 109.292 18.3391C109.503 18.8243 109.832 19.2532 110.27 19.6141C110.703 19.9657 111.371 20.3407 112.262 20.7251C113.012 21.0298 113.563 21.2876 113.919 21.4985C114.271 21.6942 114.519 21.897 114.646 22.0927C114.786 22.2802 114.857 22.5497 114.857 22.8661C114.857 23.7966 114.167 24.2442 112.747 24.2442C112.217 24.2442 111.615 24.1341 110.957 23.9161C110.292 23.7005 109.676 23.3888 109.12 22.988L108.98 22.8942V26.0348L109.026 26.0583C109.495 26.2692 110.073 26.4567 110.761 26.5974C111.446 26.7497 112.073 26.82 112.612 26.82C114.288 26.82 115.636 26.4216 116.62 25.6434C117.605 24.8559 118.108 23.8036 118.108 22.5216C118.108 21.5958 117.839 20.7989 117.306 20.1602C116.778 19.5204 115.864 18.9368 114.583 18.4212C113.572 18.011 112.919 17.6712 112.638 17.4134C112.38 17.1602 112.26 16.804 112.26 16.354C112.26 15.9556 112.424 15.6345 112.758 15.3766C113.093 15.113 113.562 14.9817 114.148 14.9817C114.692 14.9817 115.249 15.0638 115.812 15.2337C116.362 15.4071 116.849 15.6321 117.253 15.9087L117.39 16.0024V13.0024L117.343 12.979C116.962 12.8149 116.468 12.6778 115.867 12.5688C115.269 12.4552 114.726 12.4048 114.255 12.4048L114.242 12.4095ZM100.427 24.1352C99.2436 24.1352 98.3062 23.7438 97.6499 22.9634C96.9819 22.1899 96.6479 21.0766 96.6479 19.6587C96.6479 18.2056 96.9831 17.0571 97.6487 16.2684C98.305 15.4809 99.2355 15.0802 100.403 15.0802C101.539 15.0802 102.442 15.4622 103.092 16.2169C103.739 16.9786 104.076 18.1106 104.076 19.5849C104.076 21.0755 103.76 22.2216 103.151 22.9891C102.553 23.7509 101.639 24.1376 100.432 24.1376L100.427 24.1352ZM100.596 12.4071C98.3226 12.4071 96.5179 13.0681 95.2405 14.3782C93.955 15.6907 93.3069 17.5013 93.3069 19.7688C93.3069 21.9251 93.9397 23.6524 95.1854 24.9134C96.4417 26.179 98.1456 26.8352 100.254 26.8352C102.457 26.8352 104.215 26.1556 105.504 24.8313C106.786 23.5024 107.437 21.7048 107.437 19.4934C107.437 17.3056 106.828 15.5595 105.633 14.3138C104.426 13.054 102.731 12.4188 100.594 12.4188L100.596 12.4071ZM88.3616 15.1235V12.7329H85.1272V26.479H88.3616V19.4477C88.3616 18.2524 88.6311 17.2681 89.1667 16.5239C89.694 15.7833 90.3972 15.4224 91.2526 15.4224C91.5456 15.4224 91.8737 15.4692 92.2347 15.563C92.5862 15.6567 92.8394 15.7505 92.9847 15.8677L93.1253 15.9614V12.7036L93.0737 12.6802C92.769 12.5442 92.3472 12.4786 91.8081 12.4786C90.9995 12.4786 90.2729 12.7411 89.6495 13.252C89.0987 13.7067 88.7038 14.3255 88.4015 15.0989H88.3429L88.3722 15.1224L88.3616 15.1235ZM79.3147 12.4048C77.8265 12.4048 76.5022 12.7153 75.3772 13.3423C74.2429 13.9751 73.3733 14.8657 72.7757 16.0141C72.1898 17.1509 71.8851 18.4809 71.8851 19.9634C71.8851 21.2641 72.1804 22.4524 72.7523 23.5048C73.3312 24.5595 74.1468 25.3798 75.178 25.954C76.2022 26.52 77.3929 26.8095 78.7101 26.8095C80.2476 26.8095 81.5577 26.5048 82.6124 25.8954L82.6593 25.872V22.9048L82.5187 23.002C82.0417 23.3536 81.5108 23.629 80.9366 23.8282C80.3647 24.0274 79.8444 24.1282 79.3897 24.1282C78.1171 24.1282 77.0999 23.7298 76.3593 22.9505C75.6093 22.1536 75.2343 21.052 75.2343 19.6692C75.2343 18.263 75.6327 17.138 76.4015 16.3177C77.1749 15.4739 78.1921 15.052 79.4366 15.052C80.4913 15.052 81.5308 15.4153 82.5104 16.1184L82.6511 16.2122V13.095L82.6124 13.0716C82.2433 12.8606 81.7417 12.6966 81.1124 12.563C80.496 12.4341 79.889 12.3708 79.3101 12.3708L79.3147 12.4048ZM69.6655 12.6989H66.4358V26.4567H69.6702V12.6989H69.6655ZM68.0718 6.85126C67.5397 6.85126 67.0757 7.03173 66.6936 7.39032C66.3116 7.75126 66.1171 8.2036 66.1171 8.73798C66.1171 9.26532 66.3128 9.71063 66.6913 10.0622C67.0663 10.4138 67.5351 10.5872 68.0741 10.5872C68.6132 10.5872 69.0819 10.4114 69.4628 10.0599C69.8472 9.70829 70.0417 9.26298 70.0417 8.73563C70.0417 8.22001 69.8542 7.77469 69.4792 7.39969C69.1042 7.04813 68.6355 6.86063 68.073 6.86063L68.0718 6.85126ZM59.9987 11.7005V26.4661H63.3034V7.2954H58.7331L52.9405 21.5431L47.3038 7.29305H42.553V26.479H45.6585V11.7192H45.764L51.7171 26.4825H54.055L59.9144 11.7204H60.0257L60.0081 11.7134L59.9987 11.7005ZM17.7292 17.6653H32.9401V32.8891H17.7058L17.7269 17.6759L17.7292 17.6653ZM0.928027 17.6747H16.1366V32.8891H0.92334L0.928027 17.6759V17.6747ZM17.7304 0.873523H32.9413V16.0845H17.721L17.7304 0.868835V0.873523ZM0.928027 0.871179H16.1366V16.0845H0.92334L0.928027 0.868835V0.871179Z" fill="#4B5563"/>
</svg>
