<svg width="12" height="16" viewBox="0 0 12 16" fill="none" xmlns="http://www.w3.org/2000/svg">
<path d="M9.65385 3.78947C9.65385 5.56399 8.06216 7.07895 6 7.07895C3.93784 7.07895 2.34615 5.56399 2.34615 3.78947C2.34615 2.01496 3.93784 0.5 6 0.5C8.06216 0.5 9.65385 2.01496 9.65385 3.78947ZM1.69041 10.0251C2.45925 9.32375 3.51068 8.92226 4.61593 8.92105H7.38407C8.48932 8.92226 9.54075 9.32375 10.3096 10.0251C11.0769 10.7252 11.4987 11.6639 11.5 12.6322V15.1579C11.5 15.233 11.4677 15.3155 11.3927 15.384C11.3161 15.4538 11.2032 15.5 11.0769 15.5H0.923077C0.796811 15.5 0.683908 15.4538 0.607344 15.384C0.532311 15.3155 0.5 15.233 0.5 15.1579V12.6319C0.50136 11.6637 0.923181 10.7251 1.69041 10.0251Z" fill="$primary" stroke="$primary"/>
</svg>
