<svg width="178" height="178" viewBox="0 0 178 178" fill="none" xmlns="http://www.w3.org/2000/svg">
<path d="M21.0788 90.8434C19.2311 101.292 22.8766 120.94 26.6591 130.08C28.3198 134.093 29.3513 134.768 30.1924 135.836C30.4389 136.148 30.163 136.371 29.8649 136.211C20.2662 131.059 15.0357 102.221 17.7475 91.9746C18.6793 88.452 21.1731 89.1942 21.0788 90.8434Z" fill="#AEC7F6"/>
<path d="M165.151 103.053C165.432 110.08 149.597 139.103 143.481 137.646C139.839 136.779 147.881 135.668 163.844 104.724C164.744 102.979 164.84 102.994 165.151 103.053Z" fill="#AEC7F6"/>
<path d="M171.866 115.313C170.928 120.095 170.245 124.405 166.03 131.222C163.575 135.193 160.387 139.454 156.416 141.912C155.491 142.484 154.401 142.833 153.778 141.94C153.159 141.054 153.726 140.297 155.971 137.979C169.539 123.965 171.785 111.672 171.866 115.313Z" fill="#AEC7F6"/>
<path d="M7.49914 104.352C9.82115 104.369 7.86048 108.01 11.6163 122.471C13.0234 127.887 14.6334 130.376 15.2697 131.789C15.4068 132.093 15.0606 132.353 14.8212 132.122C7.38433 124.953 2.50357 104.315 7.49914 104.352Z" fill="#AEC7F6"/>
<path d="M167.756 33.3264C165.435 28.2507 160.757 21.921 157.033 17.7638C156.357 17.0091 154.91 16.1244 155.669 14.9407C156.07 14.3168 156.715 14.3035 157.38 14.4495C159.95 15.0146 163.104 19.6729 164.606 21.9886C169.274 29.1798 169.222 36.533 167.754 33.3255L167.756 33.3264Z" fill="#AEC7F6"/>
<path d="M172.558 21.6075C172.488 22.0872 172.754 22.6078 172.315 22.7306C171.875 22.8535 171.783 22.299 171.617 21.9946C169.249 17.6594 166.209 15.6356 164.731 13.253C163.926 11.9563 164.906 10.4691 166.246 10.7441C167.849 11.0734 171.839 15.4415 172.558 21.6075Z" fill="#AEC7F6"/>
<path d="M27.6621 28.3613C27.323 30.3033 25.0954 32.5942 23.4809 37.1225C21.8638 41.6579 21.9296 41.479 21.6662 41.8368C21.1242 42.5746 17.4387 43.3071 22.8855 33.4112C23.5485 32.207 25.8741 28.3898 27.6621 28.3613Z" fill="#AEC7F6"/>
<path d="M23.3963 24.2413C23.0955 25.7828 21.6973 25.951 16.8219 34.2662C15.6774 36.218 13.1845 33.4688 17.1281 28.9271C18.9312 26.8499 22.4218 23.9636 23.3963 24.2413Z" fill="#AEC7F6"/>
<path d="M31.1491 102.693C31.409 99.5537 31.6083 96.5562 31.7641 93.7001C31.6511 92.1489 31.5852 90.5825 31.5674 89.0009C32.0872 77.6944 31.4784 63.7935 32.315 54.5793C33.7648 38.6083 32.8855 39.5178 37.7538 36.6182C41.9315 34.1307 47.566 31.1305 53.829 28.1632C53.9838 27.8393 54.144 27.5153 54.3105 27.1931C54.6202 26.5906 54.9424 26.0041 55.277 25.4336C51.8906 27.0196 48.2958 28.7951 44.4893 30.7807C38.6767 33.8138 32.2643 36.8425 31.919 40.5227C30.6391 54.1717 30.0669 58.3031 30.0055 65.3198C29.9254 74.5358 29.4198 86.3559 29.7954 93.7108C29.5827 93.7322 29.9832 97.4106 31.1473 102.694L31.1491 102.693Z" fill="#AEC7F6"/>
<path d="M156.676 37.7363C156.507 32.6686 156.519 27.6294 152.526 25.0911C149.302 23.0415 116.493 15.1596 99.1068 13.336C98.1625 13.2372 97.2227 13.1082 96.3015 12.8875C95.4952 12.6934 93.3289 12.729 89.793 13.3512C90.7524 13.8513 91.6958 14.4174 92.6063 15.0448C93.6271 14.9265 94.6105 14.8481 95.5513 14.8143C107.574 15.3074 138.682 22.6339 147.431 25.0146C148.387 25.2745 148.261 25.278 148.356 26.0684C148.933 30.829 149.163 53.613 148.103 67.1721C146.8 83.8445 144.637 109.71 117.527 137.65C106.18 149.345 85.1862 161.744 80.7033 163.024C78.7115 163.593 77.1157 162.752 73.1098 159.883C60.098 150.567 49.087 139.206 41.6759 126.054C40.5625 125.747 39.6565 125.42 38.8804 125.084C39.2587 125.813 39.6494 126.531 40.0543 127.233C39.6458 127.283 46.2336 137.319 54.8363 146.735C64.4216 157.227 74.4511 162.793 77.1727 164.645C80.3651 166.817 84.8329 167.619 87.2955 167.186C93.9119 166.023 107.484 156.558 115.586 150.839C140.807 133.037 157.316 99.8093 156.394 64.018C156.29 59.9907 156.947 45.9875 156.674 37.7372L156.676 37.7363Z" fill="#AEC7F6"/>
<path d="M70.7692 30.5219C74.5811 29.0294 79.3186 27.3384 84.2136 26.0666C83.4331 25.4916 82.5333 25.0564 81.4973 24.793C76.208 26.2686 71.7892 28.0068 69.9585 28.9439C69.6941 29.0427 69.4253 29.1415 69.1521 29.2412C68.3805 30.068 67.664 30.9767 67.0054 31.9486C69.1174 31.1841 70.5467 30.6518 70.7692 30.5219Z" fill="#AEC7F6"/>
<path d="M36.6894 52.5335C37.0454 52.2301 37.4566 51.9639 37.9158 51.7263C38.027 48.2242 38.1205 45.9591 38.1365 45.8585C38.4231 43.9949 38.9322 43.1494 42.3231 41.1994C43.2843 40.6467 46.5337 39.382 50.512 37.9073C50.6864 37.1437 50.8813 36.3622 51.1003 35.5684C43.1953 38.5187 36.6022 41.6132 36.5585 44.4675C36.5238 46.7058 36.3485 49.6259 36.142 53.0604C36.3156 52.8717 36.498 52.6955 36.6894 52.5326V52.5335Z" fill="#AEC7F6"/>
<path d="M121.768 26.2811C116.515 24.4584 106.173 23.0059 102.242 22.5912C101.374 22.431 100.462 22.3242 99.5171 22.2637C99.9043 22.9143 100.254 23.5871 100.562 24.2813C101.195 24.3578 101.811 24.4584 102.408 24.5875C119.565 26.0844 129.984 30.9269 131.384 31.088C137.439 32.5814 138.989 36.8161 138.419 52.448C138.396 53.0817 136.86 72.6688 136.702 74.3127C134.533 96.9667 130.813 103.324 125.384 110.88C116.875 122.726 109.746 134.3 83.506 148.484C80.5085 150.105 78.3022 150.397 75.5868 149.834C75.1685 149.746 70.6384 147.537 68.853 145.99C60.1684 138.467 54.9859 134.345 50.6454 128.25C50.455 127.982 50.2663 127.71 50.0794 127.434C49.1102 127.343 48.2139 127.244 47.3845 127.137C49.516 130.451 52.008 133.522 54.9174 136.264C67.2991 147.933 72.9978 156.336 84.7128 149.873C97.4407 142.85 110.551 133.744 119.308 122.141C136.016 99.9998 137.019 96.7042 139.772 56.7129C141.795 27.3304 138.833 32.2023 121.768 26.282V26.2811Z" fill="#AEC7F6"/>
<path d="M34.6255 121.658C28.213 118.574 32.9861 109.078 33.2077 81.5799C33.2424 77.3008 33.5601 66.2425 34.1342 62.1121C34.7696 57.5401 34.3576 55.7842 37.315 53.2681C39.4172 51.4801 43.8405 51.0841 49.5481 50.0988C50.6775 49.9039 48.5299 15.0079 78.6769 11.7238C79.9888 11.5805 87.1871 12.3077 91.9699 15.7466C96.7617 19.1918 98.588 21.6037 100.089 25.6692C102.864 33.1835 102.743 46.3065 102.6 47.0061C102.511 47.4413 102.785 47.508 103.124 47.5436C106.225 47.8658 107.023 48.8297 108.561 49.9849C122.136 60.1843 116.153 54.9947 117.729 92.583C117.918 97.0837 117.41 109.629 116.934 113.771C115.538 125.913 109.826 125.53 94.882 126.262C39.5516 128.973 40.1105 124.295 34.6272 121.658L34.6255 121.658ZM105.06 83.0716C105.11 78.1855 105.696 68.9642 105.201 55.931C105.112 53.5956 103.409 49.7615 101.297 49.345C96.1779 48.3366 68.9626 49.644 64.0026 50.0481C58.4205 50.5029 54.2517 51.4837 51.361 51.8646C41.4117 53.1773 37.2768 53.3598 36.0628 57.9477C34.8756 62.4333 34.7145 76.8549 34.2944 96.6423C33.7248 123.449 25.5795 120.514 60.383 119.879C64.695 119.801 96.3167 119.055 102.953 117.089C106.424 116.06 104.901 98.5718 105.06 83.0716ZM104.858 49.9021C106.448 51.4027 107.099 53.2548 107.126 55.3783C107.202 61.5398 107.268 67.7021 107.068 73.8654C105.881 110.373 108.669 107.284 105.076 117.547C104.609 118.882 103.66 119.568 102.317 119.76C89.6782 121.571 51.1367 121.816 38.3679 121.816C40.7647 123.015 43.3795 124.459 47.6435 124.504C57.4798 124.606 68.3422 125.939 93.6191 124.679C98.9983 124.411 111.924 124.188 113.99 119.288C116.611 113.077 115.072 86.6316 115.395 65.422C115.466 60.7459 115.801 58.6633 114.455 57.355C112.583 55.5367 106.505 50.2991 104.858 49.9021ZM100.976 47.4529C100.501 39.1679 100.822 31.3937 96.7546 22.9405C94.8108 18.8999 83.2604 9.38133 70.0617 15.4574C59.5383 20.3016 54.3274 32.1591 53.594 36.1445C53.5905 36.1641 50.9694 48.8012 51.596 49.7224C51.9021 49.7784 51.6076 49.7731 59.4992 48.5698C60.0563 48.4853 59.6861 48.0723 59.7635 46.1268C59.9121 42.3888 61.1599 35.9763 63.3609 32.9743C65.035 30.6906 65.4301 27.8631 71.2988 23.9337C74.2945 21.9277 79.2483 21.0323 83.765 22.629C86.6976 23.6658 90.3626 27.71 91.3318 33.6036C91.783 36.3457 92.4256 45.2679 92.4052 46.2273C92.3696 47.8454 92.3553 46.5816 100.978 47.4511L100.976 47.4529ZM61.0772 48.3313C65.5031 48.1328 65.8974 47.7038 80.1347 47.2811C90.6875 46.9678 90.6714 47.7555 90.61 46.2024C90.1259 33.9275 89.3088 30.4165 86.5098 26.9295C84.332 24.2167 80.7737 23.2244 77.7104 23.6231C72.1924 24.3413 69.5544 26.9544 66.5542 30.9122C62.2493 36.5922 60.7434 46.2434 61.0763 48.3322L61.0772 48.3313Z" fill="#AEC7F6"/>
<path d="M61.0158 93.4725C61.1217 87.8833 61.4323 88.0106 60.731 87.6074C55.5245 84.6179 54.6906 77.6866 59.1913 73.7964C64.9211 68.8444 73.158 71.5482 75.1792 77.4498C76.5801 81.5385 74.4663 85.7153 71.2953 87.465C70.8093 87.7329 70.6616 88.0755 70.675 88.6078C70.7604 91.9292 70.4444 95.24 70.3572 98.5571C70.3092 100.385 69.7289 102.476 67.9008 102.507C61.0416 102.623 60.8396 102.79 61.0158 93.4725Z" fill="#AEC7F6"/>
</svg>
