<svg width="45" height="45" viewBox="0 0 45 45" fill="none" xmlns="http://www.w3.org/2000/svg">
<g clip-path="url(#clip0_432_2242)">
<rect width="45" height="45" rx="22.5" fill="#F5F4FF"/>
<path d="M46.205 27.1884C43.3382 27.3067 41.7834 28.2724 37.0699 30.898C36.2693 31.344 35.2605 30.9035 33.7049 30.1661C32.4262 29.5599 31.6874 29.2042 30.4893 28.5545C29.8729 28.2203 28.9501 28.2192 27.9541 29.4352C27.2547 30.2895 26.8041 31.3199 26.6518 32.4134C26.4596 33.4649 26.8747 34.2612 27.7139 34.8526C29.8903 36.3863 32.754 37.7043 35.1206 38.0064C36.6024 38.1954 38.5296 38.0156 39.9458 37.2314C44.4073 34.7608 44.459 34.0963 46.357 33.584C47.6499 33.2351 49.2316 34.226 50.6905 34.6215C51.9221 34.9554 52.9338 34.9617 53.6673 34.2752C54.8383 33.1788 54.1822 31.2813 52.9903 29.8841C51.4334 28.0591 49.0559 27.0708 46.205 27.1884Z" fill="#9CA3AF"/>
<path d="M35.7171 30.1715C35.3132 29.8886 34.8457 29.7098 34.3561 29.6511C33.6889 29.571 33.1084 30.1266 32.5214 30.9988C31.5874 32.3864 31.5659 33.1872 31.5874 34.4947C31.6084 35.7766 32.2027 37.3703 32.5481 37.7772C32.817 38.094 33.2283 38.4319 34.9074 38.7673C36.4778 39.081 37.6089 39.2064 39.7298 38.2934C41.6929 37.4483 42.3221 36.8487 42.4229 36.2697L42.4763 35.7458C42.4763 35.7458 41.0365 36.6981 40.4524 36.0047C39.8684 35.3113 39.2118 32.9163 39.2404 31.1688C39.264 29.7192 40.6341 28.933 40.6341 28.933C40.6341 28.933 40.4441 27.955 39.7017 28.1876C38.2966 28.6817 36.9582 29.348 35.7171 30.1715Z" fill="#6B7280"/>
<path d="M35.5568 34.3606C35.5162 34.3787 35.4723 34.388 35.4279 34.3877C35.3679 34.3873 35.3093 34.3699 35.2589 34.3375C35.2084 34.3051 35.1683 34.2591 35.143 34.2047C34.2843 32.3167 34.5275 31.1023 35.1679 29.8693C35.3612 29.9475 35.5448 30.048 35.7148 30.1687C35.1326 31.2894 34.9517 32.2813 35.7107 33.9468C35.745 34.0221 35.7481 34.108 35.7193 34.1856C35.6904 34.2631 35.632 34.3261 35.5568 34.3606Z" fill="#EB459F"/>
<path d="M35.5568 34.3606C35.5162 34.3787 35.4723 34.388 35.4279 34.3877C35.3679 34.3873 35.3093 34.3699 35.2589 34.3375C35.2084 34.3051 35.1683 34.2591 35.143 34.2047C34.2843 32.3167 34.5275 31.1023 35.1679 29.8693C35.3612 29.9475 35.5448 30.048 35.7148 30.1687C35.1326 31.2894 34.9517 32.2813 35.7107 33.9468C35.745 34.0221 35.7481 34.108 35.7193 34.1856C35.6904 34.2631 35.632 34.3261 35.5568 34.3606Z" fill="#111827"/>
<path d="M20.8283 9.49733C20.9723 9.08711 21.5309 8.07853 21.8303 8.01031C22.0229 7.96647 22.4061 8.061 22.2394 8.32101C22.0591 8.60209 21.3935 9.27826 21.1173 9.60327C21.0053 9.7352 20.7829 9.62647 20.8283 9.49733Z" fill="black"/>
<path d="M14.8335 14.7484C14.443 14.0659 14.4049 13.9612 14.3414 13.904C14.226 13.8001 13.9002 13.5897 13.405 13.139C12.9372 12.7132 12.749 12.1934 13.5383 11.5137C15.3668 9.93921 19.8885 8.88025 21.4235 9.31703C22.9853 9.76145 26.02 12.2248 26.9723 13.9897C27.514 14.9937 26.7437 15.7547 25.2327 16.0848C24.9719 16.1418 24.7883 16.288 24.2296 16.6435L14.8335 14.7484Z" fill="#4B0082"/>
<path d="M19.15 14.1214C19.0913 14.1214 19.034 14.104 18.9852 14.0714C16.6094 12.4834 16.3074 12.396 14.3671 12.7352C14.2899 12.7481 14.2107 12.7299 14.1468 12.6847C14.0829 12.6394 14.0394 12.5708 14.0259 12.4936C14.0124 12.4165 14.0299 12.3371 14.0747 12.2729C14.1194 12.2086 14.1877 12.1646 14.2647 12.1505C16.3808 11.7801 16.8053 11.9001 19.3153 13.578C19.3682 13.6134 19.4084 13.6649 19.4298 13.7249C19.4512 13.7848 19.4528 13.8501 19.4343 13.9111C19.4158 13.972 19.3781 14.0253 19.327 14.0633C19.2758 14.1012 19.2138 14.1216 19.1501 14.1215L19.15 14.1214Z" fill="black"/>
<path d="M24.8881 17.8842C24.565 15.5837 23.3682 14.3674 19.7132 13.5662C15.2403 12.5858 13.1895 15.5896 13.0926 18.515C12.9922 21.5411 14.4998 23.0737 18.7769 23.0352C18.9782 23.0334 19.1788 23.03 19.3789 23.0251C20.1527 25.6301 21.3602 28.086 22.9508 30.2893C24.6032 32.5723 26.8322 34.3755 29.41 35.5145L30.4428 28.4919C27.0912 26.0374 25.5328 21.1502 24.8881 17.8842Z" fill="#9CA3AF"/>
<path d="M20.6619 17.307C20.6619 18.5265 19.1591 18.4262 17.9396 18.4262C16.7201 18.4262 15.7314 18.5266 15.7314 17.307C15.7315 16.7214 15.9641 16.1597 16.3782 15.7456C16.7923 15.3315 17.354 15.0989 17.9396 15.0989C19.159 15.0989 20.6619 16.0875 20.6619 17.307Z" fill="white"/>
<path d="M16.9254 17.67C17.4851 17.67 17.9388 17.2163 17.9388 16.6567C17.9388 16.0971 17.4851 15.6434 16.9254 15.6434C16.3658 15.6434 15.9121 16.0971 15.9121 16.6567C15.9121 17.2163 16.3658 17.67 16.9254 17.67Z" fill="black"/>
<path d="M22.7847 19.8707C22.7847 20.5167 20.8606 21.2655 18.4872 21.2655C16.1137 21.2655 14.6084 20.5167 14.6084 19.8707C14.6084 19.2246 16.1137 19.4638 18.4872 19.4638C20.8606 19.4638 22.7847 19.2247 22.7847 19.8707Z" fill="black"/>
<path d="M16.2324 20.9983C16.9693 21.1842 17.7272 21.274 18.4871 21.2655C20.4122 21.2655 22.0414 20.7729 22.5884 20.2421H20.7357C18.7335 20.2421 17.0105 20.5524 16.2324 20.9983Z" fill="#4B0082"/>
<path d="M21.6912 22.464C20.9471 22.7426 20.1761 22.943 19.3906 23.062C19.4516 23.2568 19.5172 23.446 19.5812 23.6371C20.3795 23.5107 21.1625 23.3015 21.9175 23.0128C21.9903 22.9828 22.0481 22.9251 22.0784 22.8524C22.1086 22.7797 22.1088 22.698 22.0788 22.6252C22.0488 22.5524 21.9911 22.4946 21.9184 22.4643C21.8457 22.4341 21.764 22.4339 21.6912 22.4639V22.464Z" fill="#111827"/>
<path d="M29.1684 25.1001C27.5114 23.005 27.264 23.0609 26.0484 23.6166C24.2707 24.4293 21.5789 26.0038 20.9186 26.5117C20.2583 27.0196 19.8167 27.538 20.0453 28.2046C20.6026 29.6817 21.2449 31.1253 21.969 32.5281C22.3499 33.1376 22.6165 33.0614 23.0546 32.9662C23.4927 32.871 23.9688 32.7186 23.9688 32.7186C23.9688 32.7186 26.102 34.8137 28.7368 35.9691L29.1684 25.1001Z" fill="#4B0082"/>
<path d="M23.1254 31.8531C23.0728 31.8531 23.0211 31.8392 22.9756 31.8127C22.9301 31.7861 22.8925 31.748 22.8666 31.7022C22.2327 30.5849 21.6783 29.4244 21.2076 28.2292C21.1806 28.1557 21.1838 28.0745 21.2165 28.0033C21.2492 27.9322 21.3087 27.8768 21.382 27.8493C21.4553 27.8218 21.5365 27.8244 21.6079 27.8565C21.6794 27.8886 21.7352 27.9476 21.7633 28.0207C22.225 29.1865 22.7664 30.3191 23.3837 31.4104C23.4092 31.4555 23.4224 31.5066 23.4221 31.5584C23.4217 31.6103 23.4077 31.6611 23.3816 31.7059C23.3555 31.7506 23.3181 31.7878 23.2731 31.8136C23.2282 31.8394 23.1772 31.853 23.1254 31.853V31.8531Z" fill="black"/>
<path d="M22.0266 15.5769C23.2455 16.4911 23.9485 16.7227 24.2359 16.6435C24.4978 16.5461 24.7282 16.3793 24.9026 16.161L22.9852 13.4691L18.084 12.739C18.084 12.739 20.579 14.4912 22.0266 15.5769Z" fill="#4B0082"/>
<path d="M24.3535 31.2145C24.3009 31.2146 24.2491 31.2006 24.2037 31.1741C24.1582 31.1476 24.1206 31.1094 24.0947 31.0636C23.4608 29.9464 22.9065 28.7858 22.4359 27.5906C22.4082 27.5169 22.411 27.4353 22.4436 27.3637C22.4762 27.292 22.5359 27.2363 22.6096 27.2086C22.6833 27.181 22.7649 27.1838 22.8366 27.2164C22.9082 27.2489 22.964 27.3086 22.9916 27.3823C23.4532 28.548 23.9946 29.6805 24.6118 30.7718C24.6373 30.817 24.6505 30.868 24.6502 30.9198C24.6498 30.9717 24.6358 31.0225 24.6097 31.0673C24.5836 31.1121 24.5462 31.1492 24.5012 31.175C24.4563 31.2008 24.4053 31.2144 24.3535 31.2145V31.2145Z" fill="black"/>
</g>
<defs>
<clipPath id="clip0_432_2242">
<rect width="45" height="45" rx="22.5" fill="white"/>
</clipPath>
</defs>
</svg>
