<svg width="124" height="38" viewBox="0 0 124 38" fill="none" xmlns="http://www.w3.org/2000/svg">
<path d="M50.7122 17.3859C54.6069 18.3327 56.1947 19.8028 56.1947 22.4608C56.1947 25.6058 53.7919 27.6381 50.073 27.6381C47.4444 27.6381 45.0075 26.7042 43.027 24.936C42.9863 24.8997 42.9614 24.8489 42.9577 24.7945C42.9539 24.7401 42.9716 24.6864 43.007 24.6449L44.757 22.5632C44.7749 22.5419 44.7968 22.5244 44.8215 22.5117C44.8462 22.4989 44.8732 22.4912 44.9009 22.4891C44.9286 22.4869 44.9564 22.4902 44.9828 22.4989C45.0092 22.5076 45.0336 22.5214 45.0546 22.5396C46.757 24.0133 48.2789 24.6413 50.1442 24.6413C51.8243 24.6413 52.8681 23.9139 52.8681 22.7449C52.8681 21.6893 52.3517 21.0995 49.2927 20.395C45.6997 19.5259 43.6197 18.4015 43.6197 15.2231C43.6197 12.2593 46.0308 10.1893 49.4815 10.1893C51.8278 10.1893 53.8372 10.8844 55.6207 12.3151C55.7066 12.3845 55.7242 12.5092 55.6601 12.5998L54.0989 14.7991C54.0825 14.8217 54.0619 14.8408 54.0381 14.8554C54.0144 14.87 53.988 14.8798 53.9604 14.8842C53.9329 14.8886 53.9048 14.8874 53.8777 14.8809C53.8506 14.8744 53.825 14.8626 53.8025 14.8461C52.3041 13.7288 50.8751 13.1866 49.4332 13.1866C47.9466 13.1866 46.9469 13.9011 46.9469 14.9626C46.9469 16.0857 47.5174 16.6209 50.7128 17.3842L50.7122 17.3859ZM64.608 14.234C62.9967 14.234 61.6748 14.8691 60.5839 16.1687V14.7044C60.5839 14.6489 60.5619 14.5956 60.5226 14.5564C60.4833 14.5171 60.4301 14.4951 60.3746 14.4951H57.5131C57.4576 14.4951 57.4043 14.5171 57.3651 14.5564C57.3258 14.5956 57.3038 14.6489 57.3038 14.7044V30.9759C57.3038 31.0905 57.3978 31.1846 57.5131 31.1846H60.3752C60.491 31.1846 60.5851 31.0905 60.5851 30.9753V25.8386C61.6753 27.0618 62.9979 27.6604 64.6097 27.6604C67.6059 27.6604 70.6373 25.3552 70.6373 20.9472C70.6373 16.5391 67.6041 14.234 64.608 14.234ZM67.3071 20.9478C67.3071 23.1918 65.9252 24.7584 63.9458 24.7584C61.9876 24.7584 60.5116 23.1206 60.5116 20.9478C60.5116 18.7749 61.9876 17.1372 63.9458 17.1372C65.8935 17.1372 67.3077 18.7396 67.3077 20.9478H67.3071ZM78.4078 14.234C74.5502 14.234 71.5288 17.2036 71.5288 20.9966C71.5288 24.7472 74.529 27.6857 78.3596 27.6857C82.2308 27.6857 85.2616 24.7254 85.2616 20.9478C85.2616 17.1831 82.2508 14.2334 78.4072 14.2334L78.4078 14.234ZM78.4072 24.7813C76.3549 24.7813 74.8084 23.133 74.8084 20.9472C74.8084 18.7526 76.302 17.1601 78.3602 17.1601C80.4243 17.1601 81.9826 18.8084 81.9826 20.9954C81.9826 23.1889 80.4784 24.7807 78.4072 24.7807V24.7813ZM93.4991 14.4951C93.6149 14.4951 93.7084 14.5891 93.7084 14.7044V17.1642C93.7085 17.1917 93.7032 17.2189 93.6927 17.2443C93.6822 17.2697 93.6669 17.2928 93.6475 17.3122C93.6281 17.3317 93.6051 17.3471 93.5797 17.3576C93.5543 17.3682 93.5271 17.3736 93.4997 17.3736H90.3506V23.29C90.3506 24.225 90.7611 24.6413 91.6796 24.6413C92.2641 24.6445 92.8405 24.5052 93.3591 24.2356C93.3912 24.2197 93.4268 24.2122 93.4625 24.2139C93.4983 24.2156 93.533 24.2264 93.5634 24.2452C93.5938 24.264 93.619 24.2903 93.6364 24.3216C93.6539 24.3528 93.6631 24.388 93.6631 24.4238V26.7654C93.6631 26.8401 93.622 26.9106 93.5573 26.9477C92.7546 27.4023 91.9031 27.614 90.8758 27.614C88.3512 27.614 87.0711 26.3102 87.0711 23.7375V17.3742H85.695C85.6676 17.3741 85.6405 17.3686 85.6152 17.3581C85.5899 17.3475 85.5669 17.3321 85.5476 17.3126C85.5282 17.2932 85.5129 17.2701 85.5025 17.2448C85.4921 17.2194 85.4868 17.1922 85.4868 17.1648V14.7044C85.4868 14.5891 85.5798 14.4951 85.695 14.4951H87.0711V11.2749C87.0711 11.1596 87.1651 11.0655 87.2816 11.0655H90.1431C90.2589 11.0655 90.3524 11.1596 90.3524 11.2749V14.4951H93.5014H93.4991ZM109.362 14.5074C109.448 14.5074 109.526 14.5603 109.558 14.6427L112.901 23.3659L115.953 14.6474C115.967 14.6062 115.994 14.5705 116.029 14.5453C116.065 14.52 116.107 14.5064 116.151 14.5062H119.131C119.165 14.5062 119.198 14.5145 119.229 14.5305C119.259 14.5465 119.285 14.5696 119.304 14.5979C119.323 14.6262 119.335 14.6587 119.338 14.6926C119.342 14.7266 119.337 14.7609 119.325 14.7926L114.359 27.624C113.33 30.272 112.161 31.2564 110.049 31.2564C108.918 31.2564 108.004 31.0223 106.991 30.4743C106.944 30.4491 106.909 30.407 106.892 30.3568C106.876 30.3065 106.879 30.2517 106.901 30.2038L107.872 28.075C107.884 28.0488 107.901 28.0252 107.922 28.0058C107.943 27.9864 107.968 27.9715 107.995 27.9621C108.023 27.9533 108.052 27.9502 108.081 27.9529C108.109 27.9556 108.137 27.9642 108.163 27.978C108.706 28.2749 109.237 28.4249 109.741 28.4249C110.364 28.4249 110.821 28.2202 111.286 27.1888L107.193 17.3742H104.52V27.1917C104.52 27.3076 104.426 27.4017 104.311 27.4017H101.449C101.421 27.4017 101.394 27.3962 101.369 27.3857C101.343 27.3751 101.32 27.3597 101.301 27.3401C101.281 27.3206 101.266 27.2975 101.255 27.272C101.245 27.2466 101.24 27.2193 101.24 27.1917V17.3742H99.8648C99.8092 17.3737 99.7561 17.3514 99.7168 17.3122C99.6776 17.2729 99.6553 17.2198 99.6548 17.1642V14.6926C99.6548 14.5768 99.7489 14.4827 99.8642 14.4827H101.239V13.877C101.239 11.0626 102.636 9.57363 105.28 9.57363C106.366 9.57363 107.091 9.74711 107.659 9.9147C107.748 9.94234 107.808 10.0241 107.808 10.1158V12.5268C107.808 12.5602 107.801 12.5931 107.786 12.6229C107.771 12.6527 107.749 12.6785 107.722 12.6981C107.695 12.7177 107.664 12.7305 107.631 12.7355C107.598 12.7405 107.564 12.7375 107.532 12.7268C106.996 12.548 106.516 12.4292 105.92 12.4292C104.92 12.4292 104.473 12.9485 104.473 14.1122V14.5074H109.361H109.362ZM98.1112 14.4951C98.2264 14.4951 98.3205 14.5891 98.3205 14.7044V27.1912C98.3205 27.3064 98.2264 27.4005 98.1106 27.4005H95.2485C95.193 27.4005 95.1396 27.3785 95.1003 27.3392C95.0609 27.3 95.0388 27.2467 95.0386 27.1912V14.7044C95.0386 14.5891 95.1327 14.4951 95.2479 14.4951H98.11H98.1112ZM96.6946 8.80975C97.2389 8.80975 97.7609 9.02597 98.1458 9.41086C98.5306 9.79574 98.7469 10.3178 98.7469 10.8621C98.7469 11.4064 98.5306 11.9284 98.1458 12.3133C97.7609 12.6981 97.2389 12.9144 96.6946 12.9144C96.1503 12.9144 95.6282 12.6981 95.2434 12.3133C94.8585 11.9284 94.6423 11.4064 94.6423 10.8621C94.6423 10.3178 94.8585 9.79574 95.2434 9.41086C95.6282 9.02597 96.1503 8.80975 96.6946 8.80975ZM121.768 18.5091C121.503 18.5101 121.241 18.4587 120.996 18.3579C120.751 18.257 120.529 18.1087 120.342 17.9215C120.154 17.7342 120.006 17.5118 119.905 17.267C119.804 17.0222 119.753 16.7598 119.754 16.495C119.754 16.2292 119.806 15.9659 119.908 15.7203C120.01 15.4747 120.159 15.2515 120.347 15.0636C120.535 14.8756 120.758 14.7265 121.004 14.6249C121.249 14.5232 121.513 14.4709 121.779 14.4709C122.043 14.4698 122.306 14.521 122.55 14.6218C122.795 14.7225 123.018 14.8707 123.205 15.0578C123.392 15.245 123.541 15.4673 123.641 15.7121C123.742 15.9568 123.794 16.2191 123.793 16.4839C123.793 16.7498 123.74 17.0132 123.639 17.2589C123.537 17.5047 123.388 17.728 123.2 17.9161C123.012 18.1042 122.789 18.2535 122.543 18.3553C122.297 18.4572 122.034 18.5096 121.768 18.5097V18.5091ZM121.779 14.6715C120.747 14.6715 119.966 15.4918 119.966 16.4956C119.966 17.4994 120.741 18.3086 121.768 18.3086C122.799 18.3086 123.581 17.4888 123.581 16.4844C123.581 15.4806 122.805 14.6715 121.779 14.6715ZM122.226 16.6914L122.795 17.4888H122.314L121.803 16.7573H121.362V17.4888H120.959V15.3748H121.902C122.393 15.3748 122.716 15.6265 122.716 16.0493C122.716 16.3962 122.516 16.6079 122.225 16.6903L122.226 16.6914ZM121.884 15.7376H121.36V16.4056H121.884C122.146 16.4056 122.301 16.2774 122.301 16.0705C122.301 15.8529 122.146 15.737 121.884 15.737V15.7376ZM18.8591 0.295898C8.6352 0.295898 0.347168 8.69919 0.347168 18.9237C0.34658 28.5307 7.66315 36.286 17.0285 37.4621H20.6897C30.0551 36.286 37.3717 28.5307 37.3717 18.9231C37.3717 8.69919 29.083 0.295898 18.8597 0.295898H18.8591ZM27.3489 26.9971C27.27 27.1266 27.1664 27.2393 27.0439 27.3287C26.9214 27.4181 26.7825 27.4824 26.6351 27.518C26.4877 27.5536 26.3348 27.5598 26.185 27.5362C26.0352 27.5126 25.8916 27.4597 25.7623 27.3805C21.4148 24.7237 15.9435 24.1239 9.49964 25.5958C9.35198 25.6297 9.19908 25.6342 9.04968 25.609C8.90028 25.5838 8.75732 25.5294 8.62896 25.4489C8.50061 25.3684 8.38939 25.2634 8.30167 25.1398C8.21394 25.0163 8.15143 24.8767 8.11772 24.729C8.08379 24.5812 8.07933 24.4282 8.10461 24.2788C8.12989 24.1293 8.1844 23.9863 8.26502 23.8579C8.34565 23.7296 8.4508 23.6184 8.57446 23.5307C8.69813 23.443 8.83787 23.3806 8.98568 23.347C16.0376 21.7358 22.0864 22.4297 26.966 25.4111C27.2269 25.571 27.4137 25.8279 27.4853 26.1253C27.557 26.4228 27.5077 26.7365 27.3483 26.9977L27.3489 26.9971ZM29.614 21.9563C29.4137 22.2824 29.0922 22.5156 28.72 22.6047C28.3479 22.6937 27.9556 22.6314 27.6294 22.4314C22.6544 19.3736 15.0685 18.4874 9.1821 20.2745C8.81574 20.385 8.42051 20.3459 8.08292 20.1657C7.74533 19.9855 7.4929 19.6789 7.38089 19.313C7.15154 18.5485 7.58082 17.7446 8.34353 17.5135C15.0679 15.473 23.4259 16.4609 29.1401 19.9716C29.466 20.172 29.6991 20.4936 29.7881 20.8657C29.8771 21.2379 29.8147 21.6301 29.6146 21.9563H29.614ZM29.8093 16.7073C23.8417 13.1637 13.9988 12.8379 8.30237 14.5668C7.86287 14.7 7.38846 14.6531 6.9835 14.4365C6.57855 14.22 6.27622 13.8514 6.14303 13.4119C6.00984 12.9724 6.05669 12.498 6.27329 12.093C6.48988 11.688 6.85847 11.3857 7.29797 11.2525C13.8371 9.26784 24.7079 9.65125 31.5776 13.7282C31.7732 13.8442 31.944 13.9976 32.0803 14.1797C32.2166 14.3617 32.3157 14.5688 32.372 14.7891C32.4282 15.0095 32.4405 15.2388 32.4081 15.4639C32.3757 15.689 32.2993 15.9055 32.1832 16.101C32.0673 16.2968 31.9139 16.4677 31.7318 16.6042C31.5498 16.7406 31.3426 16.8397 31.1221 16.896C30.9017 16.9522 30.6723 16.9645 30.4472 16.932C30.222 16.8995 30.0054 16.823 29.8099 16.7067L29.8093 16.7073Z" fill="#4B5563"/>
</svg>
