<svg width="174" height="174" viewBox="0 0 174 174" fill="none" xmlns="http://www.w3.org/2000/svg">
<path d="M40.609 137.817C60.6137 129.958 80.89 123.528 102.052 119.599C97.3328 89.2051 84.9804 60.5056 66.1504 36.1855C45.3418 42.527 24.8011 49.4035 4.34998 56.6392C12.2983 61.0127 38.3757 117.451 40.609 137.817Z" fill="#36383B"/>
<path d="M40.609 138.157C40.5253 138.157 40.4446 138.126 40.3822 138.07C40.3199 138.014 40.2805 137.937 40.2715 137.854C38.0286 117.398 11.8164 61.1347 4.18647 56.9335C4.12923 56.9019 4.08234 56.8544 4.05143 56.7968C4.02052 56.7392 4.00691 56.6739 4.01224 56.6087C4.01757 56.5436 4.04161 56.4814 4.08147 56.4295C4.12134 56.3777 4.17532 56.3385 4.23693 56.3167C26.482 48.4484 46.7016 41.7607 66.0513 35.8603C66.1171 35.8404 66.1874 35.8408 66.253 35.8617C66.3185 35.8825 66.3762 35.9227 66.4184 35.9769C85.2704 60.3501 97.6443 89.0997 102.387 119.546C102.401 119.633 102.38 119.722 102.329 119.794C102.278 119.866 102.201 119.916 102.114 119.931C67.9827 126.268 41.6513 138.157 40.609 138.157ZM5.10171 56.7308C13.6129 63.2645 38.3201 116.268 40.8953 137.34C62.7505 128.777 82.6361 122.882 101.666 119.325C96.9152 89.1893 84.6589 60.7336 66.0252 36.5781C46.9383 42.3984 27.0005 48.993 5.10171 56.7308Z" fill="#AEC7F6"/>
<path d="M21.8545 62.1545C21.7741 62.1542 21.6963 62.1254 21.6351 62.0731C21.574 62.0208 21.5334 61.9484 21.5206 61.869C21.5079 61.7895 21.5238 61.7081 21.5655 61.6393C21.6072 61.5705 21.6721 61.5187 21.7484 61.4933L58.8991 49.3472C58.9836 49.3229 59.0743 49.3323 59.1519 49.3735C59.2296 49.4147 59.2883 49.4844 59.3156 49.5679C59.3429 49.6515 59.3367 49.7424 59.2983 49.8215C59.2598 49.9006 59.1922 49.9617 59.1097 49.9919L21.8545 62.1545Z" fill="#AEC7F6"/>
<path d="M25.9625 70.1928C25.8809 70.1929 25.802 70.1636 25.7402 70.1102C25.6785 70.0569 25.6381 69.9831 25.6263 69.9023C25.6146 69.8216 25.6324 69.7393 25.6764 69.6706C25.7204 69.6018 25.7877 69.5513 25.8659 69.5281L46.317 63.4555C46.4018 63.4342 46.4916 63.4465 46.5677 63.4898C46.6437 63.5331 46.7 63.6041 46.7249 63.688C46.7499 63.7718 46.7414 63.8621 46.7014 63.9398C46.6614 64.0176 46.5929 64.077 46.5101 64.1054L25.9625 70.1928Z" fill="#AEC7F6"/>
<path d="M30.4273 80.0169C30.3457 80.0169 30.2668 79.9876 30.2051 79.9343C30.1433 79.8809 30.1029 79.8071 30.0912 79.7263C30.0794 79.6456 30.0972 79.5633 30.1412 79.4946C30.1852 79.4259 30.2525 79.3753 30.3308 79.3522C62.2859 69.8744 62.051 69.1471 62.2754 69.8379C62.3031 69.9233 62.2958 70.0163 62.255 70.0964C62.2142 70.1765 62.1434 70.2371 62.0579 70.265C51.6988 73.6302 30.7927 80.0169 30.4273 80.0169Z" fill="#AEC7F6"/>
<path d="M35.6074 89.4829C35.5276 89.4825 35.4503 89.454 35.3893 89.4025C35.3282 89.351 35.2872 89.2797 35.2733 89.201C35.2599 89.122 35.2749 89.0408 35.3154 88.9718C35.356 88.9027 35.4197 88.8502 35.4952 88.8234C42.6414 86.3222 70.1482 76.8557 77.2909 74.3553C77.3754 74.3271 77.4676 74.3333 77.5476 74.3725C77.6276 74.4118 77.689 74.4809 77.7184 74.5649C77.7479 74.649 77.7431 74.7413 77.7051 74.8219C77.6671 74.9025 77.599 74.9649 77.5153 74.9956L35.6074 89.4829Z" fill="#AEC7F6"/>
<path d="M38.9855 98.1091C49.5125 94.6883 57.8785 92.2297 67.9852 88.0267C68.0262 88.0092 68.0703 88.0002 68.1148 88C68.1593 87.9999 68.2034 88.0086 68.2445 88.0258C68.3273 88.0611 68.3933 88.1268 68.429 88.2094C68.4462 88.2505 68.4552 88.2946 68.4553 88.3392C68.4555 88.3838 68.4468 88.428 68.4298 88.4692C68.4128 88.5104 68.3879 88.5479 68.3564 88.5795C68.3249 88.611 68.2875 88.636 68.2463 88.6531C58.1247 92.863 49.7675 95.3208 39.1961 98.7538C39.1115 98.778 39.0209 98.7685 38.9432 98.7273C38.8655 98.6861 38.8068 98.6164 38.7794 98.5328C38.7522 98.4492 38.7584 98.3584 38.7969 98.2793C38.8354 98.2003 38.903 98.1393 38.9855 98.1091Z" fill="#AEC7F6"/>
<path d="M42.0376 108.774C41.9563 108.774 41.8777 108.745 41.8161 108.692C41.7545 108.639 41.714 108.565 41.702 108.485C41.69 108.404 41.7072 108.322 41.7506 108.254C41.794 108.185 41.8607 108.134 41.9385 108.11C50.5201 105.476 59.2175 102.44 68.5283 98.83C68.6117 98.8006 68.7032 98.8047 68.7837 98.8413C68.8641 98.878 68.9272 98.9444 68.9598 99.0266C68.9918 99.1092 68.9902 99.201 68.9554 99.2824C68.9206 99.3639 68.8554 99.4285 68.7736 99.4625C55.8872 104.46 42.4491 108.774 42.0376 108.774Z" fill="#AEC7F6"/>
<path d="M45.762 118.297C54.2514 115.174 61.9109 112.572 69.1789 110.342C69.2648 110.317 69.3574 110.326 69.4367 110.368C69.5159 110.41 69.5755 110.481 69.6026 110.567C69.8566 111.397 68.7543 110.567 45.9969 118.934C45.9551 118.949 45.9106 118.956 45.8661 118.954C45.8215 118.953 45.7778 118.942 45.7373 118.923C45.6968 118.905 45.6604 118.878 45.6302 118.846C45.5999 118.813 45.5764 118.774 45.561 118.733C45.5456 118.691 45.5385 118.646 45.5403 118.602C45.5421 118.557 45.5526 118.514 45.5712 118.473C45.5899 118.433 45.6163 118.396 45.6491 118.366C45.6818 118.336 45.7202 118.312 45.762 118.297Z" fill="#AEC7F6"/>
<path d="M83.9229 109.953C92.8012 109.953 99.9979 102.396 99.9979 93.0742C99.9979 83.7521 92.8012 76.1953 83.9229 76.1953C75.0445 76.1953 67.8479 83.7521 67.8479 93.0742C67.8479 102.396 75.0445 109.953 83.9229 109.953Z" fill="#36383B"/>
<path d="M83.9227 110.292C74.8747 110.292 67.5076 102.568 67.5076 93.0736C67.5076 83.5793 74.8712 75.8555 83.9227 75.8555C92.9742 75.8555 100.337 83.5793 100.337 93.0736C100.337 102.568 92.9733 110.292 83.9227 110.292ZM83.9227 76.5358C75.2453 76.5358 68.1862 83.956 68.1862 93.0754C68.1862 102.195 75.2453 109.616 83.9227 109.616C92.6001 109.616 99.6584 102.196 99.6584 93.0754C99.6584 83.9552 92.5992 76.5341 83.9227 76.5341V76.5358Z" fill="#AEC7F6"/>
<path d="M102.972 48.3595C97.5174 53.824 92.8803 62.5405 89.7796 68.9019C86.5441 75.5339 82.7613 83.0577 81.0674 90.1778C78.6097 88.6118 66.6837 86.7595 65.7624 86.8422C65.6726 86.8492 65.5894 86.8916 65.5309 86.9601C65.4724 87.0285 65.4435 87.1174 65.4505 87.2072C65.4575 87.2969 65.4999 87.3802 65.5684 87.4387C65.6368 87.4972 65.7257 87.5261 65.8155 87.5191C67.2162 87.4321 72.3996 92.2049 73.7577 93.4159C75.6173 95.1307 77.5897 96.7191 79.6615 98.1705C81.9655 100.109 84.4889 101.77 87.1801 103.12C87.2255 103.14 87.2749 103.149 87.3245 103.148C87.3994 103.146 87.4718 103.12 87.5301 103.073C87.5884 103.026 87.6293 102.961 87.6464 102.888C94.1566 75.6496 103.132 49.1842 103.461 48.8302C103.508 48.782 103.539 48.7209 103.552 48.6548C103.564 48.5887 103.556 48.5205 103.529 48.4589C103.502 48.3974 103.457 48.3452 103.401 48.309C103.344 48.2729 103.278 48.2544 103.211 48.256C103.166 48.2567 103.122 48.2662 103.081 48.284C103.04 48.3018 103.003 48.3274 102.972 48.3595Z" fill="#AEC7F6"/>
<path d="M130.904 89.0334C138.385 85.9562 141.56 76.4358 137.994 67.7706C134.43 59.1037 125.476 54.5727 117.995 57.6499C110.514 60.7271 107.339 70.2475 110.904 78.9127C114.469 87.5797 123.424 92.1106 130.904 89.0334Z" fill="#36383B"/>
<path d="M138.308 67.64C134.259 57.7977 123.234 53.111 115.265 58.766L109.319 61.8632C102.446 65.1144 99.7055 74.0145 103.077 82.1237C106.107 89.5692 113.88 94.4882 120.999 92.4124C129.037 90.0634 130.633 89.5414 130.999 89.383C139.216 85.8082 141.723 75.9328 138.308 67.64ZM130.775 88.7192C123.479 91.7198 114.706 87.2628 111.218 78.7838C107.73 70.3048 110.828 60.9636 118.123 57.9621C125.722 54.8379 134.329 59.7517 137.68 67.8984C141.168 76.3783 138.069 85.7186 130.775 88.7192Z" fill="#AEC7F6"/>
<path d="M154.924 50.2944C151.485 52.1919 151.07 53.8292 145.276 57.6181C140.724 60.1474 135.86 62.0696 130.809 63.3357C129.605 63.5915 128.377 63.7115 127.147 63.6933C125.718 63.6063 124.371 63.2252 122.95 63.7803C118.997 65.3289 117.502 70.7455 119.47 75.7471C121.438 80.7488 126.356 83.451 130.276 81.8197C132.605 80.8514 133.745 78.2275 135.813 76.819C137.928 75.3927 140.206 74.2244 142.599 73.339C155.224 68.574 161.871 70.9456 166.89 65.9266C172.442 60.376 168.88 51.2366 161.89 49.4053C159.54 48.7971 157.046 49.1155 154.924 50.2944Z" fill="#36383B"/>
<path d="M127.873 82.6232C124.079 82.6232 120.648 79.6826 119.151 75.872C117.116 70.6921 118.763 65.1267 122.821 63.4667C125.159 62.5889 126.694 63.9365 130.732 63.003C135.759 61.7684 140.595 59.8579 145.108 57.3236C151.165 53.3617 151.309 51.8557 154.758 49.9982C160.124 46.9672 166.742 49.752 169.077 55.253C169.914 57.0511 170.177 59.064 169.828 61.0168C169.479 62.9696 168.536 64.767 167.127 66.1637C164.208 69.0826 160.222 69.6759 156.366 70.2527C149.232 71.315 141.997 73.1046 135.997 77.1048C133.36 78.9362 132.336 82.6224 127.873 82.6232ZM123.068 64.0983C119.36 65.6156 117.882 70.7869 119.782 75.6232C121.815 80.7971 126.667 82.9312 130.144 81.5062C132.308 80.5909 133.583 77.9548 135.616 76.5411C140.719 73.1394 147.301 71.087 153.346 70.0544C157.982 69.1626 163.177 69.16 166.648 65.6835C171.983 60.3495 168.657 51.5442 161.801 49.7294C159.535 49.143 157.13 49.4521 155.085 50.5924C151.779 52.4194 151.567 53.9098 145.462 57.9005C140.885 60.4698 135.982 62.4081 130.885 63.6625C126.917 64.5803 125.115 63.331 123.068 64.0983Z" fill="#AEC7F6"/>
<path d="M157.346 63.7358C154.283 60.1001 153.908 53.04 157.937 50.1099C158.01 50.0569 158.101 50.035 158.19 50.0491C158.279 50.0631 158.358 50.1119 158.411 50.1847C158.464 50.2575 158.486 50.3483 158.472 50.4373C158.458 50.5262 158.409 50.6059 158.336 50.6588C154.671 53.3245 155.03 59.9374 157.861 63.2938C158.721 64.306 159.847 65.0578 161.111 65.4646C162.376 65.8713 163.729 65.9168 165.018 65.5959C165.105 65.5728 165.198 65.5853 165.276 65.6305C165.354 65.6758 165.41 65.7502 165.433 65.8373C165.457 65.9244 165.444 66.0171 165.399 66.095C165.354 66.1729 165.279 66.2296 165.192 66.2527C163.78 66.606 162.296 66.5576 160.91 66.1129C159.524 65.6681 158.289 64.8448 157.346 63.7358Z" fill="#AEC7F6"/>
</svg>
