<svg width="174" height="174" viewBox="0 0 174 174" fill="none" xmlns="http://www.w3.org/2000/svg">
<path d="M40.6088 137.816C60.6136 129.956 80.8898 123.527 102.052 119.597C97.3327 89.2037 84.9803 60.5042 66.1503 36.1842C45.3416 42.5256 24.8009 49.4021 4.34985 56.6379C12.2982 61.0114 38.3756 117.45 40.6088 137.816Z" fill="white"/>
<path d="M40.6089 138.156C40.5252 138.156 40.4444 138.125 40.3821 138.069C40.3198 138.013 40.2804 137.936 40.2713 137.853C38.0285 117.397 11.8163 61.134 4.18635 56.9328C4.12911 56.9012 4.08221 56.8538 4.0513 56.7962C4.02039 56.7385 4.00679 56.6732 4.01212 56.6081C4.01745 56.5429 4.04149 56.4807 4.08135 56.4289C4.12121 56.377 4.1752 56.3378 4.23681 56.316C26.4818 48.4477 46.7015 41.76 66.0512 35.8597C66.117 35.8397 66.1873 35.8402 66.2528 35.861C66.3184 35.8818 66.3761 35.922 66.4183 35.9763C85.2702 60.3495 97.6442 89.099 102.387 119.545C102.401 119.632 102.38 119.722 102.329 119.794C102.278 119.866 102.201 119.915 102.114 119.93C67.9826 126.267 41.6512 138.156 40.6089 138.156ZM5.10159 56.7301C13.6128 63.2638 38.3199 116.268 40.8951 137.339C62.7504 128.777 82.636 122.881 101.665 119.324C96.9151 89.1887 84.6587 60.733 66.0251 36.5774C46.9381 42.3977 27.0004 48.9923 5.10159 56.7301Z" fill="#15376D"/>
<path d="M21.8543 62.1545C21.7738 62.1543 21.6961 62.1254 21.6349 62.0731C21.5737 62.0208 21.5332 61.9485 21.5204 61.869C21.5076 61.7896 21.5235 61.7082 21.5653 61.6393C21.607 61.5705 21.6718 61.5188 21.7482 61.4933L58.8989 49.3473C58.9834 49.3229 59.074 49.3323 59.1517 49.3735C59.2294 49.4147 59.2881 49.4844 59.3153 49.568C59.3426 49.6516 59.3364 49.7425 59.298 49.8215C59.2596 49.9006 59.192 49.9617 59.1094 49.9919L21.8543 62.1545Z" fill="#15376D"/>
<path d="M25.9625 70.1925C25.8809 70.1926 25.802 70.1632 25.7402 70.1099C25.6785 70.0565 25.6381 69.9827 25.6263 69.9019C25.6146 69.8212 25.6324 69.7389 25.6764 69.6702C25.7204 69.6015 25.7877 69.5509 25.8659 69.5278L46.317 63.4552C46.4018 63.4339 46.4916 63.4461 46.5677 63.4894C46.6437 63.5327 46.7 63.6037 46.7249 63.6876C46.7499 63.7715 46.7414 63.8617 46.7014 63.9395C46.6614 64.0173 46.5929 64.0766 46.5101 64.1051L25.9625 70.1925Z" fill="#15376D"/>
<path d="M30.4273 80.0165C30.3457 80.0166 30.2668 79.9873 30.2051 79.9339C30.1433 79.8806 30.1029 79.8068 30.0912 79.726C30.0794 79.6453 30.0972 79.563 30.1412 79.4943C30.1852 79.4255 30.2525 79.375 30.3308 79.3518C62.2859 69.8741 62.051 69.1467 62.2754 69.8375C62.3031 69.923 62.2958 70.016 62.255 70.0961C62.2142 70.1762 62.1434 70.2368 62.0579 70.2647C51.6988 73.6299 30.7927 80.0165 30.4273 80.0165Z" fill="#15376D"/>
<path d="M35.6072 89.483C35.5273 89.4826 35.4501 89.4541 35.3891 89.4026C35.328 89.3511 35.287 89.2798 35.2731 89.2011C35.2597 89.1221 35.2746 89.0409 35.3152 88.9719C35.3558 88.9028 35.4194 88.8503 35.495 88.8235C42.6411 86.3223 70.1479 76.8558 77.2906 74.3554C77.3751 74.3272 77.4674 74.3334 77.5474 74.3726C77.6274 74.4118 77.6887 74.481 77.7182 74.565C77.7477 74.6491 77.7429 74.7414 77.7049 74.822C77.6669 74.9026 77.5987 74.965 77.5151 74.9957L35.6072 89.483Z" fill="#15376D"/>
<path d="M38.9855 98.1091C49.5125 94.6882 57.8785 92.2296 67.9852 88.0266C68.0262 88.0092 68.0703 88.0001 68.1148 87.9999C68.1593 87.9998 68.2034 88.0086 68.2445 88.0258C68.3273 88.061 68.3933 88.1267 68.429 88.2093C68.4462 88.2504 68.4552 88.2946 68.4553 88.3391C68.4555 88.3837 68.4468 88.4279 68.4298 88.4692C68.4128 88.5104 68.3879 88.5479 68.3564 88.5794C68.3249 88.611 68.2875 88.636 68.2463 88.653C58.1247 92.863 49.7675 95.3207 39.1961 98.7537C39.1115 98.7779 39.0209 98.7684 38.9432 98.7272C38.8655 98.686 38.8068 98.6163 38.7794 98.5327C38.7522 98.4492 38.7584 98.3583 38.7969 98.2793C38.8354 98.2002 38.903 98.1392 38.9855 98.1091Z" fill="#15376D"/>
<path d="M42.0374 108.773C41.9561 108.774 41.8775 108.744 41.8159 108.691C41.7542 108.638 41.7137 108.565 41.7017 108.484C41.6897 108.404 41.707 108.322 41.7504 108.253C41.7938 108.184 41.8604 108.133 41.9382 108.11C50.5199 105.475 59.2173 102.44 68.528 98.8294C68.6114 98.8 68.7029 98.8041 68.7834 98.8407C68.8639 98.8774 68.927 98.9438 68.9595 99.026C68.9915 99.1086 68.99 99.2004 68.9552 99.2818C68.9204 99.3633 68.8551 99.4279 68.7734 99.4619C55.8869 104.459 42.4489 108.773 42.0374 108.773Z" fill="#15376D"/>
<path d="M45.762 118.297C54.2514 115.174 61.9109 112.572 69.1789 110.342C69.2648 110.316 69.3574 110.326 69.4367 110.368C69.5159 110.41 69.5755 110.481 69.6026 110.567C69.8566 111.397 68.7543 110.567 45.9969 118.933C45.9551 118.949 45.9106 118.956 45.8661 118.954C45.8215 118.952 45.7778 118.942 45.7373 118.923C45.6968 118.904 45.6604 118.878 45.6302 118.845C45.5999 118.813 45.5764 118.774 45.561 118.732C45.5456 118.691 45.5385 118.646 45.5403 118.602C45.5421 118.557 45.5526 118.513 45.5712 118.473C45.5899 118.432 45.6163 118.396 45.6491 118.366C45.6818 118.335 45.7202 118.312 45.762 118.297Z" fill="#15376D"/>
<path d="M83.9229 109.951C92.8012 109.951 99.9979 102.395 99.9979 93.0726C99.9979 83.7505 92.8012 76.1937 83.9229 76.1937C75.0445 76.1937 67.8479 83.7505 67.8479 93.0726C67.8479 102.395 75.0445 109.951 83.9229 109.951Z" fill="#F2F7F8"/>
<path d="M83.9227 110.291C74.8747 110.291 67.5076 102.567 67.5076 93.0726C67.5076 83.5783 74.8712 75.8544 83.9227 75.8544C92.9742 75.8544 100.337 83.5783 100.337 93.0726C100.337 102.567 92.9733 110.291 83.9227 110.291ZM83.9227 76.5348C75.2453 76.5348 68.1862 83.955 68.1862 93.0743C68.1862 102.194 75.2453 109.615 83.9227 109.615C92.6001 109.615 99.6584 102.195 99.6584 93.0743C99.6584 83.9541 92.5992 76.533 83.9227 76.533V76.5348Z" fill="#15376D"/>
<path d="M102.972 48.3581C97.5174 53.8225 92.8803 62.5391 89.7796 68.9005C86.5441 75.5325 82.7613 83.0563 81.0674 90.1764C78.6097 88.6104 66.6837 86.7581 65.7624 86.8408C65.6726 86.8478 65.5894 86.8902 65.5309 86.9587C65.4724 87.0271 65.4435 87.116 65.4505 87.2058C65.4575 87.2955 65.4999 87.3788 65.5684 87.4373C65.6368 87.4958 65.7257 87.5247 65.8155 87.5177C67.2162 87.4306 72.3996 92.2035 73.7577 93.4145C75.6173 95.1293 77.5897 96.7177 79.6615 98.1691C81.9655 100.107 84.4889 101.768 87.1801 103.118C87.2255 103.139 87.2749 103.148 87.3245 103.146C87.3994 103.145 87.4718 103.119 87.5301 103.072C87.5884 103.024 87.6293 102.959 87.6464 102.886C94.1566 75.6482 103.132 49.1828 103.461 48.8287C103.508 48.7806 103.539 48.7195 103.552 48.6534C103.564 48.5873 103.556 48.5191 103.529 48.4575C103.502 48.3959 103.457 48.3438 103.401 48.3076C103.344 48.2715 103.278 48.253 103.211 48.2545C103.166 48.2553 103.122 48.2648 103.081 48.2826C103.04 48.3003 103.003 48.326 102.972 48.3581Z" fill="#15376D"/>
<path d="M130.904 89.0323C138.385 85.9551 141.56 76.4347 137.994 67.7695C134.43 59.1026 125.476 54.5716 117.995 57.6488C110.514 60.726 107.339 70.2464 110.904 78.9116C114.469 87.5786 123.424 92.1095 130.904 89.0323Z" fill="#F2F7F8"/>
<path d="M138.308 67.6399C134.259 57.7976 123.234 53.1109 115.265 58.7659L109.319 61.8631C102.446 65.1143 99.7055 74.0144 103.077 82.1236C106.107 89.5691 113.88 94.4881 120.999 92.4123C129.037 90.0633 130.633 89.5413 130.999 89.3829C139.216 85.8081 141.723 75.9327 138.308 67.6399ZM130.775 88.7191C123.479 91.7197 114.706 87.2627 111.218 78.7837C107.73 70.3047 110.828 60.9635 118.123 57.962C125.722 54.8378 134.329 59.7516 137.68 67.8983C141.168 76.3782 138.069 85.7185 130.775 88.7191Z" fill="#15376D"/>
<path d="M154.924 50.2947C151.485 52.1922 151.07 53.8295 145.276 57.6183C140.724 60.1477 135.86 62.0699 130.809 63.336C129.605 63.5918 128.377 63.7117 127.147 63.6936C125.718 63.6066 124.371 63.2255 122.95 63.7806C118.997 65.3292 117.502 70.7458 119.47 75.7474C121.438 80.749 126.356 83.4513 130.276 81.82C132.605 80.8517 133.745 78.2278 135.813 76.8192C137.928 75.393 140.206 74.2247 142.599 73.3392C155.224 68.5743 161.871 70.9459 166.89 65.9268C172.442 60.3762 168.88 51.2369 161.89 49.4055C159.54 48.7974 157.046 49.1157 154.924 50.2947Z" fill="#F2F7F8"/>
<path d="M127.873 82.623C124.079 82.623 120.648 79.6824 119.151 75.8718C117.116 70.6918 118.763 65.1265 122.821 63.4665C125.159 62.5887 126.694 63.9363 130.732 63.0028C135.759 61.7682 140.595 59.8577 145.108 57.3234C151.165 53.3614 151.309 51.8555 154.758 49.998C160.124 46.9669 166.742 49.7518 169.077 55.2528C169.914 57.0509 170.177 59.0638 169.828 61.0166C169.479 62.9694 168.536 64.7668 167.127 66.1635C164.208 69.0823 160.222 69.6757 156.366 70.2525C149.232 71.3148 141.997 73.1044 135.997 77.1046C133.36 78.936 132.336 82.6222 127.873 82.623ZM123.068 64.0981C119.36 65.6154 117.882 70.7867 119.782 75.623C121.815 80.7969 126.667 82.931 130.144 81.5059C132.308 80.5907 133.583 77.9546 135.616 76.5409C140.719 73.1392 147.301 71.0868 153.346 70.0541C157.982 69.1624 163.177 69.1598 166.648 65.6833C171.983 60.3493 168.657 51.544 161.801 49.7292C159.535 49.1428 157.13 49.4519 155.085 50.5922C151.779 52.4192 151.567 53.9095 145.462 57.9002C140.885 60.4696 135.982 62.4079 130.885 63.6622C126.917 64.5801 125.115 63.3308 123.068 64.0981Z" fill="#15376D"/>
<path d="M157.346 63.7353C154.283 60.0996 153.908 53.0395 157.937 50.1094C158.01 50.0564 158.101 50.0346 158.19 50.0486C158.279 50.0626 158.358 50.1114 158.411 50.1842C158.464 50.257 158.486 50.3478 158.472 50.4368C158.458 50.5257 158.409 50.6054 158.336 50.6583C154.671 53.324 155.03 59.9369 157.861 63.2934C158.721 64.3055 159.847 65.0574 161.111 65.4641C162.376 65.8708 163.729 65.9163 165.018 65.5954C165.105 65.5723 165.198 65.5848 165.276 65.6301C165.354 65.6753 165.41 65.7497 165.433 65.8368C165.457 65.9239 165.444 66.0166 165.399 66.0945C165.354 66.1724 165.279 66.2292 165.192 66.2522C163.78 66.6055 162.296 66.5571 160.91 66.1124C159.524 65.6677 158.289 64.8443 157.346 63.7353Z" fill="#15376D"/>
</svg>