<svg width="174" height="174" viewBox="0 0 174 174" fill="none" xmlns="http://www.w3.org/2000/svg">
<path d="M4.76324 153.67H169.237" stroke="#AEC7F6" stroke-linecap="round" stroke-linejoin="round"/>
<path d="M78.0855 63.668V109.179H25.4376V153.669H144.401V63.668H78.0855Z" stroke="#AEC7F6" stroke-linecap="round" stroke-linejoin="round"/>
<path d="M78.0691 63.668H53.8586V109.178H78.0691V63.668Z" stroke="#AEC7F6" stroke-linecap="round" stroke-linejoin="round"/>
<path d="M47.033 109.18V153.67" stroke="#AEC7F6" stroke-linecap="round" stroke-linejoin="round"/>
<path d="M147.411 58.9336H81.079V63.6704H147.411V58.9336Z" fill="#36383B"/>
<path d="M147.411 58.9336H81.079V63.6704H147.411V58.9336Z" stroke="#AEC7F6" stroke-linecap="round" stroke-linejoin="round"/>
<path d="M143.48 50.3965H77.148V58.9491H143.48V50.3965Z" fill="#36383B"/>
<path d="M143.48 50.3965H77.148V58.9491H143.48V50.3965Z" stroke="#AEC7F6" stroke-linecap="round" stroke-linejoin="round"/>
<path d="M77.148 58.9318V50.3965H54.7796V58.9318H50.8652V63.6695H81.0954V58.9318H77.148Z" fill="#36383B"/>
<path d="M77.148 58.9318V50.3965H54.7796V58.9318H50.8652V63.6695H81.0954V58.9318H77.148Z" stroke="#AEC7F6" stroke-linecap="round" stroke-linejoin="round"/>
<path d="M78.0856 96.8262H44.9442V104.425H78.0856V96.8262Z" fill="#36383B"/>
<path d="M78.0856 96.8262H44.9442V104.425H78.0856V96.8262Z" stroke="#AEC7F6" stroke-linecap="round" stroke-linejoin="round"/>
<path d="M44.9441 104.426V96.8262H27.5922V104.426H22.4442V109.162H50.0264V104.426H44.9441Z" fill="#36383B"/>
<path d="M44.9441 104.426V96.8262H27.5922V104.426H22.4442V109.162H50.0264V104.426H44.9441Z" stroke="#AEC7F6" stroke-linecap="round" stroke-linejoin="round"/>
<path d="M147.411 104.426H50.0264V109.163H147.411V104.426Z" fill="#36383B"/>
<path d="M147.411 104.426H50.0264V109.163H147.411V104.426Z" stroke="#AEC7F6" stroke-linecap="round" stroke-linejoin="round"/>
<path d="M81.0954 81.6777H50.8652V86.4146H81.0954V81.6777Z" fill="#36383B"/>
<path d="M81.0954 81.6777H50.8652V86.4146H81.0954V81.6777Z" stroke="#AEC7F6" stroke-linecap="round" stroke-linejoin="round"/>
<path d="M147.411 81.6777H81.079V86.4146H147.411V81.6777Z" fill="#36383B"/>
<path d="M147.411 81.6777H81.079V86.4146H147.411V81.6777Z" stroke="#AEC7F6" stroke-linecap="round" stroke-linejoin="round"/>
<path d="M50.0264 127.156H22.4442V131.893H50.0264V127.156Z" fill="#36383B"/>
<path d="M50.0264 127.156H22.4442V131.893H50.0264V127.156Z" stroke="#AEC7F6" stroke-linecap="round" stroke-linejoin="round"/>
<path d="M147.411 127.156H50.0264V131.893H147.411V127.156Z" fill="#36383B"/>
<path d="M147.411 127.156H50.0264V131.893H147.411V127.156Z" stroke="#AEC7F6" stroke-linecap="round" stroke-linejoin="round"/>
<path d="M87.2467 139.459H84.5822V153.669H87.2467V139.459Z" stroke="#AEC7F6" stroke-linecap="round" stroke-linejoin="round"/>
<path d="M106.868 139.459H104.204V153.669H106.868V139.459Z" stroke="#AEC7F6" stroke-linecap="round" stroke-linejoin="round"/>
<path d="M104.187 139.459H87.2467V153.669H104.187V139.459Z" stroke="#AEC7F6" stroke-linecap="round" stroke-linejoin="round"/>
<path d="M109.632 136.168H81.8026V139.457H109.632V136.168Z" fill="#36383B"/>
<path d="M109.632 136.168H81.8026V139.457H109.632V136.168Z" stroke="#AEC7F6" stroke-linecap="round" stroke-linejoin="round"/>
<path d="M95.7335 139.459V153.67" stroke="#AEC7F6" stroke-linecap="round" stroke-linejoin="round"/>
<path d="M97.0493 145.594V147.518" stroke="#AEC7F6" stroke-linecap="round" stroke-linejoin="round"/>
<path d="M94.4013 145.594V147.518" stroke="#AEC7F6" stroke-linecap="round" stroke-linejoin="round"/>
<path d="M88.7598 67.9629H82.4276V77.4037H88.7598V67.9629Z" stroke="#AEC7F6" stroke-linecap="round" stroke-linejoin="round"/>
<path d="M85.5855 67.9941V77.402" stroke="#AEC7F6" stroke-linecap="round" stroke-linejoin="round"/>
<path d="M88.7598 72.6816H82.4276" stroke="#AEC7F6" stroke-linecap="round" stroke-linejoin="round"/>
<path d="M140.108 67.9629H133.776V77.4037H140.108V67.9629Z" stroke="#AEC7F6" stroke-linecap="round" stroke-linejoin="round"/>
<path d="M136.951 67.9941V77.402" stroke="#AEC7F6" stroke-linecap="round" stroke-linejoin="round"/>
<path d="M140.108 72.6816H133.776" stroke="#AEC7F6" stroke-linecap="round" stroke-linejoin="round"/>
<path d="M129.845 67.9629H123.513V77.4037H129.845V67.9629Z" stroke="#AEC7F6" stroke-linecap="round" stroke-linejoin="round"/>
<path d="M126.671 67.9941V77.402" stroke="#AEC7F6" stroke-linecap="round" stroke-linejoin="round"/>
<path d="M129.845 72.6816H123.513" stroke="#AEC7F6" stroke-linecap="round" stroke-linejoin="round"/>
<path d="M119.566 67.9629H113.234V77.4037H119.566V67.9629Z" stroke="#AEC7F6" stroke-linecap="round" stroke-linejoin="round"/>
<path d="M116.408 67.9941V77.402" stroke="#AEC7F6" stroke-linecap="round" stroke-linejoin="round"/>
<path d="M119.566 72.6816H113.234" stroke="#AEC7F6" stroke-linecap="round" stroke-linejoin="round"/>
<path d="M109.303 67.9629H102.97V77.4037H109.303V67.9629Z" stroke="#AEC7F6" stroke-linecap="round" stroke-linejoin="round"/>
<path d="M106.128 67.9941V77.402" stroke="#AEC7F6" stroke-linecap="round" stroke-linejoin="round"/>
<path d="M109.303 72.6816H102.97" stroke="#AEC7F6" stroke-linecap="round" stroke-linejoin="round"/>
<path d="M99.023 67.9629H92.6908V77.4037H99.023V67.9629Z" stroke="#AEC7F6" stroke-linecap="round" stroke-linejoin="round"/>
<path d="M95.8651 67.9941V77.402" stroke="#AEC7F6" stroke-linecap="round" stroke-linejoin="round"/>
<path d="M99.023 72.6816H92.6908" stroke="#AEC7F6" stroke-linecap="round" stroke-linejoin="round"/>
<path d="M88.7105 90.709H82.3783V100.15H88.7105V90.709Z" stroke="#AEC7F6" stroke-linecap="round" stroke-linejoin="round"/>
<path d="M85.5362 90.709V100.149" stroke="#AEC7F6" stroke-linecap="round" stroke-linejoin="round"/>
<path d="M88.7105 95.4277H82.3783" stroke="#AEC7F6" stroke-linecap="round" stroke-linejoin="round"/>
<path d="M140.108 90.709H133.776V100.15H140.108V90.709Z" stroke="#AEC7F6" stroke-linecap="round" stroke-linejoin="round"/>
<path d="M136.951 90.709V100.149" stroke="#AEC7F6" stroke-linecap="round" stroke-linejoin="round"/>
<path d="M140.108 95.4277H133.776" stroke="#AEC7F6" stroke-linecap="round" stroke-linejoin="round"/>
<path d="M129.829 90.709H123.497V100.15H129.829V90.709Z" stroke="#AEC7F6" stroke-linecap="round" stroke-linejoin="round"/>
<path d="M126.671 90.709V100.149" stroke="#AEC7F6" stroke-linecap="round" stroke-linejoin="round"/>
<path d="M129.829 95.4277H123.497" stroke="#AEC7F6" stroke-linecap="round" stroke-linejoin="round"/>
<path d="M119.549 90.709H113.217V100.15H119.549V90.709Z" stroke="#AEC7F6" stroke-linecap="round" stroke-linejoin="round"/>
<path d="M116.391 90.709V100.149" stroke="#AEC7F6" stroke-linecap="round" stroke-linejoin="round"/>
<path d="M119.549 95.4277H113.217" stroke="#AEC7F6" stroke-linecap="round" stroke-linejoin="round"/>
<path d="M109.27 90.709H102.938V100.15H109.27V90.709Z" stroke="#AEC7F6" stroke-linecap="round" stroke-linejoin="round"/>
<path d="M106.095 90.709V100.149" stroke="#AEC7F6" stroke-linecap="round" stroke-linejoin="round"/>
<path d="M109.27 95.4277H102.938" stroke="#AEC7F6" stroke-linecap="round" stroke-linejoin="round"/>
<path d="M98.9901 90.709H92.6579V100.15H98.9901V90.709Z" stroke="#AEC7F6" stroke-linecap="round" stroke-linejoin="round"/>
<path d="M95.8158 90.709V100.149" stroke="#AEC7F6" stroke-linecap="round" stroke-linejoin="round"/>
<path d="M98.9901 95.4277H92.6579" stroke="#AEC7F6" stroke-linecap="round" stroke-linejoin="round"/>
<path d="M88.5789 113.438H82.2467V122.878H88.5789V113.438Z" stroke="#AEC7F6" stroke-linecap="round" stroke-linejoin="round"/>
<path d="M85.4211 113.438V122.878" stroke="#AEC7F6" stroke-linecap="round" stroke-linejoin="round"/>
<path d="M88.5954 118.158H82.2467" stroke="#AEC7F6" stroke-linecap="round" stroke-linejoin="round"/>
<path d="M78.2829 113.438H71.9507V122.878H78.2829V113.438Z" stroke="#AEC7F6" stroke-linecap="round" stroke-linejoin="round"/>
<path d="M75.1086 113.438V122.878" stroke="#AEC7F6" stroke-linecap="round" stroke-linejoin="round"/>
<path d="M78.2829 118.158H71.9507" stroke="#AEC7F6" stroke-linecap="round" stroke-linejoin="round"/>
<path d="M67.9704 113.438H61.6382V122.878H67.9704V113.438Z" stroke="#AEC7F6" stroke-linecap="round" stroke-linejoin="round"/>
<path d="M64.8125 113.438V122.878" stroke="#AEC7F6" stroke-linecap="round" stroke-linejoin="round"/>
<path d="M67.9704 118.158H61.6382" stroke="#AEC7F6" stroke-linecap="round" stroke-linejoin="round"/>
<path d="M57.6744 113.438H51.3422V122.878H57.6744V113.438Z" stroke="#AEC7F6" stroke-linecap="round" stroke-linejoin="round"/>
<path d="M54.5001 113.438V122.878" stroke="#AEC7F6" stroke-linecap="round" stroke-linejoin="round"/>
<path d="M57.6744 118.158H51.3422" stroke="#AEC7F6" stroke-linecap="round" stroke-linejoin="round"/>
<path d="M140.108 113.438H133.776V122.878H140.108V113.438Z" stroke="#AEC7F6" stroke-linecap="round" stroke-linejoin="round"/>
<path d="M136.951 113.438V122.878" stroke="#AEC7F6" stroke-linecap="round" stroke-linejoin="round"/>
<path d="M140.108 118.158H133.776" stroke="#AEC7F6" stroke-linecap="round" stroke-linejoin="round"/>
<path d="M129.812 113.438H123.48V122.878H129.812V113.438Z" stroke="#AEC7F6" stroke-linecap="round" stroke-linejoin="round"/>
<path d="M126.638 113.438V122.878" stroke="#AEC7F6" stroke-linecap="round" stroke-linejoin="round"/>
<path d="M129.812 118.158H123.48" stroke="#AEC7F6" stroke-linecap="round" stroke-linejoin="round"/>
<path d="M119.5 113.438H113.168V122.878H119.5V113.438Z" stroke="#AEC7F6" stroke-linecap="round" stroke-linejoin="round"/>
<path d="M116.342 113.438V122.878" stroke="#AEC7F6" stroke-linecap="round" stroke-linejoin="round"/>
<path d="M119.5 118.158H113.168" stroke="#AEC7F6" stroke-linecap="round" stroke-linejoin="round"/>
<path d="M109.204 113.438H102.872V122.878H109.204V113.438Z" stroke="#AEC7F6" stroke-linecap="round" stroke-linejoin="round"/>
<path d="M106.03 113.438V122.878" stroke="#AEC7F6" stroke-linecap="round" stroke-linejoin="round"/>
<path d="M109.204 118.158H102.872" stroke="#AEC7F6" stroke-linecap="round" stroke-linejoin="round"/>
<path d="M98.8914 113.438H92.5592V122.878H98.8914V113.438Z" stroke="#AEC7F6" stroke-linecap="round" stroke-linejoin="round"/>
<path d="M95.7335 113.438V122.878" stroke="#AEC7F6" stroke-linecap="round" stroke-linejoin="round"/>
<path d="M98.8914 118.158H92.5592" stroke="#AEC7F6" stroke-linecap="round" stroke-linejoin="round"/>
<path d="M78.2829 138.307H71.9507V147.747H78.2829V138.307Z" stroke="#AEC7F6" stroke-linecap="round" stroke-linejoin="round"/>
<path d="M75.1086 138.307V147.748" stroke="#AEC7F6" stroke-linecap="round" stroke-linejoin="round"/>
<path d="M78.2829 143.027H71.9507" stroke="#AEC7F6" stroke-linecap="round" stroke-linejoin="round"/>
<path d="M67.9704 138.307H61.6382V147.747H67.9704V138.307Z" stroke="#AEC7F6" stroke-linecap="round" stroke-linejoin="round"/>
<path d="M64.8125 138.307V147.748" stroke="#AEC7F6" stroke-linecap="round" stroke-linejoin="round"/>
<path d="M67.9704 143.027H61.6382" stroke="#AEC7F6" stroke-linecap="round" stroke-linejoin="round"/>
<path d="M57.6744 138.307H51.3422V147.747H57.6744V138.307Z" stroke="#AEC7F6" stroke-linecap="round" stroke-linejoin="round"/>
<path d="M54.5001 138.307V147.748" stroke="#AEC7F6" stroke-linecap="round" stroke-linejoin="round"/>
<path d="M57.6744 143.027H51.3422" stroke="#AEC7F6" stroke-linecap="round" stroke-linejoin="round"/>
<path d="M140.108 138.307H133.776V147.747H140.108V138.307Z" stroke="#AEC7F6" stroke-linecap="round" stroke-linejoin="round"/>
<path d="M136.951 138.307V147.748" stroke="#AEC7F6" stroke-linecap="round" stroke-linejoin="round"/>
<path d="M140.108 143.027H133.776" stroke="#AEC7F6" stroke-linecap="round" stroke-linejoin="round"/>
<path d="M129.812 138.307H123.48V147.747H129.812V138.307Z" stroke="#AEC7F6" stroke-linecap="round" stroke-linejoin="round"/>
<path d="M126.638 138.307V147.748" stroke="#AEC7F6" stroke-linecap="round" stroke-linejoin="round"/>
<path d="M129.812 143.027H123.48" stroke="#AEC7F6" stroke-linecap="round" stroke-linejoin="round"/>
<path d="M119.5 138.307H113.168V147.747H119.5V138.307Z" stroke="#AEC7F6" stroke-linecap="round" stroke-linejoin="round"/>
<path d="M116.342 138.307V147.748" stroke="#AEC7F6" stroke-linecap="round" stroke-linejoin="round"/>
<path d="M119.5 143.027H113.168" stroke="#AEC7F6" stroke-linecap="round" stroke-linejoin="round"/>
<path d="M64.1217 67.9629H58.1678V77.4037H64.1217V67.9629Z" stroke="#AEC7F6" stroke-linecap="round" stroke-linejoin="round"/>
<path d="M61.1448 67.9941V77.402" stroke="#AEC7F6" stroke-linecap="round" stroke-linejoin="round"/>
<path d="M64.1217 72.6816H58.1678" stroke="#AEC7F6" stroke-linecap="round" stroke-linejoin="round"/>
<path d="M73.7763 67.9629H67.8224V77.4037H73.7763V67.9629Z" stroke="#AEC7F6" stroke-linecap="round" stroke-linejoin="round"/>
<path d="M70.7994 67.9941V77.402" stroke="#AEC7F6" stroke-linecap="round" stroke-linejoin="round"/>
<path d="M73.7599 72.6816H67.8224" stroke="#AEC7F6" stroke-linecap="round" stroke-linejoin="round"/>
<path d="M64.1217 90.709H58.1678V96.8274H64.1217V90.709Z" stroke="#AEC7F6" stroke-linecap="round" stroke-linejoin="round"/>
<path d="M61.1448 90.7246V96.8266" stroke="#AEC7F6" stroke-linecap="round" stroke-linejoin="round"/>
<path d="M64.1217 93.752H58.1678" stroke="#AEC7F6" stroke-linecap="round" stroke-linejoin="round"/>
<path d="M73.7763 90.709H67.8224V96.811H73.7763V90.709Z" stroke="#AEC7F6" stroke-linecap="round" stroke-linejoin="round"/>
<path d="M70.7994 90.7246V96.8101" stroke="#AEC7F6" stroke-linecap="round" stroke-linejoin="round"/>
<path d="M73.7599 93.752H67.8224" stroke="#AEC7F6" stroke-linecap="round" stroke-linejoin="round"/>
<path d="M34.2205 113.438H28.2665V122.878H34.2205V113.438Z" stroke="#AEC7F6" stroke-linecap="round" stroke-linejoin="round"/>
<path d="M31.2271 113.455V122.879" stroke="#AEC7F6" stroke-linecap="round" stroke-linejoin="round"/>
<path d="M34.204 118.158H28.2665" stroke="#AEC7F6" stroke-linecap="round" stroke-linejoin="round"/>
<path d="M43.8586 113.438H37.9047V122.878H43.8586V113.438Z" stroke="#AEC7F6" stroke-linecap="round" stroke-linejoin="round"/>
<path d="M40.8817 113.455V122.879" stroke="#AEC7F6" stroke-linecap="round" stroke-linejoin="round"/>
<path d="M43.8586 118.158H37.9047" stroke="#AEC7F6" stroke-linecap="round" stroke-linejoin="round"/>
<path d="M34.2205 138.307H28.2665V147.747H34.2205V138.307Z" stroke="#AEC7F6" stroke-linecap="round" stroke-linejoin="round"/>
<path d="M31.2271 138.324V147.749" stroke="#AEC7F6" stroke-linecap="round" stroke-linejoin="round"/>
<path d="M34.204 143.027H28.2665" stroke="#AEC7F6" stroke-linecap="round" stroke-linejoin="round"/>
<path d="M43.8586 138.307H37.9047V147.747H43.8586V138.307Z" stroke="#AEC7F6" stroke-linecap="round" stroke-linejoin="round"/>
<path d="M40.8817 138.324V147.749" stroke="#AEC7F6" stroke-linecap="round" stroke-linejoin="round"/>
<path d="M43.8586 143.027H37.9047" stroke="#AEC7F6" stroke-linecap="round" stroke-linejoin="round"/>
<path d="M40.8816 78.1247H18.8941C18.8941 78.1247 23.0224 74.3911 26.0651 76.267C26.3245 75.8379 26.6695 75.467 27.0788 75.1773C27.488 74.8877 27.9526 74.6856 28.4434 74.5836C28.9343 74.4816 29.4409 74.482 29.9317 74.5848C30.4224 74.6875 30.8866 74.8904 31.2954 75.1806C31.928 74.2565 32.8395 73.5586 33.8967 73.1889C34.9539 72.8193 36.1016 72.7971 37.1722 73.1258C38.2429 73.4544 39.1805 74.1167 39.8483 75.0157C40.516 75.9149 40.879 77.0039 40.8842 78.1238L40.8816 78.1247Z" stroke="#AEC7F6" stroke-linecap="round" stroke-linejoin="round"/>
<path d="M31.2928 75.1641C31.634 75.4286 31.9431 75.7322 32.2138 76.0687" stroke="#AEC7F6" stroke-linecap="round" stroke-linejoin="round"/>
<path d="M26.0626 76.25C26.2517 76.376 26.4329 76.5132 26.6053 76.6612" stroke="#AEC7F6" stroke-linecap="round" stroke-linejoin="round"/>
<path d="M159.78 41.0037H129.039C129.039 41.0037 134.812 35.7899 139.056 38.4068C139.417 37.8065 139.898 37.2873 140.469 36.8815C141.039 36.4757 141.688 36.1922 142.373 36.0486C143.059 35.905 143.767 35.9044 144.452 36.047C145.138 36.1896 145.787 36.4722 146.358 36.8772C147.244 35.5825 148.52 34.605 150 34.0874C151.481 33.5699 153.088 33.5396 154.587 34.0008C156.087 34.462 157.399 35.3907 158.332 36.6509C159.265 37.9112 159.772 39.4371 159.776 41.0054L159.78 41.0037Z" stroke="#AEC7F6" stroke-linecap="round" stroke-linejoin="round"/>
<path d="M146.358 36.8594C146.834 37.23 147.265 37.655 147.641 38.1258" stroke="#AEC7F6" stroke-linecap="round" stroke-linejoin="round"/>
<path d="M139.056 38.3887C139.326 38.5628 139.585 38.7552 139.829 38.9643" stroke="#AEC7F6" stroke-linecap="round" stroke-linejoin="round"/>
<path d="M158.33 153.076C158.336 153.268 158.324 153.461 158.297 153.652H121.193C122.654 151.907 124.707 150.762 126.959 150.438C129.212 150.113 131.505 150.632 133.399 151.893C133.501 150.664 134.022 149.506 134.876 148.615C135.729 147.724 136.863 147.153 138.087 146.999C139.311 146.845 140.552 147.117 141.599 147.768C142.647 148.419 143.44 149.411 143.843 150.577C144.431 148.918 145.586 147.521 147.105 146.631C148.623 145.742 150.407 145.419 152.142 145.718C153.876 146.017 155.449 146.92 156.581 148.267C157.714 149.613 158.335 151.316 158.333 153.076H158.33Z" fill="#36383B"/>
<path d="M158.33 153.076C158.336 153.268 158.324 153.461 158.297 153.652H121.193C122.654 151.907 124.707 150.762 126.959 150.438C129.212 150.113 131.505 150.632 133.399 151.893C133.501 150.664 134.022 149.506 134.876 148.615C135.729 147.724 136.863 147.153 138.087 146.999C139.311 146.845 140.552 147.117 141.599 147.768C142.647 148.419 143.44 149.411 143.843 150.577C144.431 148.918 145.586 147.521 147.105 146.631C148.623 145.742 150.407 145.419 152.142 145.718C153.876 146.017 155.449 146.92 156.581 148.267C157.714 149.613 158.335 151.316 158.333 153.076H158.33Z" stroke="#AEC7F6" stroke-linecap="round" stroke-linejoin="round"/>
<path d="M143.842 150.592C143.705 151.017 143.595 151.451 143.513 151.89" stroke="#AEC7F6" stroke-linecap="round" stroke-linejoin="round"/>
<path d="M133.399 151.908C133.379 152.177 133.379 152.447 133.399 152.715" stroke="#AEC7F6" stroke-linecap="round" stroke-linejoin="round"/>
<path d="M64.8126 153.67H45.6349C45.3682 153.116 45.2129 152.517 45.178 151.904C45.1431 151.291 45.2292 150.677 45.4315 150.097C45.6339 149.518 45.9484 148.984 46.3572 148.525C46.7658 148.067 47.2608 147.694 47.8138 147.427C48.3667 147.161 48.9667 147.005 49.5797 146.97C50.1927 146.936 50.8065 147.021 51.3861 147.224C51.9658 147.427 52.4999 147.741 52.958 148.149C53.4161 148.558 53.7892 149.053 54.056 149.606C54.8166 149.412 55.6226 149.51 56.3141 149.882C57.0056 150.254 57.5323 150.872 57.7895 151.614C59.019 151.104 60.3861 151.029 61.6636 151.403C62.9411 151.777 64.0523 152.577 64.8126 153.67Z" fill="#36383B"/>
<path d="M64.8126 153.67H45.6349C45.3682 153.116 45.2129 152.517 45.178 151.904C45.1431 151.291 45.2292 150.677 45.4315 150.097C45.6339 149.518 45.9484 148.984 46.3572 148.525C46.7658 148.067 47.2608 147.694 47.8138 147.427C48.3667 147.161 48.9667 147.005 49.5797 146.97C50.1927 146.936 50.8065 147.021 51.3861 147.224C51.9658 147.427 52.4999 147.741 52.958 148.149C53.4161 148.558 53.7892 149.053 54.056 149.606C54.8166 149.412 55.6226 149.51 56.3141 149.882C57.0056 150.254 57.5323 150.872 57.7895 151.614C59.019 151.104 60.386 151.029 61.6636 151.403C62.9411 151.777 64.0523 152.577 64.8126 153.67Z" stroke="#AEC7F6" stroke-linecap="round" stroke-linejoin="round"/>
<path d="M54.056 149.623C54.197 149.994 54.291 150.38 54.3356 150.774" stroke="#AEC7F6" stroke-linecap="round" stroke-linejoin="round"/>
<path d="M57.806 151.629C57.5203 151.76 57.2453 151.915 56.9836 152.089" stroke="#AEC7F6" stroke-linecap="round" stroke-linejoin="round"/>
<path d="M10.4376 130.527C10.4216 131.723 10.7366 132.901 11.3478 133.93C11.959 134.958 12.8425 135.799 13.901 136.356C14.9595 136.915 16.1516 137.169 17.3457 137.093C18.5398 137.016 19.6896 136.611 20.6678 135.922C21.2959 136.418 22.0471 136.734 22.841 136.836C23.6348 136.938 24.4415 136.823 25.1747 136.502C25.9079 136.18 26.5401 135.666 27.0036 135.014C27.4671 134.361 27.7444 133.595 27.806 132.797C28.42 132.941 29.062 132.913 29.6611 132.715C30.26 132.517 30.7926 132.158 31.1996 131.676C31.6065 131.193 31.8722 130.608 31.9671 129.985C32.0619 129.361 31.9822 128.723 31.7369 128.142C32.6393 127.578 33.3221 126.721 33.672 125.716C34.0219 124.711 34.0183 123.616 33.6615 122.613C33.3048 121.61 32.6163 120.759 31.7101 120.2C30.8038 119.641 29.734 119.409 28.6777 119.541C29 118.289 28.8229 116.96 28.1837 115.837C27.5445 114.713 26.4936 113.882 25.2527 113.519C24.0119 113.156 22.6786 113.289 21.5345 113.892C20.3904 114.493 19.5253 115.517 19.1218 116.745C18.6084 116.011 17.865 115.469 17.0092 115.205C16.1535 114.941 15.2341 114.969 14.3964 115.286C13.5587 115.603 12.8505 116.19 12.3838 116.954C11.9171 117.719 11.7184 118.617 11.8192 119.507C10.4944 119.571 9.23467 120.101 8.2616 121.002C7.28855 121.904 6.66445 123.12 6.49904 124.435C6.33363 125.751 6.63751 127.083 7.35723 128.197C8.07696 129.312 9.16645 130.136 10.4341 130.527H10.4376Z" fill="#36383B"/>
<path d="M10.4376 130.527C10.4216 131.723 10.7366 132.901 11.3478 133.93C11.959 134.958 12.8425 135.799 13.901 136.356C14.9595 136.915 16.1516 137.169 17.3457 137.093C18.5398 137.016 19.6896 136.611 20.6678 135.922C21.2959 136.418 22.0471 136.734 22.841 136.836C23.6348 136.938 24.4415 136.823 25.1747 136.502C25.908 136.18 26.5401 135.666 27.0036 135.014C27.4671 134.361 27.7444 133.595 27.806 132.797C28.42 132.941 29.062 132.913 29.6611 132.715C30.26 132.517 30.7926 132.158 31.1996 131.676C31.6065 131.193 31.8722 130.608 31.9671 129.985C32.0619 129.361 31.9822 128.723 31.7369 128.142C32.6393 127.578 33.3221 126.721 33.672 125.716C34.0219 124.711 34.0183 123.616 33.6615 122.613C33.3048 121.61 32.6163 120.759 31.7101 120.2C30.8038 119.641 29.734 119.409 28.6777 119.541C29 118.289 28.8229 116.96 28.1837 115.837C27.5445 114.713 26.4936 113.882 25.2527 113.519C24.0119 113.156 22.6786 113.289 21.5345 113.892C20.3904 114.493 19.5253 115.517 19.1218 116.745C18.6084 116.011 17.865 115.469 17.0092 115.205C16.1535 114.941 15.2341 114.969 14.3964 115.286C13.5587 115.603 12.8505 116.19 12.3838 116.954C11.9171 117.719 11.7184 118.617 11.8192 119.507C10.4944 119.571 9.23467 120.101 8.2616 121.002C7.28855 121.904 6.66445 123.12 6.49904 124.435C6.33363 125.751 6.63751 127.083 7.35723 128.197C8.07696 129.312 9.16645 130.136 10.4341 130.527H10.4376Z" stroke="#AEC7F6" stroke-linecap="round" stroke-linejoin="round"/>
<path d="M27.8224 121.279C28.2206 120.755 28.5112 120.157 28.6777 119.52" stroke="#AEC7F6" stroke-linecap="round" stroke-linejoin="round"/>
<path d="M19.8256 119.028C19.8303 118.225 19.5886 117.439 19.1331 116.777" stroke="#AEC7F6" stroke-linecap="round" stroke-linejoin="round"/>
<path d="M13.3652 119.624C12.8588 119.505 12.3388 119.455 11.8192 119.475" stroke="#AEC7F6" stroke-linecap="round" stroke-linejoin="round"/>
<path d="M31.7369 128.127C31.5355 127.647 31.226 127.218 30.8323 126.877" stroke="#AEC7F6" stroke-linecap="round" stroke-linejoin="round"/>
<path d="M27.806 132.797C27.8558 132.208 27.783 131.615 27.5922 131.055" stroke="#AEC7F6" stroke-linecap="round" stroke-linejoin="round"/>
<path d="M10.5856 129.242C10.4859 129.696 10.4363 130.159 10.4376 130.623" stroke="#AEC7F6" stroke-linecap="round" stroke-linejoin="round"/>
<path d="M26.5395 123.949C26.7495 123.587 26.829 123.165 26.7649 122.752C26.7008 122.339 26.4969 121.96 26.1874 121.679C25.8778 121.398 25.4812 121.232 25.0639 121.208C24.6464 121.184 24.2336 121.304 23.8941 121.548" stroke="#AEC7F6" stroke-linecap="round" stroke-linejoin="round"/>
<path d="M27.7895 124.639C27.9143 124.459 27.9875 124.247 28.0011 124.028C28.0147 123.809 27.9682 123.59 27.8666 123.396C27.7651 123.202 27.6123 123.038 27.4248 122.924C27.2373 122.81 27.0222 122.749 26.8027 122.748" stroke="#AEC7F6" stroke-linecap="round" stroke-linejoin="round"/>
<path d="M19.056 129.984C18.9971 130.486 19.0878 130.992 19.3169 131.441C19.546 131.891 19.9031 132.262 20.3431 132.509C20.7832 132.755 21.2863 132.865 21.789 132.826C22.2918 132.786 22.7716 132.599 23.1679 132.287" stroke="#AEC7F6" stroke-linecap="round" stroke-linejoin="round"/>
<path d="M17.1974 130.807C17.3859 131.215 17.7284 131.533 18.15 131.69C18.5718 131.846 19.0383 131.831 19.4481 131.645" stroke="#AEC7F6" stroke-linecap="round" stroke-linejoin="round"/>
<path d="M17.5749 153.537H22.1308L21.588 132.829C21.161 132.826 20.7416 132.716 20.3681 132.509C19.9945 132.302 19.6788 132.005 19.4499 131.645C19.2473 131.739 19.0275 131.791 18.8041 131.796C18.5807 131.802 18.3585 131.761 18.1514 131.677L17.954 141.348C16.8809 140.27 15.7078 139.295 14.4508 138.437L14.1045 138.865C14.1045 138.865 17.9038 142.927 17.8709 144.145L17.5749 153.537Z" fill="#36383B"/>
<path d="M17.5749 153.537H22.1308L21.588 132.829C21.161 132.826 20.7416 132.716 20.3681 132.509C19.9945 132.302 19.6788 132.005 19.4499 131.645C19.2473 131.739 19.0275 131.791 18.8041 131.796C18.5807 131.802 18.3585 131.761 18.1514 131.677L17.954 141.348C16.8809 140.27 15.7078 139.295 14.4508 138.437L14.1045 138.865C14.1045 138.865 17.9038 142.927 17.8709 144.145L17.5749 153.537Z" stroke="#AEC7F6" stroke-linecap="round" stroke-linejoin="round"/>
<path d="M54.1763 24.4902H52.1238" stroke="#AEC7F6" stroke-linecap="round" stroke-linejoin="round"/>
<path d="M56.3404 22.3259V20.2734" stroke="#AEC7F6" stroke-linecap="round" stroke-linejoin="round"/>
<path d="M58.5045 24.4902H60.557" stroke="#AEC7F6" stroke-linecap="round" stroke-linejoin="round"/>
<path d="M56.3404 26.6543V28.7068" stroke="#AEC7F6" stroke-linecap="round" stroke-linejoin="round"/>
<path d="M56.3404 26.6544C57.5356 26.6544 58.5045 25.6855 58.5045 24.4903C58.5045 23.2951 57.5356 22.3262 56.3404 22.3262C55.1452 22.3262 54.1763 23.2951 54.1763 24.4903C54.1763 25.6855 55.1452 26.6544 56.3404 26.6544Z" stroke="#AEC7F6" stroke-linecap="round" stroke-linejoin="round"/>
<path d="M164.177 98.0137H162.537" stroke="#AEC7F6" stroke-linecap="round" stroke-linejoin="round"/>
<path d="M165.906 96.2841V94.6445" stroke="#AEC7F6" stroke-linecap="round" stroke-linejoin="round"/>
<path d="M167.634 98.0137H169.273" stroke="#AEC7F6" stroke-linecap="round" stroke-linejoin="round"/>
<path d="M165.906 99.7422V101.382" stroke="#AEC7F6" stroke-linecap="round" stroke-linejoin="round"/>
<path d="M165.906 99.7406C166.861 99.7406 167.634 98.9667 167.634 98.0119C167.634 97.0571 166.861 96.2832 165.906 96.2832C164.951 96.2832 164.177 97.0571 164.177 98.0119C164.177 98.9667 164.951 99.7406 165.906 99.7406Z" stroke="#AEC7F6" stroke-linecap="round" stroke-linejoin="round"/>
</svg>