<svg width="174" height="174" viewBox="0 0 174 174" fill="none" xmlns="http://www.w3.org/2000/svg">
<path fill-rule="evenodd" clip-rule="evenodd" d="M97.8359 79.1881L98.2039 77.4925L101.145 75.1896C101.145 75.1896 105.067 71.0023 108.949 70.7526C112.832 70.5029 114.952 71.6226 116.224 74.5466C116.224 74.5432 107.744 72.6944 97.8359 79.1881Z" fill="#36383B"/>
<path fill-rule="evenodd" clip-rule="evenodd" d="M115.526 45.3334C116.804 46.9664 117.521 48.9683 117.571 51.0415C118.048 51.0415 118.404 49.2667 121.474 48.4393C124.543 47.6119 124.78 47.2344 126.381 45.9755C127.981 44.7166 128.664 41.9735 131.278 40.3396C134.112 38.5674 133.837 38.7962 134.589 37.8984C135.342 37.0005 135.656 35.2806 136.696 34.9726C137.737 34.6646 137.685 33.6067 135.954 34.0913C134.209 34.5811 134.092 36.3715 133.988 35.5772C133.857 34.8804 133.815 34.1696 133.865 33.4623C133.891 31.8519 135.139 29.4603 134.126 29.8761C133.114 30.292 133.141 33.002 132.53 33.0038C131.919 33.0055 133.766 28.2831 132.565 28.9348C131.363 29.5864 131.72 33.3387 130.993 33.4588C130.267 33.5788 132.01 28.599 130.754 29.4637C129.499 30.3285 130.082 34.0634 129.524 34.2052C128.965 34.347 129.959 30.8923 129.496 30.4642C129.033 30.0362 128.663 30.8888 128.417 33.792C128.234 35.3536 128.398 36.9365 128.898 38.4273C127.031 40.2691 127.225 39.8802 123.243 42.01C119.26 44.1398 120.975 43.8666 117.564 45.0472C116.883 45.2847 115.112 44.8279 115.526 45.3334Z" fill="#36383B"/>
<path d="M82.3595 56.4676C81.3528 56.7711 80.3702 57.1491 79.4198 57.5986C77.7468 58.192 76.0494 57.0114 72.331 58.366C68.6126 59.7206 66.489 60.9638 65.6503 59.4265C64.8116 57.8892 65.9052 57.3098 65.0221 54.9199C64.3113 52.9929 63.9077 53.2843 64.3722 51.4443C64.8273 49.6373 63.3082 49.9957 62.8411 51.2998C62.4121 52.4978 63.0559 52.8206 62.5331 54.3327C62.3293 54.9606 62.1614 55.5996 62.0302 56.2467C61.4759 54.9605 60.7419 53.7595 59.85 52.6797C58.2066 50.5777 56.6475 48.5463 55.9098 49.4894C55.3808 50.1671 59.3715 54.1621 58.8843 54.7094C58.3971 55.2566 55.0563 49.0796 54.0915 49.8678C52.7438 50.9727 57.8612 55.1496 57.1947 56.0396C56.5283 56.9296 53.1971 50.8753 52.6038 53.1782C52.3227 54.2657 56.7458 57.034 56.0838 57.8605C55.4217 58.687 52.8395 54.5128 52.5211 56.3545C52.2975 57.6508 55.4382 58.2242 56.7493 60.2139C58.0604 62.2036 58.7277 63.0666 60.2754 63.4894C61.8231 63.9122 64.6498 62.9152 68.9545 63.8792C73.2593 64.8431 79.3075 64.2272 82.3969 62.7891C83.4825 62.2187 84.6336 61.7828 85.8247 61.491C85.6159 60.3374 85.9004 55.6046 82.3595 56.4676Z" fill="#36383B"/>
<path fill-rule="evenodd" clip-rule="evenodd" d="M111.558 55.6696H117.228C118.309 48.8488 115.526 45.334 115.526 45.334C112.375 45.8908 110.053 46.8495 107.845 46.8826L101.007 46.9913C94.8823 46.3023 94.9832 48.2494 94.9832 48.2494C94.9832 48.2494 91.1613 52.4053 89.8502 52.6168C84.2892 53.5216 80.3524 57.1947 79.907 57.4096C79.907 57.4096 84.3335 54.3646 85.515 59.0939C86.6129 63.4918 86.211 64.869 84.384 64.956C82.7823 65.0325 81.727 63.2403 81.727 63.2403L80.9623 63.3273C80.9623 63.3273 82.1725 66.87 85.6342 65.2918C89.0959 63.7136 88.7662 64.0103 89.6579 65.5441C90.5497 67.0796 92.8856 67.3354 91.9591 72.3971C91.0325 77.4587 94.1506 76.5835 92.5176 78.9073C91.5614 80.1583 91.1197 81.7277 91.2831 83.2938C93.022 83.4602 94.7732 83.1447 96.3448 82.3821C96.8076 82.1454 97.8325 78.6933 98.3675 77.3648C103.371 71.6054 116.066 65.8695 116.464 77.8076C117.55 76.2573 115.959 68.4203 114.295 64.5445C113.098 61.7605 112.795 57.8524 112.485 57.4105L111.558 55.6696Z" fill="#36383B"/>
<path d="M104.574 53.5215L102.012 54.0191L103.916 56.0836L104.574 53.5215Z" fill="#36383B"/>
<path d="M87.7891 62.5527L90.3512 63.0512L88.4477 65.1158L87.7891 62.5527Z" fill="#36383B"/>
<path d="M104.243 63.4222L105.613 61.2324L106.236 64.0791L104.243 63.4222Z" fill="#36383B"/>
<path d="M93.156 67.2629L94.5263 65.0723L95.1483 67.9198L93.156 67.2629Z" fill="#36383B"/>
<path d="M94.1757 51.6025L93.21 49.6094H94.9169L94.1757 51.6017V51.6025Z" fill="#36383B"/>
<path d="M86.0612 58.2812L84.3508 56.8744L85.9029 56.1602L86.0612 58.2812Z" fill="#36383B"/>
<path d="M99.435 62.166L97.7246 60.7583L99.2767 60.0449L99.435 62.166Z" fill="#36383B"/>
<path d="M92.467 73.4806L91.5022 71.4883H93.21L92.467 73.4806Z" fill="#36383B"/>
<path d="M95.1484 74.4062L96.8423 75.833L95.2824 76.529L95.1484 74.4062Z" fill="#36383B"/>
<path d="M97.8575 54.6248L96.2219 56.6624L95.2788 54.0176L97.8575 54.6248Z" fill="#36383B"/>
<path d="M91.5024 56.9941L92.6273 59.3492L89.8354 59.0491L91.5024 56.9941Z" fill="#36383B"/>
<path d="M115.213 72.2687L113.159 71.4414L114.425 70.293L115.213 72.2679V72.2687Z" fill="#36383B"/>
<path d="M116.294 48.4453L115.607 50.5507L114.376 49.3658L116.294 48.4453Z" fill="#36383B"/>
<path d="M103.553 71.0246L101.499 70.1972L102.764 69.0488L103.553 71.0237V71.0246Z" fill="#36383B"/>
<path d="M108.91 51.3781L106.857 50.5507L108.122 49.4023L108.91 51.3772V51.3781Z" fill="#36383B"/>
<path d="M114.819 65.0762L115.944 67.4313L113.153 67.1311L114.819 65.0762Z" fill="#36383B"/>
<path d="M109.507 55.252L111.489 56.9511L108.813 57.8054L109.507 55.252Z" fill="#36383B"/>
<path d="M109.96 67.1982L108.001 65.4721L110.688 64.6543L109.96 67.1982Z" fill="#36383B"/>
<path d="M83.694 62.1906L85.8612 61.8809C86.2745 62.7065 86.666 64.4822 84.9321 64.9772C83.1981 65.4722 81.9358 63.9454 81.519 63.1197L83.694 62.1906Z" fill="#36383B"/>
<path d="M57.1981 59.7887C57.1264 59.7884 57.056 59.7705 56.993 59.7365C56.93 59.7025 56.8763 59.6534 56.8368 59.5937C56.7973 59.5339 56.7732 59.4654 56.7665 59.3941C56.7599 59.3228 56.7709 59.2509 56.7987 59.1849C57.5483 57.806 58.6832 56.6751 60.0647 55.9303C60.1628 55.8755 60.2783 55.8607 60.3869 55.8892C60.4956 55.9176 60.5891 55.987 60.6478 56.0828C60.7065 56.1785 60.7258 56.2933 60.7018 56.4031C60.6778 56.5128 60.6122 56.609 60.5188 56.6715C59.2982 57.3328 58.2866 58.3221 57.5983 59.5277C57.5643 59.6055 57.5083 59.6717 57.4372 59.7181C57.3661 59.7644 57.283 59.789 57.1981 59.7887Z" fill="#AEC7F6"/>
<path d="M59.7158 62.1005H59.7028C59.5875 62.0973 59.4783 62.0485 59.399 61.9649C59.3197 61.8812 59.2769 61.7695 59.2799 61.6542C59.2973 60.0926 59.688 58.557 60.4179 57.1763C60.4772 57.0773 60.5734 57.006 60.6853 56.9779C60.7407 56.964 60.7983 56.9612 60.8549 56.9695C60.9114 56.9779 60.9657 56.9973 61.0147 57.0267C61.0637 57.056 61.1065 57.0948 61.1405 57.1407C61.1746 57.1866 61.1992 57.2387 61.2131 57.2941C61.227 57.3495 61.2299 57.4071 61.2215 57.4637C61.2131 57.5202 61.1937 57.5745 61.1644 57.6235C60.5172 58.8783 60.1699 60.266 60.1499 61.6777C60.147 61.791 60.1 61.8986 60.0189 61.9777C59.9378 62.0568 59.8291 62.1012 59.7158 62.1014V62.1005Z" fill="#AEC7F6"/>
<path fill-rule="evenodd" clip-rule="evenodd" d="M97.7392 79.2462C97.7392 79.2462 95.6573 84.2617 96.6551 87.753C97.0031 88.971 101.173 95.7857 100.127 101.138C99.1955 105.91 99.2199 103.922 98.7449 105.27C98.2699 106.619 97.7009 107.059 95.6877 108.228C93.9535 109.139 92.5885 110.623 91.8249 112.427C91.2879 113.402 90.9221 114.461 90.7435 115.559C90.3329 117.482 92.7445 121.861 95.6599 122.275C98.5752 122.69 97.5208 121.18 99.8698 120.521C102.219 119.861 101.703 119.382 103.133 117.517C104.563 115.653 111.492 112.184 112.094 107.797C112.696 103.41 110.061 93.3489 111.572 86.2357L116.834 84.4766L116.385 74.8196C111.724 72.7925 105.668 74.6456 97.7392 79.2462Z" fill="#36383B"/>
<path d="M89.8039 64.9094C89.0209 63.4783 88.5224 63.5174 86.1081 64.6049C87.0138 63.3556 86.3387 60.589 85.9385 58.9873C85.3878 56.7836 84.1054 55.9537 82.6081 56.0111C82.6195 55.9272 82.6061 55.8419 82.5696 55.7655C82.5332 55.6892 82.4753 55.6251 82.403 55.5811C82.3307 55.5372 82.2472 55.5153 82.1626 55.5181C82.078 55.5209 81.9961 55.5483 81.9269 55.597C81.6529 55.7901 81.4267 55.9571 81.2257 56.1059C79.3726 57.4718 78.5992 57.3926 77.3107 57.3039C74.3014 57.0977 73.1599 57.5649 70.3002 58.6768C67.6902 59.6947 66.5157 60.1053 66.0329 59.2205C65.1464 57.5988 66.7289 57.337 64.8923 53.5211C64.5695 52.8512 64.5026 52.712 64.7949 51.5532C65.5022 48.7474 61.9465 49.366 62.2841 52.6842C62.348 53.4639 62.2126 54.2471 61.8908 54.9601C61.368 54.0247 60.7689 53.1339 60.0995 52.297C58.4152 50.1429 57.3338 48.8223 56.3637 48.8223C56.2087 48.8224 56.0559 48.859 55.9177 48.9293C55.7795 48.9996 55.6599 49.1016 55.5685 49.2268C55.4821 49.3537 55.4318 49.5017 55.423 49.6549C55.4143 49.8082 55.4475 49.961 55.5189 50.0968C55.0256 49.594 54.3645 49.0841 53.8164 49.5313C52.3226 50.7563 55.4841 53.5577 56.6752 55.4203C55.512 54.3189 54.0147 51.9804 52.8898 52.2388C52.7042 52.294 52.5386 52.4019 52.413 52.5494C52.2875 52.6968 52.2074 52.8776 52.1825 53.0696C51.9806 53.8526 52.9803 54.7948 54.1382 55.8858C54.6837 56.373 55.1953 56.8967 55.6721 57.4518C54.8195 56.9054 53.5771 55.1898 52.6636 55.4882C52.5026 55.5527 52.3636 55.6621 52.263 55.8034C52.1624 55.9447 52.1046 56.1119 52.0964 56.2851C51.7979 58.0112 55.1005 58.501 56.3898 60.4611C57.6705 62.403 58.4204 63.4391 60.1639 63.915C61.836 64.3718 64.5956 63.3556 68.8639 64.31C72.7997 65.0634 76.8548 64.9147 80.7246 63.875C80.9108 64.3532 81.1976 64.7859 81.5653 65.1438C81.9331 65.5017 82.3734 65.7765 82.8565 65.9497C83.3396 66.1229 83.8543 66.1904 84.3657 66.1477C84.8771 66.1049 85.3734 65.953 85.821 65.702C88.9148 64.2917 88.518 64.4579 89.288 65.7786C89.3482 65.8733 89.4426 65.941 89.5516 65.9677C89.6606 65.9944 89.7756 65.978 89.8728 65.9218C89.9699 65.8657 90.0416 65.7742 90.0729 65.6664C90.1041 65.5586 90.0925 65.443 90.0405 65.3436C89.9501 65.1765 89.8709 65.0365 89.8039 64.9086V64.9094ZM69.0527 63.4539C66.9593 63.0126 64.8109 62.8935 62.6816 63.1007C61.9209 63.202 61.1494 63.1911 60.3918 63.0685C59.0076 62.6901 58.4256 61.961 57.1154 59.9739C55.7895 57.9625 52.7088 57.2595 52.9742 56.3338C53.4294 56.5447 53.8538 56.8166 54.2357 57.1421C54.9169 57.7798 55.8939 58.7672 56.5081 57.9964C57.0928 57.263 56.0061 56.4504 54.7342 55.2516C54.1252 54.68 52.9942 53.616 53.0247 53.2854C53.0595 53.1514 53.0951 53.0966 53.0925 53.0853C53.4405 53.094 54.4393 54.2398 54.9769 54.8583C55.9626 55.9893 56.4716 56.5983 57.0449 56.5635C57.1422 56.5598 57.2374 56.5344 57.3236 56.4893C57.4099 56.4441 57.4849 56.3803 57.5434 56.3025C58.0376 55.6405 57.2233 54.6286 56.0966 53.2271C55.3449 52.2875 53.946 50.5475 54.2879 50.2325C54.7333 50.283 56.0331 52.0595 56.7317 53.0165C57.9097 54.6304 58.329 55.1533 58.7814 55.1759C58.8615 55.1808 58.9417 55.1678 59.0161 55.1377C59.0905 55.1076 59.1571 55.0612 59.2112 55.0019C59.6654 54.4947 59.1155 53.7204 57.8271 52.0178C57.2313 51.3112 56.7206 50.5371 56.3054 49.7114C56.7761 49.3634 59.0781 52.4023 59.5096 52.9539C60.3707 54.0007 61.0825 55.1619 61.6246 56.4043C61.6575 56.4931 61.7184 56.5687 61.7981 56.6196C61.8779 56.6706 61.9721 56.6942 62.0664 56.6868C62.1608 56.6795 62.2501 56.6415 62.321 56.5788C62.3918 56.516 62.4402 56.4318 62.4589 56.3391C62.5868 55.7109 62.7495 55.0906 62.947 54.4807C63.4916 52.9043 62.8852 52.4797 63.2532 51.4531C63.3036 51.2698 63.3956 51.1006 63.5221 50.9586C63.6485 50.8166 63.806 50.7057 63.9823 50.6345C64.0127 50.6693 64.0693 50.8755 63.9527 51.3435C63.4473 53.3445 63.9188 53.1871 64.6165 55.0758C65.4483 57.3265 64.3555 57.9616 65.2708 59.6407C66.1408 61.2363 67.9217 60.542 70.6178 59.4911C73.3339 58.4332 74.3953 57.9773 77.2533 58.1756C78.0276 58.287 78.8167 58.2322 79.5675 58.0147C80.1106 57.8348 80.6273 57.5832 81.1039 57.2665C83.1875 56.3704 84.5482 57.0055 85.0972 59.2022C85.2973 60.0044 85.4452 60.7047 85.5452 61.3111C85.0989 61.3233 84.3142 61.4207 82.2175 62.3977C78.9881 63.8994 72.9329 64.3222 69.0527 63.4539ZM85.3973 64.1021C85.2716 64.2491 85.1125 64.3639 84.9333 64.4369C84.754 64.5098 84.56 64.5388 84.3673 64.5214C83.9525 64.4923 83.5502 64.3672 83.1922 64.1558C82.8342 63.9444 82.5303 63.6526 82.3045 63.3034C83.3509 62.7419 84.4839 62.3596 85.6566 62.1724C85.7927 62.8264 85.7013 63.5072 85.3973 64.1021Z" fill="#AEC7F6"/>
<path d="M137.792 34.1423C137.729 33.9204 137.4 33.2323 135.837 33.6725C135.242 33.8359 134.71 34.1749 134.31 34.6452C134.221 33.5789 134.348 32.5056 134.684 31.4897C134.953 30.4857 135.601 30.1734 134.889 29.6061C134.632 29.4676 134.333 29.4294 134.05 29.499C133.766 29.5687 133.519 29.7411 133.355 29.9828C133.472 29.2433 133.442 28.7935 133.126 28.5569C133.014 28.4776 132.881 28.4345 132.743 28.4336C132.606 28.4327 132.471 28.4739 132.358 28.5517C132.015 28.7605 131.754 29.0806 131.618 29.4582C131.405 28.5882 130.281 28.7622 129.785 30.1386C129.691 30.0426 129.571 29.9757 129.441 29.9461C129.31 29.9164 129.173 29.9253 129.047 29.9715C128.574 30.1577 128.231 30.8554 127.986 33.756C127.826 35.287 127.966 36.8344 128.396 38.3122C127.531 39.2291 126.482 39.9538 125.318 40.4394C123.527 41.2932 121.8 42.276 120.151 43.38C119.327 43.9637 118.402 44.3897 117.423 44.6362C116.772 44.772 116.113 44.859 115.45 44.8972C115.374 44.9114 115.303 44.9451 115.243 44.9949C115.184 45.0448 115.139 45.1092 115.112 45.1817C115.086 45.2547 115.08 45.3331 115.093 45.4093C115.107 45.4855 115.14 45.557 115.189 45.6167C116.226 46.8252 116.755 48.3137 117.132 51.0629C117.18 52.4201 117.069 53.7781 116.8 55.1093C115.108 55.0393 113.414 55.1004 111.731 55.292C110.882 53.8989 109.926 52.574 108.871 51.3291C108.813 51.2627 108.737 51.215 108.652 51.1922C108.568 51.1694 108.478 51.1726 108.395 51.2013C108.34 51.2211 108.29 51.2516 108.247 51.291C108.204 51.3305 108.169 51.378 108.144 51.4309C108.108 51.511 108.097 51.6002 108.112 51.6869C108.127 51.7735 108.168 51.8535 108.23 51.9164C109.42 53.3792 110.518 54.9148 111.516 56.5143C111.579 56.6019 111.672 56.6631 111.778 56.686C111.883 56.7089 111.993 56.6919 112.086 56.6382C112.18 56.5846 112.25 56.4982 112.284 56.3958C112.317 56.2933 112.311 56.1821 112.267 56.0837C113.88 55.9596 115.499 55.9277 117.116 55.988C117.21 55.9924 117.304 55.9651 117.381 55.9104C117.458 55.8557 117.515 55.7767 117.542 55.6861C117.904 54.2558 118.061 52.782 118.01 51.3074C118.543 50.8837 119.016 49.55 121.588 48.8557C124.42 48.0927 124.935 47.6786 126.184 46.6807C127.136 45.9897 127.918 45.0912 128.471 44.0533C130.169 41.4433 130.792 41.1475 132.386 40.154C134.039 39.1222 134.735 38.8159 135.698 36.8532C136.033 36.1685 136.35 35.5221 136.82 35.3829C137.53 35.1785 137.94 34.6547 137.792 34.1423ZM136.574 34.5538C135.737 34.8018 135.321 35.6535 134.921 36.4765C134.076 38.2035 133.575 38.3966 131.931 39.4215C130.172 40.5177 129.511 40.87 127.746 43.5853C127.244 44.5451 126.525 45.3742 125.645 46.0065C124.463 46.9478 124.024 47.3028 121.366 48.0188C120 48.3245 118.774 49.0751 117.881 50.1529C117.709 48.5666 117.183 47.0391 116.342 45.6837C116.806 45.6715 117.267 45.5959 117.712 45.4593C121.056 44.3013 119.679 44.4153 123.454 42.3942C127.44 40.2627 127.286 40.6351 129.209 38.7402C129.27 38.6794 129.313 38.6015 129.33 38.5166C129.347 38.4317 129.338 38.3436 129.305 38.2635C128.838 36.8358 128.685 35.3241 128.856 33.8317C128.911 33.0296 129.017 32.2318 129.174 31.4436C129.305 30.8911 129.63 31.3218 129.591 31.6176C129.459 32.3238 129.367 33.0369 129.314 33.7534C129.338 34.7687 130.01 34.9775 130.055 33.7638C130.067 33.482 130.062 33.1348 130.087 32.7303C130.138 31.8977 130.312 29.975 130.783 30.0942C131.253 30.2116 130.874 31.0294 130.804 31.4305C130.581 32.7242 130.456 33.4211 130.77 33.7412C130.896 33.8682 130.879 33.9152 131.064 33.8909C131.703 33.7882 131.635 32.9017 131.798 31.7489C131.898 31.0442 131.96 29.4391 132.532 29.5939C133.105 29.7488 132.554 30.6379 132.458 31.0729C132.18 32.3344 131.855 32.926 132.116 33.2479C132.169 33.3072 132.233 33.3553 132.304 33.3893C132.376 33.4234 132.453 33.4428 132.532 33.4463C133.141 33.4463 132.983 32.3736 133.198 31.5584C133.307 31.1434 133.797 30.1725 134.155 30.2534C134.702 30.3752 134.106 31.1721 134.049 31.3844C133.744 32.7187 133.569 34.0793 133.527 35.4473C133.715 36.5113 134.263 36.3564 134.583 35.7953C134.729 35.4903 134.937 35.219 135.194 34.9988C135.45 34.7786 135.75 34.6143 136.074 34.5164C136.332 34.4303 136.604 34.3963 136.874 34.4155C136.784 34.4805 136.682 34.5277 136.573 34.5547H136.574V34.5538Z" fill="#AEC7F6"/>
<path d="M92.1894 61.0807C92.1255 61.0804 92.0624 61.066 92.0046 61.0387C91.9468 61.0113 91.8957 60.9715 91.855 60.9222C91.8143 60.873 91.7848 60.8153 91.7688 60.7534C91.7528 60.6915 91.7506 60.6268 91.7623 60.5639C91.7782 60.4798 91.8188 60.4022 91.8789 60.3412C92.59 59.7246 93.0509 58.8691 93.1748 57.9361C93.2987 57.003 93.077 56.0569 92.5514 55.2761C92.5126 55.2303 92.4838 55.1771 92.4666 55.1197C92.4493 55.0623 92.4441 55.002 92.4513 54.9424C92.4584 54.8829 92.4778 54.8256 92.5081 54.7739C92.5385 54.7222 92.5791 54.6773 92.6276 54.642C92.676 54.6068 92.7313 54.5819 92.7898 54.5689C92.8483 54.5559 92.9088 54.5552 92.9676 54.5667C93.0265 54.5782 93.0823 54.6017 93.1316 54.6357C93.1809 54.6698 93.2227 54.7136 93.2543 54.7645C93.8856 55.7166 94.1563 56.8627 94.0179 57.9967C93.8795 59.1306 93.3409 60.1779 92.4992 60.9502C92.4589 60.9916 92.4107 61.0244 92.3575 61.0469C92.3043 61.0693 92.2472 61.0808 92.1894 61.0807Z" fill="#AEC7F6"/>
<path d="M166.953 64.3196C166.948 64.207 166.9 64.1008 166.818 64.0235C166.736 63.9463 166.627 63.9042 166.515 63.9063C166.44 63.9074 166.367 63.9275 166.303 63.9646C142.372 77.5879 127.898 81.3585 111.455 85.826C111.347 85.8596 111.257 85.9337 111.202 86.0326C111.148 86.1316 111.134 86.2477 111.163 86.3567C111.193 86.4659 111.264 86.5592 111.361 86.6168C111.459 86.6743 111.575 86.6915 111.685 86.6647C128.262 82.1059 141.666 78.8242 165.477 65.4314C161.172 73.8069 136.647 120.307 121.094 123.797C115.339 125.09 108.662 123.128 101.867 119.447C101.66 119.719 101.392 119.938 101.084 120.085C107.158 123.404 114.562 126.159 121.283 124.651C126.637 123.449 132.903 117.522 139.048 109.821C141.449 110.952 156.483 118.133 168.93 126.438C166.699 128.324 155.76 137.028 137.228 143.316C99.8438 156.006 66.3793 146.91 64.7637 146.772C66.4967 145.076 71.3809 140.33 78.2417 134.286C78.3251 134.209 78.375 134.102 78.3808 133.989C78.3866 133.875 78.3478 133.764 78.2727 133.679C78.1976 133.594 78.0922 133.541 77.9789 133.533C77.8657 133.524 77.7536 133.56 77.6667 133.633C70.7067 139.762 65.5963 144.73 64.052 146.248C63.1707 143.419 59.8638 129.703 59.528 82.5208C62.9349 86.6881 76.319 102.559 91.2534 113.691C91.3474 113.481 91.4718 113.226 91.6623 112.796C77.691 102.312 64.976 87.6686 60.8365 82.7175C71.3635 87.8592 85.1295 89.1154 96.8606 88.3264C96.7416 88.0499 96.6484 87.763 96.5822 87.4694C93.1196 87.7017 89.6474 87.7417 86.1805 87.5912C68.5273 86.7838 59.4175 80.9731 59.3271 80.9148C59.2613 80.8723 59.1853 80.8483 59.107 80.8453C59.0288 80.8423 58.9511 80.8605 58.8823 80.8979C58.8135 80.9353 58.756 80.9905 58.716 81.0578C58.6759 81.1251 58.6547 81.2019 58.6545 81.2802C58.9782 136.781 63.2925 146.822 63.4761 147.221C63.5044 147.283 63.5468 147.337 63.5998 147.379C63.6528 147.422 63.715 147.451 63.7814 147.465C89.8762 153.018 117.272 152.163 142.248 142.506C160.117 135.597 169.845 126.792 169.941 126.704C170.177 126.491 170.32 130.915 166.953 64.3204V64.3196ZM139.603 109.117C151.661 93.7795 163.131 71.9373 166.17 65.9995L169.173 125.546C159.68 119.439 149.802 113.951 139.602 109.117H139.603Z" fill="#AEC7F6"/>
<path fill-rule="evenodd" clip-rule="evenodd" d="M93.6808 45.2033L96.6815 49.997C97.4857 50.4862 98.3982 50.7693 99.338 50.8214C100.278 50.8734 101.216 50.6928 102.069 50.2954C105.185 48.9687 102.156 45.56 102.156 45.56C102.156 45.56 105.201 44.9006 105.317 43.5886C105.433 42.2766 104.754 40.568 104.946 39.4126C105.139 38.2572 104.919 35.7821 103.765 35.0147C102.611 34.2474 101.285 34.3535 100.879 33.0938C100.474 31.8349 99.636 30.1297 95.6505 30.8318C91.665 31.5339 84.2753 40.0686 90.4601 45.2146C90.9055 45.6068 91.4792 45.8222 92.0726 45.8201C92.666 45.818 93.2382 45.5986 93.6808 45.2033Z" fill="#36383B"/>
<path fill-rule="evenodd" clip-rule="evenodd" d="M89.5899 44.359C89.5899 44.359 89.0122 43.3202 89.6934 42.6729C90.673 41.742 92.3965 43.2306 92.8846 42.7503C94.3418 41.3148 91.2316 40.651 91.2316 40.651C91.2316 40.651 92.2651 40.216 92.1303 39.2695C91.9954 38.3229 90.4607 38.5735 90.4607 38.5735C90.4607 38.5735 91.7536 37.7122 91.2133 36.6412C91.0649 36.341 90.8223 36.0976 90.5225 35.9482C90.2228 35.7988 89.8824 35.7516 89.5533 35.8138C88.4752 36.9775 87.8793 38.5072 87.886 40.0936C87.8928 41.68 88.5018 43.2045 89.5899 44.359Z" fill="#AEC7F6"/>
<path fill-rule="evenodd" clip-rule="evenodd" d="M90.0286 44.8163C90.0286 44.8163 87.9867 45.568 87.0645 44.343C86.1423 43.1181 85.2601 43.4182 85.0321 41.1588C84.8 39.5257 84.9153 37.8619 85.3706 36.2764C85.8334 33.9927 84.3448 33.6577 87.3924 31.6132C91.2744 29.011 97.4671 28.1932 100.121 30.7241C100.164 30.7645 100.194 30.8155 100.21 30.8717C100.226 30.9279 100.226 30.9873 100.212 31.0439C100.197 31.1004 100.167 31.152 100.126 31.1933C100.085 31.2347 100.033 31.2643 99.977 31.2791C99.9009 31.2987 99.8204 31.2904 99.7499 31.2556C98.714 30.6904 97.5552 30.3881 96.3752 30.3752C94.6396 30.4778 93.2658 32.1317 92.6481 32.6372C90.0564 34.7765 90.6315 37.8198 89.8841 42.3342C88.5478 42.6022 89.356 44.9982 90.0286 44.8163Z" fill="#36383B"/>
<path fill-rule="evenodd" clip-rule="evenodd" d="M100.674 40.8112L102.312 39.3496C102.312 39.3496 103.259 42.0692 102.148 42.111C101.037 42.1527 100.674 40.8112 100.674 40.8112Z" fill="#36383B"/>
<path d="M102.095 42.5482C100.71 42.5482 100.268 40.9943 100.251 40.9274C100.229 40.8493 100.23 40.7666 100.254 40.689C100.276 40.6109 100.321 40.5409 100.381 40.4871L102.023 39.0264C102.077 38.9793 102.141 38.9461 102.21 38.9297C102.279 38.9133 102.351 38.9141 102.42 38.9322C102.489 38.9502 102.552 38.9849 102.604 39.0332C102.656 39.0815 102.696 39.1419 102.719 39.2091C103.193 40.5585 103.513 42.5482 102.095 42.5482ZM101.181 40.9395C101.25 41.1422 101.376 41.3202 101.545 41.4517C101.714 41.5831 101.918 41.6621 102.131 41.679C102.286 41.1729 102.271 40.6297 102.088 40.133L101.181 40.9395Z" fill="#AEC7F6"/>
<path d="M99.0268 39.0627C98.9626 39.0055 98.9168 38.9306 98.895 38.8475C98.8733 38.7643 98.8766 38.6766 98.9046 38.5954C98.9326 38.5141 98.984 38.4429 99.0523 38.3908C99.1206 38.3386 99.2029 38.3079 99.2886 38.3023C99.3457 38.2988 99.4029 38.3066 99.4569 38.3253C99.511 38.3439 99.5608 38.3731 99.6036 38.4111C99.6036 38.4111 100.048 38.7852 100.317 38.5851C100.372 38.555 100.419 38.5105 100.451 38.4563C100.483 38.4021 100.5 38.3402 100.501 38.2771C100.634 37.307 101.497 37.4227 102.181 37.1983C101.599 36.8949 100.933 36.7947 100.288 36.9138C100.176 36.9239 100.064 36.8899 99.9759 36.819C99.8881 36.7481 99.8312 36.6457 99.8174 36.5337C99.8037 36.4216 99.834 36.3085 99.9021 36.2184C99.9701 36.1283 100.071 36.0682 100.182 36.0508C102.591 35.7463 103.346 36.8842 103.067 37.535C102.788 38.1857 101.664 38.1222 101.402 38.2867C101.377 38.3173 101.363 38.3557 101.363 38.3954C101.326 38.6494 101.216 38.8872 101.047 39.0804C100.878 39.2736 100.657 39.4138 100.41 39.4843C100.164 39.5548 99.9019 39.5525 99.6564 39.4777C99.4109 39.4029 99.1923 39.2588 99.0268 39.0627Z" fill="#AEC7F6"/>
<path d="M93.4763 37.4102C93.3771 37.4105 93.2808 37.3767 93.2035 37.3144C93.1262 37.2522 93.0727 37.1653 93.0518 37.0683C93.0375 37.0041 93.0381 36.9374 93.0535 36.8735C93.3223 35.7581 94.174 33.9503 95.6417 34.2548C95.6977 34.2662 95.7509 34.2885 95.7983 34.3205C95.8456 34.3525 95.8862 34.3935 95.9177 34.4411C95.9492 34.4888 95.971 34.5422 95.9819 34.5983C95.9927 34.6544 95.9925 34.7121 95.981 34.7681C95.9696 34.824 95.9473 34.8772 95.9153 34.9246C95.8833 34.9719 95.8423 35.0125 95.7947 35.044C95.747 35.0755 95.6936 35.0973 95.6375 35.1082C95.5814 35.1191 95.5237 35.1188 95.4677 35.1074C94.4612 34.9003 93.9017 37.0553 93.9017 37.077C93.8792 37.1726 93.8248 37.2577 93.7475 37.3183C93.6702 37.3788 93.5745 37.4113 93.4763 37.4102Z" fill="#AEC7F6"/>
<path d="M98.712 33.2019C98.6469 33.2015 98.5827 33.1865 98.5242 33.1581C98.4656 33.1297 98.4141 33.0885 98.3735 33.0376C98.3329 32.9868 98.3042 32.9275 98.2894 32.8641C98.2747 32.8007 98.2743 32.7348 98.2883 32.6712C98.3075 32.5862 98.3517 32.5089 98.4153 32.4493C99.2653 31.6524 100.475 31.1591 100.947 32.1675C100.99 32.2587 101 32.3621 100.975 32.4599C100.95 32.5577 100.892 32.6438 100.811 32.7036C100.73 32.7633 100.63 32.7929 100.529 32.7873C100.429 32.7817 100.333 32.7413 100.259 32.6729C100.217 32.6345 100.182 32.5881 100.158 32.5363C99.8969 32.4302 99.3575 32.7625 99.0078 33.0862C98.9273 33.1606 98.8216 33.2019 98.712 33.2019Z" fill="#AEC7F6"/>
<path fill-rule="evenodd" clip-rule="evenodd" d="M93.2466 123.143C93.2466 123.143 89.2715 125.293 88.3859 126.876C87.5002 128.46 86.6032 131.612 85.8176 133.625C85.032 135.638 87.6533 135.914 86.123 140.297C86.123 140.297 84.2873 141.736 81.5016 138.069C78.7158 134.402 79.8486 133.202 80.1096 129.949C80.3706 126.696 77.5518 124.07 79.1404 121.789C80.729 119.509 83.3286 120.495 85.8307 119.19C87.1132 118.565 88.3185 117.793 89.422 116.889C89.422 116.889 89.1463 121.532 93.2466 123.143Z" fill="#36383B"/>
<path d="M113.601 71.0908C111.165 69.8006 107.656 70.0798 104.86 71.7868C100.535 74.4246 96.8789 78.7607 94.2463 79.6168C93.7534 79.7244 93.2868 79.929 92.8738 80.2188C92.4608 80.5086 92.1097 80.8777 91.8408 81.3046C91.5867 81.8266 91.5485 82.7514 92.1314 82.7514C92.2354 82.7519 92.3361 82.7153 92.4156 82.6482C92.495 82.581 92.5478 82.4877 92.5646 82.3851C92.576 82.317 92.5707 82.2471 92.549 82.1815C92.5368 82.1406 92.2706 81.1723 94.5152 80.4415C95.534 80.0511 96.4825 79.4975 97.3235 78.8024C97.0712 79.5733 96.7467 80.6573 96.4805 81.8553C96.3683 81.897 96.2585 81.9449 96.1516 81.9988C94.6583 82.7187 92.9975 83.0194 91.3466 82.8688C91.2368 82.8626 91.1286 82.8979 91.0438 82.9679C90.9589 83.0379 90.9036 83.1374 90.8889 83.2464C90.8742 83.3554 90.9011 83.466 90.9644 83.556C91.0276 83.646 91.1225 83.7088 91.23 83.7319C92.9524 83.9019 94.6893 83.6194 96.2691 82.9123C95.4443 87.5329 96.5431 88.5395 97.3 90.1838C98.779 93.3984 100.386 97.5388 99.7021 101.043C99.1061 104.088 98.9191 104.24 98.8321 104.312C98.5855 104.52 98.412 104.801 98.3371 105.115C97.9081 106.333 97.4444 106.696 95.4713 107.845C93.6558 108.802 92.227 110.357 91.4266 112.247C91.2352 112.693 91.0987 112.987 90.9916 113.213C90.6272 114.04 90.3843 114.916 90.2704 115.813C89.9491 116.124 89.5946 116.398 89.2134 116.631C89.1404 116.668 89.0793 116.724 89.0371 116.794C88.9949 116.864 88.9734 116.944 88.975 117.026C88.9942 117.968 89.1785 118.899 89.5196 119.777C89.9059 120.648 90.3942 121.471 90.9743 122.227C90.2081 122.727 89.4628 123.258 88.7401 123.819C88.4906 123.698 88.2278 123.607 87.9571 123.548C87.846 123.531 87.7326 123.558 87.6407 123.623C87.5488 123.687 87.4855 123.785 87.4641 123.896C87.4428 124.006 87.4649 124.12 87.526 124.215C87.5871 124.309 87.6824 124.376 87.7918 124.402C87.7918 124.402 87.8623 124.417 87.9658 124.45C87.5821 124.777 87.2124 125.117 86.8844 125.458C86.6304 125.373 86.3723 125.301 86.1109 125.243C86.0284 125.227 85.9431 125.236 85.8655 125.268C85.7878 125.3 85.7212 125.354 85.6736 125.423C85.626 125.493 85.5996 125.574 85.5976 125.658C85.5955 125.742 85.6179 125.825 85.662 125.896C85.7203 125.992 85.8134 126.062 85.9213 126.091C86.0344 126.117 86.1492 126.146 86.2641 126.178C85.8854 126.704 85.5918 127.285 85.3941 127.902C85.1243 127.876 84.8533 127.866 84.5824 127.872C84.5252 127.873 84.4689 127.886 84.4167 127.909C84.3644 127.932 84.3172 127.965 84.2778 128.007C84.2384 128.048 84.2076 128.097 84.1872 128.15C84.1667 128.204 84.1571 128.261 84.1587 128.318C84.1676 128.431 84.218 128.537 84.3002 128.615C84.3824 128.693 84.4906 128.739 84.6041 128.742C84.7616 128.742 84.9356 128.742 85.1165 128.759C84.9782 129.24 84.8531 129.725 84.7416 130.213C84.4676 130.19 84.1924 130.185 83.9177 130.198C83.8315 130.202 83.7485 130.232 83.6793 130.284C83.6102 130.335 83.5579 130.406 83.5293 130.488C83.5006 130.569 83.4969 130.657 83.5185 130.741C83.5401 130.825 83.5861 130.9 83.6506 130.957C83.737 131.034 83.8501 131.074 83.9655 131.068C84.163 131.059 84.3605 131.062 84.5571 131.076C84.4701 131.511 84.3936 131.93 84.3318 132.294C84.2188 132.287 84.1055 132.287 83.9925 132.294C83.8798 132.306 83.7761 132.361 83.7032 132.447C83.6303 132.534 83.5941 132.646 83.6023 132.759C83.6104 132.871 83.6623 132.977 83.7469 133.052C83.8314 133.127 83.942 133.167 84.0551 133.162H84.1943C84.1535 133.437 84.1308 133.612 84.1265 133.647C84.1124 133.761 84.144 133.877 84.2144 133.968C84.2847 134.059 84.3882 134.118 84.5023 134.134C84.5591 134.141 84.6168 134.138 84.6721 134.123C84.7274 134.108 84.7791 134.082 84.8242 134.047C84.8695 134.012 84.9073 133.968 84.9357 133.919C84.9641 133.869 84.9824 133.814 84.9895 133.758C84.9895 133.749 85.0113 133.584 85.0513 133.318C85.1888 133.369 85.3175 133.441 85.4323 133.532C84.4945 136.003 87.1428 135.997 85.7508 140.153C85.3749 140.34 83.9638 140.751 81.8358 137.951C79.773 135.235 79.9644 134.036 80.282 132.053C80.7849 130.04 80.5832 127.915 79.7104 126.032C79.1301 124.431 78.9813 122.822 79.927 121.641C80.007 121.666 80.0923 121.667 80.1732 121.645C80.254 121.623 80.3265 121.578 80.382 121.515C80.8822 120.95 79.7382 119.753 76.2243 121.639C76.1627 121.671 76.1099 121.717 76.0705 121.775C76.0311 121.832 76.0062 121.898 75.9981 121.967C75.7697 123.732 75.7937 125.521 76.0694 127.28C76.179 127.753 76.5766 127.454 78.1461 128.324C78.1643 130.025 78.0142 131.723 77.698 133.395C77.1352 135.069 76.9551 136.614 80.1132 139.896C81.868 141.723 83.3992 142.687 84.5136 142.687C84.8073 142.661 85.0919 142.572 85.3487 142.427C85.6054 142.282 85.8285 142.085 86.0031 141.847C86.5393 140.903 86.8561 139.85 86.9299 138.767C87.0037 137.684 86.8326 136.598 86.4294 135.59C85.8282 134.309 86.0266 134.569 87.0671 131.53C87.5193 130.058 88.0833 128.623 88.754 127.237C89.9511 125.095 94.9484 123.164 95.4782 122.684L95.5983 122.703C95.7127 122.718 95.8286 122.688 95.9208 122.619C96.0131 122.549 96.0741 122.446 96.0907 122.332C96.1059 122.218 96.0755 122.102 96.0062 122.01C95.9368 121.918 95.8341 121.857 95.7201 121.84C95.0415 121.676 94.4024 121.377 93.8399 120.963C93.2775 120.549 92.8029 120.028 92.4437 119.429C91.779 118.477 90.9377 116.732 91.1683 115.647C91.3429 114.579 91.6998 113.549 92.2236 112.602C92.9541 110.886 94.255 109.475 95.9063 108.608C97.9264 107.432 98.6242 106.925 99.1549 105.414C99.5533 104.283 99.609 106.058 100.554 101.221C101.639 95.6674 97.4218 88.8666 97.0738 87.6329C96.4265 85.3709 97.3348 81.7169 97.9891 79.6055C98.6659 79.2192 110.169 72.7499 115.683 75.098C115.708 75.1084 115.735 75.1171 115.762 75.1232C115.946 75.7583 116.053 76.4126 116.079 77.072C116.082 77.1438 116.103 77.2138 116.139 77.2757C116.176 77.3375 116.227 77.3893 116.289 77.4264C116.35 77.4635 116.42 77.4847 116.492 77.4881C116.564 77.4916 116.635 77.4771 116.7 77.4461C116.778 77.4095 116.844 77.3505 116.888 77.2766C116.932 77.2027 116.953 77.1172 116.949 77.0311C116.778 73.4954 115.034 71.8503 113.601 71.0908ZM84.792 141.758C84.2378 141.978 82.8424 141.469 80.7413 139.282C77.6963 136.115 78.1174 134.868 78.5228 133.661C78.9891 132.278 79.0187 128.235 79.0196 128.063C79.0201 127.986 79.0005 127.911 78.9628 127.845C78.925 127.779 78.8705 127.724 78.8047 127.685C78.1947 127.323 77.544 127.033 76.8663 126.823C76.6689 125.319 76.6592 123.797 76.8376 122.291C77.4769 121.935 78.1662 121.678 78.8821 121.527C77.7067 123.045 78.2827 124.634 78.8934 126.32C79.717 128.063 79.9045 130.04 79.4233 131.907C79.0944 133.967 78.8569 135.457 81.1441 138.468C82.1881 139.848 83.7541 141.356 85.4628 141.124C85.3027 141.394 85.0704 141.613 84.792 141.758ZM85.7429 132.683C85.5693 132.58 85.3838 132.497 85.1905 132.438C85.2523 132.071 85.3288 131.65 85.4193 131.203C85.6864 131.256 85.9326 131.383 86.1301 131.57C85.9987 131.952 85.8691 132.327 85.7429 132.683ZM86.4294 130.696C86.1738 130.537 85.8945 130.42 85.602 130.348C85.7151 129.853 85.843 129.35 85.9857 128.876C86.3368 128.918 86.6626 129.08 86.9079 129.335C86.7469 129.778 86.5877 130.239 86.4294 130.696ZM87.2393 128.459C86.9427 128.261 86.6125 128.12 86.2649 128.042C86.454 127.47 86.7491 126.939 87.1349 126.476C87.4264 126.578 87.69 126.747 87.9049 126.969C87.6562 127.453 87.434 127.95 87.2393 128.459ZM88.3982 126.242C88.2027 126.071 87.986 125.927 87.7535 125.812C88.0789 125.494 88.4417 125.177 88.8123 124.872C89.0002 125.014 89.1533 125.196 89.2604 125.406C88.9522 125.661 88.664 125.939 88.3982 126.237V126.242ZM89.8572 117.258C90.0312 117.142 90.2 117.018 90.3618 116.885C90.4366 117.237 90.5384 117.584 90.668 117.919C90.4688 118.043 90.2234 118.201 89.9964 118.363C89.9268 117.998 89.8798 117.629 89.8572 117.258ZM89.5092 124.323C90.1796 123.815 90.8679 123.332 91.5728 122.873C91.7694 123.058 91.9852 123.221 92.2157 123.362C91.4363 123.821 90.6813 124.32 89.9537 124.857C89.8322 124.658 89.6824 124.479 89.5092 124.323V124.323ZM93.4459 121.74C93.7539 121.976 94.0871 122.178 94.4386 122.343C94.0485 122.551 93.6365 122.714 93.2102 122.83C92.9195 122.768 92.6481 122.637 92.4193 122.447C92.8369 122.175 93.2589 121.875 93.4459 121.74ZM92.7708 121.153C92.4941 121.35 92.1113 121.614 91.7807 121.823C91.5493 121.548 91.3366 121.257 91.1439 120.953C91.3901 120.775 91.7312 120.539 92.0365 120.331C92.2636 120.62 92.5089 120.895 92.7708 121.153ZM91.5328 119.619C91.2883 119.786 90.9682 120.007 90.7019 120.198C90.5697 119.952 90.3539 119.52 90.2487 119.262C90.4975 119.07 90.755 118.89 91.0221 118.725C91.1761 119.032 91.3466 119.331 91.5328 119.619ZM98.3884 78.3744C98.5528 77.9063 98.5702 77.909 98.572 77.7976C100.688 75.879 102.941 74.1175 105.314 72.5271C108.674 70.4783 113.512 70.5 115.336 74.0366C110.035 72.4706 101.196 76.8623 98.3884 78.3744Z" fill="#AEC7F6"/>
<path d="M111.382 73.7433C111.284 73.743 111.189 73.7098 111.112 73.6491C111.036 73.5883 110.982 73.5035 110.959 73.4083L110.628 72.0163C110.615 71.9608 110.613 71.903 110.622 71.8465C110.631 71.7901 110.651 71.736 110.681 71.6875C110.726 71.6138 110.792 71.5553 110.87 71.5194C110.949 71.4836 111.036 71.4721 111.121 71.4865C111.206 71.5001 111.285 71.5386 111.348 71.5971C111.411 71.6557 111.455 71.7316 111.475 71.8154L111.805 73.2074C111.821 73.2714 111.822 73.3381 111.808 73.4026C111.794 73.467 111.766 73.5274 111.725 73.5791C111.684 73.6308 111.632 73.6725 111.572 73.7009C111.513 73.7294 111.448 73.7439 111.382 73.7433Z" fill="#AEC7F6"/>
<path d="M55.7775 143.335C55.7149 143.335 55.653 143.322 55.5961 143.295C55.5392 143.269 55.4886 143.231 55.4478 143.184C51.6808 138.634 49.4872 132.988 49.1951 127.089C49.1937 126.973 49.2382 126.862 49.3188 126.78C49.3994 126.697 49.5095 126.65 49.6249 126.648C49.7402 126.647 49.8514 126.692 49.934 126.772C50.0166 126.853 50.0637 126.963 50.0651 127.078C50.0651 127.165 50.2391 135.813 56.1072 142.617C56.1613 142.68 56.196 142.758 56.2075 142.84C56.219 142.922 56.2066 143.006 56.172 143.082C56.1373 143.157 56.0817 143.221 56.0118 143.266C55.9419 143.311 55.8606 143.335 55.7775 143.335Z" fill="#AEC7F6"/>
<path d="M55.5426 101.259C55.513 101.148 55.4405 101.052 55.3409 100.994C55.2413 100.936 55.1227 100.92 55.0111 100.948C54.7431 101.019 28.1681 107.672 18.4519 84.4533C12.0331 69.1134 15.032 54.8098 22.895 45.8984C28.8536 56.1243 44.123 49.1443 40.5247 39.9362C38.3497 34.3613 32.7904 32.5934 26.5177 36.1161C28.7379 29.7712 34.6835 23.9013 34.7775 23.8091C34.8596 23.728 34.9064 23.6179 34.9077 23.5025C34.909 23.3872 34.8647 23.276 34.7844 23.1931C34.7035 23.1108 34.5933 23.0638 34.4779 23.0625C34.3625 23.0612 34.2512 23.1057 34.1685 23.1861C33.7552 23.5881 27.2459 30.0148 25.3127 36.8521C24.3557 37.4898 23.4475 38.2006 22.5975 38.9758C23.9851 31.2745 33.0375 23.9248 33.1584 23.8378C33.2485 23.7657 33.3063 23.6607 33.319 23.546C33.3317 23.4313 33.2984 23.3163 33.2263 23.2262C33.1542 23.1361 33.0492 23.0783 32.9345 23.0656C32.8198 23.0528 32.7048 23.0862 32.6147 23.1583C32.0979 23.5715 22.2095 31.5973 21.5578 39.9797C20.1834 41.3865 18.9497 42.9241 17.8742 44.5707C12.9248 52.1015 -3.31721 85.1232 7.64131 109.098C12.3341 119.364 21.3751 126.624 34.5991 130.78C34.8514 131.971 35.2307 133.131 35.7301 134.241C35.7773 134.346 35.8642 134.428 35.9717 134.47C36.0793 134.511 36.1988 134.508 36.3043 134.462C36.4095 134.415 36.4917 134.328 36.5331 134.22C36.5745 134.113 36.5717 133.993 36.5253 133.888C36.1197 132.981 35.7974 132.04 35.5622 131.075C38.1574 131.843 40.7899 132.479 43.4496 132.98C43.9617 135.313 44.7199 137.584 45.7116 139.757C45.7447 139.838 45.802 139.908 45.8757 139.956C45.9493 140.004 46.036 140.029 46.124 140.026C46.1825 140.025 46.2402 140.013 46.2937 139.989C46.3471 139.965 46.3951 139.931 46.4349 139.888C46.4746 139.845 46.5051 139.794 46.5247 139.739C46.5442 139.684 46.5524 139.625 46.5486 139.567C46.5452 139.509 46.5301 139.451 46.5042 139.399C45.5926 137.393 44.8841 135.301 44.3892 133.154C45.8604 133.419 47.3716 133.654 48.9211 133.86C49.0072 133.872 49.0952 133.859 49.1739 133.822C49.2525 133.785 49.3184 133.725 49.363 133.65C49.3927 133.6 49.4121 133.545 49.4199 133.487C49.4278 133.43 49.424 133.371 49.4087 133.315C49.3934 133.259 49.367 133.207 49.3311 133.161C49.2951 133.116 49.2504 133.078 49.1995 133.05C49.149 133.022 49.0934 133.004 49.0359 132.998C47.4162 132.784 45.8021 132.529 44.1952 132.235C43.9427 131.032 43.8032 129.809 43.7785 128.581C43.781 128.465 43.7376 128.354 43.6579 128.27C43.5781 128.187 43.4684 128.139 43.3531 128.136C43.2377 128.133 43.126 128.177 43.0427 128.257C42.9593 128.336 42.911 128.446 42.9085 128.561C42.9204 129.737 43.041 130.908 43.2687 132.061C40.6023 131.549 37.9647 130.897 35.3665 130.108C35.1949 129.215 35.1562 128.301 35.2516 127.396C35.2656 127.312 35.2544 127.225 35.2192 127.146C35.1841 127.068 35.1266 127.002 35.054 126.956C34.9814 126.91 34.8969 126.887 34.811 126.889C34.7252 126.89 34.6418 126.918 34.5713 126.967C34.4772 127.034 34.4134 127.135 34.3938 127.249C34.288 128.103 34.303 128.967 34.4382 129.817C21.6857 125.71 12.9631 118.653 8.43214 108.735C-2.35586 85.1249 13.7078 52.4947 18.6016 45.051C19.4765 43.7139 20.4566 42.4487 21.5326 41.2673C21.5831 42.5889 21.8997 43.886 22.4635 45.0823C14.2533 54.1668 11.0178 68.9447 17.6498 84.7917C23.9938 99.9523 37.2944 102.751 46.2467 102.75C49.2681 102.77 52.2821 102.447 55.2312 101.79C55.3427 101.761 55.4382 101.688 55.4965 101.589C55.5549 101.489 55.5715 101.371 55.5426 101.259ZM27.3799 46.9302C29.7689 49.4166 32.3893 49.9752 34.5713 48.4605C37.0012 46.7736 38.214 42.923 37.0664 40.5374C35.1994 36.6555 29.2199 39.342 25.8052 41.9703C25.5877 40.4217 25.7008 38.8453 26.1349 37.3436C31.5219 33.9341 37.3762 34.2717 39.7139 40.2529C42.965 48.5701 28.7666 54.8385 23.5118 45.2215C24.0696 44.6296 24.6558 44.0652 25.2684 43.5302C25.7135 44.8051 26.4345 45.966 27.3799 46.9302ZM26.0131 42.9082C27.7019 41.5135 29.6421 40.4551 31.729 39.7901C34.0249 39.1054 35.5996 39.4943 36.2826 40.915C37.9112 44.301 33.6056 52.1545 28.0071 46.3273C27.069 45.3707 26.3837 44.1957 26.0131 42.9082ZM22.4365 40.3243C23.2394 39.5255 24.0995 38.7863 25.01 38.1127C24.6972 39.5966 24.6972 41.1294 25.01 42.6132C24.3476 43.1723 23.714 43.7647 23.1116 44.388C22.5767 43.1035 22.3456 41.7128 22.4365 40.3243Z" fill="#AEC7F6"/>
<path d="M95.4208 37.1194C95.1598 37.363 95.2207 37.8494 95.5669 38.2261C95.8619 38.5462 96.3586 38.7376 96.6579 38.461C96.9189 38.2174 96.858 37.7302 96.5109 37.3561C96.1637 36.9811 95.6852 36.8758 95.4208 37.1194Z" fill="#AEC7F6"/>
<path d="M100.904 34.4527C100.612 34.1343 100.121 33.9307 99.8143 34.2169C99.5533 34.4605 99.6142 34.9469 99.9613 35.3218C100.246 35.6316 100.744 35.8438 101.051 35.5585C101.317 35.3149 101.251 34.8294 100.904 34.4527Z" fill="#AEC7F6"/>
<path d="M105.544 41.4355C105.387 40.7961 105.331 40.1364 105.376 39.4797C105.58 38.2487 105.387 35.5647 104.006 34.6486C102.844 33.8752 101.612 33.9526 101.293 32.9564C101.077 32.29 100.519 30.3464 97.3617 29.9871C97.125 29.8044 96.8927 29.6391 96.6813 29.4999C96.7345 29.4453 96.7725 29.3777 96.7916 29.3038C96.8106 29.23 96.8101 29.1524 96.7901 29.0789C96.7696 29.0054 96.7303 28.9386 96.6759 28.8852C96.6216 28.8317 96.5541 28.7935 96.4803 28.7744C94.8926 28.3594 91.4169 29.3834 89.0053 32.8903C85.4975 37.9955 88.3563 44.1038 88.6573 44.7154C88.4565 44.7342 88.2541 44.7045 88.0671 44.6288C87.8801 44.5531 87.714 44.4336 87.5829 44.2804C86.5763 43.0136 85.8498 43.433 85.6419 41.4859C85.637 41.4282 85.6206 41.372 85.5937 41.3207C85.5668 41.2693 85.5299 41.2239 85.4852 41.187C85.4405 41.1502 85.3888 41.1226 85.3333 41.106C85.2778 41.0893 85.2195 41.0839 85.1619 41.0902C85.1043 41.0964 85.0485 41.114 84.9977 41.1421C84.947 41.1701 84.9025 41.2081 84.8666 41.2536C84.8308 41.2991 84.8044 41.3514 84.789 41.4073C84.7736 41.4632 84.7696 41.5215 84.7771 41.579C85.0285 43.928 86.036 43.7314 86.9016 44.8215C87.6264 45.735 88.8391 45.7228 89.9258 45.3226C90.0084 45.3966 90.0937 45.4705 90.1815 45.5436C90.6362 45.9533 91.2126 46.2029 91.8225 46.2541C92.4324 46.3053 93.0422 46.1554 93.5589 45.8272L96.3116 50.2242C97.2604 50.9267 98.4184 51.2886 99.5984 51.2517C100.507 51.2463 101.406 51.0559 102.239 50.6923C104.414 49.7648 104.273 47.7656 102.904 45.8124C103.927 45.5114 105.641 44.8293 105.749 43.6244C105.775 42.889 105.706 42.1533 105.544 41.4355ZM95.2136 29.5939C95.3076 29.7157 95.3337 29.6809 95.8827 30.0202C95.022 30.1856 94.2174 30.5666 93.5441 31.1277L92.5871 30.6005C93.384 30.0878 94.2782 29.7451 95.2136 29.5939ZM91.7954 31.1599L92.8664 31.7498C92.1068 32.5081 91.503 33.4078 91.089 34.398C90.615 34.2495 90.1703 34.0202 89.7744 33.7203C89.7412 33.6461 89.6874 33.5831 89.6195 33.5385C90.2125 32.6335 90.9472 31.8298 91.7954 31.1582V31.1599ZM91.1594 41.0831C91.7241 41.1779 92.588 41.4877 92.7402 41.8774C92.7614 41.9653 92.7612 42.0569 92.7397 42.1447C92.7182 42.2325 92.676 42.3139 92.6167 42.382C91.9906 42.0964 91.3285 41.8974 90.6487 41.7904C90.6783 41.2032 90.747 40.1583 90.9002 38.9821C91.2047 38.9821 91.6562 39.0343 91.698 39.3353C91.785 39.9295 91.089 40.2418 91.0611 40.2531C90.9974 40.2815 90.9414 40.3246 90.8976 40.3789C90.8539 40.4333 90.8238 40.4972 90.8098 40.5655C90.7957 40.6338 90.7982 40.7045 90.8169 40.7717C90.8357 40.8389 90.8702 40.9006 90.9176 40.9517C90.9821 41.0199 91.0669 41.0654 91.1594 41.0814V41.0831ZM89.1541 34.3397C89.6004 34.7909 90.1743 35.0945 90.7984 35.2097C90.5165 36.1304 90.3025 37.0705 90.1581 38.0225H90.145C89.888 37.9952 89.6403 37.9107 89.4203 37.7752C89.2002 37.6397 89.0132 37.4566 88.8731 37.2395C88.8459 37.1894 88.8092 37.1451 88.7649 37.1093C88.7206 37.0734 88.6697 37.0466 88.6151 37.0305C88.5605 37.0143 88.5032 37.0091 88.4465 37.0151C88.3899 37.0211 88.335 37.0382 88.2849 37.0655C88.4257 36.1154 88.7192 35.1944 89.1541 34.338V34.3397ZM88.365 40.8647C88.1805 39.8527 88.1249 38.8214 88.1997 37.7954C88.4128 38.094 88.6861 38.3448 89.0019 38.5315C89.3178 38.7182 89.6692 38.8367 90.0336 38.8794C89.9274 39.6983 89.8493 40.5207 89.7996 41.345C88.8565 41.1936 88.7556 40.7447 88.365 40.8639V40.8647ZM89.2254 43.8471C88.96 43.1933 88.7417 42.5214 88.572 41.8365C88.9418 42.0332 89.3446 42.1619 89.7596 42.2185C89.7552 42.2688 89.7579 42.3194 89.7674 42.369C89.1671 42.5621 89.0801 43.2477 89.2254 43.8488V43.8471ZM104.885 43.5504C104.853 43.9089 104.392 44.2595 103.797 44.5466C102.121 45.3574 99.427 45.6384 97.5818 45.7829C97.4664 45.7874 97.3575 45.8375 97.2791 45.9223C97.2007 46.007 97.1592 46.1194 97.1637 46.2348C97.1682 46.3502 97.2184 46.459 97.3031 46.5374C97.3879 46.6158 97.5003 46.6574 97.6157 46.6529C99.0897 46.5472 100.556 46.3491 102.005 46.0595C102.466 46.6511 103.214 47.8595 103.007 48.7765C102.93 49.0403 102.788 49.2807 102.595 49.4762C102.402 49.6718 102.163 49.8164 101.9 49.8971C101.127 50.2587 100.279 50.4285 99.4258 50.3922C98.5732 50.3558 97.7418 50.1144 97.0023 49.6883L94.047 44.9729C94.0126 44.919 93.967 44.8733 93.9132 44.8389C93.8594 44.8045 93.7988 44.7822 93.7355 44.7737C93.6723 44.7653 93.608 44.7711 93.5472 44.7905C93.4865 44.8099 93.4307 44.8425 93.384 44.8859C93.0863 45.1515 92.7153 45.321 92.3196 45.3722C91.9239 45.4235 91.5219 45.354 91.1664 45.173C90.3512 44.738 89.2802 43.5008 89.9675 42.8788C90.8828 42.0506 92.554 43.888 93.2274 43.0206C93.9643 42.068 93.7346 41.0431 92.1904 40.4672C92.3242 40.3362 92.4293 40.1788 92.4991 40.0051C92.5689 39.8314 92.6019 39.6451 92.5959 39.4579C92.5899 39.2708 92.5452 39.0869 92.4644 38.918C92.3837 38.7491 92.2687 38.5988 92.1269 38.4766C91.9369 38.3135 91.7052 38.2066 91.4578 38.1677C91.6711 37.875 91.7833 37.5208 91.7773 37.1587C91.7713 36.7965 91.6476 36.4462 91.4248 36.1607C91.6223 35.2984 91.9553 34.473 92.4114 33.7151C92.7863 33.1365 93.2257 32.6015 93.7216 32.1221C94.3277 31.7104 95.0069 31.4181 95.7226 31.2608C99.608 30.577 100.16 32.2996 100.461 33.2261C100.947 34.733 102.412 34.6373 103.521 35.375C104.414 35.9701 104.711 38.159 104.514 39.3396C104.307 40.6037 104.995 42.3089 104.884 43.5496L104.885 43.5504Z" fill="#AEC7F6"/>
</svg>