<svg width="176" height="198" viewBox="0 0 176 198" fill="none" xmlns="http://www.w3.org/2000/svg">
<path opacity="0.15" d="M19.2622 192.269C19.2622 193.582 26.5042 194.84 39.395 195.769C52.2858 196.697 69.7694 197.218 87.9998 197.218C106.23 197.218 123.714 196.697 136.605 195.769C149.495 194.84 156.737 193.582 156.737 192.269C156.737 190.957 149.495 189.698 136.605 188.77C123.714 187.842 106.23 187.32 87.9998 187.32C69.7694 187.32 52.2858 187.842 39.395 188.77C26.5042 189.698 19.2622 190.957 19.2622 192.269Z" fill="#AEC7F6"/>
<path d="M155.898 77.3164H20.1004C18.4956 77.3171 16.9567 77.9552 15.8222 79.0902C14.6876 80.2253 14.0503 81.7644 14.0503 83.3693V171.211H161.948V83.3693C161.948 81.7644 161.311 80.2253 160.176 79.0902C159.041 77.9552 157.503 77.3171 155.898 77.3164Z" fill="#36383B" stroke="#AEC7F6" stroke-width="2" stroke-linecap="round" stroke-linejoin="round"/>
<path d="M148.777 87.7539H27.3618C26.637 87.7539 25.942 88.0418 25.4295 88.5543C24.917 89.0668 24.6291 89.7618 24.6291 90.4866L24.4897 171.212H151.51V90.4866C151.51 89.7618 151.222 89.0668 150.709 88.5543C150.197 88.0418 149.502 87.7539 148.777 87.7539Z" fill="#36383B"/>
<path d="M148.777 87.7539H27.3618C26.637 87.7539 25.942 88.0418 25.4295 88.5543C24.917 89.0668 24.6291 89.7618 24.6291 90.4866L24.4897 171.212H151.51V90.4866C151.51 89.7618 151.222 89.0668 150.709 88.5543C150.197 88.0418 149.502 87.7539 148.777 87.7539Z" stroke="#AEC7F6" stroke-width="2" stroke-linecap="round" stroke-linejoin="round"/>
<path d="M175 181.652H1V174.239C1 173.436 1.31862 172.666 1.88585 172.099C2.45309 171.531 3.22251 171.212 4.02506 171.211H171.975C172.777 171.212 173.547 171.531 174.114 172.099C174.681 172.666 175 173.436 175 174.239V181.652Z" fill="#36383B" stroke="#AEC7F6" stroke-width="2" stroke-linecap="round" stroke-linejoin="round"/>
<path d="M175 181.652C158.839 186.27 142.114 188.613 125.306 188.612H50.7043C33.8969 188.613 17.1714 186.27 1.01074 181.652H175Z" fill="#36383B" stroke="#AEC7F6" stroke-width="2" stroke-linecap="round" stroke-linejoin="round"/>
<path d="M78.2651 53.2949L72.8626 59.0691L79.2543 78.6322L67.7197 171.21H106.004L115.547 92.2027C115.779 89.8196 116.574 87.5258 117.867 85.5104L78.2651 53.2949Z" fill="#36383B" stroke="#AEC7F6" stroke-width="2" stroke-linecap="round" stroke-linejoin="round"/>
<path d="M139.023 82.8112L81.3942 42.1956C78.6007 40.227 76.2618 37.6825 74.5351 34.7334C72.8084 31.7844 71.734 28.4994 71.3844 25.1C70.8432 18.8155 68.0696 12.9325 63.5656 8.51629C59.0617 4.1001 53.1253 1.44266 46.8314 1.02516C41.4864 0.788893 36.2004 2.22143 31.7061 5.12416C31.61 5.18576 31.5298 5.26911 31.472 5.36745C31.4141 5.4658 31.3802 5.57639 31.373 5.69027C31.3658 5.80415 31.3856 5.91812 31.4306 6.02296C31.4756 6.1278 31.5447 6.22056 31.6323 6.29375L43.6068 16.033C44.2846 16.5859 44.7159 17.3846 44.8065 18.2546L45.6263 26.2094C45.6615 26.5631 45.6402 26.92 45.5634 27.267L38.811 57.5422C38.6997 58.0437 38.7364 58.5667 38.9168 59.0477C39.0972 59.5287 39.4135 59.9469 39.8272 60.2514C40.2409 60.556 40.7342 60.7338 41.247 60.7632C41.7599 60.7926 42.2702 60.6723 42.716 60.417C48.5744 58.1664 54.9512 57.6241 61.1056 58.8533C67.2599 60.0824 72.9392 63.0324 77.4837 67.3607L119.583 106.711C121.15 108.004 122.957 108.975 124.901 109.566C126.844 110.158 128.885 110.359 130.907 110.158C132.928 109.957 134.89 109.359 136.679 108.396C138.468 107.434 140.049 106.127 141.331 104.551C142.613 102.975 143.57 101.161 144.148 99.2135C144.726 97.2659 144.912 95.2233 144.697 93.2033C144.482 91.1832 143.869 89.2258 142.894 87.4436C141.919 85.6615 140.6 84.0899 139.015 82.8194L139.023 82.8112ZM129.915 100.675C128.747 100.794 127.57 100.565 126.532 100.016C125.494 99.4663 124.642 98.6214 124.084 97.588C123.527 96.5546 123.288 95.379 123.398 94.2098C123.508 93.0406 123.963 91.9304 124.704 91.0195C125.445 90.1087 126.44 89.438 127.562 89.0924C128.685 88.7468 129.884 88.7418 131.01 89.0779C132.135 89.414 133.135 90.0763 133.884 90.9809C134.633 91.8855 135.097 92.9918 135.217 94.16C135.297 94.9359 135.223 95.7199 135 96.4672C134.776 97.2145 134.408 97.9106 133.916 98.5156C133.423 99.1205 132.817 99.6226 132.13 99.993C131.444 100.364 130.691 100.595 129.915 100.675Z" fill="#36383B"/>
<path d="M45.2283 28.7776L33.4587 29.9882C33.0275 30.0329 32.5918 29.9922 32.1763 29.8685C31.7609 29.7447 31.3739 29.5402 31.0376 29.2668L21.2382 21.2956C21.1769 21.2397 21.1017 21.2012 21.0206 21.184C20.9394 21.1668 20.8551 21.1715 20.7764 21.1977C20.6976 21.2238 20.6273 21.2705 20.5725 21.3328C20.5178 21.3952 20.4806 21.471 20.4649 21.5524C19.9376 24.1253 19.8077 26.7638 20.0796 29.3761C21.1726 40.0061 30.2424 49.3437 39.9816 52.3305L45.2283 28.7776Z" fill="#36383B"/>
<path d="M45.2283 28.7776L33.4587 29.9882C33.0275 30.0329 32.5918 29.9922 32.1763 29.8685C31.7609 29.7447 31.3739 29.5402 31.0376 29.2668L21.2382 21.2956C21.1769 21.2397 21.1017 21.2012 21.0206 21.184C20.9394 21.1668 20.8551 21.1715 20.7764 21.1977C20.6976 21.2238 20.6273 21.2705 20.5725 21.3328C20.5178 21.3952 20.4806 21.471 20.4649 21.5524C19.9376 24.1253 19.8077 26.7638 20.0796 29.3761C21.1726 40.0061 30.2424 49.3437 39.9816 52.3305L45.2283 28.7776Z" stroke="#AEC7F6" stroke-width="2" stroke-linecap="round" stroke-linejoin="round"/>
<path d="M73.9067 49.748L116.263 84.1961" stroke="#AEC7F6" stroke-width="2" stroke-linecap="round" stroke-linejoin="round"/>
<path d="M52.603 35.9758L64.4218 34.7598L65.6379 46.5758L53.8218 47.7919L52.603 35.9758Z" fill="#36383B" stroke="#AEC7F6" stroke-width="2" stroke-linecap="round" stroke-linejoin="round"/>
<path d="M31.6353 6.29382L43.6072 16.0303C44.2849 16.5832 44.7162 17.382 44.8068 18.252L45.6266 26.2068C45.6618 26.5604 45.6406 26.9174 45.5637 27.2643L38.8113 57.5423C38.7 58.0438 38.7367 58.5668 38.9171 59.0478C39.0975 59.5288 39.4138 59.947 39.8275 60.2515C40.2412 60.5561 40.7345 60.7338 41.2473 60.7632C41.7602 60.7926 42.2705 60.6724 42.7163 60.4171C48.5751 58.1659 54.9524 57.6233 61.1073 58.8525C67.2622 60.0816 72.942 63.032 77.4868 67.3608L119.584 106.711C121.152 107.988 122.957 108.942 124.895 109.521C126.833 110.1 128.866 110.291 130.878 110.084C132.89 109.877 134.841 109.275 136.62 108.314C138.4 107.353 139.972 106.05 141.248 104.481C143.825 101.313 145.037 97.2504 144.618 93.1881C144.199 89.1257 142.184 85.396 139.016 82.8195L81.3945 42.1956C78.601 40.2271 76.2621 37.6826 74.5354 34.7335C72.8087 31.7845 71.7343 28.4995 71.3847 25.1001C70.8436 18.816 68.0703 12.9333 63.567 8.51722C59.0636 4.10109 53.1279 1.44336 46.8344 1.02524C41.4886 0.78858 36.2015 2.22113 31.7064 5.12424C31.61 5.18599 31.5295 5.26963 31.4716 5.36835C31.4137 5.46707 31.3798 5.57808 31.3729 5.69234C31.366 5.8066 31.3861 5.92088 31.4317 6.02588C31.4774 6.13088 31.5471 6.22362 31.6353 6.29655V6.29382Z" stroke="#AEC7F6" stroke-width="2" stroke-linecap="round" stroke-linejoin="round"/>
<path d="M124.089 97.5872C124.461 98.2726 124.964 98.8781 125.57 99.369C126.176 99.8599 126.873 100.227 127.621 100.448C128.368 100.67 129.152 100.742 129.928 100.661C130.704 100.579 131.456 100.346 132.141 99.9742C132.826 99.6022 133.432 99.0989 133.923 98.493C134.414 97.887 134.78 97.1903 135.002 96.4427C135.224 95.695 135.296 94.911 135.215 94.1354C135.133 93.3598 134.9 92.6078 134.528 91.9224C134.156 91.237 133.653 90.6315 133.047 90.1406C132.441 89.6497 131.744 89.283 130.996 89.0613C130.249 88.8397 129.465 88.7675 128.689 88.8488C127.914 88.9301 127.162 89.1635 126.476 89.5354C125.791 89.9074 125.185 90.4107 124.694 91.0166C124.203 91.6226 123.837 92.3193 123.615 93.067C123.393 93.8146 123.321 94.5987 123.403 95.3742C123.484 96.1498 123.717 96.9018 124.089 97.5872Z" stroke="#AEC7F6" stroke-width="2" stroke-linecap="round" stroke-linejoin="round"/>
<path d="M77.0219 96.541L77.5958 90.4827C76.7951 80.0412 64.4025 79.4837 61.4567 73.8462C59.5219 70.1489 52.9116 54.1054 52.9116 54.1054C52.5664 53.3076 52.3817 52.4497 52.368 51.5806C52.3543 50.7115 52.512 49.8481 52.832 49.0399C53.152 48.2317 53.628 47.4945 54.2329 46.8703C54.8378 46.246 55.5598 45.7471 56.3575 45.4018C57.1552 45.0566 58.0132 44.8719 58.8823 44.8582C59.7514 44.8446 60.6147 45.0022 61.4229 45.3222C62.2311 45.6422 62.9684 46.1182 63.5926 46.7231C64.2169 47.3281 64.7158 48.05 65.061 48.8477L70.2914 60.9343L72.9721 61.2486C78.2695 61.8695 83.1906 64.2989 86.9049 68.1267C90.6192 71.9545 92.8993 76.9464 93.3606 82.2601L108.494 96.3251" fill="#36383B"/>
<path d="M77.0219 96.541L77.5958 90.4827C76.7951 80.0412 64.4025 79.4837 61.4567 73.8462C59.5219 70.1489 52.9116 54.1054 52.9116 54.1054C52.5664 53.3076 52.3817 52.4497 52.368 51.5806C52.3543 50.7115 52.512 49.8481 52.832 49.0399C53.152 48.2317 53.628 47.4945 54.2329 46.8703C54.8378 46.246 55.5598 45.7471 56.3575 45.4018C57.1552 45.0566 58.0132 44.8719 58.8823 44.8582C59.7514 44.8446 60.6147 45.0022 61.4229 45.3222C62.2311 45.6422 62.9684 46.1182 63.5926 46.7231C64.2169 47.3281 64.7158 48.05 65.061 48.8477L70.2914 60.9343L72.9721 61.2486C78.2695 61.8695 83.1906 64.2989 86.9049 68.1267C90.6192 71.9545 92.8993 76.9464 93.3606 82.2601L108.494 96.3251" stroke="#AEC7F6" stroke-width="2" stroke-linecap="round" stroke-linejoin="round"/>
<path d="M93.5968 56.2002C94.4604 56.3015 95.3356 56.2317 96.1722 55.9947C97.0089 55.7577 97.7906 55.3581 98.4728 54.8188C99.1549 54.2795 99.7241 53.6111 100.148 52.8518C100.572 52.0924 100.841 51.257 100.942 50.3933L102.098 40.5311C102.302 38.7873 101.806 37.0338 100.717 35.6563C99.6288 34.2787 98.0377 33.39 96.2939 33.1857C94.5502 32.9813 92.7967 33.478 91.4191 34.5665C90.0416 35.655 89.1529 37.2461 88.9485 38.9898L87.7953 48.852C87.6932 49.7156 87.7623 50.5907 87.9986 51.4275C88.235 52.2643 88.634 53.0463 89.1728 53.7288C89.7116 54.4112 90.3797 54.9808 91.1388 55.4048C91.8979 55.8289 92.7331 56.0992 93.5968 56.2002Z" fill="#36383B" stroke="#AEC7F6" stroke-width="2" stroke-linecap="round" stroke-linejoin="round"/>
<path d="M106.165 65.3385C107.029 65.4399 107.904 65.3702 108.74 65.1333C109.577 64.8965 110.358 64.4971 111.041 63.9581C111.723 63.4191 112.292 62.751 112.716 61.992C113.14 61.2329 113.41 60.3978 113.511 59.5343L114.667 49.6721C114.871 47.9284 114.374 46.175 113.285 44.7977C112.196 43.4205 110.605 42.5321 108.861 42.3281C107.118 42.1241 105.364 42.6211 103.987 43.7099C102.61 44.7986 101.721 46.3899 101.517 48.1336L100.364 57.9931C100.263 58.8563 100.332 59.7311 100.569 60.5674C100.806 61.4037 101.205 62.1853 101.743 62.8674C102.282 63.5494 102.95 64.1187 103.709 64.5427C104.467 64.9667 105.302 65.2372 106.165 65.3385Z" fill="#36383B" stroke="#AEC7F6" stroke-width="2" stroke-linecap="round" stroke-linejoin="round"/>
<path d="M81.4167 45.6039C83.1601 45.8078 84.9131 45.3109 86.2901 44.2224C87.6671 43.1339 88.5553 41.543 88.7594 39.7997L89.5218 33.3069C89.6228 32.4434 89.5528 31.5686 89.3157 30.7322C89.0786 29.8959 88.6791 29.1144 88.14 28.4325C87.6009 27.7505 86.9328 27.1814 86.1738 26.7577C85.4147 26.3339 84.5797 26.0638 83.7163 25.9628C82.8528 25.8618 81.978 25.9318 81.1416 26.1689C80.3053 26.406 79.5238 26.8055 78.8419 27.3446C77.4646 28.4333 76.5762 30.0246 76.3722 31.7684L75.6125 38.2585C75.5112 39.1219 75.5809 39.9969 75.8177 40.8333C76.0546 41.6698 76.4539 42.4515 76.9929 43.1336C77.5319 43.8157 78.2 44.385 78.9591 44.8088C79.7181 45.2327 80.5532 45.5028 81.4167 45.6039Z" fill="#36383B" stroke="#AEC7F6" stroke-width="2" stroke-linecap="round" stroke-linejoin="round"/>
<path d="M118.93 73.3478C119.794 73.4492 120.668 73.3794 121.505 73.1425C122.341 72.9057 123.123 72.5063 123.804 71.9673C124.486 71.4282 125.055 70.7601 125.479 70.0011C125.903 69.2421 126.172 68.407 126.273 67.5436L126.852 62.6248C127.057 60.8811 126.56 59.1276 125.472 57.75C124.383 56.3725 122.792 55.4838 121.048 55.2794C119.304 55.075 117.551 55.5717 116.173 56.6602C114.796 57.7487 113.907 59.3399 113.703 61.0836L113.126 66.0024C113.025 66.8658 113.095 67.7408 113.331 68.5773C113.568 69.4138 113.968 70.1954 114.507 70.8775C115.046 71.5597 115.714 72.1289 116.473 72.5528C117.232 72.9766 118.067 73.2468 118.93 73.3478Z" fill="#36383B" stroke="#AEC7F6" stroke-width="2" stroke-linecap="round" stroke-linejoin="round"/>
</svg>