<svg width="178" height="178" viewBox="0 0 178 178" fill="none" xmlns="http://www.w3.org/2000/svg">
<path d="M21.0788 90.8423C19.2311 101.291 22.8766 120.939 26.6591 130.079C28.3198 134.092 29.3513 134.767 30.1924 135.834C30.4389 136.147 30.163 136.37 29.8649 136.21C20.2662 131.058 15.0357 102.22 17.7475 91.9735C18.6793 88.4509 21.1731 89.1931 21.0788 90.8423Z" fill="#15376D"/>
<path d="M165.151 103.052C165.432 110.079 149.597 139.102 143.481 137.645C139.84 136.778 147.881 135.667 163.844 104.723C164.744 102.977 164.841 102.993 165.151 103.052Z" fill="#15376D"/>
<path d="M171.866 115.312C170.928 120.094 170.246 124.404 166.031 131.221C163.575 135.192 160.387 139.453 156.416 141.911C155.491 142.483 154.401 142.832 153.778 141.939C153.159 141.053 153.726 140.296 155.971 137.978C169.539 123.964 171.785 111.671 171.866 115.312Z" fill="#15376D"/>
<path d="M7.49905 104.351C9.82106 104.368 7.86039 108.01 11.6162 122.47C13.0233 127.886 14.6333 130.375 15.2696 131.788C15.4067 132.092 15.0605 132.352 14.8211 132.121C7.38424 124.952 2.50348 104.314 7.49905 104.351Z" fill="#15376D"/>
<path d="M167.756 33.3252C165.435 28.2495 160.757 21.9198 157.033 17.7626C156.357 17.0079 154.91 16.1232 155.669 14.9395C156.069 14.3157 156.714 14.3023 157.379 14.4483C159.95 15.0134 163.104 19.6717 164.606 21.9875C169.274 29.1787 169.222 36.5318 167.754 33.3243L167.756 33.3252Z" fill="#15376D"/>
<path d="M172.558 21.6065C172.488 22.0863 172.754 22.6069 172.315 22.7297C171.875 22.8525 171.783 22.2981 171.617 21.9937C169.249 17.6585 166.209 15.6346 164.731 13.2521C163.926 11.9554 164.906 10.4682 166.246 10.7432C167.849 11.0725 171.839 15.4406 172.558 21.6065Z" fill="#15376D"/>
<path d="M27.6622 28.3599C27.3231 30.3018 25.0955 32.5927 23.481 37.121C21.8639 41.6565 21.9297 41.4776 21.6663 41.8354C21.1243 42.5732 17.4388 43.3056 22.8856 33.4097C23.5487 32.2056 25.8742 28.3883 27.6622 28.3599Z" fill="#15376D"/>
<path d="M23.396 24.2401C23.0952 25.7815 21.697 25.9498 16.8216 34.265C15.677 36.2168 13.1841 33.4676 17.1277 28.9259C18.9309 26.8487 22.4214 23.9624 23.396 24.2401Z" fill="#15376D"/>
<path d="M31.1492 102.692C31.409 99.5528 31.6084 96.5552 31.7642 93.6992C31.6511 92.148 31.5853 90.5816 31.5675 89C32.0872 77.6935 31.4785 63.7926 32.3151 54.5784C33.7649 38.6073 32.8856 39.5169 37.7539 36.6173C41.9315 34.1298 47.5661 31.1296 53.829 28.1623C53.9839 27.8383 54.1441 27.5144 54.3105 27.1922C54.6202 26.5897 54.9424 26.0032 55.2771 25.4327C51.8906 27.0187 48.2959 28.7942 44.4894 30.7798C38.6768 33.8129 32.2643 36.8416 31.919 40.5217C30.6392 54.1708 30.0669 58.3022 30.0055 65.3189C29.9254 74.5349 29.4199 86.355 29.7955 93.7099C29.5828 93.7313 29.9833 97.4096 31.1474 102.693L31.1492 102.692Z" fill="#15376D"/>
<path d="M156.676 37.7351C156.507 32.6675 156.519 27.6283 152.525 25.09C149.302 23.0403 116.493 15.1585 99.1068 13.3349C98.1625 13.2361 97.2226 13.1071 96.3015 12.8863C95.4951 12.6923 93.3289 12.7279 89.7929 13.35C90.7523 13.8502 91.6957 14.4162 92.6062 15.0437C93.627 14.9253 94.6105 14.847 95.5512 14.8132C107.574 15.3062 138.682 22.6327 147.431 25.0135C148.387 25.2734 148.261 25.2769 148.356 26.0672C148.933 30.8278 149.163 53.6118 148.103 67.171C146.8 83.8434 144.637 109.709 117.527 137.649C106.18 149.344 85.1862 161.743 80.7033 163.023C78.7114 163.592 77.1157 162.751 73.1098 159.882C60.098 150.566 49.0869 139.205 41.6759 126.053C40.5625 125.746 39.6565 125.419 38.8804 125.082C39.2586 125.812 39.6493 126.53 40.0543 127.232C39.6458 127.282 46.2335 137.318 54.8363 146.734C64.4216 157.226 74.451 162.792 77.1726 164.644C80.365 166.815 84.8328 167.618 87.2955 167.185C93.9118 166.022 107.484 156.557 115.586 150.838C140.807 133.036 157.316 99.8082 156.394 64.0168C156.29 59.9896 156.947 45.9863 156.674 37.736L156.676 37.7351Z" fill="#15376D"/>
<path d="M70.7692 30.5199C74.581 29.0274 79.3185 27.3364 84.2135 26.0646C83.433 25.4896 82.5332 25.0544 81.4972 24.791C76.208 26.2666 71.7891 28.0048 69.9584 28.9419C69.6941 29.0407 69.4253 29.1395 69.152 29.2392C68.3804 30.066 67.664 30.9747 67.0054 31.9466C69.1173 31.1821 70.5467 30.6499 70.7692 30.5199Z" fill="#15376D"/>
<path d="M36.6894 52.5323C37.0454 52.2288 37.4566 51.9627 37.9159 51.725C38.0271 48.2229 38.1206 45.9578 38.1366 45.8573C38.4232 43.9936 38.9322 43.1481 42.3231 41.1981C43.2843 40.6454 46.5337 39.3807 50.512 37.906C50.6865 37.1424 50.8814 36.361 51.1003 35.5671C43.1953 38.5174 36.6022 41.612 36.5586 44.4662C36.5239 46.7045 36.3486 49.6246 36.1421 53.0591C36.3156 52.8705 36.4981 52.6942 36.6894 52.5314V52.5323Z" fill="#15376D"/>
<path d="M121.768 26.2808C116.516 24.4581 106.173 23.0056 102.243 22.5909C101.374 22.4307 100.463 22.3239 99.5174 22.2634C99.9046 22.914 100.254 23.5868 100.562 24.281C101.195 24.3575 101.811 24.4581 102.408 24.5872C119.566 26.0841 129.984 30.9266 131.385 31.0877C137.439 32.5811 138.989 36.8158 138.419 52.4477C138.396 53.0814 136.86 72.6685 136.702 74.3123C134.534 96.9664 130.813 103.324 125.384 110.88C116.875 122.726 109.746 134.299 83.5063 148.484C80.5088 150.105 78.3025 150.397 75.5871 149.833C75.1688 149.746 70.6387 147.536 68.8533 145.989C60.1687 138.466 54.9863 134.345 50.6457 128.25C50.4553 127.982 50.2666 127.71 50.0797 127.434C49.1105 127.343 48.2142 127.243 47.3848 127.137C49.5163 130.451 52.0083 133.521 54.9177 136.263C67.2994 147.933 72.9981 156.336 84.7131 149.872C97.441 142.849 110.552 133.744 119.308 122.141C136.016 99.9995 137.019 96.7039 139.772 56.7126C141.795 27.3301 138.833 32.202 121.768 26.2817V26.2808Z" fill="#15376D"/>
<path d="M34.6256 121.657C28.2131 118.572 32.9862 109.077 33.2078 81.5783C33.2425 77.2992 33.5603 66.2409 34.1343 62.1104C34.7698 57.5385 34.3577 55.7825 37.3152 53.2665C39.4173 51.4785 43.8406 51.0824 49.5482 50.0972C50.6776 49.9023 48.5301 15.0063 78.677 11.7222C79.9889 11.5789 87.1872 12.306 91.9701 15.745C96.7618 19.1902 98.5881 21.6021 100.09 25.6676C102.864 33.1819 102.743 46.3049 102.6 47.0045C102.511 47.4397 102.785 47.5064 103.124 47.542C106.225 47.8642 107.024 48.8281 108.561 49.9833C122.136 60.1827 116.153 54.9931 117.729 92.5814C117.918 97.0821 117.41 109.628 116.934 113.77C115.538 125.912 109.826 125.528 94.8821 126.261C39.5517 128.972 40.1107 124.294 34.6274 121.656L34.6256 121.657ZM105.06 83.0699C105.11 78.1838 105.696 68.9625 105.201 55.9294C105.112 53.594 103.409 49.7599 101.297 49.3434C96.178 48.335 68.9627 49.6424 64.0027 50.0465C58.4206 50.5013 54.2519 51.4821 51.3611 51.863C41.4118 53.1757 37.2769 53.3582 36.0629 57.9461C34.8757 62.4317 34.7146 76.8533 34.2945 96.6407C33.7249 123.447 25.5796 120.512 60.3831 119.878C64.6951 119.799 96.3168 119.054 102.953 117.088C106.425 116.059 104.901 98.5702 105.06 83.0699ZM104.858 49.9005C106.448 51.4011 107.099 53.2532 107.126 55.3767C107.202 61.5382 107.268 67.7005 107.068 73.8638C105.881 110.372 108.669 107.282 105.076 117.545C104.609 118.88 103.66 119.566 102.317 119.758C89.6783 121.57 51.1369 121.814 38.368 121.814C40.7648 123.013 43.3796 124.458 47.6436 124.502C57.4799 124.604 68.3424 125.938 93.6192 124.677C98.9984 124.41 111.924 124.186 113.99 119.287C116.611 113.075 115.072 86.6299 115.395 65.4203C115.466 60.7443 115.801 58.6617 114.455 57.3534C112.583 55.5351 106.506 50.2975 104.858 49.9005ZM100.976 47.4512C100.502 39.1662 100.822 31.3921 96.7547 22.9389C94.8109 18.8983 83.2605 9.37971 70.0618 15.4557C59.5385 20.3 54.3275 32.1575 53.5942 36.1429C53.5906 36.1625 50.9695 48.7996 51.5961 49.7207C51.9023 49.7768 51.6077 49.7715 59.4993 48.5682C60.0564 48.4836 59.6862 48.0707 59.7636 46.1251C59.9123 42.3871 61.16 35.9747 63.361 32.9727C65.0351 30.689 65.4303 27.8615 71.2989 23.9321C74.2947 21.926 79.2484 21.0307 83.7652 22.6274C86.6977 23.6642 90.3627 27.7084 91.3319 33.602C91.7832 36.344 92.4257 45.2663 92.4053 46.2257C92.3697 47.8437 92.3554 46.5799 100.978 47.4495L100.976 47.4512ZM61.0773 48.3297C65.5032 48.1312 65.8975 47.7022 80.1348 47.2795C90.6876 46.9662 90.6716 47.7538 90.6101 46.2008C90.126 33.9259 89.309 30.4149 86.5099 26.9278C84.3321 24.2151 80.7739 23.2228 77.7105 23.6215C72.1925 24.3397 69.5545 26.9528 66.5543 30.9106C62.2494 36.5906 60.7435 46.2417 61.0764 48.3306L61.0773 48.3297Z" fill="#15376D"/>
<path d="M61.0157 93.4705C61.1216 87.8813 61.4322 88.0086 60.7309 87.6054C55.5244 84.6159 54.6904 77.6846 59.1912 73.7944C64.921 68.8424 73.1579 71.5462 75.1791 77.4478C76.58 81.5365 74.4662 85.7132 71.2952 87.463C70.8092 87.7309 70.6615 88.0735 70.6748 88.6057C70.7603 91.9272 70.4443 95.238 70.3571 98.5551C70.309 100.383 69.7288 102.474 67.9007 102.505C61.0415 102.621 60.8394 102.788 61.0157 93.4705Z" fill="#15376D"/>
</svg>