<svg width="45" height="45" viewBox="0 0 45 45" fill="none" xmlns="http://www.w3.org/2000/svg">
<g clip-path="url(#clip0_558_9144)">
<rect width="45" height="45" rx="22.5" fill="#F2F7F8"/>
<path d="M46.205 27.1881C43.3382 27.3064 41.7834 28.2722 37.0699 30.8977C36.2693 31.3438 35.2605 30.9033 33.7049 30.1659C32.4262 29.5597 31.6874 29.204 30.4893 28.5543C29.8729 28.2201 28.9501 28.219 27.9541 29.4349C27.2547 30.2892 26.8041 31.3196 26.6518 32.4131C26.4596 33.4646 26.8747 34.2609 27.7139 34.8523C29.8903 36.3861 32.754 37.7041 35.1206 38.0062C36.6024 38.1952 38.5296 38.0154 39.9458 37.2312C44.4073 34.7606 44.459 34.096 46.357 33.5838C47.6499 33.2348 49.2316 34.2258 50.6905 34.6213C51.9221 34.9551 52.9338 34.9615 53.6673 34.2749C54.8383 33.1786 54.1822 31.2811 52.9903 29.8839C51.4334 28.0589 49.0559 27.0705 46.205 27.1881Z" fill="#9CA3AF"/>
<path d="M35.7162 30.171C35.3123 29.8881 34.8447 29.7094 34.3551 29.6506C33.688 29.5705 33.1075 30.1261 32.5204 30.9983C31.5864 32.386 31.565 33.1867 31.5864 34.4942C31.6074 35.7761 32.2017 37.3698 32.5471 37.7767C32.8161 38.0935 33.2274 38.4314 34.9064 38.7668C36.4768 39.0806 37.608 39.2059 39.7288 38.2929C41.6919 37.4478 42.3211 36.8482 42.4219 36.2692L42.4753 35.7453C42.4753 35.7453 41.0355 36.6976 40.4514 36.0042C39.8674 35.3109 39.2109 32.9158 39.2394 31.1683C39.2631 29.7187 40.6331 28.9325 40.6331 28.9325C40.6331 28.9325 40.4431 27.9545 39.7007 28.1872C38.2956 28.6812 36.9572 29.3476 35.7162 30.171Z" fill="#515661"/>
<path d="M35.5578 34.3605C35.5172 34.3786 35.4732 34.3878 35.4288 34.3876C35.3689 34.3872 35.3103 34.3698 35.2598 34.3374C35.2094 34.305 35.1692 34.2589 35.144 34.2046C34.2853 32.3165 34.5285 31.1022 35.1689 29.8691C35.3622 29.9474 35.5457 30.0479 35.7158 30.1686C35.1336 31.2893 34.9527 32.2812 35.7117 33.9467C35.746 34.022 35.7491 34.1079 35.7203 34.1854C35.6914 34.263 35.633 34.326 35.5578 34.3605Z" fill="#EB459F"/>
<path d="M35.5578 34.3605C35.5172 34.3786 35.4732 34.3878 35.4288 34.3876C35.3689 34.3872 35.3103 34.3698 35.2598 34.3374C35.2094 34.305 35.1692 34.2589 35.144 34.2046C34.2853 32.3165 34.5285 31.1022 35.1689 29.8691C35.3622 29.9474 35.5457 30.0479 35.7158 30.1686C35.1336 31.2893 34.9527 32.2812 35.7117 33.9467C35.746 34.022 35.7491 34.1079 35.7203 34.1854C35.6914 34.263 35.633 34.326 35.5578 34.3605Z" fill="#111827"/>
<path d="M20.8283 9.49733C20.9723 9.08711 21.5309 8.07853 21.8303 8.01031C22.0229 7.96647 22.4061 8.061 22.2394 8.32101C22.0591 8.60209 21.3935 9.27826 21.1173 9.60327C21.0053 9.7352 20.7829 9.62647 20.8283 9.49733Z" fill="black"/>
<path d="M14.8335 14.7481C14.443 14.0656 14.4049 13.9609 14.3414 13.9037C14.226 13.7998 13.9002 13.5894 13.405 13.1387C12.9372 12.7129 12.749 12.1931 13.5383 11.5134C15.3668 9.93891 19.8885 8.87995 21.4235 9.31673C22.9853 9.76114 26.02 12.2245 26.9723 13.9894C27.514 14.9934 26.7437 15.7544 25.2327 16.0845C24.9719 16.1415 24.7883 16.2877 24.2296 16.6432L14.8335 14.7481Z" fill="#15376D"/>
<path d="M19.15 14.121C19.0913 14.121 19.034 14.1036 18.9852 14.071C16.6094 12.483 16.3074 12.3956 14.3671 12.7348C14.2899 12.7476 14.2107 12.7295 14.1468 12.6842C14.0829 12.639 14.0394 12.5703 14.0259 12.4932C14.0124 12.4161 14.0299 12.3367 14.0747 12.2724C14.1194 12.2082 14.1877 12.1642 14.2647 12.1501C16.3808 11.7796 16.8053 11.8996 19.3153 13.5776C19.3682 13.613 19.4084 13.6645 19.4298 13.7244C19.4512 13.7844 19.4528 13.8497 19.4343 13.9106C19.4158 13.9716 19.3781 14.0249 19.327 14.0628C19.2758 14.1007 19.2138 14.1212 19.1501 14.1211L19.15 14.121Z" fill="black"/>
<path d="M24.8881 17.8843C24.565 15.5838 23.3682 14.3675 19.7132 13.5663C15.2403 12.5858 13.1895 15.5896 13.0926 18.515C12.9922 21.5411 14.4998 23.0738 18.7769 23.0353C18.9782 23.0335 19.1788 23.0301 19.3789 23.0251C20.1527 25.6302 21.3602 28.086 22.9508 30.2894C24.6032 32.5723 26.8322 34.3755 29.41 35.5146L30.4428 28.492C27.0912 26.0375 25.5328 21.1503 24.8881 17.8843Z" fill="#9CA3AF"/>
<path d="M20.6609 17.3068C20.6609 18.5263 19.1581 18.426 17.9386 18.426C16.7192 18.426 15.7305 18.5263 15.7305 17.3068C15.7305 16.7211 15.9631 16.1595 16.3772 15.7454C16.7913 15.3313 17.353 15.0986 17.9386 15.0986C19.1581 15.0986 20.6609 16.0873 20.6609 17.3068Z" fill="white"/>
<path d="M16.9254 17.6702C17.4851 17.6702 17.9388 17.2165 17.9388 16.6569C17.9388 16.0972 17.4851 15.6436 16.9254 15.6436C16.3658 15.6436 15.9121 16.0972 15.9121 16.6569C15.9121 17.2165 16.3658 17.6702 16.9254 17.6702Z" fill="black"/>
<path d="M22.7837 19.871C22.7837 20.5171 20.8597 21.2659 18.4862 21.2659C16.1127 21.2659 14.6074 20.5171 14.6074 19.871C14.6074 19.225 16.1127 19.4642 18.4862 19.4642C20.8597 19.4642 22.7837 19.2251 22.7837 19.871Z" fill="black"/>
<path d="M16.2324 20.9984C16.9693 21.1843 17.7272 21.2741 18.4871 21.2656C20.4122 21.2656 22.0414 20.773 22.5884 20.2422H20.7357C18.7335 20.2422 17.0105 20.5525 16.2324 20.9984Z" fill="#15376D"/>
<path d="M21.6912 22.4639C20.9471 22.7424 20.1761 22.9429 19.3906 23.0619C19.4516 23.2567 19.5172 23.4459 19.5812 23.637C20.3795 23.5106 21.1625 23.3013 21.9175 23.0127C21.9903 22.9827 22.0481 22.925 22.0784 22.8523C22.1086 22.7796 22.1088 22.6979 22.0788 22.6251C22.0488 22.5523 21.9911 22.4944 21.9184 22.4642C21.8457 22.4339 21.764 22.4338 21.6912 22.4638V22.4639Z" fill="#111827"/>
<path d="M29.1684 25.0996C27.5114 23.0045 27.264 23.0604 26.0484 23.6162C24.2707 24.4288 21.5789 26.0033 20.9186 26.5112C20.2583 27.0191 19.8167 27.5375 20.0453 28.2041C20.6026 29.6812 21.2449 31.1248 21.969 32.5276C22.3499 33.1371 22.6165 33.0609 23.0546 32.9657C23.4927 32.8705 23.9688 32.7181 23.9688 32.7181C23.9688 32.7181 26.102 34.8132 28.7368 35.9686L29.1684 25.0996Z" fill="#15376D"/>
<path d="M23.1254 31.8528C23.0728 31.8528 23.0211 31.8389 22.9756 31.8124C22.9301 31.7858 22.8925 31.7477 22.8666 31.7019C22.2327 30.5846 21.6783 29.4241 21.2076 28.2289C21.1806 28.1554 21.1838 28.0742 21.2165 28.003C21.2492 27.9319 21.3087 27.8765 21.382 27.849C21.4553 27.8215 21.5365 27.8241 21.6079 27.8562C21.6794 27.8883 21.7352 27.9473 21.7633 28.0204C22.225 29.1862 22.7664 30.3188 23.3837 31.4101C23.4092 31.4552 23.4224 31.5063 23.4221 31.5581C23.4217 31.6099 23.4077 31.6608 23.3816 31.7056C23.3555 31.7503 23.3181 31.7875 23.2731 31.8133C23.2282 31.8391 23.1772 31.8527 23.1254 31.8527V31.8528Z" fill="black"/>
<path d="M22.0266 15.5771C23.2455 16.4913 23.9485 16.723 24.2359 16.6437C24.4978 16.5463 24.7282 16.3795 24.9026 16.1612L22.9852 13.4694L18.084 12.7393C18.084 12.7393 20.579 14.4915 22.0266 15.5771Z" fill="#15376D"/>
<path d="M24.3545 31.2142C24.3018 31.2143 24.2501 31.2003 24.2046 31.1738C24.1592 31.1473 24.1216 31.1091 24.0957 31.0633C23.4618 29.9461 22.9075 28.7855 22.4368 27.5903C22.4092 27.5166 22.412 27.435 22.4446 27.3634C22.4772 27.2917 22.5369 27.236 22.6106 27.2083C22.6843 27.1807 22.7659 27.1835 22.8375 27.2161C22.9092 27.2486 22.9649 27.3083 22.9926 27.382C23.4542 28.5477 23.9955 29.6802 24.6128 30.7715C24.6383 30.8167 24.6515 30.8677 24.6511 30.9195C24.6508 30.9714 24.6368 31.0222 24.6107 31.067C24.5846 31.1117 24.5472 31.1489 24.5022 31.1747C24.4572 31.2005 24.4063 31.2141 24.3545 31.2142V31.2142Z" fill="black"/>
</g>
<defs>
<clipPath id="clip0_558_9144">
<rect width="45" height="45" rx="22.5" fill="white"/>
</clipPath>
</defs>
</svg>