<?xml version="1.0" encoding="utf-8"?>
<!-- Generator: Adobe Illustrator 25.3.1, SVG Export Plug-In . SVG Version: 6.00 Build 0)  -->
<svg version="1.1" id="Layer_1" xmlns="http://www.w3.org/2000/svg" xmlns:xlink="http://www.w3.org/1999/xlink" x="0px" y="0px"
	 viewBox="0 0 400 225" style="enable-background:new 0 0 400 225;" xml:space="preserve">
<style type="text/css">
	.st0{fill:#94E4EA;}
	.st1{opacity:0.38;}
	.st2{fill:#FFFFFF;}
	.st3{fill:#017C6B;}
	.st4{opacity:0.1;}
	.st5{fill:#5CC55E;}
	.st6{fill:#47AC49;}
	.st7{fill:#3C943B;}
	.st8{fill:#8FBAF7;}
	.st9{fill:#2A4C78;}
	.st10{fill:#1D0EE0;}
	.st11{clip-path:url(#SVGID_4_);fill:#F9FDFE;}
	.st12{clip-path:url(#SVGID_4_);fill:#F8FDFE;}
	.st13{clip-path:url(#SVGID_4_);fill:#F7FCFE;}
	.st14{clip-path:url(#SVGID_4_);fill:#F6FCFE;}
	.st15{clip-path:url(#SVGID_4_);fill:#F5FCFE;}
	.st16{clip-path:url(#SVGID_4_);fill:#F4FCFE;}
	.st17{clip-path:url(#SVGID_4_);fill:#F3FBFE;}
	.st18{clip-path:url(#SVGID_4_);fill:#F2FBFD;}
	.st19{clip-path:url(#SVGID_4_);fill:#F1FBFD;}
	.st20{clip-path:url(#SVGID_4_);fill:#F0FBFD;}
	.st21{clip-path:url(#SVGID_4_);fill:#EFFAFD;}
	.st22{clip-path:url(#SVGID_4_);fill:#EEFAFD;}
	.st23{clip-path:url(#SVGID_4_);fill:#EDFAFD;}
	.st24{clip-path:url(#SVGID_4_);fill:#ECFAFD;}
	.st25{clip-path:url(#SVGID_4_);fill:#EBF9FD;}
	.st26{clip-path:url(#SVGID_4_);fill:#EAF9FD;}
	.st27{clip-path:url(#SVGID_4_);fill:#E9F9FD;}
	.st28{clip-path:url(#SVGID_4_);fill:#E8F9FD;}
	.st29{clip-path:url(#SVGID_4_);fill:#E7F8FD;}
	.st30{clip-path:url(#SVGID_4_);fill:#E6F8FD;}
	.st31{clip-path:url(#SVGID_4_);fill:#E5F8FC;}
	.st32{clip-path:url(#SVGID_4_);fill:#E4F8FC;}
	.st33{clip-path:url(#SVGID_4_);fill:#E3F7FC;}
	.st34{clip-path:url(#SVGID_4_);fill:#E2F7FC;}
	.st35{clip-path:url(#SVGID_4_);fill:#E1F7FC;}
	.st36{clip-path:url(#SVGID_4_);fill:#E0F7FC;}
	.st37{clip-path:url(#SVGID_4_);fill:#DFF6FC;}
	.st38{clip-path:url(#SVGID_4_);fill:#DEF6FC;}
	.st39{clip-path:url(#SVGID_4_);fill:#DDF6FC;}
	.st40{clip-path:url(#SVGID_4_);fill:#DCF5FC;}
	.st41{clip-path:url(#SVGID_4_);fill:#DBF5FC;}
	.st42{clip-path:url(#SVGID_4_);fill:#DAF5FC;}
	.st43{clip-path:url(#SVGID_4_);fill:#D9F5FC;}
	.st44{clip-path:url(#SVGID_4_);fill:#D8F4FB;}
	.st45{clip-path:url(#SVGID_4_);fill:#D7F4FB;}
	.st46{clip-path:url(#SVGID_4_);fill:#D6F4FB;}
	.st47{clip-path:url(#SVGID_4_);fill:#D5F4FB;}
	.st48{clip-path:url(#SVGID_4_);fill:#D4F3FB;}
	.st49{clip-path:url(#SVGID_4_);fill:#D3F3FB;}
	.st50{clip-path:url(#SVGID_4_);fill:#D1F3FB;}
	.st51{clip-path:url(#SVGID_4_);fill:#D0F3FB;}
	.st52{clip-path:url(#SVGID_4_);fill:#CFF2FB;}
	.st53{clip-path:url(#SVGID_4_);fill:#CEF2FB;}
	.st54{clip-path:url(#SVGID_4_);fill:#CDF2FB;}
	.st55{clip-path:url(#SVGID_4_);fill:#CCF2FB;}
	.st56{clip-path:url(#SVGID_4_);fill:#CBF1FA;}
	.st57{clip-path:url(#SVGID_4_);fill:#CAF1FA;}
	.st58{clip-path:url(#SVGID_4_);fill:#C9F1FA;}
	.st59{clip-path:url(#SVGID_4_);fill:#C8F1FA;}
	.st60{clip-path:url(#SVGID_4_);fill:#C7F0FA;}
	.st61{clip-path:url(#SVGID_4_);fill:#C6F0FA;}
	.st62{clip-path:url(#SVGID_4_);fill:#C5F0FA;}
	.st63{clip-path:url(#SVGID_4_);fill:#C4EFFA;}
	.st64{clip-path:url(#SVGID_4_);fill:#C3EFFA;}
	.st65{clip-path:url(#SVGID_4_);fill:#C2EFFA;}
	.st66{clip-path:url(#SVGID_4_);fill:#C1EFFA;}
	.st67{clip-path:url(#SVGID_4_);fill:#C0EEFA;}
	.st68{clip-path:url(#SVGID_4_);fill:#BFEEFA;}
	.st69{clip-path:url(#SVGID_4_);fill:#BEEEF9;}
	.st70{clip-path:url(#SVGID_4_);fill:#BDEEF9;}
	.st71{clip-path:url(#SVGID_4_);fill:#BCEDF9;}
	.st72{clip-path:url(#SVGID_4_);fill:#BBEDF9;}
	.st73{clip-path:url(#SVGID_4_);fill:#BAEDF9;}
	.st74{clip-path:url(#SVGID_4_);fill:#B9EDF9;}
	.st75{clip-path:url(#SVGID_4_);fill:#B8ECF9;}
	.st76{clip-path:url(#SVGID_4_);fill:#B7ECF9;}
	.st77{clip-path:url(#SVGID_4_);fill:#B6ECF9;}
	.st78{clip-path:url(#SVGID_4_);fill:#B5ECF9;}
	.st79{clip-path:url(#SVGID_4_);fill:#B4EBF9;}
	.st80{clip-path:url(#SVGID_4_);fill:#B3EBF9;}
	.st81{clip-path:url(#SVGID_4_);fill:#B2EBF9;}
	.st82{clip-path:url(#SVGID_4_);fill:#B1EBF8;}
	.st83{clip-path:url(#SVGID_4_);fill:#B0EAF8;}
	.st84{clip-path:url(#SVGID_4_);fill:#AFEAF8;}
	.st85{clip-path:url(#SVGID_4_);fill:#AEEAF8;}
	.st86{clip-path:url(#SVGID_4_);fill:#ADEAF8;}
	.st87{clip-path:url(#SVGID_4_);fill:#ACE9F8;}
	.st88{clip-path:url(#SVGID_4_);fill:#ABE9F8;}
	.st89{fill:#FFDF50;}
	.st90{fill:#A8EDEA;}
	.st91{fill:#FCD995;}
	.st92{fill:#37352B;}
	.st93{fill:#40AE80;}
	.st94{fill:#FB4143;}
	.st95{fill:#FFE13C;}
</style>
<g>
	<g>
		<defs>
			<rect id="SVGID_1_" width="400" height="225"/>
		</defs>
		<clipPath id="SVGID_2_">
			<use xlink:href="#SVGID_1_"  style="overflow:visible;"/>
		</clipPath>
	</g>
</g>
<g>
	<g>
		<g>
			<rect x="255.2" y="57.8" class="st0" width="82.1" height="111.8"/>
		</g>
		<g class="st1">
			<circle class="st2" cx="299" cy="98.4" r="29.7"/>
		</g>
		<g>
			<circle class="st2" cx="299.2" cy="98" r="20.3"/>
		</g>
		<g>
			<polygon class="st3" points="327.3,131.7 299.4,112.7 273.3,129.1 255.3,114.8 255.5,149 337.3,142.1 337.3,122.3 			"/>
		</g>
		<g class="st4">
			<g>
				<polygon points="315.3,142.3 327.5,131.5 324.5,129.8 309.6,142.3 				"/>
			</g>
		</g>
		<g class="st4">
			<g>
				<polygon points="255.4,137.2 255.3,140.6 273.3,129 271.5,127.6 				"/>
			</g>
		</g>
		<g>
			<path class="st5" d="M268.6,144c0,0,13.8-6,33.5-6.5c16.4-0.4,30.6,6.5,30.6,6.5l-39.2,11.4L268.6,144z"/>
		</g>
		<g>
			<path class="st6" d="M324.8,142.6c0,0-20.1,9.1-41,5.9c-8-1.2-22.2-15.1-28.4-12v33.1l74.1-0.7L324.8,142.6z"/>
		</g>
		<g>
			<path class="st7" d="M337.3,169.6l0.1-29.5c0,0-17.3-0.3-25.4,7c-14.1,12.7-56.3,22.6-56.3,22.6L337.3,169.6z"/>
		</g>
	</g>
	<g>
		<g>
			<rect x="62.7" y="57.5" class="st8" width="82.1" height="111.8"/>
		</g>
		<g>
			<g>
				<path class="st2" d="M104.2,65.8c-5.8,1-11.2,4.2-14.7,9.4c-7,10.2-4.4,24.1,5.7,31.1c10.2,7,24.1,4.4,31.1-5.7
					c0.2-0.3,0.4-0.7,0.6-1c-5.5,0.9-11.4-0.2-16.4-3.6C100.7,89.1,98,75.8,104.2,65.8z"/>
			</g>
		</g>
		<g>
			<polygon class="st9" points="144.8,169.2 144.8,137.3 134.7,147.4 106.9,122.1 80.8,147.2 62.9,125.5 62.9,169.2 			"/>
		</g>
		<g class="st4">
			<g>
				<polygon points="114.2,169.2 135,147.6 132,145 108.3,169.2 				"/>
			</g>
		</g>
		<g class="st4">
			<g>
				<polygon points="62.8,159.5 62.7,165 80.8,147.1 78.6,144.6 				"/>
			</g>
		</g>
	</g>
	<g>
		<g>
			<rect x="146.5" y="43.3" class="st2" width="107.1" height="140.6"/>
		</g>
		<g>
			<path class="st10" d="M255.6,185.9H144.5V41.3h111.1V185.9z M148.5,181.9h103.1V45.3H148.5V181.9z"/>
		</g>
	</g>
	<g>
		<g>
			<defs>
				<rect id="SVGID_3_" x="159.2" y="57.5" width="82.1" height="111.8"/>
			</defs>
			<clipPath id="SVGID_4_">
				<use xlink:href="#SVGID_3_"  style="overflow:visible;"/>
			</clipPath>
			<rect x="159.2" y="132.7" class="st11" width="82.1" height="36.7"/>
			<rect x="159.2" y="131.8" class="st11" width="82.1" height="0.9"/>
			<rect x="159.2" y="131" class="st12" width="82.1" height="0.9"/>
			<rect x="159.2" y="130.1" class="st13" width="82.1" height="0.9"/>
			<rect x="159.2" y="129.2" class="st14" width="82.1" height="0.9"/>
			<rect x="159.2" y="128.4" class="st15" width="82.1" height="0.9"/>
			<rect x="159.2" y="127.5" class="st16" width="82.1" height="0.9"/>
			<rect x="159.2" y="126.7" class="st17" width="82.1" height="0.9"/>
			<rect x="159.2" y="125.8" class="st18" width="82.1" height="0.9"/>
			<rect x="159.2" y="124.9" class="st19" width="82.1" height="0.9"/>
			<rect x="159.2" y="124.1" class="st20" width="82.1" height="0.9"/>
			<rect x="159.2" y="123.2" class="st21" width="82.1" height="0.9"/>
			<rect x="159.2" y="122.4" class="st22" width="82.1" height="0.9"/>
			<rect x="159.2" y="121.5" class="st23" width="82.1" height="0.9"/>
			<rect x="159.2" y="120.6" class="st24" width="82.1" height="0.9"/>
			<rect x="159.2" y="119.8" class="st25" width="82.1" height="0.9"/>
			<rect x="159.2" y="118.9" class="st26" width="82.1" height="0.9"/>
			<rect x="159.2" y="118.1" class="st27" width="82.1" height="0.9"/>
			<rect x="159.2" y="117.2" class="st28" width="82.1" height="0.9"/>
			<rect x="159.2" y="116.3" class="st29" width="82.1" height="0.9"/>
			<rect x="159.2" y="115.5" class="st30" width="82.1" height="0.9"/>
			<rect x="159.2" y="114.6" class="st31" width="82.1" height="0.9"/>
			<rect x="159.2" y="113.8" class="st32" width="82.1" height="0.9"/>
			<rect x="159.2" y="112.9" class="st33" width="82.1" height="0.9"/>
			<rect x="159.2" y="112.1" class="st34" width="82.1" height="0.9"/>
			<rect x="159.2" y="111.2" class="st35" width="82.1" height="0.9"/>
			<rect x="159.2" y="110.3" class="st36" width="82.1" height="0.9"/>
			<rect x="159.2" y="109.5" class="st37" width="82.1" height="0.9"/>
			<rect x="159.2" y="108.6" class="st38" width="82.1" height="0.9"/>
			<rect x="159.2" y="107.8" class="st39" width="82.1" height="0.9"/>
			<rect x="159.2" y="106.9" class="st40" width="82.1" height="0.9"/>
			<rect x="159.2" y="106" class="st41" width="82.1" height="0.9"/>
			<rect x="159.2" y="105.2" class="st42" width="82.1" height="0.9"/>
			<rect x="159.2" y="104.3" class="st43" width="82.1" height="0.9"/>
			<rect x="159.2" y="103.5" class="st44" width="82.1" height="0.9"/>
			<rect x="159.2" y="102.6" class="st45" width="82.1" height="0.9"/>
			<rect x="159.2" y="101.7" class="st46" width="82.1" height="0.9"/>
			<rect x="159.2" y="100.9" class="st47" width="82.1" height="0.9"/>
			<rect x="159.2" y="100" class="st48" width="82.1" height="0.9"/>
			<rect x="159.2" y="99.2" class="st49" width="82.1" height="0.9"/>
			<rect x="159.2" y="98.3" class="st50" width="82.1" height="0.9"/>
			<rect x="159.2" y="97.4" class="st51" width="82.1" height="0.9"/>
			<rect x="159.2" y="96.6" class="st52" width="82.1" height="0.9"/>
			<rect x="159.2" y="95.7" class="st53" width="82.1" height="0.9"/>
			<rect x="159.2" y="94.9" class="st54" width="82.1" height="0.9"/>
			<rect x="159.2" y="94" class="st55" width="82.1" height="0.9"/>
			<rect x="159.2" y="93.1" class="st56" width="82.1" height="0.9"/>
			<rect x="159.2" y="92.3" class="st57" width="82.1" height="0.9"/>
			<rect x="159.2" y="91.4" class="st58" width="82.1" height="0.9"/>
			<rect x="159.2" y="90.6" class="st59" width="82.1" height="0.9"/>
			<rect x="159.2" y="89.7" class="st60" width="82.1" height="0.9"/>
			<rect x="159.2" y="88.9" class="st61" width="82.1" height="0.9"/>
			<rect x="159.2" y="88" class="st62" width="82.1" height="0.9"/>
			<rect x="159.2" y="87.1" class="st63" width="82.1" height="0.9"/>
			<rect x="159.2" y="86.3" class="st64" width="82.1" height="0.9"/>
			<rect x="159.2" y="85.4" class="st65" width="82.1" height="0.9"/>
			<rect x="159.2" y="84.6" class="st66" width="82.1" height="0.9"/>
			<rect x="159.2" y="83.7" class="st67" width="82.1" height="0.9"/>
			<rect x="159.2" y="82.8" class="st68" width="82.1" height="0.9"/>
			<rect x="159.2" y="82" class="st69" width="82.1" height="0.9"/>
			<rect x="159.2" y="81.1" class="st70" width="82.1" height="0.9"/>
			<rect x="159.2" y="80.3" class="st71" width="82.1" height="0.9"/>
			<rect x="159.2" y="79.4" class="st72" width="82.1" height="0.9"/>
			<rect x="159.2" y="78.5" class="st73" width="82.1" height="0.9"/>
			<rect x="159.2" y="77.7" class="st74" width="82.1" height="0.9"/>
			<rect x="159.2" y="76.8" class="st75" width="82.1" height="0.9"/>
			<rect x="159.2" y="76" class="st76" width="82.1" height="0.9"/>
			<rect x="159.2" y="75.1" class="st77" width="82.1" height="0.9"/>
			<rect x="159.2" y="74.2" class="st78" width="82.1" height="0.9"/>
			<rect x="159.2" y="73.4" class="st79" width="82.1" height="0.9"/>
			<rect x="159.2" y="72.5" class="st80" width="82.1" height="0.9"/>
			<rect x="159.2" y="71.7" class="st81" width="82.1" height="0.9"/>
			<rect x="159.2" y="70.8" class="st82" width="82.1" height="0.9"/>
			<rect x="159.2" y="69.9" class="st83" width="82.1" height="0.9"/>
			<rect x="159.2" y="69.1" class="st84" width="82.1" height="0.9"/>
			<rect x="159.2" y="68.2" class="st85" width="82.1" height="0.9"/>
			<rect x="159.2" y="67.4" class="st86" width="82.1" height="0.9"/>
			<rect x="159.2" y="66.5" class="st87" width="82.1" height="0.9"/>
			<rect x="159.2" y="65.7" class="st88" width="82.1" height="0.9"/>
			<rect x="159.2" y="57.5" class="st88" width="82.1" height="8.1"/>
		</g>
	</g>
	<g>
		<path class="st89" d="M173.9,57.9c3.2,10.9,13.3,18.8,25.2,18.8c11.9,0,22-7.9,25.2-18.8H173.9z"/>
	</g>
	<g>
		<rect x="159.4" y="125.1" class="st90" width="81.8" height="37.3"/>
	</g>
	<g>
		<path class="st91" d="M238.1,147.1L238.1,147.1c-3.1-2.9-7.6-3.4-11.2-1.3l-1.4,0.8c-2.9,1.7-6.3,1.8-9.2,0.1l-4.4-2.5
			c-3.2-1.8-7.1-1.5-10.1,0.7l-2.5,1.9c-3.4,2.6-8,2.5-11.4-0.2l-5.7-4.6c-2.7-2.2-6.3-2.7-9.4-1.3l-13.4,6.8v21.7h82v-14.4
			C241.4,151.9,240.2,149.1,238.1,147.1z"/>
	</g>
	<g>
		<g>
			<polygon class="st92" points="213.9,99.7 194.1,154.9 196,155.7 215.6,100.4 			"/>
		</g>
		<g>
			<g>
				<path class="st93" d="M221.9,133c3.9-2.3,8.2-3.7,12.8-4.3c-1.3-6.3-4.4-12.4-9.4-17.4c-3.7-3.7-7.9-6.3-12.5-8
					c0.3,0.2,0.5,0.5,0.8,0.7C221.4,112,224.2,123,221.9,133z"/>
			</g>
			<g>
				<path class="st94" d="M211.6,102.9c-11.2-3.7-23.8-1.3-32.5,7.4c-0.2,0.2-0.4,0.4-0.6,0.6c2.9,2,5.7,4.2,8.3,6.8
					c2.6,2.6,4.8,5.3,6.8,8.2c0.1,0,0.1,0,0.2,0c1-6.1,3.8-12,8.5-16.7C205.1,106.5,208.3,104.4,211.6,102.9z"/>
			</g>
			<g>
				<path class="st95" d="M202.3,109.3c-4.7,4.7-7.5,10.5-8.5,16.7c9-0.7,18.8,1.8,27.6,7.3c0.1-0.1,0.3-0.2,0.4-0.3
					c2.3-10-0.5-21.1-8.3-28.9c-0.3-0.3-0.5-0.5-0.8-0.7c-0.4-0.1-0.8-0.3-1.1-0.4C208.3,104.4,205.1,106.5,202.3,109.3z"/>
			</g>
		</g>
	</g>
	<g id="_Group_">
		<g>
			<path class="st2" d="M238.4,177.2c0,4.6,0,9.1,0,13.7c0,3.5-0.9,6.9-2.6,9.9c-1,1.8-2.5,3.4-4.2,4.6c-1.7,1.2-3.7,1.8-5.7,1.8
				c-1.6,0-3.3,0-4.9,0c-2.3-0.2-4.5-1.1-6.3-2.7c-2-1.8-3.5-4.1-4.4-6.6c-0.1-0.3-0.3-0.5-0.4-0.8c-1.2-1.4-2.3-2.7-3.5-4.1
				c-1.7-1.8-3.7-3.2-5.9-4.2c-1.1-0.5-1.9-1.5-2-2.7c-0.2-1.4,0.5-2.4,1.7-3.1c1.2-0.7,2.7-0.9,4.1-0.8c1.6,0.1,3.3,0.6,4.7,1.4
				l0.2,0.1c0-0.5-0.1-1-0.1-1.4c0-7,0-15.5,0-22.5c0-2.4,2-4.3,4.3-4.3c0.2,0,0.5,0,0.7,0.1c2.2,0.3,3.8,2.2,3.6,4.4
				c0,1.8,0,5.3,0,7.2c0,0.6,0,1.2,0,1.9c2-1.4,4.7-1,6.2,1c0.3,0.4,0.5,0.9,0.7,1.4c1.2-0.9,2.7-1.2,4.2-0.7
				c1.4,0.5,2.5,1.7,2.8,3.2l0.3-0.2c2-1.3,4.8-0.7,6.1,1.3c0,0,0,0,0,0.1C238.2,175.8,238.4,176.5,238.4,177.2z"/>
			<path d="M223.2,209.2c-0.8,0-1.7,0-2.5-0.1c-2.8-0.2-5.5-1.3-7.5-3.2c-2.2-2-4-4.5-5-7.4c0,0-0.1-0.1-0.1-0.2l-0.6-0.8
				c-0.9-1.1-1.8-2.2-2.8-3.2c-1.5-1.6-3.3-2.9-5.3-3.8c-1.7-0.7-3-2.4-3.2-4.3c-0.3-2.1,0.7-3.8,2.7-5c1.7-0.9,3.5-1.2,5.3-1.1
				c0.9,0,1.8,0.2,2.7,0.4v-20.8c0-1.7,0.7-3.3,1.9-4.5s2.8-1.8,4.5-1.8c0.4,0,0.7,0,1.1,0.1c3.1,0.4,5.4,3.2,5.3,6.4v6.2
				c0.5,0,1.1,0,1.6,0.1c1.6,0.3,3.1,1.2,4.1,2.5c1.3-0.4,2.6-0.3,3.9,0.1c1.3,0.4,2.4,1.3,3.2,2.4c1-0.3,2-0.3,3-0.1
				c1.7,0.4,3.1,1.3,4,2.8l0.1,0.1c0.6,0.9,0.8,2,0.8,3v13.7c0,3.8-1,7.6-2.9,10.9c-1.2,2.1-2.9,3.9-4.9,5.2c-2,1.4-4.4,2.1-6.8,2.1
				l-1.3,0C224.1,209.2,223.7,209.2,223.2,209.2z M203.4,184.2c-0.9,0-1.7,0.2-2.5,0.6c-0.7,0.4-0.7,0.8-0.7,1.1
				c0.1,0.5,0.4,0.9,0.8,1.1c2.5,1.2,4.7,2.7,6.6,4.7c1,1.1,2,2.3,2.9,3.4l0.6,0.8c0.3,0.4,0.6,0.9,0.8,1.4c0.8,2.2,2.1,4.2,3.9,5.8
				c1.4,1.3,3.2,2.1,5.1,2.2c1.1,0.1,2.3,0.1,3.5,0l1.3,0c1.6,0,3.2-0.5,4.6-1.4c1.5-1,2.7-2.4,3.6-3.9c1.6-2.7,2.4-5.8,2.4-8.9
				v-13.7c0-0.3-0.1-0.7-0.3-1c-0.3-0.5-0.9-0.9-1.5-1s-1.3,0-1.8,0.3l-2.8,1.8l-0.5-2.9c-0.1-0.8-0.7-1.4-1.4-1.7
				c-0.8-0.3-1.7-0.2-2.3,0.3l-2.4,1.8l-0.8-2.9c-0.1-0.3-0.2-0.5-0.4-0.8c-0.4-0.5-0.9-0.9-1.6-1c-0.6-0.1-1.3,0-1.8,0.4l-3.2,2.3
				l0-13.1c0.1-1.1-0.8-2.2-1.9-2.3c-0.2,0-0.4,0-0.5,0c-0.6,0-1.2,0.2-1.6,0.7c-0.4,0.4-0.7,1-0.7,1.6v22.5c0,0.2,0,0.3,0,0.5
				c0,0.3,0,0.6,0,0.9v3.2l-3.3-1.6c-1.1-0.7-2.4-1.1-3.7-1.1C203.8,184.2,203.6,184.2,203.4,184.2z"/>
		</g>
	</g>
</g>
</svg>
